<?xml version="1.0" encoding="utf-8" standalone="no"?>
<!DOCTYPE svg PUBLIC "-//W3C//DTD SVG 1.1//EN"
  "http://www.w3.org/Graphics/SVG/1.1/DTD/svg11.dtd">
<svg xmlns:xlink="http://www.w3.org/1999/xlink" width="784.545281pt" height="283.4865pt" viewBox="0 0 784.545281 283.4865" xmlns="http://www.w3.org/2000/svg" version="1.1">
 <metadata>
  <rdf:RDF xmlns:dc="http://purl.org/dc/elements/1.1/" xmlns:cc="http://creativecommons.org/ns#" xmlns:rdf="http://www.w3.org/1999/02/22-rdf-syntax-ns#">
   <cc:Work>
    <dc:type rdf:resource="http://purl.org/dc/dcmitype/StillImage"/>
    <dc:date>2026-06-02T12:51:34.256573</dc:date>
    <dc:format>image/svg+xml</dc:format>
    <dc:creator>
     <cc:Agent>
      <dc:title>Matplotlib v3.10.9, https://matplotlib.org/</dc:title>
     </cc:Agent>
    </dc:creator>
   </cc:Work>
  </rdf:RDF>
 </metadata>
 <defs>
  <style type="text/css">*{stroke-linejoin: round; stroke-linecap: butt}</style>
 </defs>
 <g id="figure_1">
  <g id="patch_1">
   <path d="M 0 283.4865 
L 784.545281 283.4865 
L 784.545281 0 
L 0 0 
z
" style="fill: #ffffff"/>
  </g>
  <g id="axes_1">
   <g id="patch_2">
    <path d="M 41.778125 246.3865 
L 396.052328 246.3865 
L 396.052328 51.585 
L 41.778125 51.585 
z
" style="fill: #ffffff"/>
   </g>
   <g id="patch_3">
    <path d="M 41.778125 237.531886 
L 396.052328 237.531886 
L 396.052328 165.644743 
L 41.778125 165.644743 
z
" clip-path="url(#p6cc386e578)" style="fill: #808080; opacity: 0.15; stroke: #808080; stroke-linejoin: miter"/>
   </g>
   <g id="matplotlib.axis_1">
    <g id="xtick_1">
     <g id="line2d_1">
      <path d="M 128.125793 246.3865 
L 128.125793 51.585 
" clip-path="url(#p6cc386e578)" style="fill: none; stroke-dasharray: 2.96,1.28; stroke-dashoffset: 0; stroke: #b0b0b0; stroke-opacity: 0.4; stroke-width: 0.8"/>
     </g>
     <g id="line2d_2">
      <defs>
       <path id="m3bb5143fd9" d="M 0 0 
L 0 3.5 
" style="stroke: #000000; stroke-width: 0.8"/>
      </defs>
      <g>
       <use xlink:href="#m3bb5143fd9" x="128.125793" y="246.3865" style="stroke: #000000; stroke-width: 0.8"/>
      </g>
     </g>
     <g id="text_1">
      <!-- $\mathdefault{10^{1}}$ -->
      <g transform="translate(120.775793 260.347437) scale(0.1 -0.1)">
       <defs>
        <path id="Cmr10-31" d="M 594 0 
L 594 225 
Q 1394 225 1394 428 
L 1394 3788 
Q 1063 3628 556 3628 
L 556 3853 
Q 1341 3853 1741 4263 
L 1831 4263 
Q 1853 4263 1873 4245 
Q 1894 4228 1894 4206 
L 1894 428 
Q 1894 225 2694 225 
L 2694 0 
L 594 0 
z
" transform="scale(0.015625)"/>
        <path id="Cmr10-30" d="M 1600 -141 
Q 816 -141 533 504 
Q 250 1150 250 2041 
Q 250 2597 351 3087 
Q 453 3578 754 3920 
Q 1056 4263 1600 4263 
Q 2022 4263 2290 4056 
Q 2559 3850 2700 3523 
Q 2841 3197 2892 2823 
Q 2944 2450 2944 2041 
Q 2944 1491 2842 1011 
Q 2741 531 2444 195 
Q 2147 -141 1600 -141 
z
M 1600 25 
Q 1956 25 2131 390 
Q 2306 756 2347 1200 
Q 2388 1644 2388 2144 
Q 2388 2625 2347 3031 
Q 2306 3438 2132 3767 
Q 1959 4097 1600 4097 
Q 1238 4097 1063 3765 
Q 888 3434 847 3029 
Q 806 2625 806 2144 
Q 806 1788 823 1472 
Q 841 1156 916 820 
Q 991 484 1158 254 
Q 1325 25 1600 25 
z
" transform="scale(0.015625)"/>
       </defs>
       <use xlink:href="#Cmr10-31" transform="translate(0 0.223438)"/>
       <use xlink:href="#Cmr10-30" transform="translate(50 0.223438)"/>
       <use xlink:href="#Cmr10-31" transform="translate(104.5675 39.373438) scale(0.7)"/>
      </g>
     </g>
    </g>
    <g id="xtick_2">
     <g id="line2d_3">
      <path d="M 361.472289 246.3865 
L 361.472289 51.585 
" clip-path="url(#p6cc386e578)" style="fill: none; stroke-dasharray: 2.96,1.28; stroke-dashoffset: 0; stroke: #b0b0b0; stroke-opacity: 0.4; stroke-width: 0.8"/>
     </g>
     <g id="line2d_4">
      <g>
       <use xlink:href="#m3bb5143fd9" x="361.472289" y="246.3865" style="stroke: #000000; stroke-width: 0.8"/>
      </g>
     </g>
     <g id="text_2">
      <!-- $\mathdefault{10^{2}}$ -->
      <g transform="translate(354.122289 260.347437) scale(0.1 -0.1)">
       <defs>
        <path id="Cmr10-32" d="M 319 0 
L 319 172 
Q 319 188 331 206 
L 1325 1306 
Q 1550 1550 1690 1715 
Q 1831 1881 1968 2097 
Q 2106 2313 2186 2536 
Q 2266 2759 2266 3009 
Q 2266 3272 2169 3511 
Q 2072 3750 1880 3894 
Q 1688 4038 1416 4038 
Q 1138 4038 916 3870 
Q 694 3703 603 3438 
Q 628 3444 672 3444 
Q 816 3444 917 3347 
Q 1019 3250 1019 3097 
Q 1019 2950 917 2848 
Q 816 2747 672 2747 
Q 522 2747 420 2851 
Q 319 2956 319 3097 
Q 319 3338 409 3548 
Q 500 3759 670 3923 
Q 841 4088 1055 4175 
Q 1269 4263 1509 4263 
Q 1875 4263 2190 4108 
Q 2506 3953 2690 3670 
Q 2875 3388 2875 3009 
Q 2875 2731 2753 2481 
Q 2631 2231 2440 2026 
Q 2250 1822 1953 1562 
Q 1656 1303 1563 1216 
L 838 519 
L 1453 519 
Q 1906 519 2211 526 
Q 2516 534 2534 550 
Q 2609 631 2688 1141 
L 2875 1141 
L 2694 0 
L 319 0 
z
" transform="scale(0.015625)"/>
       </defs>
       <use xlink:href="#Cmr10-31" transform="translate(0 0.223438)"/>
       <use xlink:href="#Cmr10-30" transform="translate(50 0.223438)"/>
       <use xlink:href="#Cmr10-32" transform="translate(104.5675 39.373438) scale(0.7)"/>
      </g>
     </g>
    </g>
    <g id="xtick_3">
     <g id="line2d_5">
      <defs>
       <path id="m3daaa91885" d="M 0 0 
L 0 2 
" style="stroke: #000000; stroke-width: 0.6"/>
      </defs>
      <g>
       <use xlink:href="#m3daaa91885" x="57.881498" y="246.3865" style="stroke: #000000; stroke-width: 0.6"/>
      </g>
     </g>
    </g>
    <g id="xtick_4">
     <g id="line2d_6">
      <g>
       <use xlink:href="#m3daaa91885" x="76.358164" y="246.3865" style="stroke: #000000; stroke-width: 0.6"/>
      </g>
     </g>
    </g>
    <g id="xtick_5">
     <g id="line2d_7">
      <g>
       <use xlink:href="#m3daaa91885" x="91.979963" y="246.3865" style="stroke: #000000; stroke-width: 0.6"/>
      </g>
     </g>
    </g>
    <g id="xtick_6">
     <g id="line2d_8">
      <g>
       <use xlink:href="#m3daaa91885" x="105.512181" y="246.3865" style="stroke: #000000; stroke-width: 0.6"/>
      </g>
     </g>
    </g>
    <g id="xtick_7">
     <g id="line2d_9">
      <g>
       <use xlink:href="#m3daaa91885" x="117.448443" y="246.3865" style="stroke: #000000; stroke-width: 0.6"/>
      </g>
     </g>
    </g>
    <g id="xtick_8">
     <g id="line2d_10">
      <g>
       <use xlink:href="#m3daaa91885" x="198.370087" y="246.3865" style="stroke: #000000; stroke-width: 0.6"/>
      </g>
     </g>
    </g>
    <g id="xtick_9">
     <g id="line2d_11">
      <g>
       <use xlink:href="#m3daaa91885" x="239.460366" y="246.3865" style="stroke: #000000; stroke-width: 0.6"/>
      </g>
     </g>
    </g>
    <g id="xtick_10">
     <g id="line2d_12">
      <g>
       <use xlink:href="#m3daaa91885" x="268.614382" y="246.3865" style="stroke: #000000; stroke-width: 0.6"/>
      </g>
     </g>
    </g>
    <g id="xtick_11">
     <g id="line2d_13">
      <g>
       <use xlink:href="#m3daaa91885" x="291.227994" y="246.3865" style="stroke: #000000; stroke-width: 0.6"/>
      </g>
     </g>
    </g>
    <g id="xtick_12">
     <g id="line2d_14">
      <g>
       <use xlink:href="#m3daaa91885" x="309.70466" y="246.3865" style="stroke: #000000; stroke-width: 0.6"/>
      </g>
     </g>
    </g>
    <g id="xtick_13">
     <g id="line2d_15">
      <g>
       <use xlink:href="#m3daaa91885" x="325.326459" y="246.3865" style="stroke: #000000; stroke-width: 0.6"/>
      </g>
     </g>
    </g>
    <g id="xtick_14">
     <g id="line2d_16">
      <g>
       <use xlink:href="#m3daaa91885" x="338.858677" y="246.3865" style="stroke: #000000; stroke-width: 0.6"/>
      </g>
     </g>
    </g>
    <g id="xtick_15">
     <g id="line2d_17">
      <g>
       <use xlink:href="#m3daaa91885" x="350.794939" y="246.3865" style="stroke: #000000; stroke-width: 0.6"/>
      </g>
     </g>
    </g>
    <g id="text_3">
     <!-- TDMA interval (s) -->
     <g transform="translate(177.182414 273.7865) scale(0.1 -0.1)">
      <defs>
       <path id="Cmr10-54" d="M 1081 0 
L 1081 225 
Q 1403 225 1706 261 
Q 2009 297 2009 428 
L 2009 3944 
Q 2009 4081 1932 4114 
Q 1856 4147 1684 4147 
L 1416 4147 
Q 888 4147 666 3916 
Q 550 3800 500 3545 
Q 450 3291 416 2906 
L 231 2906 
L 353 4372 
L 4263 4372 
L 4384 2906 
L 4197 2906 
Q 4159 3319 4114 3561 
Q 4069 3803 3950 3916 
Q 3725 4147 3200 4147 
L 2931 4147 
Q 2816 4147 2752 4137 
Q 2688 4128 2647 4083 
Q 2606 4038 2606 3944 
L 2606 428 
Q 2606 297 2909 261 
Q 3213 225 3531 225 
L 3531 0 
L 1081 0 
z
" transform="scale(0.015625)"/>
       <path id="Cmr10-44" d="M 213 0 
L 213 225 
Q 872 225 872 428 
L 872 3944 
Q 872 4147 213 4147 
L 213 4372 
L 2572 4372 
Q 3009 4372 3371 4183 
Q 3734 3994 3990 3678 
Q 4247 3363 4386 2963 
Q 4525 2563 4525 2144 
Q 4525 1738 4384 1355 
Q 4244 972 3980 664 
Q 3716 356 3355 178 
Q 2994 0 2572 0 
L 213 0 
z
M 1447 428 
Q 1447 291 1525 258 
Q 1603 225 1772 225 
L 2406 225 
Q 2734 225 3029 367 
Q 3325 509 3519 763 
Q 3722 1031 3790 1364 
Q 3859 1697 3859 2144 
Q 3859 2609 3790 2959 
Q 3722 3309 3519 3584 
Q 3328 3856 3034 4001 
Q 2741 4147 2406 4147 
L 1772 4147 
Q 1656 4147 1592 4137 
Q 1528 4128 1487 4083 
Q 1447 4038 1447 3944 
L 1447 428 
z
" transform="scale(0.015625)"/>
       <path id="Cmr10-4d" d="M 225 0 
L 225 225 
Q 884 225 884 603 
L 884 3944 
Q 884 4147 225 4147 
L 225 4372 
L 1434 4372 
Q 1513 4372 1538 4300 
L 2931 678 
L 4325 4300 
Q 4350 4372 4428 4372 
L 5638 4372 
L 5638 4147 
Q 4978 4147 4978 3944 
L 4978 428 
Q 4978 225 5638 225 
L 5638 0 
L 3775 0 
L 3775 225 
Q 4434 225 4434 428 
L 4434 4153 
L 2859 72 
Q 2831 0 2753 0 
Q 2672 0 2644 72 
L 1088 4103 
L 1088 603 
Q 1088 225 1747 225 
L 1747 0 
L 225 0 
z
" transform="scale(0.015625)"/>
       <path id="Cmr10-41" d="M 206 0 
L 206 225 
Q 778 225 909 603 
L 2253 4513 
Q 2272 4581 2356 4581 
L 2438 4581 
Q 2522 4581 2541 4513 
L 3944 428 
Q 4003 294 4170 259 
Q 4338 225 4588 225 
L 4588 0 
L 2803 0 
L 2803 225 
Q 3334 225 3334 397 
L 3334 428 
L 2988 1428 
L 1434 1428 
L 1147 603 
Q 1141 581 1141 538 
Q 1141 378 1292 301 
Q 1444 225 1619 225 
L 1619 0 
L 206 0 
z
M 1509 1650 
L 2913 1650 
L 2209 3694 
L 1509 1650 
z
" transform="scale(0.015625)"/>
       <path id="Cmr10-20" transform="scale(0.015625)"/>
       <path id="Cmr10-69" d="M 197 0 
L 197 225 
Q 416 225 556 259 
Q 697 294 697 428 
L 697 2175 
Q 697 2422 601 2478 
Q 506 2534 225 2534 
L 225 2759 
L 1147 2828 
L 1147 428 
Q 1147 294 1269 259 
Q 1391 225 1594 225 
L 1594 0 
L 197 0 
z
M 469 3928 
Q 469 4069 575 4175 
Q 681 4281 819 4281 
Q 909 4281 993 4234 
Q 1078 4188 1125 4103 
Q 1172 4019 1172 3928 
Q 1172 3791 1065 3684 
Q 959 3578 819 3578 
Q 681 3578 575 3684 
Q 469 3791 469 3928 
z
" transform="scale(0.015625)"/>
       <path id="Cmr10-6e" d="M 191 0 
L 191 225 
Q 409 225 550 259 
Q 691 294 691 428 
L 691 2175 
Q 691 2347 639 2423 
Q 588 2500 491 2517 
Q 394 2534 191 2534 
L 191 2759 
L 1119 2828 
L 1119 2203 
Q 1247 2478 1498 2653 
Q 1750 2828 2047 2828 
Q 2491 2828 2714 2615 
Q 2938 2403 2938 1966 
L 2938 428 
Q 2938 294 3078 259 
Q 3219 225 3438 225 
L 3438 0 
L 1972 0 
L 1972 225 
Q 2191 225 2331 259 
Q 2472 294 2472 428 
L 2472 1947 
Q 2472 2259 2381 2461 
Q 2291 2663 2009 2663 
Q 1638 2663 1398 2366 
Q 1159 2069 1159 1691 
L 1159 428 
Q 1159 294 1300 259 
Q 1441 225 1656 225 
L 1656 0 
L 191 0 
z
" transform="scale(0.015625)"/>
       <path id="Cmr10-74" d="M 653 769 
L 653 2534 
L 122 2534 
L 122 2700 
Q 541 2700 737 3090 
Q 934 3481 934 3938 
L 1119 3938 
L 1119 2759 
L 2022 2759 
L 2022 2534 
L 1119 2534 
L 1119 781 
Q 1119 516 1208 316 
Q 1297 116 1528 116 
Q 1747 116 1844 327 
Q 1941 538 1941 781 
L 1941 1159 
L 2125 1159 
L 2125 769 
Q 2125 569 2051 373 
Q 1978 178 1834 53 
Q 1691 -72 1484 -72 
Q 1100 -72 876 158 
Q 653 388 653 769 
z
" transform="scale(0.015625)"/>
       <path id="Cmr10-65" d="M 1594 -72 
Q 1203 -72 876 133 
Q 550 338 364 680 
Q 178 1022 178 1403 
Q 178 1778 348 2115 
Q 519 2453 823 2661 
Q 1128 2869 1503 2869 
Q 1797 2869 2014 2770 
Q 2231 2672 2372 2497 
Q 2513 2322 2584 2084 
Q 2656 1847 2656 1563 
Q 2656 1478 2591 1478 
L 738 1478 
L 738 1409 
Q 738 878 952 497 
Q 1166 116 1650 116 
Q 1847 116 2014 203 
Q 2181 291 2304 447 
Q 2428 603 2472 781 
Q 2478 803 2495 820 
Q 2513 838 2534 838 
L 2591 838 
Q 2656 838 2656 756 
Q 2566 394 2266 161 
Q 1966 -72 1594 -72 
z
M 744 1638 
L 2203 1638 
Q 2203 1878 2136 2125 
Q 2069 2372 1912 2536 
Q 1756 2700 1503 2700 
Q 1141 2700 942 2361 
Q 744 2022 744 1638 
z
" transform="scale(0.015625)"/>
       <path id="Cmr10-72" d="M 166 0 
L 166 225 
Q 384 225 525 259 
Q 666 294 666 428 
L 666 2175 
Q 666 2347 614 2423 
Q 563 2500 466 2517 
Q 369 2534 166 2534 
L 166 2759 
L 1081 2828 
L 1081 2203 
Q 1184 2481 1375 2654 
Q 1566 2828 1838 2828 
Q 2028 2828 2178 2715 
Q 2328 2603 2328 2419 
Q 2328 2303 2245 2217 
Q 2163 2131 2041 2131 
Q 1922 2131 1837 2215 
Q 1753 2300 1753 2419 
Q 1753 2591 1875 2663 
L 1838 2663 
Q 1578 2663 1414 2475 
Q 1250 2288 1181 2009 
Q 1113 1731 1113 1478 
L 1113 428 
Q 1113 225 1734 225 
L 1734 0 
L 166 0 
z
" transform="scale(0.015625)"/>
       <path id="Cmr10-76" d="M 1563 0 
L 628 2350 
Q 569 2469 445 2501 
Q 322 2534 122 2534 
L 122 2759 
L 1466 2759 
L 1466 2534 
Q 1106 2534 1106 2381 
Q 1106 2356 1113 2344 
L 1831 538 
L 2478 2169 
Q 2497 2219 2497 2272 
Q 2497 2394 2405 2464 
Q 2313 2534 2188 2534 
L 2188 2759 
L 3250 2759 
L 3250 2534 
Q 3053 2534 2904 2443 
Q 2756 2353 2675 2175 
L 1813 0 
Q 1788 -72 1709 -72 
L 1663 -72 
Q 1584 -72 1563 0 
z
" transform="scale(0.015625)"/>
       <path id="Cmr10-61" d="M 256 628 
Q 256 1009 556 1248 
Q 856 1488 1276 1586 
Q 1697 1684 2075 1684 
L 2075 1947 
Q 2075 2131 1994 2304 
Q 1913 2478 1759 2589 
Q 1606 2700 1422 2700 
Q 997 2700 775 2509 
Q 897 2509 976 2417 
Q 1056 2325 1056 2203 
Q 1056 2075 965 1984 
Q 875 1894 750 1894 
Q 622 1894 531 1984 
Q 441 2075 441 2203 
Q 441 2541 747 2705 
Q 1053 2869 1422 2869 
Q 1681 2869 1943 2758 
Q 2206 2647 2373 2440 
Q 2541 2234 2541 1959 
L 2541 519 
Q 2541 394 2594 289 
Q 2647 184 2759 184 
Q 2866 184 2917 290 
Q 2969 397 2969 519 
L 2969 928 
L 3156 928 
L 3156 519 
Q 3156 375 3081 245 
Q 3006 116 2879 39 
Q 2753 -38 2606 -38 
Q 2419 -38 2283 107 
Q 2147 253 2131 453 
Q 2013 213 1781 70 
Q 1550 -72 1288 -72 
Q 1044 -72 808 0 
Q 572 72 414 226 
Q 256 381 256 628 
z
M 775 628 
Q 775 403 940 250 
Q 1106 97 1331 97 
Q 1538 97 1706 200 
Q 1875 303 1975 481 
Q 2075 659 2075 856 
L 2075 1522 
Q 1784 1522 1479 1426 
Q 1175 1331 975 1128 
Q 775 925 775 628 
z
" transform="scale(0.015625)"/>
       <path id="Cmr10-6c" d="M 197 0 
L 197 225 
Q 416 225 556 259 
Q 697 294 697 428 
L 697 3788 
Q 697 3959 645 4036 
Q 594 4113 497 4130 
Q 400 4147 197 4147 
L 197 4372 
L 1147 4441 
L 1147 428 
Q 1147 294 1287 259 
Q 1428 225 1644 225 
L 1644 0 
L 197 0 
z
" transform="scale(0.015625)"/>
       <path id="Cmr10-28" d="M 1984 -1588 
Q 1628 -1306 1370 -942 
Q 1113 -578 948 -165 
Q 784 247 703 697 
Q 622 1147 622 1600 
Q 622 2059 703 2509 
Q 784 2959 951 3375 
Q 1119 3791 1378 4153 
Q 1638 4516 1984 4788 
Q 1984 4800 2016 4800 
L 2075 4800 
Q 2094 4800 2109 4783 
Q 2125 4766 2125 4744 
Q 2125 4716 2113 4703 
Q 1800 4397 1592 4047 
Q 1384 3697 1257 3301 
Q 1131 2906 1075 2482 
Q 1019 2059 1019 1600 
Q 1019 -434 2106 -1491 
Q 2125 -1509 2125 -1544 
Q 2125 -1559 2108 -1579 
Q 2091 -1600 2075 -1600 
L 2016 -1600 
Q 1984 -1600 1984 -1588 
z
" transform="scale(0.015625)"/>
       <path id="Cmr10-73" d="M 213 -19 
L 213 1025 
Q 213 1075 269 1075 
L 347 1075 
Q 384 1075 397 1025 
Q 575 97 1259 97 
Q 1563 97 1767 234 
Q 1972 372 1972 659 
Q 1972 866 1812 1011 
Q 1653 1156 1434 1209 
L 1006 1294 
Q 791 1341 614 1437 
Q 438 1534 325 1695 
Q 213 1856 213 2069 
Q 213 2350 361 2529 
Q 509 2709 746 2789 
Q 984 2869 1259 2869 
Q 1588 2869 1831 2694 
L 2016 2853 
Q 2016 2869 2047 2869 
L 2094 2869 
Q 2113 2869 2128 2851 
Q 2144 2834 2144 2816 
L 2144 1978 
Q 2144 1919 2094 1919 
L 2016 1919 
Q 1959 1919 1959 1978 
Q 1959 2313 1773 2516 
Q 1588 2719 1253 2719 
Q 966 2719 755 2612 
Q 544 2506 544 2247 
Q 544 2069 695 1955 
Q 847 1841 1050 1791 
L 1484 1709 
Q 1703 1659 1892 1540 
Q 2081 1422 2192 1240 
Q 2303 1059 2303 831 
Q 2303 600 2223 429 
Q 2144 259 2001 146 
Q 1859 34 1665 -19 
Q 1472 -72 1259 -72 
Q 859 -72 575 197 
L 341 -56 
Q 341 -72 306 -72 
L 269 -72 
Q 213 -72 213 -19 
z
" transform="scale(0.015625)"/>
       <path id="Cmr10-29" d="M 416 -1600 
Q 359 -1600 359 -1544 
Q 359 -1516 372 -1503 
Q 1466 -434 1466 1600 
Q 1466 3634 384 4691 
Q 359 4706 359 4744 
Q 359 4766 376 4783 
Q 394 4800 416 4800 
L 475 4800 
Q 494 4800 506 4788 
Q 966 4425 1272 3906 
Q 1578 3388 1720 2800 
Q 1863 2213 1863 1600 
Q 1863 1147 1786 708 
Q 1709 269 1542 -157 
Q 1375 -584 1119 -945 
Q 863 -1306 506 -1588 
Q 494 -1600 475 -1600 
L 416 -1600 
z
" transform="scale(0.015625)"/>
      </defs>
      <use xlink:href="#Cmr10-54"/>
      <use xlink:href="#Cmr10-44" transform="translate(72.216797 0)"/>
      <use xlink:href="#Cmr10-4d" transform="translate(148.535156 0)"/>
      <use xlink:href="#Cmr10-41" transform="translate(240.136719 0)"/>
      <use xlink:href="#Cmr10-20" transform="translate(315.136719 0)"/>
      <use xlink:href="#Cmr10-69" transform="translate(348.4375 0)"/>
      <use xlink:href="#Cmr10-6e" transform="translate(376.123047 0)"/>
      <use xlink:href="#Cmr10-74" transform="translate(431.640625 0)"/>
      <use xlink:href="#Cmr10-65" transform="translate(470.458984 0)"/>
      <use xlink:href="#Cmr10-72" transform="translate(514.84375 0)"/>
      <use xlink:href="#Cmr10-76" transform="translate(553.955078 0)"/>
      <use xlink:href="#Cmr10-61" transform="translate(606.640625 0)"/>
      <use xlink:href="#Cmr10-6c" transform="translate(656.640625 0)"/>
      <use xlink:href="#Cmr10-20" transform="translate(684.326172 0)"/>
      <use xlink:href="#Cmr10-28" transform="translate(717.626953 0)"/>
      <use xlink:href="#Cmr10-73" transform="translate(756.445312 0)"/>
      <use xlink:href="#Cmr10-29" transform="translate(795.849609 0)"/>
     </g>
    </g>
   </g>
   <g id="matplotlib.axis_2">
    <g id="ytick_1">
     <g id="line2d_18">
      <path d="M 41.778125 208.281594 
L 396.052328 208.281594 
" clip-path="url(#p6cc386e578)" style="fill: none; stroke-dasharray: 2.96,1.28; stroke-dashoffset: 0; stroke: #b0b0b0; stroke-opacity: 0.4; stroke-width: 0.8"/>
     </g>
     <g id="line2d_19">
      <defs>
       <path id="m5425174991" d="M 0 0 
L -3.5 0 
" style="stroke: #000000; stroke-width: 0.8"/>
      </defs>
      <g>
       <use xlink:href="#m5425174991" x="41.778125" y="208.281594" style="stroke: #000000; stroke-width: 0.8"/>
      </g>
     </g>
     <g id="text_4">
      <!-- $\mathdefault{10^{0}}$ -->
      <g transform="translate(20.078125 211.762063) scale(0.1 -0.1)">
       <use xlink:href="#Cmr10-31" transform="translate(0 0.223438)"/>
       <use xlink:href="#Cmr10-30" transform="translate(50 0.223438)"/>
       <use xlink:href="#Cmr10-30" transform="translate(104.5675 39.373438) scale(0.7)"/>
      </g>
     </g>
    </g>
    <g id="ytick_2">
     <g id="line2d_20">
      <path d="M 41.778125 164.35947 
L 396.052328 164.35947 
" clip-path="url(#p6cc386e578)" style="fill: none; stroke-dasharray: 2.96,1.28; stroke-dashoffset: 0; stroke: #b0b0b0; stroke-opacity: 0.4; stroke-width: 0.8"/>
     </g>
     <g id="line2d_21">
      <g>
       <use xlink:href="#m5425174991" x="41.778125" y="164.35947" style="stroke: #000000; stroke-width: 0.8"/>
      </g>
     </g>
     <g id="text_5">
      <!-- $\mathdefault{10^{1}}$ -->
      <g transform="translate(20.078125 167.839939) scale(0.1 -0.1)">
       <use xlink:href="#Cmr10-31" transform="translate(0 0.223438)"/>
       <use xlink:href="#Cmr10-30" transform="translate(50 0.223438)"/>
       <use xlink:href="#Cmr10-31" transform="translate(104.5675 39.373438) scale(0.7)"/>
      </g>
     </g>
    </g>
    <g id="ytick_3">
     <g id="line2d_22">
      <path d="M 41.778125 120.437346 
L 396.052328 120.437346 
" clip-path="url(#p6cc386e578)" style="fill: none; stroke-dasharray: 2.96,1.28; stroke-dashoffset: 0; stroke: #b0b0b0; stroke-opacity: 0.4; stroke-width: 0.8"/>
     </g>
     <g id="line2d_23">
      <g>
       <use xlink:href="#m5425174991" x="41.778125" y="120.437346" style="stroke: #000000; stroke-width: 0.8"/>
      </g>
     </g>
     <g id="text_6">
      <!-- $\mathdefault{10^{2}}$ -->
      <g transform="translate(20.078125 123.917815) scale(0.1 -0.1)">
       <use xlink:href="#Cmr10-31" transform="translate(0 0.223438)"/>
       <use xlink:href="#Cmr10-30" transform="translate(50 0.223438)"/>
       <use xlink:href="#Cmr10-32" transform="translate(104.5675 39.373438) scale(0.7)"/>
      </g>
     </g>
    </g>
    <g id="ytick_4">
     <g id="line2d_24">
      <path d="M 41.778125 76.515222 
L 396.052328 76.515222 
" clip-path="url(#p6cc386e578)" style="fill: none; stroke-dasharray: 2.96,1.28; stroke-dashoffset: 0; stroke: #b0b0b0; stroke-opacity: 0.4; stroke-width: 0.8"/>
     </g>
     <g id="line2d_25">
      <g>
       <use xlink:href="#m5425174991" x="41.778125" y="76.515222" style="stroke: #000000; stroke-width: 0.8"/>
      </g>
     </g>
     <g id="text_7">
      <!-- $\mathdefault{10^{3}}$ -->
      <g transform="translate(20.078125 79.995691) scale(0.1 -0.1)">
       <defs>
        <path id="Cmr10-33" d="M 609 494 
Q 759 275 1012 169 
Q 1266 63 1556 63 
Q 1928 63 2084 380 
Q 2241 697 2241 1100 
Q 2241 1281 2208 1462 
Q 2175 1644 2097 1800 
Q 2019 1956 1883 2050 
Q 1747 2144 1550 2144 
L 1125 2144 
Q 1069 2144 1069 2203 
L 1069 2259 
Q 1069 2309 1125 2309 
L 1478 2338 
Q 1703 2338 1851 2506 
Q 2000 2675 2069 2917 
Q 2138 3159 2138 3378 
Q 2138 3684 1994 3881 
Q 1850 4078 1556 4078 
Q 1313 4078 1091 3986 
Q 869 3894 738 3706 
Q 750 3709 759 3711 
Q 769 3713 781 3713 
Q 925 3713 1022 3613 
Q 1119 3513 1119 3372 
Q 1119 3234 1022 3134 
Q 925 3034 781 3034 
Q 641 3034 541 3134 
Q 441 3234 441 3372 
Q 441 3647 606 3850 
Q 772 4053 1033 4158 
Q 1294 4263 1556 4263 
Q 1750 4263 1965 4205 
Q 2181 4147 2356 4039 
Q 2531 3931 2642 3762 
Q 2753 3594 2753 3378 
Q 2753 3109 2633 2881 
Q 2513 2653 2303 2487 
Q 2094 2322 1844 2241 
Q 2122 2188 2372 2031 
Q 2622 1875 2773 1631 
Q 2925 1388 2925 1106 
Q 2925 753 2731 467 
Q 2538 181 2222 20 
Q 1906 -141 1556 -141 
Q 1256 -141 954 -26 
Q 653 88 461 316 
Q 269 544 269 863 
Q 269 1022 375 1128 
Q 481 1234 641 1234 
Q 744 1234 830 1186 
Q 916 1138 964 1050 
Q 1013 963 1013 863 
Q 1013 706 903 600 
Q 794 494 641 494 
L 609 494 
z
" transform="scale(0.015625)"/>
       </defs>
       <use xlink:href="#Cmr10-31" transform="translate(0 0.223438)"/>
       <use xlink:href="#Cmr10-30" transform="translate(50 0.223438)"/>
       <use xlink:href="#Cmr10-33" transform="translate(104.5675 39.373438) scale(0.7)"/>
      </g>
     </g>
    </g>
    <g id="ytick_5">
     <g id="line2d_26">
      <defs>
       <path id="m10da7a8bc7" d="M 0 0 
L -2 0 
" style="stroke: #000000; stroke-width: 0.6"/>
      </defs>
      <g>
       <use xlink:href="#m10da7a8bc7" x="41.778125" y="238.981841" style="stroke: #000000; stroke-width: 0.6"/>
      </g>
     </g>
    </g>
    <g id="ytick_6">
     <g id="line2d_27">
      <g>
       <use xlink:href="#m10da7a8bc7" x="41.778125" y="231.247539" style="stroke: #000000; stroke-width: 0.6"/>
      </g>
     </g>
    </g>
    <g id="ytick_7">
     <g id="line2d_28">
      <g>
       <use xlink:href="#m10da7a8bc7" x="41.778125" y="225.759965" style="stroke: #000000; stroke-width: 0.6"/>
      </g>
     </g>
    </g>
    <g id="ytick_8">
     <g id="line2d_29">
      <g>
       <use xlink:href="#m10da7a8bc7" x="41.778125" y="221.503471" style="stroke: #000000; stroke-width: 0.6"/>
      </g>
     </g>
    </g>
    <g id="ytick_9">
     <g id="line2d_30">
      <g>
       <use xlink:href="#m10da7a8bc7" x="41.778125" y="218.025662" style="stroke: #000000; stroke-width: 0.6"/>
      </g>
     </g>
    </g>
    <g id="ytick_10">
     <g id="line2d_31">
      <g>
       <use xlink:href="#m10da7a8bc7" x="41.778125" y="215.085217" style="stroke: #000000; stroke-width: 0.6"/>
      </g>
     </g>
    </g>
    <g id="ytick_11">
     <g id="line2d_32">
      <g>
       <use xlink:href="#m10da7a8bc7" x="41.778125" y="212.538088" style="stroke: #000000; stroke-width: 0.6"/>
      </g>
     </g>
    </g>
    <g id="ytick_12">
     <g id="line2d_33">
      <g>
       <use xlink:href="#m10da7a8bc7" x="41.778125" y="210.29136" style="stroke: #000000; stroke-width: 0.6"/>
      </g>
     </g>
    </g>
    <g id="ytick_13">
     <g id="line2d_34">
      <g>
       <use xlink:href="#m10da7a8bc7" x="41.778125" y="195.059717" style="stroke: #000000; stroke-width: 0.6"/>
      </g>
     </g>
    </g>
    <g id="ytick_14">
     <g id="line2d_35">
      <g>
       <use xlink:href="#m10da7a8bc7" x="41.778125" y="187.325415" style="stroke: #000000; stroke-width: 0.6"/>
      </g>
     </g>
    </g>
    <g id="ytick_15">
     <g id="line2d_36">
      <g>
       <use xlink:href="#m10da7a8bc7" x="41.778125" y="181.837841" style="stroke: #000000; stroke-width: 0.6"/>
      </g>
     </g>
    </g>
    <g id="ytick_16">
     <g id="line2d_37">
      <g>
       <use xlink:href="#m10da7a8bc7" x="41.778125" y="177.581347" style="stroke: #000000; stroke-width: 0.6"/>
      </g>
     </g>
    </g>
    <g id="ytick_17">
     <g id="line2d_38">
      <g>
       <use xlink:href="#m10da7a8bc7" x="41.778125" y="174.103539" style="stroke: #000000; stroke-width: 0.6"/>
      </g>
     </g>
    </g>
    <g id="ytick_18">
     <g id="line2d_39">
      <g>
       <use xlink:href="#m10da7a8bc7" x="41.778125" y="171.163093" style="stroke: #000000; stroke-width: 0.6"/>
      </g>
     </g>
    </g>
    <g id="ytick_19">
     <g id="line2d_40">
      <g>
       <use xlink:href="#m10da7a8bc7" x="41.778125" y="168.615964" style="stroke: #000000; stroke-width: 0.6"/>
      </g>
     </g>
    </g>
    <g id="ytick_20">
     <g id="line2d_41">
      <g>
       <use xlink:href="#m10da7a8bc7" x="41.778125" y="166.369236" style="stroke: #000000; stroke-width: 0.6"/>
      </g>
     </g>
    </g>
    <g id="ytick_21">
     <g id="line2d_42">
      <g>
       <use xlink:href="#m10da7a8bc7" x="41.778125" y="151.137593" style="stroke: #000000; stroke-width: 0.6"/>
      </g>
     </g>
    </g>
    <g id="ytick_22">
     <g id="line2d_43">
      <g>
       <use xlink:href="#m10da7a8bc7" x="41.778125" y="143.403291" style="stroke: #000000; stroke-width: 0.6"/>
      </g>
     </g>
    </g>
    <g id="ytick_23">
     <g id="line2d_44">
      <g>
       <use xlink:href="#m10da7a8bc7" x="41.778125" y="137.915717" style="stroke: #000000; stroke-width: 0.6"/>
      </g>
     </g>
    </g>
    <g id="ytick_24">
     <g id="line2d_45">
      <g>
       <use xlink:href="#m10da7a8bc7" x="41.778125" y="133.659223" style="stroke: #000000; stroke-width: 0.6"/>
      </g>
     </g>
    </g>
    <g id="ytick_25">
     <g id="line2d_46">
      <g>
       <use xlink:href="#m10da7a8bc7" x="41.778125" y="130.181415" style="stroke: #000000; stroke-width: 0.6"/>
      </g>
     </g>
    </g>
    <g id="ytick_26">
     <g id="line2d_47">
      <g>
       <use xlink:href="#m10da7a8bc7" x="41.778125" y="127.240969" style="stroke: #000000; stroke-width: 0.6"/>
      </g>
     </g>
    </g>
    <g id="ytick_27">
     <g id="line2d_48">
      <g>
       <use xlink:href="#m10da7a8bc7" x="41.778125" y="124.69384" style="stroke: #000000; stroke-width: 0.6"/>
      </g>
     </g>
    </g>
    <g id="ytick_28">
     <g id="line2d_49">
      <g>
       <use xlink:href="#m10da7a8bc7" x="41.778125" y="122.447112" style="stroke: #000000; stroke-width: 0.6"/>
      </g>
     </g>
    </g>
    <g id="ytick_29">
     <g id="line2d_50">
      <g>
       <use xlink:href="#m10da7a8bc7" x="41.778125" y="107.21547" style="stroke: #000000; stroke-width: 0.6"/>
      </g>
     </g>
    </g>
    <g id="ytick_30">
     <g id="line2d_51">
      <g>
       <use xlink:href="#m10da7a8bc7" x="41.778125" y="99.481167" style="stroke: #000000; stroke-width: 0.6"/>
      </g>
     </g>
    </g>
    <g id="ytick_31">
     <g id="line2d_52">
      <g>
       <use xlink:href="#m10da7a8bc7" x="41.778125" y="93.993593" style="stroke: #000000; stroke-width: 0.6"/>
      </g>
     </g>
    </g>
    <g id="ytick_32">
     <g id="line2d_53">
      <g>
       <use xlink:href="#m10da7a8bc7" x="41.778125" y="89.737099" style="stroke: #000000; stroke-width: 0.6"/>
      </g>
     </g>
    </g>
    <g id="ytick_33">
     <g id="line2d_54">
      <g>
       <use xlink:href="#m10da7a8bc7" x="41.778125" y="86.259291" style="stroke: #000000; stroke-width: 0.6"/>
      </g>
     </g>
    </g>
    <g id="ytick_34">
     <g id="line2d_55">
      <g>
       <use xlink:href="#m10da7a8bc7" x="41.778125" y="83.318845" style="stroke: #000000; stroke-width: 0.6"/>
      </g>
     </g>
    </g>
    <g id="ytick_35">
     <g id="line2d_56">
      <g>
       <use xlink:href="#m10da7a8bc7" x="41.778125" y="80.771716" style="stroke: #000000; stroke-width: 0.6"/>
      </g>
     </g>
    </g>
    <g id="ytick_36">
     <g id="line2d_57">
      <g>
       <use xlink:href="#m10da7a8bc7" x="41.778125" y="78.524989" style="stroke: #000000; stroke-width: 0.6"/>
      </g>
     </g>
    </g>
    <g id="ytick_37">
     <g id="line2d_58">
      <g>
       <use xlink:href="#m10da7a8bc7" x="41.778125" y="63.293346" style="stroke: #000000; stroke-width: 0.6"/>
      </g>
     </g>
    </g>
    <g id="ytick_38">
     <g id="line2d_59">
      <g>
       <use xlink:href="#m10da7a8bc7" x="41.778125" y="55.559043" style="stroke: #000000; stroke-width: 0.6"/>
      </g>
     </g>
    </g>
    <g id="text_8">
     <!-- NEES -->
     <g transform="translate(14.139062 162.313094) rotate(-90) scale(0.1 -0.1)">
      <defs>
       <path id="Cmr10-4e" d="M 197 0 
L 197 225 
Q 856 225 856 603 
L 856 4109 
Q 647 4147 197 4147 
L 197 4372 
L 1422 4372 
Q 1453 4372 1466 4347 
L 3731 1013 
L 3731 3769 
Q 3731 4147 3072 4147 
L 3072 4372 
L 4594 4372 
L 4594 4147 
Q 3938 4147 3938 3769 
L 3938 56 
Q 3938 38 3913 19 
Q 3888 0 3872 0 
L 3794 0 
Q 3763 0 3750 25 
L 1063 3981 
L 1063 603 
Q 1063 225 1722 225 
L 1722 0 
L 197 0 
z
" transform="scale(0.015625)"/>
       <path id="Cmr10-45" d="M 197 0 
L 197 225 
Q 856 225 856 428 
L 856 3944 
Q 856 4147 197 4147 
L 197 4372 
L 3816 4372 
L 3994 2906 
L 3809 2906 
Q 3741 3459 3617 3709 
Q 3494 3959 3222 4053 
Q 2950 4147 2406 4147 
L 1778 4147 
Q 1663 4147 1598 4137 
Q 1534 4128 1493 4083 
Q 1453 4038 1453 3944 
L 1453 2381 
L 1925 2381 
Q 2250 2381 2411 2436 
Q 2572 2491 2633 2645 
Q 2694 2800 2694 3128 
L 2881 3128 
L 2881 1409 
L 2694 1409 
Q 2694 1734 2633 1890 
Q 2572 2047 2411 2101 
Q 2250 2156 1925 2156 
L 1453 2156 
L 1453 428 
Q 1453 291 1531 258 
Q 1609 225 1778 225 
L 2456 225 
Q 2900 225 3173 295 
Q 3447 366 3598 530 
Q 3750 694 3833 955 
Q 3916 1216 3988 1678 
L 4172 1678 
L 3903 0 
L 197 0 
z
" transform="scale(0.015625)"/>
       <path id="Cmr10-53" d="M 359 -91 
L 359 1403 
Q 359 1453 416 1453 
L 494 1453 
Q 513 1453 528 1437 
Q 544 1422 544 1403 
Q 544 775 933 429 
Q 1322 84 1953 84 
Q 2175 84 2362 212 
Q 2550 341 2654 548 
Q 2759 756 2759 978 
Q 2759 1172 2681 1355 
Q 2603 1538 2456 1672 
Q 2309 1806 2125 1850 
L 1294 2053 
Q 881 2163 620 2502 
Q 359 2841 359 3263 
Q 359 3594 528 3884 
Q 697 4175 983 4344 
Q 1269 4513 1600 4513 
Q 2241 4513 2619 4078 
L 2881 4494 
Q 2900 4513 2925 4513 
L 2969 4513 
Q 2988 4513 3005 4498 
Q 3022 4484 3022 4459 
L 3022 2975 
Q 3022 2919 2969 2919 
L 2894 2919 
Q 2834 2919 2834 2975 
Q 2834 3138 2779 3331 
Q 2725 3525 2628 3703 
Q 2531 3881 2419 3994 
Q 2109 4306 1600 4306 
Q 1381 4306 1197 4195 
Q 1013 4084 903 3893 
Q 794 3703 794 3494 
Q 794 3219 964 2995 
Q 1134 2772 1409 2700 
L 2241 2497 
Q 2447 2447 2630 2317 
Q 2813 2188 2934 2016 
Q 3056 1844 3125 1633 
Q 3194 1422 3194 1197 
Q 3194 850 3034 542 
Q 2875 234 2586 46 
Q 2297 -141 1953 -141 
Q 1741 -141 1519 -94 
Q 1297 -47 1109 50 
Q 922 147 769 300 
L 500 -122 
Q 481 -141 453 -141 
L 416 -141 
Q 359 -141 359 -91 
z
" transform="scale(0.015625)"/>
      </defs>
      <use xlink:href="#Cmr10-4e"/>
      <use xlink:href="#Cmr10-45" transform="translate(75 0)"/>
      <use xlink:href="#Cmr10-45" transform="translate(143.017578 0)"/>
      <use xlink:href="#Cmr10-53" transform="translate(211.035156 0)"/>
     </g>
    </g>
   </g>
   <g id="line2d_60">
    <path d="M 57.881498 165.883327 
L 128.125793 179.307271 
L 198.370087 184.096783 
L 239.460366 180.61264 
L 309.70466 190.181343 
L 379.948955 173.485967 
" clip-path="url(#p6cc386e578)" style="fill: none; stroke: #1f77b4; stroke-width: 1.5; stroke-linecap: square"/>
    <defs>
     <path id="m607b502ce3" d="M 0 3 
C 0.795609 3 1.55874 2.683901 2.12132 2.12132 
C 2.683901 1.55874 3 0.795609 3 0 
C 3 -0.795609 2.683901 -1.55874 2.12132 -2.12132 
C 1.55874 -2.683901 0.795609 -3 0 -3 
C -0.795609 -3 -1.55874 -2.683901 -2.12132 -2.12132 
C -2.683901 -1.55874 -3 -0.795609 -3 0 
C -3 0.795609 -2.683901 1.55874 -2.12132 2.12132 
C -1.55874 2.683901 -0.795609 3 0 3 
z
" style="stroke: #1f77b4"/>
    </defs>
    <g clip-path="url(#p6cc386e578)">
     <use xlink:href="#m607b502ce3" x="57.881498" y="165.883327" style="fill: #1f77b4; stroke: #1f77b4"/>
     <use xlink:href="#m607b502ce3" x="128.125793" y="179.307271" style="fill: #1f77b4; stroke: #1f77b4"/>
     <use xlink:href="#m607b502ce3" x="198.370087" y="184.096783" style="fill: #1f77b4; stroke: #1f77b4"/>
     <use xlink:href="#m607b502ce3" x="239.460366" y="180.61264" style="fill: #1f77b4; stroke: #1f77b4"/>
     <use xlink:href="#m607b502ce3" x="309.70466" y="190.181343" style="fill: #1f77b4; stroke: #1f77b4"/>
     <use xlink:href="#m607b502ce3" x="379.948955" y="173.485967" style="fill: #1f77b4; stroke: #1f77b4"/>
    </g>
   </g>
   <g id="line2d_61">
    <path d="M 57.881498 182.391424 
L 128.125793 184.973337 
L 198.370087 192.733984 
L 239.460366 194.910338 
L 309.70466 189.235941 
L 379.948955 168.862529 
" clip-path="url(#p6cc386e578)" style="fill: none; stroke: #ff7f0e; stroke-width: 1.5; stroke-linecap: square"/>
    <defs>
     <path id="m07923a3aad" d="M 0 3 
C 0.795609 3 1.55874 2.683901 2.12132 2.12132 
C 2.683901 1.55874 3 0.795609 3 0 
C 3 -0.795609 2.683901 -1.55874 2.12132 -2.12132 
C 1.55874 -2.683901 0.795609 -3 0 -3 
C -0.795609 -3 -1.55874 -2.683901 -2.12132 -2.12132 
C -2.683901 -1.55874 -3 -0.795609 -3 0 
C -3 0.795609 -2.683901 1.55874 -2.12132 2.12132 
C -1.55874 2.683901 -0.795609 3 0 3 
z
" style="stroke: #ff7f0e"/>
    </defs>
    <g clip-path="url(#p6cc386e578)">
     <use xlink:href="#m07923a3aad" x="57.881498" y="182.391424" style="fill: #ff7f0e; stroke: #ff7f0e"/>
     <use xlink:href="#m07923a3aad" x="128.125793" y="184.973337" style="fill: #ff7f0e; stroke: #ff7f0e"/>
     <use xlink:href="#m07923a3aad" x="198.370087" y="192.733984" style="fill: #ff7f0e; stroke: #ff7f0e"/>
     <use xlink:href="#m07923a3aad" x="239.460366" y="194.910338" style="fill: #ff7f0e; stroke: #ff7f0e"/>
     <use xlink:href="#m07923a3aad" x="309.70466" y="189.235941" style="fill: #ff7f0e; stroke: #ff7f0e"/>
     <use xlink:href="#m07923a3aad" x="379.948955" y="168.862529" style="fill: #ff7f0e; stroke: #ff7f0e"/>
    </g>
   </g>
   <g id="line2d_62">
    <path d="M 57.881498 183.298322 
L 128.125793 184.457775 
L 198.370087 191.936504 
L 239.460366 194.136883 
L 309.70466 190.473266 
L 379.948955 137.758916 
" clip-path="url(#p6cc386e578)" style="fill: none; stroke: #2ca02c; stroke-width: 1.5; stroke-linecap: square"/>
    <defs>
     <path id="meb00481686" d="M 0 3 
C 0.795609 3 1.55874 2.683901 2.12132 2.12132 
C 2.683901 1.55874 3 0.795609 3 0 
C 3 -0.795609 2.683901 -1.55874 2.12132 -2.12132 
C 1.55874 -2.683901 0.795609 -3 0 -3 
C -0.795609 -3 -1.55874 -2.683901 -2.12132 -2.12132 
C -2.683901 -1.55874 -3 -0.795609 -3 0 
C -3 0.795609 -2.683901 1.55874 -2.12132 2.12132 
C -1.55874 2.683901 -0.795609 3 0 3 
z
" style="stroke: #2ca02c"/>
    </defs>
    <g clip-path="url(#p6cc386e578)">
     <use xlink:href="#meb00481686" x="57.881498" y="183.298322" style="fill: #2ca02c; stroke: #2ca02c"/>
     <use xlink:href="#meb00481686" x="128.125793" y="184.457775" style="fill: #2ca02c; stroke: #2ca02c"/>
     <use xlink:href="#meb00481686" x="198.370087" y="191.936504" style="fill: #2ca02c; stroke: #2ca02c"/>
     <use xlink:href="#meb00481686" x="239.460366" y="194.136883" style="fill: #2ca02c; stroke: #2ca02c"/>
     <use xlink:href="#meb00481686" x="309.70466" y="190.473266" style="fill: #2ca02c; stroke: #2ca02c"/>
     <use xlink:href="#meb00481686" x="379.948955" y="137.758916" style="fill: #2ca02c; stroke: #2ca02c"/>
    </g>
   </g>
   <g id="line2d_63">
    <path d="M 57.881498 184.54682 
L 128.125793 187.085546 
L 198.370087 187.300136 
L 239.460366 184.165965 
L 309.70466 162.835721 
L 379.948955 60.439614 
" clip-path="url(#p6cc386e578)" style="fill: none; stroke: #d62728; stroke-width: 1.5; stroke-linecap: square"/>
    <defs>
     <path id="mb315574f1f" d="M -3 3 
L 3 3 
L 3 -3 
L -3 -3 
z
" style="stroke: #d62728; stroke-linejoin: miter"/>
    </defs>
    <g clip-path="url(#p6cc386e578)">
     <use xlink:href="#mb315574f1f" x="57.881498" y="184.54682" style="fill: #d62728; stroke: #d62728; stroke-linejoin: miter"/>
     <use xlink:href="#mb315574f1f" x="128.125793" y="187.085546" style="fill: #d62728; stroke: #d62728; stroke-linejoin: miter"/>
     <use xlink:href="#mb315574f1f" x="198.370087" y="187.300136" style="fill: #d62728; stroke: #d62728; stroke-linejoin: miter"/>
     <use xlink:href="#mb315574f1f" x="239.460366" y="184.165965" style="fill: #d62728; stroke: #d62728; stroke-linejoin: miter"/>
     <use xlink:href="#mb315574f1f" x="309.70466" y="162.835721" style="fill: #d62728; stroke: #d62728; stroke-linejoin: miter"/>
     <use xlink:href="#mb315574f1f" x="379.948955" y="60.439614" style="fill: #d62728; stroke: #d62728; stroke-linejoin: miter"/>
    </g>
   </g>
   <g id="line2d_64">
    <path d="M 57.881498 185.341921 
L 128.125793 186.995906 
L 198.370087 180.706913 
L 239.460366 187.074513 
L 309.70466 172.392078 
L 379.948955 155.53388 
" clip-path="url(#p6cc386e578)" style="fill: none; stroke: #9467bd; stroke-width: 1.5; stroke-linecap: square"/>
    <defs>
     <path id="me83f838d48" d="M -3 3 
L 3 3 
L 3 -3 
L -3 -3 
z
" style="stroke: #9467bd; stroke-linejoin: miter"/>
    </defs>
    <g clip-path="url(#p6cc386e578)">
     <use xlink:href="#me83f838d48" x="57.881498" y="185.341921" style="fill: #9467bd; stroke: #9467bd; stroke-linejoin: miter"/>
     <use xlink:href="#me83f838d48" x="128.125793" y="186.995906" style="fill: #9467bd; stroke: #9467bd; stroke-linejoin: miter"/>
     <use xlink:href="#me83f838d48" x="198.370087" y="180.706913" style="fill: #9467bd; stroke: #9467bd; stroke-linejoin: miter"/>
     <use xlink:href="#me83f838d48" x="239.460366" y="187.074513" style="fill: #9467bd; stroke: #9467bd; stroke-linejoin: miter"/>
     <use xlink:href="#me83f838d48" x="309.70466" y="172.392078" style="fill: #9467bd; stroke: #9467bd; stroke-linejoin: miter"/>
     <use xlink:href="#me83f838d48" x="379.948955" y="155.53388" style="fill: #9467bd; stroke: #9467bd; stroke-linejoin: miter"/>
    </g>
   </g>
   <g id="line2d_65">
    <path d="M 57.881498 185.620607 
L 128.125793 186.934906 
L 198.370087 180.88992 
L 239.460366 187.225196 
L 309.70466 174.222163 
L 379.948955 151.124202 
" clip-path="url(#p6cc386e578)" style="fill: none; stroke: #8c564b; stroke-width: 1.5; stroke-linecap: square"/>
    <defs>
     <path id="mcd6d00fba1" d="M -3 3 
L 3 3 
L 3 -3 
L -3 -3 
z
" style="stroke: #8c564b; stroke-linejoin: miter"/>
    </defs>
    <g clip-path="url(#p6cc386e578)">
     <use xlink:href="#mcd6d00fba1" x="57.881498" y="185.620607" style="fill: #8c564b; stroke: #8c564b; stroke-linejoin: miter"/>
     <use xlink:href="#mcd6d00fba1" x="128.125793" y="186.934906" style="fill: #8c564b; stroke: #8c564b; stroke-linejoin: miter"/>
     <use xlink:href="#mcd6d00fba1" x="198.370087" y="180.88992" style="fill: #8c564b; stroke: #8c564b; stroke-linejoin: miter"/>
     <use xlink:href="#mcd6d00fba1" x="239.460366" y="187.225196" style="fill: #8c564b; stroke: #8c564b; stroke-linejoin: miter"/>
     <use xlink:href="#mcd6d00fba1" x="309.70466" y="174.222163" style="fill: #8c564b; stroke: #8c564b; stroke-linejoin: miter"/>
     <use xlink:href="#mcd6d00fba1" x="379.948955" y="151.124202" style="fill: #8c564b; stroke: #8c564b; stroke-linejoin: miter"/>
    </g>
   </g>
   <g id="patch_4">
    <path d="M 41.778125 246.3865 
L 41.778125 51.585 
" style="fill: none; stroke: #000000; stroke-width: 0.8; stroke-linejoin: miter; stroke-linecap: square"/>
   </g>
   <g id="patch_5">
    <path d="M 396.052328 246.3865 
L 396.052328 51.585 
" style="fill: none; stroke: #000000; stroke-width: 0.8; stroke-linejoin: miter; stroke-linecap: square"/>
   </g>
   <g id="patch_6">
    <path d="M 41.778125 246.3865 
L 396.052328 246.3865 
" style="fill: none; stroke: #000000; stroke-width: 0.8; stroke-linejoin: miter; stroke-linecap: square"/>
   </g>
   <g id="patch_7">
    <path d="M 41.778125 51.585 
L 396.052328 51.585 
" style="fill: none; stroke: #000000; stroke-width: 0.8; stroke-linejoin: miter; stroke-linecap: square"/>
   </g>
   <g id="text_9">
    <!-- ROV -->
    <g transform="translate(205.339289 45.585) scale(0.12 -0.12)">
     <defs>
      <path id="Cmr10-52" d="M 213 0 
L 213 225 
Q 872 225 872 428 
L 872 3944 
Q 872 4147 213 4147 
L 213 4372 
L 2222 4372 
Q 2581 4372 2976 4242 
Q 3372 4113 3637 3847 
Q 3903 3581 3903 3213 
Q 3903 2944 3742 2733 
Q 3581 2522 3329 2380 
Q 3078 2238 2816 2175 
Q 3103 2075 3318 1856 
Q 3534 1638 3578 1356 
L 3669 788 
Q 3731 403 3800 214 
Q 3869 25 4103 25 
Q 4303 25 4401 211 
Q 4500 397 4500 616 
Q 4500 638 4520 655 
Q 4541 672 4563 672 
L 4622 672 
Q 4684 672 4684 588 
Q 4684 413 4615 245 
Q 4547 78 4417 -31 
Q 4288 -141 4109 -141 
Q 3647 -141 3314 89 
Q 2981 319 2981 763 
L 2981 1331 
Q 2981 1650 2759 1878 
Q 2538 2106 2216 2106 
L 1447 2106 
L 1447 428 
Q 1447 225 2106 225 
L 2106 0 
L 213 0 
z
M 1447 2272 
L 2131 2272 
Q 2663 2272 2941 2486 
Q 3219 2700 3219 3213 
Q 3219 3722 2944 3934 
Q 2669 4147 2131 4147 
L 1772 4147 
Q 1656 4147 1592 4137 
Q 1528 4128 1487 4083 
Q 1447 4038 1447 3944 
L 1447 2272 
z
" transform="scale(0.015625)"/>
      <path id="Cmr10-4f" d="M 2491 -141 
Q 1881 -141 1395 182 
Q 909 506 634 1042 
Q 359 1578 359 2169 
Q 359 2606 517 3034 
Q 675 3463 958 3794 
Q 1241 4125 1637 4319 
Q 2034 4513 2491 4513 
Q 2944 4513 3342 4317 
Q 3741 4122 4025 3787 
Q 4309 3453 4462 3037 
Q 4616 2622 4616 2169 
Q 4616 1578 4341 1042 
Q 4066 506 3578 182 
Q 3091 -141 2491 -141 
z
M 1428 691 
Q 1616 397 1891 223 
Q 2166 50 2491 50 
Q 2700 50 2901 134 
Q 3103 219 3267 366 
Q 3431 513 3547 691 
Q 3928 1266 3928 2272 
Q 3928 3194 3547 3731 
Q 3359 4000 3079 4162 
Q 2800 4325 2491 4325 
Q 2178 4325 1897 4162 
Q 1616 4000 1428 3731 
Q 1278 3522 1195 3286 
Q 1113 3050 1078 2797 
Q 1044 2544 1044 2272 
Q 1044 1981 1076 1704 
Q 1109 1428 1198 1162 
Q 1288 897 1428 691 
z
" transform="scale(0.015625)"/>
      <path id="Cmr10-56" d="M 2253 -72 
L 744 3944 
Q 688 4078 528 4112 
Q 369 4147 122 4147 
L 122 4372 
L 1881 4372 
L 1881 4147 
Q 1350 4147 1350 3981 
Q 1353 3972 1354 3964 
Q 1356 3956 1356 3944 
L 2584 678 
L 3744 3769 
Q 3756 3794 3756 3847 
Q 3756 4003 3612 4075 
Q 3469 4147 3291 4147 
L 3291 4372 
L 4672 4372 
L 4672 4147 
Q 4431 4147 4248 4058 
Q 4066 3969 3988 3769 
L 2541 -72 
Q 2522 -141 2438 -141 
L 2356 -141 
Q 2272 -141 2253 -72 
z
" transform="scale(0.015625)"/>
     </defs>
     <use xlink:href="#Cmr10-52"/>
     <use xlink:href="#Cmr10-4f" transform="translate(73.583984 0)"/>
     <use xlink:href="#Cmr10-56" transform="translate(151.269531 0)"/>
    </g>
   </g>
  </g>
  <g id="axes_2">
   <g id="patch_8">
    <path d="M 423.071078 246.3865 
L 777.345281 246.3865 
L 777.345281 51.585 
L 423.071078 51.585 
z
" style="fill: #ffffff"/>
   </g>
   <g id="patch_9">
    <path d="M 423.071078 237.531886 
L 777.345281 237.531886 
L 777.345281 165.644743 
L 423.071078 165.644743 
z
" clip-path="url(#p5af9707e42)" style="fill: #808080; opacity: 0.15; stroke: #808080; stroke-linejoin: miter"/>
   </g>
   <g id="matplotlib.axis_3">
    <g id="xtick_16">
     <g id="line2d_66">
      <path d="M 509.418746 246.3865 
L 509.418746 51.585 
" clip-path="url(#p5af9707e42)" style="fill: none; stroke-dasharray: 2.96,1.28; stroke-dashoffset: 0; stroke: #b0b0b0; stroke-opacity: 0.4; stroke-width: 0.8"/>
     </g>
     <g id="line2d_67">
      <g>
       <use xlink:href="#m3bb5143fd9" x="509.418746" y="246.3865" style="stroke: #000000; stroke-width: 0.8"/>
      </g>
     </g>
     <g id="text_10">
      <!-- $\mathdefault{10^{1}}$ -->
      <g transform="translate(502.068746 260.347437) scale(0.1 -0.1)">
       <use xlink:href="#Cmr10-31" transform="translate(0 0.223438)"/>
       <use xlink:href="#Cmr10-30" transform="translate(50 0.223438)"/>
       <use xlink:href="#Cmr10-31" transform="translate(104.5675 39.373438) scale(0.7)"/>
      </g>
     </g>
    </g>
    <g id="xtick_17">
     <g id="line2d_68">
      <path d="M 742.765242 246.3865 
L 742.765242 51.585 
" clip-path="url(#p5af9707e42)" style="fill: none; stroke-dasharray: 2.96,1.28; stroke-dashoffset: 0; stroke: #b0b0b0; stroke-opacity: 0.4; stroke-width: 0.8"/>
     </g>
     <g id="line2d_69">
      <g>
       <use xlink:href="#m3bb5143fd9" x="742.765242" y="246.3865" style="stroke: #000000; stroke-width: 0.8"/>
      </g>
     </g>
     <g id="text_11">
      <!-- $\mathdefault{10^{2}}$ -->
      <g transform="translate(735.415242 260.347437) scale(0.1 -0.1)">
       <use xlink:href="#Cmr10-31" transform="translate(0 0.223438)"/>
       <use xlink:href="#Cmr10-30" transform="translate(50 0.223438)"/>
       <use xlink:href="#Cmr10-32" transform="translate(104.5675 39.373438) scale(0.7)"/>
      </g>
     </g>
    </g>
    <g id="xtick_18">
     <g id="line2d_70">
      <g>
       <use xlink:href="#m3daaa91885" x="439.174451" y="246.3865" style="stroke: #000000; stroke-width: 0.6"/>
      </g>
     </g>
    </g>
    <g id="xtick_19">
     <g id="line2d_71">
      <g>
       <use xlink:href="#m3daaa91885" x="457.651117" y="246.3865" style="stroke: #000000; stroke-width: 0.6"/>
      </g>
     </g>
    </g>
    <g id="xtick_20">
     <g id="line2d_72">
      <g>
       <use xlink:href="#m3daaa91885" x="473.272916" y="246.3865" style="stroke: #000000; stroke-width: 0.6"/>
      </g>
     </g>
    </g>
    <g id="xtick_21">
     <g id="line2d_73">
      <g>
       <use xlink:href="#m3daaa91885" x="486.805134" y="246.3865" style="stroke: #000000; stroke-width: 0.6"/>
      </g>
     </g>
    </g>
    <g id="xtick_22">
     <g id="line2d_74">
      <g>
       <use xlink:href="#m3daaa91885" x="498.741396" y="246.3865" style="stroke: #000000; stroke-width: 0.6"/>
      </g>
     </g>
    </g>
    <g id="xtick_23">
     <g id="line2d_75">
      <g>
       <use xlink:href="#m3daaa91885" x="579.663041" y="246.3865" style="stroke: #000000; stroke-width: 0.6"/>
      </g>
     </g>
    </g>
    <g id="xtick_24">
     <g id="line2d_76">
      <g>
       <use xlink:href="#m3daaa91885" x="620.753319" y="246.3865" style="stroke: #000000; stroke-width: 0.6"/>
      </g>
     </g>
    </g>
    <g id="xtick_25">
     <g id="line2d_77">
      <g>
       <use xlink:href="#m3daaa91885" x="649.907335" y="246.3865" style="stroke: #000000; stroke-width: 0.6"/>
      </g>
     </g>
    </g>
    <g id="xtick_26">
     <g id="line2d_78">
      <g>
       <use xlink:href="#m3daaa91885" x="672.520947" y="246.3865" style="stroke: #000000; stroke-width: 0.6"/>
      </g>
     </g>
    </g>
    <g id="xtick_27">
     <g id="line2d_79">
      <g>
       <use xlink:href="#m3daaa91885" x="690.997614" y="246.3865" style="stroke: #000000; stroke-width: 0.6"/>
      </g>
     </g>
    </g>
    <g id="xtick_28">
     <g id="line2d_80">
      <g>
       <use xlink:href="#m3daaa91885" x="706.619412" y="246.3865" style="stroke: #000000; stroke-width: 0.6"/>
      </g>
     </g>
    </g>
    <g id="xtick_29">
     <g id="line2d_81">
      <g>
       <use xlink:href="#m3daaa91885" x="720.15163" y="246.3865" style="stroke: #000000; stroke-width: 0.6"/>
      </g>
     </g>
    </g>
    <g id="xtick_30">
     <g id="line2d_82">
      <g>
       <use xlink:href="#m3daaa91885" x="732.087892" y="246.3865" style="stroke: #000000; stroke-width: 0.6"/>
      </g>
     </g>
    </g>
    <g id="text_12">
     <!-- TDMA interval (s) -->
     <g transform="translate(558.475367 273.7865) scale(0.1 -0.1)">
      <use xlink:href="#Cmr10-54"/>
      <use xlink:href="#Cmr10-44" transform="translate(72.216797 0)"/>
      <use xlink:href="#Cmr10-4d" transform="translate(148.535156 0)"/>
      <use xlink:href="#Cmr10-41" transform="translate(240.136719 0)"/>
      <use xlink:href="#Cmr10-20" transform="translate(315.136719 0)"/>
      <use xlink:href="#Cmr10-69" transform="translate(348.4375 0)"/>
      <use xlink:href="#Cmr10-6e" transform="translate(376.123047 0)"/>
      <use xlink:href="#Cmr10-74" transform="translate(431.640625 0)"/>
      <use xlink:href="#Cmr10-65" transform="translate(470.458984 0)"/>
      <use xlink:href="#Cmr10-72" transform="translate(514.84375 0)"/>
      <use xlink:href="#Cmr10-76" transform="translate(553.955078 0)"/>
      <use xlink:href="#Cmr10-61" transform="translate(606.640625 0)"/>
      <use xlink:href="#Cmr10-6c" transform="translate(656.640625 0)"/>
      <use xlink:href="#Cmr10-20" transform="translate(684.326172 0)"/>
      <use xlink:href="#Cmr10-28" transform="translate(717.626953 0)"/>
      <use xlink:href="#Cmr10-73" transform="translate(756.445312 0)"/>
      <use xlink:href="#Cmr10-29" transform="translate(795.849609 0)"/>
     </g>
    </g>
   </g>
   <g id="matplotlib.axis_4">
    <g id="ytick_39">
     <g id="line2d_83">
      <path d="M 423.071078 208.281594 
L 777.345281 208.281594 
" clip-path="url(#p5af9707e42)" style="fill: none; stroke-dasharray: 2.96,1.28; stroke-dashoffset: 0; stroke: #b0b0b0; stroke-opacity: 0.4; stroke-width: 0.8"/>
     </g>
     <g id="line2d_84">
      <g>
       <use xlink:href="#m5425174991" x="423.071078" y="208.281594" style="stroke: #000000; stroke-width: 0.8"/>
      </g>
     </g>
    </g>
    <g id="ytick_40">
     <g id="line2d_85">
      <path d="M 423.071078 164.35947 
L 777.345281 164.35947 
" clip-path="url(#p5af9707e42)" style="fill: none; stroke-dasharray: 2.96,1.28; stroke-dashoffset: 0; stroke: #b0b0b0; stroke-opacity: 0.4; stroke-width: 0.8"/>
     </g>
     <g id="line2d_86">
      <g>
       <use xlink:href="#m5425174991" x="423.071078" y="164.35947" style="stroke: #000000; stroke-width: 0.8"/>
      </g>
     </g>
    </g>
    <g id="ytick_41">
     <g id="line2d_87">
      <path d="M 423.071078 120.437346 
L 777.345281 120.437346 
" clip-path="url(#p5af9707e42)" style="fill: none; stroke-dasharray: 2.96,1.28; stroke-dashoffset: 0; stroke: #b0b0b0; stroke-opacity: 0.4; stroke-width: 0.8"/>
     </g>
     <g id="line2d_88">
      <g>
       <use xlink:href="#m5425174991" x="423.071078" y="120.437346" style="stroke: #000000; stroke-width: 0.8"/>
      </g>
     </g>
    </g>
    <g id="ytick_42">
     <g id="line2d_89">
      <path d="M 423.071078 76.515222 
L 777.345281 76.515222 
" clip-path="url(#p5af9707e42)" style="fill: none; stroke-dasharray: 2.96,1.28; stroke-dashoffset: 0; stroke: #b0b0b0; stroke-opacity: 0.4; stroke-width: 0.8"/>
     </g>
     <g id="line2d_90">
      <g>
       <use xlink:href="#m5425174991" x="423.071078" y="76.515222" style="stroke: #000000; stroke-width: 0.8"/>
      </g>
     </g>
    </g>
    <g id="ytick_43">
     <g id="line2d_91">
      <g>
       <use xlink:href="#m10da7a8bc7" x="423.071078" y="238.981841" style="stroke: #000000; stroke-width: 0.6"/>
      </g>
     </g>
    </g>
    <g id="ytick_44">
     <g id="line2d_92">
      <g>
       <use xlink:href="#m10da7a8bc7" x="423.071078" y="231.247539" style="stroke: #000000; stroke-width: 0.6"/>
      </g>
     </g>
    </g>
    <g id="ytick_45">
     <g id="line2d_93">
      <g>
       <use xlink:href="#m10da7a8bc7" x="423.071078" y="225.759965" style="stroke: #000000; stroke-width: 0.6"/>
      </g>
     </g>
    </g>
    <g id="ytick_46">
     <g id="line2d_94">
      <g>
       <use xlink:href="#m10da7a8bc7" x="423.071078" y="221.503471" style="stroke: #000000; stroke-width: 0.6"/>
      </g>
     </g>
    </g>
    <g id="ytick_47">
     <g id="line2d_95">
      <g>
       <use xlink:href="#m10da7a8bc7" x="423.071078" y="218.025662" style="stroke: #000000; stroke-width: 0.6"/>
      </g>
     </g>
    </g>
    <g id="ytick_48">
     <g id="line2d_96">
      <g>
       <use xlink:href="#m10da7a8bc7" x="423.071078" y="215.085217" style="stroke: #000000; stroke-width: 0.6"/>
      </g>
     </g>
    </g>
    <g id="ytick_49">
     <g id="line2d_97">
      <g>
       <use xlink:href="#m10da7a8bc7" x="423.071078" y="212.538088" style="stroke: #000000; stroke-width: 0.6"/>
      </g>
     </g>
    </g>
    <g id="ytick_50">
     <g id="line2d_98">
      <g>
       <use xlink:href="#m10da7a8bc7" x="423.071078" y="210.29136" style="stroke: #000000; stroke-width: 0.6"/>
      </g>
     </g>
    </g>
    <g id="ytick_51">
     <g id="line2d_99">
      <g>
       <use xlink:href="#m10da7a8bc7" x="423.071078" y="195.059717" style="stroke: #000000; stroke-width: 0.6"/>
      </g>
     </g>
    </g>
    <g id="ytick_52">
     <g id="line2d_100">
      <g>
       <use xlink:href="#m10da7a8bc7" x="423.071078" y="187.325415" style="stroke: #000000; stroke-width: 0.6"/>
      </g>
     </g>
    </g>
    <g id="ytick_53">
     <g id="line2d_101">
      <g>
       <use xlink:href="#m10da7a8bc7" x="423.071078" y="181.837841" style="stroke: #000000; stroke-width: 0.6"/>
      </g>
     </g>
    </g>
    <g id="ytick_54">
     <g id="line2d_102">
      <g>
       <use xlink:href="#m10da7a8bc7" x="423.071078" y="177.581347" style="stroke: #000000; stroke-width: 0.6"/>
      </g>
     </g>
    </g>
    <g id="ytick_55">
     <g id="line2d_103">
      <g>
       <use xlink:href="#m10da7a8bc7" x="423.071078" y="174.103539" style="stroke: #000000; stroke-width: 0.6"/>
      </g>
     </g>
    </g>
    <g id="ytick_56">
     <g id="line2d_104">
      <g>
       <use xlink:href="#m10da7a8bc7" x="423.071078" y="171.163093" style="stroke: #000000; stroke-width: 0.6"/>
      </g>
     </g>
    </g>
    <g id="ytick_57">
     <g id="line2d_105">
      <g>
       <use xlink:href="#m10da7a8bc7" x="423.071078" y="168.615964" style="stroke: #000000; stroke-width: 0.6"/>
      </g>
     </g>
    </g>
    <g id="ytick_58">
     <g id="line2d_106">
      <g>
       <use xlink:href="#m10da7a8bc7" x="423.071078" y="166.369236" style="stroke: #000000; stroke-width: 0.6"/>
      </g>
     </g>
    </g>
    <g id="ytick_59">
     <g id="line2d_107">
      <g>
       <use xlink:href="#m10da7a8bc7" x="423.071078" y="151.137593" style="stroke: #000000; stroke-width: 0.6"/>
      </g>
     </g>
    </g>
    <g id="ytick_60">
     <g id="line2d_108">
      <g>
       <use xlink:href="#m10da7a8bc7" x="423.071078" y="143.403291" style="stroke: #000000; stroke-width: 0.6"/>
      </g>
     </g>
    </g>
    <g id="ytick_61">
     <g id="line2d_109">
      <g>
       <use xlink:href="#m10da7a8bc7" x="423.071078" y="137.915717" style="stroke: #000000; stroke-width: 0.6"/>
      </g>
     </g>
    </g>
    <g id="ytick_62">
     <g id="line2d_110">
      <g>
       <use xlink:href="#m10da7a8bc7" x="423.071078" y="133.659223" style="stroke: #000000; stroke-width: 0.6"/>
      </g>
     </g>
    </g>
    <g id="ytick_63">
     <g id="line2d_111">
      <g>
       <use xlink:href="#m10da7a8bc7" x="423.071078" y="130.181415" style="stroke: #000000; stroke-width: 0.6"/>
      </g>
     </g>
    </g>
    <g id="ytick_64">
     <g id="line2d_112">
      <g>
       <use xlink:href="#m10da7a8bc7" x="423.071078" y="127.240969" style="stroke: #000000; stroke-width: 0.6"/>
      </g>
     </g>
    </g>
    <g id="ytick_65">
     <g id="line2d_113">
      <g>
       <use xlink:href="#m10da7a8bc7" x="423.071078" y="124.69384" style="stroke: #000000; stroke-width: 0.6"/>
      </g>
     </g>
    </g>
    <g id="ytick_66">
     <g id="line2d_114">
      <g>
       <use xlink:href="#m10da7a8bc7" x="423.071078" y="122.447112" style="stroke: #000000; stroke-width: 0.6"/>
      </g>
     </g>
    </g>
    <g id="ytick_67">
     <g id="line2d_115">
      <g>
       <use xlink:href="#m10da7a8bc7" x="423.071078" y="107.21547" style="stroke: #000000; stroke-width: 0.6"/>
      </g>
     </g>
    </g>
    <g id="ytick_68">
     <g id="line2d_116">
      <g>
       <use xlink:href="#m10da7a8bc7" x="423.071078" y="99.481167" style="stroke: #000000; stroke-width: 0.6"/>
      </g>
     </g>
    </g>
    <g id="ytick_69">
     <g id="line2d_117">
      <g>
       <use xlink:href="#m10da7a8bc7" x="423.071078" y="93.993593" style="stroke: #000000; stroke-width: 0.6"/>
      </g>
     </g>
    </g>
    <g id="ytick_70">
     <g id="line2d_118">
      <g>
       <use xlink:href="#m10da7a8bc7" x="423.071078" y="89.737099" style="stroke: #000000; stroke-width: 0.6"/>
      </g>
     </g>
    </g>
    <g id="ytick_71">
     <g id="line2d_119">
      <g>
       <use xlink:href="#m10da7a8bc7" x="423.071078" y="86.259291" style="stroke: #000000; stroke-width: 0.6"/>
      </g>
     </g>
    </g>
    <g id="ytick_72">
     <g id="line2d_120">
      <g>
       <use xlink:href="#m10da7a8bc7" x="423.071078" y="83.318845" style="stroke: #000000; stroke-width: 0.6"/>
      </g>
     </g>
    </g>
    <g id="ytick_73">
     <g id="line2d_121">
      <g>
       <use xlink:href="#m10da7a8bc7" x="423.071078" y="80.771716" style="stroke: #000000; stroke-width: 0.6"/>
      </g>
     </g>
    </g>
    <g id="ytick_74">
     <g id="line2d_122">
      <g>
       <use xlink:href="#m10da7a8bc7" x="423.071078" y="78.524989" style="stroke: #000000; stroke-width: 0.6"/>
      </g>
     </g>
    </g>
    <g id="ytick_75">
     <g id="line2d_123">
      <g>
       <use xlink:href="#m10da7a8bc7" x="423.071078" y="63.293346" style="stroke: #000000; stroke-width: 0.6"/>
      </g>
     </g>
    </g>
    <g id="ytick_76">
     <g id="line2d_124">
      <g>
       <use xlink:href="#m10da7a8bc7" x="423.071078" y="55.559043" style="stroke: #000000; stroke-width: 0.6"/>
      </g>
     </g>
    </g>
    <g id="text_13">
     <!-- NEES -->
     <g transform="translate(413.632016 162.313094) rotate(-90) scale(0.1 -0.1)">
      <use xlink:href="#Cmr10-4e"/>
      <use xlink:href="#Cmr10-45" transform="translate(75 0)"/>
      <use xlink:href="#Cmr10-45" transform="translate(143.017578 0)"/>
      <use xlink:href="#Cmr10-53" transform="translate(211.035156 0)"/>
     </g>
    </g>
   </g>
   <g id="line2d_125">
    <path d="M 439.174451 183.292944 
L 509.418746 186.051245 
L 579.663041 185.700414 
L 620.753319 185.087832 
L 690.997614 185.646755 
L 761.241908 185.590237 
" clip-path="url(#p5af9707e42)" style="fill: none; stroke: #1f77b4; stroke-width: 1.5; stroke-linecap: square"/>
    <g clip-path="url(#p5af9707e42)">
     <use xlink:href="#m607b502ce3" x="439.174451" y="183.292944" style="fill: #1f77b4; stroke: #1f77b4"/>
     <use xlink:href="#m607b502ce3" x="509.418746" y="186.051245" style="fill: #1f77b4; stroke: #1f77b4"/>
     <use xlink:href="#m607b502ce3" x="579.663041" y="185.700414" style="fill: #1f77b4; stroke: #1f77b4"/>
     <use xlink:href="#m607b502ce3" x="620.753319" y="185.087832" style="fill: #1f77b4; stroke: #1f77b4"/>
     <use xlink:href="#m607b502ce3" x="690.997614" y="185.646755" style="fill: #1f77b4; stroke: #1f77b4"/>
     <use xlink:href="#m607b502ce3" x="761.241908" y="185.590237" style="fill: #1f77b4; stroke: #1f77b4"/>
    </g>
   </g>
   <g id="line2d_126">
    <path d="M 439.174451 181.144339 
L 509.418746 183.657519 
L 579.663041 185.668292 
L 620.753319 185.281148 
L 690.997614 185.476931 
L 761.241908 185.45231 
" clip-path="url(#p5af9707e42)" style="fill: none; stroke: #ff7f0e; stroke-width: 1.5; stroke-linecap: square"/>
    <g clip-path="url(#p5af9707e42)">
     <use xlink:href="#m07923a3aad" x="439.174451" y="181.144339" style="fill: #ff7f0e; stroke: #ff7f0e"/>
     <use xlink:href="#m07923a3aad" x="509.418746" y="183.657519" style="fill: #ff7f0e; stroke: #ff7f0e"/>
     <use xlink:href="#m07923a3aad" x="579.663041" y="185.668292" style="fill: #ff7f0e; stroke: #ff7f0e"/>
     <use xlink:href="#m07923a3aad" x="620.753319" y="185.281148" style="fill: #ff7f0e; stroke: #ff7f0e"/>
     <use xlink:href="#m07923a3aad" x="690.997614" y="185.476931" style="fill: #ff7f0e; stroke: #ff7f0e"/>
     <use xlink:href="#m07923a3aad" x="761.241908" y="185.45231" style="fill: #ff7f0e; stroke: #ff7f0e"/>
    </g>
   </g>
   <g id="line2d_127">
    <path d="M 439.174451 181.964257 
L 509.418746 183.591622 
L 579.663041 185.886583 
L 620.753319 185.031692 
L 690.997614 185.629042 
L 761.241908 185.813911 
" clip-path="url(#p5af9707e42)" style="fill: none; stroke: #2ca02c; stroke-width: 1.5; stroke-linecap: square"/>
    <g clip-path="url(#p5af9707e42)">
     <use xlink:href="#meb00481686" x="439.174451" y="181.964257" style="fill: #2ca02c; stroke: #2ca02c"/>
     <use xlink:href="#meb00481686" x="509.418746" y="183.591622" style="fill: #2ca02c; stroke: #2ca02c"/>
     <use xlink:href="#meb00481686" x="579.663041" y="185.886583" style="fill: #2ca02c; stroke: #2ca02c"/>
     <use xlink:href="#meb00481686" x="620.753319" y="185.031692" style="fill: #2ca02c; stroke: #2ca02c"/>
     <use xlink:href="#meb00481686" x="690.997614" y="185.629042" style="fill: #2ca02c; stroke: #2ca02c"/>
     <use xlink:href="#meb00481686" x="761.241908" y="185.813911" style="fill: #2ca02c; stroke: #2ca02c"/>
    </g>
   </g>
   <g id="line2d_128">
    <path d="M 439.174451 187.319522 
L 509.418746 187.173405 
L 579.663041 187.288591 
L 620.753319 187.167656 
L 690.997614 187.266389 
L 761.241908 187.267564 
" clip-path="url(#p5af9707e42)" style="fill: none; stroke: #d62728; stroke-width: 1.5; stroke-linecap: square"/>
    <g clip-path="url(#p5af9707e42)">
     <use xlink:href="#mb315574f1f" x="439.174451" y="187.319522" style="fill: #d62728; stroke: #d62728; stroke-linejoin: miter"/>
     <use xlink:href="#mb315574f1f" x="509.418746" y="187.173405" style="fill: #d62728; stroke: #d62728; stroke-linejoin: miter"/>
     <use xlink:href="#mb315574f1f" x="579.663041" y="187.288591" style="fill: #d62728; stroke: #d62728; stroke-linejoin: miter"/>
     <use xlink:href="#mb315574f1f" x="620.753319" y="187.167656" style="fill: #d62728; stroke: #d62728; stroke-linejoin: miter"/>
     <use xlink:href="#mb315574f1f" x="690.997614" y="187.266389" style="fill: #d62728; stroke: #d62728; stroke-linejoin: miter"/>
     <use xlink:href="#mb315574f1f" x="761.241908" y="187.267564" style="fill: #d62728; stroke: #d62728; stroke-linejoin: miter"/>
    </g>
   </g>
   <g id="line2d_129">
    <path d="M 439.174451 187.195496 
L 509.418746 187.191171 
L 579.663041 187.265278 
L 620.753319 187.253553 
L 690.997614 187.267263 
L 761.241908 187.271418 
" clip-path="url(#p5af9707e42)" style="fill: none; stroke: #9467bd; stroke-width: 1.5; stroke-linecap: square"/>
    <g clip-path="url(#p5af9707e42)">
     <use xlink:href="#me83f838d48" x="439.174451" y="187.195496" style="fill: #9467bd; stroke: #9467bd; stroke-linejoin: miter"/>
     <use xlink:href="#me83f838d48" x="509.418746" y="187.191171" style="fill: #9467bd; stroke: #9467bd; stroke-linejoin: miter"/>
     <use xlink:href="#me83f838d48" x="579.663041" y="187.265278" style="fill: #9467bd; stroke: #9467bd; stroke-linejoin: miter"/>
     <use xlink:href="#me83f838d48" x="620.753319" y="187.253553" style="fill: #9467bd; stroke: #9467bd; stroke-linejoin: miter"/>
     <use xlink:href="#me83f838d48" x="690.997614" y="187.267263" style="fill: #9467bd; stroke: #9467bd; stroke-linejoin: miter"/>
     <use xlink:href="#me83f838d48" x="761.241908" y="187.271418" style="fill: #9467bd; stroke: #9467bd; stroke-linejoin: miter"/>
    </g>
   </g>
   <g id="line2d_130">
    <path d="M 439.174451 187.246267 
L 509.418746 187.218073 
L 579.663041 187.262018 
L 620.753319 187.25903 
L 690.997614 187.261734 
L 761.241908 187.275167 
" clip-path="url(#p5af9707e42)" style="fill: none; stroke: #8c564b; stroke-width: 1.5; stroke-linecap: square"/>
    <g clip-path="url(#p5af9707e42)">
     <use xlink:href="#mcd6d00fba1" x="439.174451" y="187.246267" style="fill: #8c564b; stroke: #8c564b; stroke-linejoin: miter"/>
     <use xlink:href="#mcd6d00fba1" x="509.418746" y="187.218073" style="fill: #8c564b; stroke: #8c564b; stroke-linejoin: miter"/>
     <use xlink:href="#mcd6d00fba1" x="579.663041" y="187.262018" style="fill: #8c564b; stroke: #8c564b; stroke-linejoin: miter"/>
     <use xlink:href="#mcd6d00fba1" x="620.753319" y="187.25903" style="fill: #8c564b; stroke: #8c564b; stroke-linejoin: miter"/>
     <use xlink:href="#mcd6d00fba1" x="690.997614" y="187.261734" style="fill: #8c564b; stroke: #8c564b; stroke-linejoin: miter"/>
     <use xlink:href="#mcd6d00fba1" x="761.241908" y="187.275167" style="fill: #8c564b; stroke: #8c564b; stroke-linejoin: miter"/>
    </g>
   </g>
   <g id="patch_10">
    <path d="M 423.071078 246.3865 
L 423.071078 51.585 
" style="fill: none; stroke: #000000; stroke-width: 0.8; stroke-linejoin: miter; stroke-linecap: square"/>
   </g>
   <g id="patch_11">
    <path d="M 777.345281 246.3865 
L 777.345281 51.585 
" style="fill: none; stroke: #000000; stroke-width: 0.8; stroke-linejoin: miter; stroke-linecap: square"/>
   </g>
   <g id="patch_12">
    <path d="M 423.071078 246.3865 
L 777.345281 246.3865 
" style="fill: none; stroke: #000000; stroke-width: 0.8; stroke-linejoin: miter; stroke-linecap: square"/>
   </g>
   <g id="patch_13">
    <path d="M 423.071078 51.585 
L 777.345281 51.585 
" style="fill: none; stroke: #000000; stroke-width: 0.8; stroke-linejoin: miter; stroke-linecap: square"/>
   </g>
   <g id="text_14">
    <!-- ASV -->
    <g transform="translate(587.877242 45.585) scale(0.12 -0.12)">
     <use xlink:href="#Cmr10-41"/>
     <use xlink:href="#Cmr10-53" transform="translate(75 0)"/>
     <use xlink:href="#Cmr10-56" transform="translate(130.517578 0)"/>
    </g>
   </g>
   <g id="legend_1">
    <g id="patch_14">
     <path d="M 692.084031 137.9325 
L 771.745281 137.9325 
Q 773.345281 137.9325 773.345281 136.3325 
L 773.345281 57.185 
Q 773.345281 55.585 771.745281 55.585 
L 692.084031 55.585 
Q 690.484031 55.585 690.484031 57.185 
L 690.484031 136.3325 
Q 690.484031 137.9325 692.084031 137.9325 
z
" style="fill: #ffffff; opacity: 0.8; stroke: #cccccc; stroke-linejoin: miter"/>
    </g>
    <g id="patch_15">
     <path d="M 693.684031 65.585 
L 709.684031 65.585 
L 709.684031 59.985 
L 693.684031 59.985 
z
" style="fill: #808080; opacity: 0.15; stroke: #808080; stroke-linejoin: miter"/>
    </g>
    <g id="text_15">
     <!-- $95\%\,\chi^2_{3}$ -->
     <g transform="translate(716.084031 65.585) scale(0.08 -0.08)">
      <defs>
       <path id="Cmr10-39" d="M 722 269 
Q 897 63 1331 63 
Q 1575 63 1786 228 
Q 1997 394 2113 634 
Q 2247 906 2284 1214 
Q 2322 1522 2322 1978 
Q 2213 1719 2008 1553 
Q 1803 1388 1538 1388 
Q 1166 1388 873 1589 
Q 581 1791 425 2120 
Q 269 2450 269 2822 
Q 269 3206 444 3539 
Q 619 3872 928 4067 
Q 1238 4263 1631 4263 
Q 2019 4263 2280 4052 
Q 2541 3841 2678 3508 
Q 2816 3175 2870 2803 
Q 2925 2431 2925 2069 
Q 2925 1575 2744 1061 
Q 2563 547 2202 203 
Q 1841 -141 1331 -141 
Q 953 -141 690 37 
Q 428 216 428 575 
Q 428 706 517 795 
Q 606 884 738 884 
Q 866 884 955 795 
Q 1044 706 1044 575 
Q 1044 450 953 359 
Q 863 269 738 269 
L 722 269 
z
M 1563 1556 
Q 1825 1556 1992 1732 
Q 2159 1909 2234 2171 
Q 2309 2434 2309 2694 
L 2309 2816 
L 2309 2841 
Q 2309 3322 2168 3700 
Q 2028 4078 1631 4078 
Q 1378 4078 1220 3967 
Q 1063 3856 988 3672 
Q 913 3488 892 3278 
Q 872 3069 872 2822 
Q 872 2459 906 2203 
Q 941 1947 1094 1751 
Q 1247 1556 1563 1556 
z
" transform="scale(0.015625)"/>
       <path id="Cmr10-35" d="M 556 728 
Q 622 541 758 387 
Q 894 234 1080 148 
Q 1266 63 1466 63 
Q 1928 63 2103 422 
Q 2278 781 2278 1294 
Q 2278 1516 2270 1667 
Q 2263 1819 2228 1959 
Q 2169 2184 2020 2353 
Q 1872 2522 1656 2522 
Q 1441 2522 1286 2456 
Q 1131 2391 1034 2303 
Q 938 2216 863 2119 
Q 788 2022 769 2016 
L 697 2016 
Q 681 2016 657 2036 
Q 634 2056 634 2075 
L 634 4213 
Q 634 4228 654 4245 
Q 675 4263 697 4263 
L 716 4263 
Q 1147 4056 1631 4056 
Q 2106 4056 2547 4263 
L 2566 4263 
Q 2588 4263 2606 4247 
Q 2625 4231 2625 4213 
L 2625 4153 
Q 2625 4122 2613 4122 
Q 2394 3831 2064 3668 
Q 1734 3506 1381 3506 
Q 1125 3506 856 3578 
L 856 2369 
Q 1069 2541 1236 2614 
Q 1403 2688 1663 2688 
Q 2016 2688 2295 2484 
Q 2575 2281 2725 1954 
Q 2875 1628 2875 1288 
Q 2875 903 2686 575 
Q 2497 247 2172 53 
Q 1847 -141 1466 -141 
Q 1150 -141 886 21 
Q 622 184 470 459 
Q 319 734 319 1044 
Q 319 1188 412 1278 
Q 506 1369 647 1369 
Q 788 1369 883 1276 
Q 978 1184 978 1044 
Q 978 906 883 811 
Q 788 716 647 716 
Q 625 716 597 720 
Q 569 725 556 728 
z
" transform="scale(0.015625)"/>
       <path id="Cmr10-25" d="M 891 -231 
Q 891 -194 909 -166 
L 3809 4153 
Q 3425 3938 2963 3938 
Q 2463 3938 2003 4197 
Q 2131 3891 2131 3513 
Q 2131 3306 2082 3086 
Q 2034 2866 1934 2670 
Q 1834 2475 1676 2348 
Q 1519 2222 1306 2222 
Q 1006 2222 790 2422 
Q 575 2622 467 2922 
Q 359 3222 359 3513 
Q 359 3797 467 4098 
Q 575 4400 790 4600 
Q 1006 4800 1306 4800 
Q 1544 4800 1741 4609 
Q 2256 4103 2963 4103 
Q 3341 4103 3669 4270 
Q 3997 4438 4206 4750 
Q 4238 4800 4306 4800 
Q 4363 4800 4398 4765 
Q 4434 4731 4434 4672 
Q 4434 4638 4416 4609 
L 1113 -319 
Q 1084 -359 1019 -359 
Q 966 -359 928 -318 
Q 891 -278 891 -231 
z
M 1306 2388 
Q 1622 2388 1784 2764 
Q 1947 3141 1947 3513 
Q 1947 3722 1880 3989 
Q 1813 4256 1669 4445 
Q 1525 4634 1306 4634 
Q 988 4634 884 4279 
Q 781 3925 781 3506 
Q 781 3103 887 2745 
Q 994 2388 1306 2388 
z
M 4141 -359 
Q 3841 -359 3625 -159 
Q 3409 41 3301 342 
Q 3194 644 3194 934 
Q 3194 1219 3301 1520 
Q 3409 1822 3625 2022 
Q 3841 2222 4141 2222 
Q 4419 2222 4606 2011 
Q 4794 1800 4880 1503 
Q 4966 1206 4966 934 
Q 4966 728 4917 509 
Q 4869 291 4770 92 
Q 4672 -106 4514 -232 
Q 4356 -359 4141 -359 
z
M 4141 -191 
Q 4356 -191 4503 1 
Q 4650 194 4715 459 
Q 4781 725 4781 934 
Q 4781 1303 4618 1678 
Q 4456 2053 4141 2053 
Q 3822 2053 3719 1698 
Q 3616 1344 3616 928 
Q 3616 522 3722 165 
Q 3828 -191 4141 -191 
z
" transform="scale(0.015625)"/>
       <path id="Cmmi10-c2" d="M 275 -1241 
Q 244 -1241 214 -1214 
Q 184 -1188 184 -1159 
Q 184 -1116 213 -1094 
L 1778 647 
Q 1672 1034 1539 1454 
Q 1406 1875 1220 2269 
Q 1034 2663 891 2663 
Q 766 2663 694 2594 
Q 622 2525 567 2423 
Q 513 2322 494 2316 
L 416 2316 
Q 397 2316 381 2337 
Q 366 2359 366 2381 
Q 366 2484 455 2589 
Q 544 2694 673 2761 
Q 803 2828 916 2828 
Q 1169 2828 1375 2737 
Q 1581 2647 1684 2444 
Q 1775 2250 1859 2026 
Q 1944 1803 2020 1550 
Q 2097 1297 2163 1069 
L 3647 2719 
Q 3678 2759 3725 2759 
Q 3763 2759 3789 2736 
Q 3816 2713 3816 2675 
Q 3816 2634 3788 2613 
L 2222 872 
Q 2297 588 2447 114 
Q 2597 -359 2780 -753 
Q 2963 -1147 3109 -1147 
Q 3228 -1147 3303 -1076 
Q 3378 -1006 3434 -906 
Q 3491 -806 3506 -800 
L 3584 -800 
Q 3634 -800 3634 -863 
Q 3634 -1022 3445 -1167 
Q 3256 -1313 3084 -1313 
Q 2834 -1313 2628 -1222 
Q 2422 -1131 2322 -928 
Q 2084 -422 1838 447 
L 353 -1203 
Q 322 -1241 275 -1241 
z
" transform="scale(0.015625)"/>
      </defs>
      <use xlink:href="#Cmr10-39" transform="translate(0 0.109375)"/>
      <use xlink:href="#Cmr10-35" transform="translate(50 0.109375)"/>
      <use xlink:href="#Cmr10-25" transform="translate(100 0.109375)"/>
      <use xlink:href="#Cmmi10-c2" transform="translate(197.933235 0.109375)"/>
      <use xlink:href="#Cmr10-32" transform="translate(266.736517 38.373438) scale(0.7)"/>
      <use xlink:href="#Cmr10-33" transform="translate(260.433235 -25.4) scale(0.7)"/>
     </g>
    </g>
    <g id="line2d_131">
     <path d="M 693.684031 74.625 
L 701.684031 74.625 
L 709.684031 74.625 
" style="fill: none; stroke: #1f77b4; stroke-width: 1.5; stroke-linecap: square"/>
     <g>
      <use xlink:href="#m607b502ce3" x="701.684031" y="74.625" style="fill: #1f77b4; stroke: #1f77b4"/>
     </g>
    </g>
    <g id="text_16">
     <!-- ESKF B -->
     <g transform="translate(716.084031 77.425) scale(0.08 -0.08)">
      <defs>
       <path id="Cmr10-4b" d="M 197 0 
L 197 225 
Q 856 225 856 428 
L 856 3944 
Q 856 4147 197 4147 
L 197 4372 
L 2113 4372 
L 2113 4147 
Q 1453 4147 1453 3944 
L 1453 1869 
L 3431 3769 
Q 3513 3856 3513 3944 
Q 3513 4044 3427 4095 
Q 3341 4147 3231 4147 
L 3231 4372 
L 4622 4372 
L 4622 4147 
Q 4097 4147 3700 3769 
L 2566 2681 
L 3969 603 
Q 4141 350 4270 287 
Q 4400 225 4709 225 
L 4709 0 
L 3034 0 
L 3034 225 
Q 3188 225 3292 256 
Q 3397 288 3397 403 
Q 3397 481 3316 603 
L 2169 2303 
L 1453 1613 
L 1453 428 
Q 1453 225 2113 225 
L 2113 0 
L 197 0 
z
" transform="scale(0.015625)"/>
       <path id="Cmr10-46" d="M 197 0 
L 197 225 
Q 856 225 856 428 
L 856 3944 
Q 856 4147 197 4147 
L 197 4372 
L 3725 4372 
L 3903 2906 
L 3719 2906 
Q 3675 3309 3601 3542 
Q 3528 3775 3387 3908 
Q 3247 4041 3011 4094 
Q 2775 4147 2363 4147 
L 1778 4147 
Q 1663 4147 1598 4137 
Q 1534 4128 1493 4083 
Q 1453 4038 1453 3944 
L 1453 2297 
L 1906 2297 
Q 2234 2297 2387 2355 
Q 2541 2413 2598 2566 
Q 2656 2719 2656 3047 
L 2841 3047 
L 2841 1325 
L 2656 1325 
Q 2656 1653 2598 1806 
Q 2541 1959 2387 2017 
Q 2234 2075 1906 2075 
L 1453 2075 
L 1453 428 
Q 1453 225 2272 225 
L 2272 0 
L 197 0 
z
" transform="scale(0.015625)"/>
       <path id="Cmr10-42" d="M 219 0 
L 219 225 
Q 878 225 878 428 
L 878 3944 
Q 878 4147 219 4147 
L 219 4372 
L 2572 4372 
Q 2897 4372 3228 4245 
Q 3559 4119 3776 3870 
Q 3994 3622 3994 3284 
Q 3994 2894 3673 2630 
Q 3353 2366 2925 2284 
Q 3203 2284 3497 2131 
Q 3791 1978 3978 1722 
Q 4166 1466 4166 1178 
Q 4166 828 3958 559 
Q 3750 291 3419 145 
Q 3088 0 2753 0 
L 219 0 
z
M 1434 428 
Q 1434 291 1512 258 
Q 1591 225 1759 225 
L 2572 225 
Q 2822 225 3036 356 
Q 3250 488 3375 708 
Q 3500 928 3500 1178 
Q 3500 1422 3397 1655 
Q 3294 1888 3101 2038 
Q 2909 2188 2663 2188 
L 1434 2188 
L 1434 428 
z
M 1434 2356 
L 2394 2356 
Q 2588 2356 2758 2426 
Q 2928 2497 3064 2630 
Q 3200 2763 3273 2930 
Q 3347 3097 3347 3284 
Q 3347 3450 3292 3603 
Q 3238 3756 3131 3881 
Q 3025 4006 2881 4076 
Q 2738 4147 2572 4147 
L 1759 4147 
Q 1644 4147 1580 4137 
Q 1516 4128 1475 4083 
Q 1434 4038 1434 3944 
L 1434 2356 
z
" transform="scale(0.015625)"/>
      </defs>
      <use xlink:href="#Cmr10-45"/>
      <use xlink:href="#Cmr10-53" transform="translate(68.017578 0)"/>
      <use xlink:href="#Cmr10-4b" transform="translate(123.535156 0)"/>
      <use xlink:href="#Cmr10-46" transform="translate(201.220703 0)"/>
      <use xlink:href="#Cmr10-20" transform="translate(266.40625 0)"/>
      <use xlink:href="#Cmr10-42" transform="translate(299.707031 0)"/>
     </g>
    </g>
    <g id="line2d_132">
     <path d="M 693.684031 85.77625 
L 701.684031 85.77625 
L 709.684031 85.77625 
" style="fill: none; stroke: #ff7f0e; stroke-width: 1.5; stroke-linecap: square"/>
     <g>
      <use xlink:href="#m07923a3aad" x="701.684031" y="85.77625" style="fill: #ff7f0e; stroke: #ff7f0e"/>
     </g>
    </g>
    <g id="text_17">
     <!-- ESKF B+R -->
     <g transform="translate(716.084031 88.57625) scale(0.08 -0.08)">
      <defs>
       <path id="Cmr10-2b" d="M 481 1472 
Q 428 1472 393 1512 
Q 359 1553 359 1600 
Q 359 1647 393 1687 
Q 428 1728 481 1728 
L 2363 1728 
L 2363 3616 
Q 2363 3666 2400 3698 
Q 2438 3731 2491 3731 
Q 2538 3731 2578 3698 
Q 2619 3666 2619 3616 
L 2619 1728 
L 4500 1728 
Q 4547 1728 4581 1687 
Q 4616 1647 4616 1600 
Q 4616 1553 4581 1512 
Q 4547 1472 4500 1472 
L 2619 1472 
L 2619 -416 
Q 2619 -466 2578 -498 
Q 2538 -531 2491 -531 
Q 2438 -531 2400 -498 
Q 2363 -466 2363 -416 
L 2363 1472 
L 481 1472 
z
" transform="scale(0.015625)"/>
      </defs>
      <use xlink:href="#Cmr10-45"/>
      <use xlink:href="#Cmr10-53" transform="translate(68.017578 0)"/>
      <use xlink:href="#Cmr10-4b" transform="translate(123.535156 0)"/>
      <use xlink:href="#Cmr10-46" transform="translate(201.220703 0)"/>
      <use xlink:href="#Cmr10-20" transform="translate(266.40625 0)"/>
      <use xlink:href="#Cmr10-42" transform="translate(299.707031 0)"/>
      <use xlink:href="#Cmr10-2b" transform="translate(370.507812 0)"/>
      <use xlink:href="#Cmr10-52" transform="translate(448.193359 0)"/>
     </g>
    </g>
    <g id="line2d_133">
     <path d="M 693.684031 96.9275 
L 701.684031 96.9275 
L 709.684031 96.9275 
" style="fill: none; stroke: #2ca02c; stroke-width: 1.5; stroke-linecap: square"/>
     <g>
      <use xlink:href="#meb00481686" x="701.684031" y="96.9275" style="fill: #2ca02c; stroke: #2ca02c"/>
     </g>
    </g>
    <g id="text_18">
     <!-- ESKF B+R+D -->
     <g transform="translate(716.084031 99.7275) scale(0.08 -0.08)">
      <use xlink:href="#Cmr10-45"/>
      <use xlink:href="#Cmr10-53" transform="translate(68.017578 0)"/>
      <use xlink:href="#Cmr10-4b" transform="translate(123.535156 0)"/>
      <use xlink:href="#Cmr10-46" transform="translate(201.220703 0)"/>
      <use xlink:href="#Cmr10-20" transform="translate(266.40625 0)"/>
      <use xlink:href="#Cmr10-42" transform="translate(299.707031 0)"/>
      <use xlink:href="#Cmr10-2b" transform="translate(370.507812 0)"/>
      <use xlink:href="#Cmr10-52" transform="translate(448.193359 0)"/>
      <use xlink:href="#Cmr10-2b" transform="translate(521.777344 0)"/>
      <use xlink:href="#Cmr10-44" transform="translate(599.462891 0)"/>
     </g>
    </g>
    <g id="line2d_134">
     <path d="M 693.684031 108.07875 
L 701.684031 108.07875 
L 709.684031 108.07875 
" style="fill: none; stroke: #d62728; stroke-width: 1.5; stroke-linecap: square"/>
     <g>
      <use xlink:href="#mb315574f1f" x="701.684031" y="108.07875" style="fill: #d62728; stroke: #d62728; stroke-linejoin: miter"/>
     </g>
    </g>
    <g id="text_19">
     <!-- FGO B -->
     <g transform="translate(716.084031 110.87875) scale(0.08 -0.08)">
      <defs>
       <path id="Cmr10-47" d="M 1472 684 
Q 1703 403 2036 243 
Q 2369 84 2731 84 
Q 3088 84 3378 265 
Q 3669 447 3669 781 
L 3669 1319 
Q 3669 1522 2869 1522 
L 2869 1747 
L 4703 1747 
L 4703 1522 
Q 4500 1522 4381 1487 
Q 4263 1453 4263 1319 
L 4263 56 
Q 4263 34 4245 17 
Q 4228 0 4206 0 
Q 4147 0 4008 140 
Q 3869 281 3788 391 
Q 3631 122 3297 -9 
Q 2963 -141 2597 -141 
Q 1975 -141 1464 179 
Q 953 500 656 1036 
Q 359 1572 359 2188 
Q 359 2641 531 3069 
Q 703 3497 1011 3822 
Q 1319 4147 1728 4330 
Q 2138 4513 2597 4513 
Q 2928 4513 3223 4370 
Q 3519 4228 3750 3969 
L 4122 4494 
Q 4159 4513 4166 4513 
L 4213 4513 
Q 4231 4513 4247 4497 
Q 4263 4481 4263 4459 
L 4263 2731 
Q 4263 2675 4213 2675 
L 4097 2675 
Q 4038 2675 4038 2731 
Q 4038 2916 3964 3144 
Q 3891 3372 3777 3576 
Q 3663 3781 3513 3938 
Q 3153 4288 2688 4288 
Q 2331 4288 2006 4128 
Q 1681 3969 1459 3688 
Q 1225 3388 1134 3005 
Q 1044 2622 1044 2188 
Q 1044 1206 1472 684 
z
" transform="scale(0.015625)"/>
      </defs>
      <use xlink:href="#Cmr10-46"/>
      <use xlink:href="#Cmr10-47" transform="translate(65.185547 0)"/>
      <use xlink:href="#Cmr10-4f" transform="translate(143.603516 0)"/>
      <use xlink:href="#Cmr10-20" transform="translate(221.289062 0)"/>
      <use xlink:href="#Cmr10-42" transform="translate(254.589844 0)"/>
     </g>
    </g>
    <g id="line2d_135">
     <path d="M 693.684031 119.23 
L 701.684031 119.23 
L 709.684031 119.23 
" style="fill: none; stroke: #9467bd; stroke-width: 1.5; stroke-linecap: square"/>
     <g>
      <use xlink:href="#me83f838d48" x="701.684031" y="119.23" style="fill: #9467bd; stroke: #9467bd; stroke-linejoin: miter"/>
     </g>
    </g>
    <g id="text_20">
     <!-- FGO B+R -->
     <g transform="translate(716.084031 122.03) scale(0.08 -0.08)">
      <use xlink:href="#Cmr10-46"/>
      <use xlink:href="#Cmr10-47" transform="translate(65.185547 0)"/>
      <use xlink:href="#Cmr10-4f" transform="translate(143.603516 0)"/>
      <use xlink:href="#Cmr10-20" transform="translate(221.289062 0)"/>
      <use xlink:href="#Cmr10-42" transform="translate(254.589844 0)"/>
      <use xlink:href="#Cmr10-2b" transform="translate(325.390625 0)"/>
      <use xlink:href="#Cmr10-52" transform="translate(403.076172 0)"/>
     </g>
    </g>
    <g id="line2d_136">
     <path d="M 693.684031 130.38125 
L 701.684031 130.38125 
L 709.684031 130.38125 
" style="fill: none; stroke: #8c564b; stroke-width: 1.5; stroke-linecap: square"/>
     <g>
      <use xlink:href="#mcd6d00fba1" x="701.684031" y="130.38125" style="fill: #8c564b; stroke: #8c564b; stroke-linejoin: miter"/>
     </g>
    </g>
    <g id="text_21">
     <!-- FGO B+R+D -->
     <g transform="translate(716.084031 133.18125) scale(0.08 -0.08)">
      <use xlink:href="#Cmr10-46"/>
      <use xlink:href="#Cmr10-47" transform="translate(65.185547 0)"/>
      <use xlink:href="#Cmr10-4f" transform="translate(143.603516 0)"/>
      <use xlink:href="#Cmr10-20" transform="translate(221.289062 0)"/>
      <use xlink:href="#Cmr10-42" transform="translate(254.589844 0)"/>
      <use xlink:href="#Cmr10-2b" transform="translate(325.390625 0)"/>
      <use xlink:href="#Cmr10-52" transform="translate(403.076172 0)"/>
      <use xlink:href="#Cmr10-2b" transform="translate(476.660156 0)"/>
      <use xlink:href="#Cmr10-44" transform="translate(554.345703 0)"/>
     </g>
    </g>
   </g>
  </g>
  <g id="text_22">
   <!-- TDMA sensitivity: NEES vs $\sigma_a$ -->
   <g transform="translate(309.345281 15.84) scale(0.12 -0.12)">
    <defs>
     <path id="Cmr10-79" d="M 441 -1050 
Q 563 -1147 709 -1147 
Q 1113 -1147 1369 -538 
L 1588 0 
L 628 2350 
Q 569 2469 447 2501 
Q 325 2534 122 2534 
L 122 2759 
L 1466 2759 
L 1466 2534 
Q 1113 2534 1113 2381 
Q 1113 2356 1119 2344 
L 1831 594 
L 2472 2169 
Q 2491 2219 2491 2278 
Q 2491 2356 2448 2414 
Q 2406 2472 2339 2503 
Q 2272 2534 2188 2534 
L 2188 2759 
L 3250 2759 
L 3250 2534 
Q 3053 2534 2904 2443 
Q 2756 2353 2675 2175 
L 1569 -538 
Q 1481 -744 1364 -917 
Q 1247 -1091 1078 -1202 
Q 909 -1313 709 -1313 
Q 475 -1313 298 -1158 
Q 122 -1003 122 -775 
Q 122 -656 203 -575 
Q 284 -494 403 -494 
Q 484 -494 548 -530 
Q 613 -566 648 -628 
Q 684 -691 684 -775 
Q 684 -878 615 -959 
Q 547 -1041 441 -1050 
z
" transform="scale(0.015625)"/>
     <path id="Cmr10-3a" d="M 538 353 
Q 538 497 644 600 
Q 750 703 891 703 
Q 978 703 1062 656 
Q 1147 609 1194 525 
Q 1241 441 1241 353 
Q 1241 213 1137 106 
Q 1034 0 891 0 
Q 750 0 644 106 
Q 538 213 538 353 
z
M 538 2406 
Q 538 2497 584 2578 
Q 631 2659 714 2709 
Q 797 2759 891 2759 
Q 981 2759 1064 2709 
Q 1147 2659 1194 2578 
Q 1241 2497 1241 2406 
Q 1241 2263 1139 2158 
Q 1038 2053 891 2053 
Q 747 2053 642 2158 
Q 538 2263 538 2406 
z
" transform="scale(0.015625)"/>
     <path id="Cmmi10-be" d="M 1197 -72 
Q 913 -72 692 64 
Q 472 200 351 431 
Q 231 663 231 941 
Q 231 1238 365 1566 
Q 500 1894 733 2166 
Q 966 2438 1259 2598 
Q 1553 2759 1863 2759 
L 3475 2759 
Q 3541 2759 3587 2715 
Q 3634 2672 3634 2597 
Q 3634 2503 3567 2433 
Q 3500 2363 3406 2363 
L 2625 2363 
Q 2809 2088 2809 1697 
Q 2809 1375 2684 1062 
Q 2559 750 2337 492 
Q 2116 234 1820 81 
Q 1525 -72 1197 -72 
z
M 1203 97 
Q 1553 97 1823 370 
Q 2094 644 2237 1039 
Q 2381 1434 2381 1772 
Q 2381 2047 2229 2205 
Q 2078 2363 1806 2363 
Q 1434 2363 1173 2113 
Q 913 1863 783 1484 
Q 653 1106 653 756 
Q 653 481 798 289 
Q 944 97 1203 97 
z
" transform="scale(0.015625)"/>
     <path id="Cmmi10-61" d="M 1113 -72 
Q 709 -72 476 233 
Q 244 538 244 953 
Q 244 1363 456 1803 
Q 669 2244 1030 2536 
Q 1391 2828 1806 2828 
Q 1997 2828 2147 2725 
Q 2297 2622 2381 2444 
Q 2453 2700 2663 2700 
Q 2744 2700 2798 2651 
Q 2853 2603 2853 2522 
Q 2853 2503 2851 2493 
Q 2850 2484 2847 2472 
L 2400 684 
Q 2356 494 2356 372 
Q 2356 97 2541 97 
Q 2741 97 2845 351 
Q 2950 606 3022 941 
Q 3034 978 3072 978 
L 3150 978 
Q 3175 978 3190 956 
Q 3206 934 3206 916 
Q 3094 469 2961 198 
Q 2828 -72 2528 -72 
Q 2313 -72 2147 54 
Q 1981 181 1941 391 
Q 1528 -72 1113 -72 
z
M 1119 97 
Q 1350 97 1567 270 
Q 1784 444 1941 678 
Q 1947 684 1947 697 
L 2291 2088 
L 2297 2106 
Q 2259 2334 2132 2498 
Q 2006 2663 1791 2663 
Q 1575 2663 1389 2486 
Q 1203 2309 1075 2069 
Q 950 1813 836 1366 
Q 722 919 722 672 
Q 722 450 817 273 
Q 913 97 1119 97 
z
" transform="scale(0.015625)"/>
    </defs>
    <use xlink:href="#Cmr10-54" transform="translate(0 0.421875)"/>
    <use xlink:href="#Cmr10-44" transform="translate(72.216797 0.421875)"/>
    <use xlink:href="#Cmr10-4d" transform="translate(148.535156 0.421875)"/>
    <use xlink:href="#Cmr10-41" transform="translate(240.136719 0.421875)"/>
    <use xlink:href="#Cmr10-20" transform="translate(315.136719 0.421875)"/>
    <use xlink:href="#Cmr10-73" transform="translate(348.4375 0.421875)"/>
    <use xlink:href="#Cmr10-65" transform="translate(387.841797 0.421875)"/>
    <use xlink:href="#Cmr10-6e" transform="translate(432.226562 0.421875)"/>
    <use xlink:href="#Cmr10-73" transform="translate(487.744141 0.421875)"/>
    <use xlink:href="#Cmr10-69" transform="translate(527.148438 0.421875)"/>
    <use xlink:href="#Cmr10-74" transform="translate(554.833984 0.421875)"/>
    <use xlink:href="#Cmr10-69" transform="translate(593.652344 0.421875)"/>
    <use xlink:href="#Cmr10-76" transform="translate(621.337891 0.421875)"/>
    <use xlink:href="#Cmr10-69" transform="translate(674.023438 0.421875)"/>
    <use xlink:href="#Cmr10-74" transform="translate(701.708984 0.421875)"/>
    <use xlink:href="#Cmr10-79" transform="translate(740.527344 0.421875)"/>
    <use xlink:href="#Cmr10-3a" transform="translate(793.212891 0.421875)"/>
    <use xlink:href="#Cmr10-20" transform="translate(820.898438 0.421875)"/>
    <use xlink:href="#Cmr10-4e" transform="translate(854.199219 0.421875)"/>
    <use xlink:href="#Cmr10-45" transform="translate(929.199219 0.421875)"/>
    <use xlink:href="#Cmr10-45" transform="translate(997.216797 0.421875)"/>
    <use xlink:href="#Cmr10-53" transform="translate(1065.234375 0.421875)"/>
    <use xlink:href="#Cmr10-20" transform="translate(1120.751953 0.421875)"/>
    <use xlink:href="#Cmr10-76" transform="translate(1154.052734 0.421875)"/>
    <use xlink:href="#Cmr10-73" transform="translate(1206.738281 0.421875)"/>
    <use xlink:href="#Cmr10-20" transform="translate(1246.142578 0.421875)"/>
    <use xlink:href="#Cmmi10-be" transform="translate(1279.443359 0.421875)"/>
    <use xlink:href="#Cmmi10-61" transform="translate(1336.523438 -16.584375) scale(0.7)"/>
   </g>
  </g>
 </g>
 <defs>
  <clipPath id="p6cc386e578">
   <rect x="41.778125" y="51.585" width="354.274203" height="194.8015"/>
  </clipPath>
  <clipPath id="p5af9707e42">
   <rect x="423.071078" y="51.585" width="354.274203" height="194.8015"/>
  </clipPath>
 </defs>
</svg>
