<?xml version="1.0" encoding="utf-8" standalone="no"?>
<!DOCTYPE svg PUBLIC "-//W3C//DTD SVG 1.1//EN"
  "http://www.w3.org/Graphics/SVG/1.1/DTD/svg11.dtd">
<svg xmlns:xlink="http://www.w3.org/1999/xlink" width="531.761655pt" height="423.034375pt" viewBox="0 0 531.761655 423.034375" xmlns="http://www.w3.org/2000/svg" version="1.1">
 <metadata>
  <rdf:RDF xmlns:dc="http://purl.org/dc/elements/1.1/" xmlns:cc="http://creativecommons.org/ns#" xmlns:rdf="http://www.w3.org/1999/02/22-rdf-syntax-ns#">
   <cc:Work>
    <dc:type rdf:resource="http://purl.org/dc/dcmitype/StillImage"/>
    <dc:date>2026-06-02T17:35:46.327821</dc:date>
    <dc:format>image/svg+xml</dc:format>
    <dc:creator>
     <cc:Agent>
      <dc:title>Matplotlib v3.10.9, https://matplotlib.org/</dc:title>
     </cc:Agent>
    </dc:creator>
   </cc:Work>
  </rdf:RDF>
 </metadata>
 <defs>
  <style type="text/css">*{stroke-linejoin: round; stroke-linecap: butt}</style>
 </defs>
 <g id="figure_1">
  <g id="patch_1">
   <path d="M 0 423.034375 
L 531.761655 423.034375 
L 531.761655 0 
L 0 0 
z
" style="fill: #ffffff"/>
  </g>
  <g id="axes_1">
   <g id="patch_2">
    <path d="M 49.078125 385.478125 
L 524.561655 385.478125 
L 524.561655 22.318125 
L 49.078125 22.318125 
z
" style="fill: #ffffff"/>
   </g>
   <g id="PathCollection_1">
    <defs>
     <path id="meed5545ab2" d="M 0 3.872983 
C 1.027127 3.872983 2.012324 3.464901 2.738613 2.738613 
C 3.464901 2.012324 3.872983 1.027127 3.872983 0 
C 3.872983 -1.027127 3.464901 -2.012324 2.738613 -2.738613 
C 2.012324 -3.464901 1.027127 -3.872983 0 -3.872983 
C -1.027127 -3.872983 -2.012324 -3.464901 -2.738613 -2.738613 
C -3.464901 -2.012324 -3.872983 -1.027127 -3.872983 0 
C -3.872983 1.027127 -3.464901 2.012324 -2.738613 2.738613 
C -2.012324 3.464901 -1.027127 3.872983 0 3.872983 
z
" style="stroke: #1f77b4"/>
    </defs>
    <g clip-path="url(#p254a513206)">
     <use xlink:href="#meed5545ab2" x="286.81989" y="221.908865" style="fill: #1f77b4; stroke: #1f77b4"/>
    </g>
   </g>
   <g id="PathCollection_2">
    <defs>
     <path id="mb96451f1a8" d="M 0 3.872983 
C 1.027127 3.872983 2.012324 3.464901 2.738613 2.738613 
C 3.464901 2.012324 3.872983 1.027127 3.872983 0 
C 3.872983 -1.027127 3.464901 -2.012324 2.738613 -2.738613 
C 2.012324 -3.464901 1.027127 -3.872983 0 -3.872983 
C -1.027127 -3.872983 -2.012324 -3.464901 -2.738613 -2.738613 
C -3.464901 -2.012324 -3.872983 -1.027127 -3.872983 0 
C -3.872983 1.027127 -3.464901 2.012324 -2.738613 2.738613 
C -2.012324 3.464901 -1.027127 3.872983 0 3.872983 
z
" style="stroke: #ff7f0e"/>
    </defs>
    <g clip-path="url(#p254a513206)">
     <use xlink:href="#mb96451f1a8" x="322.841369" y="149.865906" style="fill: #ff7f0e; stroke: #ff7f0e"/>
    </g>
   </g>
   <g id="matplotlib.axis_1">
    <g id="xtick_1">
     <g id="line2d_1">
      <path d="M 70.691012 385.478125 
L 70.691012 22.318125 
" clip-path="url(#p254a513206)" style="fill: none; stroke: #b0b0b0; stroke-opacity: 0.3; stroke-width: 0.8; stroke-linecap: square"/>
     </g>
     <g id="line2d_2">
      <defs>
       <path id="mbab732280e" d="M 0 0 
L 0 3.5 
" style="stroke: #000000; stroke-width: 0.8"/>
      </defs>
      <g>
       <use xlink:href="#mbab732280e" x="70.691012" y="385.478125" style="stroke: #000000; stroke-width: 0.8"/>
      </g>
     </g>
     <g id="text_1">
      <!-- $\mathdefault{0}$ -->
      <g transform="translate(67.491012 400.076563) scale(0.1 -0.1)">
       <defs>
        <path id="DejaVuSerif-30" d="M 2034 219 
Q 2513 219 2750 744 
Q 2988 1269 2988 2328 
Q 2988 3391 2750 3916 
Q 2513 4441 2034 4441 
Q 1556 4441 1318 3916 
Q 1081 3391 1081 2328 
Q 1081 1269 1318 744 
Q 1556 219 2034 219 
z
M 2034 -91 
Q 1275 -91 848 546 
Q 422 1184 422 2328 
Q 422 3475 848 4112 
Q 1275 4750 2034 4750 
Q 2797 4750 3222 4112 
Q 3647 3475 3647 2328 
Q 3647 1184 3222 546 
Q 2797 -91 2034 -91 
z
" transform="scale(0.015625)"/>
       </defs>
       <use xlink:href="#DejaVuSerif-30" transform="translate(0 0.78125)"/>
      </g>
     </g>
    </g>
    <g id="xtick_2">
     <g id="line2d_3">
      <path d="M 142.733971 385.478125 
L 142.733971 22.318125 
" clip-path="url(#p254a513206)" style="fill: none; stroke: #b0b0b0; stroke-opacity: 0.3; stroke-width: 0.8; stroke-linecap: square"/>
     </g>
     <g id="line2d_4">
      <g>
       <use xlink:href="#mbab732280e" x="142.733971" y="385.478125" style="stroke: #000000; stroke-width: 0.8"/>
      </g>
     </g>
     <g id="text_2">
      <!-- $\mathdefault{10}$ -->
      <g transform="translate(136.333971 400.076563) scale(0.1 -0.1)">
       <defs>
        <path id="DejaVuSerif-31" d="M 909 0 
L 909 331 
L 1722 331 
L 1722 4213 
L 781 3603 
L 781 4013 
L 1919 4750 
L 2350 4750 
L 2350 331 
L 3163 331 
L 3163 0 
L 909 0 
z
" transform="scale(0.015625)"/>
       </defs>
       <use xlink:href="#DejaVuSerif-31" transform="translate(0 0.78125)"/>
       <use xlink:href="#DejaVuSerif-30" transform="translate(63.623047 0.78125)"/>
      </g>
     </g>
    </g>
    <g id="xtick_3">
     <g id="line2d_5">
      <path d="M 214.776931 385.478125 
L 214.776931 22.318125 
" clip-path="url(#p254a513206)" style="fill: none; stroke: #b0b0b0; stroke-opacity: 0.3; stroke-width: 0.8; stroke-linecap: square"/>
     </g>
     <g id="line2d_6">
      <g>
       <use xlink:href="#mbab732280e" x="214.776931" y="385.478125" style="stroke: #000000; stroke-width: 0.8"/>
      </g>
     </g>
     <g id="text_3">
      <!-- $\mathdefault{20}$ -->
      <g transform="translate(208.376931 400.076563) scale(0.1 -0.1)">
       <defs>
        <path id="DejaVuSerif-32" d="M 819 3553 
L 469 3553 
L 469 4384 
Q 803 4563 1142 4656 
Q 1481 4750 1806 4750 
Q 2534 4750 2956 4397 
Q 3378 4044 3378 3438 
Q 3378 2753 2422 1800 
Q 2347 1728 2309 1691 
L 1131 513 
L 3078 513 
L 3078 1088 
L 3444 1088 
L 3444 0 
L 434 0 
L 434 341 
L 1850 1753 
Q 2319 2222 2519 2614 
Q 2719 3006 2719 3438 
Q 2719 3909 2473 4175 
Q 2228 4441 1797 4441 
Q 1350 4441 1106 4219 
Q 863 3997 819 3553 
z
" transform="scale(0.015625)"/>
       </defs>
       <use xlink:href="#DejaVuSerif-32" transform="translate(0 0.78125)"/>
       <use xlink:href="#DejaVuSerif-30" transform="translate(63.623047 0.78125)"/>
      </g>
     </g>
    </g>
    <g id="xtick_4">
     <g id="line2d_7">
      <path d="M 286.81989 385.478125 
L 286.81989 22.318125 
" clip-path="url(#p254a513206)" style="fill: none; stroke: #b0b0b0; stroke-opacity: 0.3; stroke-width: 0.8; stroke-linecap: square"/>
     </g>
     <g id="line2d_8">
      <g>
       <use xlink:href="#mbab732280e" x="286.81989" y="385.478125" style="stroke: #000000; stroke-width: 0.8"/>
      </g>
     </g>
     <g id="text_4">
      <!-- $\mathdefault{30}$ -->
      <g transform="translate(280.41989 400.076563) scale(0.1 -0.1)">
       <defs>
        <path id="DejaVuSerif-33" d="M 622 4469 
Q 988 4606 1323 4678 
Q 1659 4750 1953 4750 
Q 2638 4750 3022 4454 
Q 3406 4159 3406 3634 
Q 3406 3213 3140 2930 
Q 2875 2647 2388 2547 
Q 2963 2466 3280 2130 
Q 3597 1794 3597 1259 
Q 3597 606 3158 257 
Q 2719 -91 1894 -91 
Q 1528 -91 1179 -12 
Q 831 66 488 225 
L 488 1131 
L 838 1131 
Q 869 681 1141 450 
Q 1413 219 1906 219 
Q 2384 219 2661 495 
Q 2938 772 2938 1253 
Q 2938 1803 2653 2086 
Q 2369 2369 1819 2369 
L 1522 2369 
L 1522 2688 
L 1678 2688 
Q 2225 2688 2498 2914 
Q 2772 3141 2772 3597 
Q 2772 4006 2547 4223 
Q 2322 4441 1900 4441 
Q 1478 4441 1245 4241 
Q 1013 4041 972 3647 
L 622 3647 
L 622 4469 
z
" transform="scale(0.015625)"/>
       </defs>
       <use xlink:href="#DejaVuSerif-33" transform="translate(0 0.78125)"/>
       <use xlink:href="#DejaVuSerif-30" transform="translate(63.623047 0.78125)"/>
      </g>
     </g>
    </g>
    <g id="xtick_5">
     <g id="line2d_9">
      <path d="M 358.862849 385.478125 
L 358.862849 22.318125 
" clip-path="url(#p254a513206)" style="fill: none; stroke: #b0b0b0; stroke-opacity: 0.3; stroke-width: 0.8; stroke-linecap: square"/>
     </g>
     <g id="line2d_10">
      <g>
       <use xlink:href="#mbab732280e" x="358.862849" y="385.478125" style="stroke: #000000; stroke-width: 0.8"/>
      </g>
     </g>
     <g id="text_5">
      <!-- $\mathdefault{40}$ -->
      <g transform="translate(352.462849 400.076563) scale(0.1 -0.1)">
       <defs>
        <path id="DejaVuSerif-34" d="M 2234 1581 
L 2234 4063 
L 641 1581 
L 2234 1581 
z
M 3609 0 
L 1484 0 
L 1484 331 
L 2234 331 
L 2234 1247 
L 197 1247 
L 197 1588 
L 2241 4750 
L 2859 4750 
L 2859 1581 
L 3750 1581 
L 3750 1247 
L 2859 1247 
L 2859 331 
L 3609 331 
L 3609 0 
z
" transform="scale(0.015625)"/>
       </defs>
       <use xlink:href="#DejaVuSerif-34" transform="translate(0 0.78125)"/>
       <use xlink:href="#DejaVuSerif-30" transform="translate(63.623047 0.78125)"/>
      </g>
     </g>
    </g>
    <g id="xtick_6">
     <g id="line2d_11">
      <path d="M 430.905808 385.478125 
L 430.905808 22.318125 
" clip-path="url(#p254a513206)" style="fill: none; stroke: #b0b0b0; stroke-opacity: 0.3; stroke-width: 0.8; stroke-linecap: square"/>
     </g>
     <g id="line2d_12">
      <g>
       <use xlink:href="#mbab732280e" x="430.905808" y="385.478125" style="stroke: #000000; stroke-width: 0.8"/>
      </g>
     </g>
     <g id="text_6">
      <!-- $\mathdefault{50}$ -->
      <g transform="translate(424.505808 400.076563) scale(0.1 -0.1)">
       <defs>
        <path id="DejaVuSerif-35" d="M 3219 4666 
L 3219 4153 
L 1081 4153 
L 1081 2816 
Q 1244 2928 1461 2984 
Q 1678 3041 1947 3041 
Q 2703 3041 3140 2622 
Q 3578 2203 3578 1478 
Q 3578 738 3136 323 
Q 2694 -91 1894 -91 
Q 1572 -91 1234 -12 
Q 897 66 544 225 
L 544 1131 
L 897 1131 
Q 925 688 1179 453 
Q 1434 219 1894 219 
Q 2388 219 2653 544 
Q 2919 869 2919 1478 
Q 2919 2084 2655 2407 
Q 2391 2731 1894 2731 
Q 1613 2731 1398 2631 
Q 1184 2531 1019 2322 
L 750 2322 
L 750 4666 
L 3219 4666 
z
" transform="scale(0.015625)"/>
       </defs>
       <use xlink:href="#DejaVuSerif-35" transform="translate(0 0.78125)"/>
       <use xlink:href="#DejaVuSerif-30" transform="translate(63.623047 0.78125)"/>
      </g>
     </g>
    </g>
    <g id="xtick_7">
     <g id="line2d_13">
      <path d="M 502.948768 385.478125 
L 502.948768 22.318125 
" clip-path="url(#p254a513206)" style="fill: none; stroke: #b0b0b0; stroke-opacity: 0.3; stroke-width: 0.8; stroke-linecap: square"/>
     </g>
     <g id="line2d_14">
      <g>
       <use xlink:href="#mbab732280e" x="502.948768" y="385.478125" style="stroke: #000000; stroke-width: 0.8"/>
      </g>
     </g>
     <g id="text_7">
      <!-- $\mathdefault{60}$ -->
      <g transform="translate(496.548768 400.076563) scale(0.1 -0.1)">
       <defs>
        <path id="DejaVuSerif-36" d="M 2094 219 
Q 2534 219 2771 542 
Q 3009 866 3009 1472 
Q 3009 2078 2771 2401 
Q 2534 2725 2094 2725 
Q 1647 2725 1412 2412 
Q 1178 2100 1178 1509 
Q 1178 888 1415 553 
Q 1653 219 2094 219 
z
M 1075 2569 
Q 1288 2803 1556 2918 
Q 1825 3034 2163 3034 
Q 2859 3034 3264 2615 
Q 3669 2197 3669 1472 
Q 3669 763 3233 336 
Q 2797 -91 2069 -91 
Q 1278 -91 853 498 
Q 428 1088 428 2181 
Q 428 3406 931 4078 
Q 1434 4750 2350 4750 
Q 2597 4750 2869 4703 
Q 3141 4656 3425 4563 
L 3425 3794 
L 3072 3794 
Q 3034 4109 2831 4275 
Q 2628 4441 2284 4441 
Q 1678 4441 1381 3981 
Q 1084 3522 1075 2569 
z
" transform="scale(0.015625)"/>
       </defs>
       <use xlink:href="#DejaVuSerif-36" transform="translate(0 0.78125)"/>
       <use xlink:href="#DejaVuSerif-30" transform="translate(63.623047 0.78125)"/>
      </g>
     </g>
    </g>
    <g id="text_8">
     <!-- North [m] -->
     <g transform="translate(261.583171 413.754687) scale(0.1 -0.1)">
      <defs>
       <path id="DejaVuSerif-4e" d="M 313 0 
L 313 331 
L 941 331 
L 941 4331 
L 313 4331 
L 313 4666 
L 1509 4666 
L 4306 984 
L 4306 4331 
L 3681 4331 
L 3681 4666 
L 5319 4666 
L 5319 4331 
L 4691 4331 
L 4691 -91 
L 4313 -91 
L 1325 3841 
L 1325 331 
L 1953 331 
L 1953 0 
L 313 0 
z
" transform="scale(0.015625)"/>
       <path id="DejaVuSerif-6f" d="M 1925 219 
Q 2388 219 2623 584 
Q 2859 950 2859 1663 
Q 2859 2375 2623 2739 
Q 2388 3103 1925 3103 
Q 1463 3103 1227 2739 
Q 991 2375 991 1663 
Q 991 950 1228 584 
Q 1466 219 1925 219 
z
M 1925 -91 
Q 1200 -91 759 389 
Q 319 869 319 1663 
Q 319 2456 758 2934 
Q 1197 3413 1925 3413 
Q 2653 3413 3092 2934 
Q 3531 2456 3531 1663 
Q 3531 869 3092 389 
Q 2653 -91 1925 -91 
z
" transform="scale(0.015625)"/>
       <path id="DejaVuSerif-72" d="M 3059 3328 
L 3059 2497 
L 2728 2497 
Q 2713 2744 2591 2866 
Q 2469 2988 2234 2988 
Q 1809 2988 1582 2694 
Q 1356 2400 1356 1850 
L 1356 331 
L 2022 331 
L 2022 0 
L 263 0 
L 263 331 
L 781 331 
L 781 2994 
L 231 2994 
L 231 3322 
L 1356 3322 
L 1356 2731 
Q 1525 3078 1790 3245 
Q 2056 3413 2438 3413 
Q 2578 3413 2733 3391 
Q 2888 3369 3059 3328 
z
" transform="scale(0.015625)"/>
       <path id="DejaVuSerif-74" d="M 691 2988 
L 184 2988 
L 184 3322 
L 691 3322 
L 691 4353 
L 1269 4353 
L 1269 3322 
L 2350 3322 
L 2350 2988 
L 1269 2988 
L 1269 878 
Q 1269 456 1350 337 
Q 1431 219 1650 219 
Q 1875 219 1978 351 
Q 2081 484 2088 781 
L 2522 781 
Q 2497 328 2275 118 
Q 2053 -91 1600 -91 
Q 1103 -91 897 129 
Q 691 350 691 878 
L 691 2988 
z
" transform="scale(0.015625)"/>
       <path id="DejaVuSerif-68" d="M 263 0 
L 263 331 
L 781 331 
L 781 4531 
L 231 4531 
L 231 4863 
L 1356 4863 
L 1356 2731 
Q 1516 3069 1770 3241 
Q 2025 3413 2363 3413 
Q 2913 3413 3172 3097 
Q 3431 2781 3431 2113 
L 3431 331 
L 3944 331 
L 3944 0 
L 2356 0 
L 2356 331 
L 2853 331 
L 2853 1931 
Q 2853 2541 2704 2764 
Q 2556 2988 2175 2988 
Q 1775 2988 1565 2697 
Q 1356 2406 1356 1850 
L 1356 331 
L 1856 331 
L 1856 0 
L 263 0 
z
" transform="scale(0.015625)"/>
       <path id="DejaVuSerif-20" transform="scale(0.015625)"/>
       <path id="DejaVuSerif-5b" d="M 550 4863 
L 2003 4863 
L 2003 4531 
L 1147 4531 
L 1147 -513 
L 2003 -513 
L 2003 -844 
L 550 -844 
L 550 4863 
z
" transform="scale(0.015625)"/>
       <path id="DejaVuSerif-6d" d="M 3316 2675 
Q 3481 3041 3739 3227 
Q 3997 3413 4341 3413 
Q 4863 3413 5119 3089 
Q 5375 2766 5375 2113 
L 5375 331 
L 5894 331 
L 5894 0 
L 4300 0 
L 4300 331 
L 4800 331 
L 4800 2047 
Q 4800 2556 4650 2772 
Q 4500 2988 4153 2988 
Q 3769 2988 3567 2697 
Q 3366 2406 3366 1850 
L 3366 331 
L 3866 331 
L 3866 0 
L 2291 0 
L 2291 331 
L 2791 331 
L 2791 2069 
Q 2791 2566 2641 2777 
Q 2491 2988 2144 2988 
Q 1759 2988 1557 2697 
Q 1356 2406 1356 1850 
L 1356 331 
L 1856 331 
L 1856 0 
L 263 0 
L 263 331 
L 781 331 
L 781 2994 
L 231 2994 
L 231 3322 
L 1356 3322 
L 1356 2731 
Q 1516 3063 1762 3238 
Q 2009 3413 2322 3413 
Q 2709 3413 2968 3220 
Q 3228 3028 3316 2675 
z
" transform="scale(0.015625)"/>
       <path id="DejaVuSerif-5d" d="M 1947 4863 
L 1947 -844 
L 494 -844 
L 494 -513 
L 1350 -513 
L 1350 4531 
L 494 4531 
L 494 4863 
L 1947 4863 
z
" transform="scale(0.015625)"/>
      </defs>
      <use xlink:href="#DejaVuSerif-4e"/>
      <use xlink:href="#DejaVuSerif-6f" transform="translate(87.5 0)"/>
      <use xlink:href="#DejaVuSerif-72" transform="translate(147.705078 0)"/>
      <use xlink:href="#DejaVuSerif-74" transform="translate(195.507812 0)"/>
      <use xlink:href="#DejaVuSerif-68" transform="translate(235.693359 0)"/>
      <use xlink:href="#DejaVuSerif-20" transform="translate(300.097656 0)"/>
      <use xlink:href="#DejaVuSerif-5b" transform="translate(331.884766 0)"/>
      <use xlink:href="#DejaVuSerif-6d" transform="translate(370.898438 0)"/>
      <use xlink:href="#DejaVuSerif-5d" transform="translate(465.722656 0)"/>
     </g>
    </g>
   </g>
   <g id="matplotlib.axis_2">
    <g id="ytick_1">
     <g id="line2d_15">
      <path d="M 49.078125 365.994783 
L 524.561655 365.994783 
" clip-path="url(#p254a513206)" style="fill: none; stroke: #b0b0b0; stroke-opacity: 0.3; stroke-width: 0.8; stroke-linecap: square"/>
     </g>
     <g id="line2d_16">
      <defs>
       <path id="m5684c3b8ff" d="M 0 0 
L -3.5 0 
" style="stroke: #000000; stroke-width: 0.8"/>
      </defs>
      <g>
       <use xlink:href="#m5684c3b8ff" x="49.078125" y="365.994783" style="stroke: #000000; stroke-width: 0.8"/>
      </g>
     </g>
     <g id="text_9">
      <!-- $\mathdefault{-20}$ -->
      <g transform="translate(20.878125 369.794002) scale(0.1 -0.1)">
       <defs>
        <path id="DejaVuSerif-2212" d="M 678 2259 
L 4684 2259 
L 4684 1753 
L 678 1753 
L 678 2259 
z
" transform="scale(0.015625)"/>
       </defs>
       <use xlink:href="#DejaVuSerif-2212" transform="translate(0 0.78125)"/>
       <use xlink:href="#DejaVuSerif-32" transform="translate(83.789062 0.78125)"/>
       <use xlink:href="#DejaVuSerif-30" transform="translate(147.412109 0.78125)"/>
      </g>
     </g>
    </g>
    <g id="ytick_2">
     <g id="line2d_17">
      <path d="M 49.078125 293.951824 
L 524.561655 293.951824 
" clip-path="url(#p254a513206)" style="fill: none; stroke: #b0b0b0; stroke-opacity: 0.3; stroke-width: 0.8; stroke-linecap: square"/>
     </g>
     <g id="line2d_18">
      <g>
       <use xlink:href="#m5684c3b8ff" x="49.078125" y="293.951824" style="stroke: #000000; stroke-width: 0.8"/>
      </g>
     </g>
     <g id="text_10">
      <!-- $\mathdefault{-10}$ -->
      <g transform="translate(20.878125 297.751043) scale(0.1 -0.1)">
       <use xlink:href="#DejaVuSerif-2212" transform="translate(0 0.78125)"/>
       <use xlink:href="#DejaVuSerif-31" transform="translate(83.789062 0.78125)"/>
       <use xlink:href="#DejaVuSerif-30" transform="translate(147.412109 0.78125)"/>
      </g>
     </g>
    </g>
    <g id="ytick_3">
     <g id="line2d_19">
      <path d="M 49.078125 221.908865 
L 524.561655 221.908865 
" clip-path="url(#p254a513206)" style="fill: none; stroke: #b0b0b0; stroke-opacity: 0.3; stroke-width: 0.8; stroke-linecap: square"/>
     </g>
     <g id="line2d_20">
      <g>
       <use xlink:href="#m5684c3b8ff" x="49.078125" y="221.908865" style="stroke: #000000; stroke-width: 0.8"/>
      </g>
     </g>
     <g id="text_11">
      <!-- $\mathdefault{0}$ -->
      <g transform="translate(35.678125 225.708084) scale(0.1 -0.1)">
       <use xlink:href="#DejaVuSerif-30" transform="translate(0 0.78125)"/>
      </g>
     </g>
    </g>
    <g id="ytick_4">
     <g id="line2d_21">
      <path d="M 49.078125 149.865906 
L 524.561655 149.865906 
" clip-path="url(#p254a513206)" style="fill: none; stroke: #b0b0b0; stroke-opacity: 0.3; stroke-width: 0.8; stroke-linecap: square"/>
     </g>
     <g id="line2d_22">
      <g>
       <use xlink:href="#m5684c3b8ff" x="49.078125" y="149.865906" style="stroke: #000000; stroke-width: 0.8"/>
      </g>
     </g>
     <g id="text_12">
      <!-- $\mathdefault{10}$ -->
      <g transform="translate(29.278125 153.665124) scale(0.1 -0.1)">
       <use xlink:href="#DejaVuSerif-31" transform="translate(0 0.78125)"/>
       <use xlink:href="#DejaVuSerif-30" transform="translate(63.623047 0.78125)"/>
      </g>
     </g>
    </g>
    <g id="ytick_5">
     <g id="line2d_23">
      <path d="M 49.078125 77.822946 
L 524.561655 77.822946 
" clip-path="url(#p254a513206)" style="fill: none; stroke: #b0b0b0; stroke-opacity: 0.3; stroke-width: 0.8; stroke-linecap: square"/>
     </g>
     <g id="line2d_24">
      <g>
       <use xlink:href="#m5684c3b8ff" x="49.078125" y="77.822946" style="stroke: #000000; stroke-width: 0.8"/>
      </g>
     </g>
     <g id="text_13">
      <!-- $\mathdefault{20}$ -->
      <g transform="translate(29.278125 81.622165) scale(0.1 -0.1)">
       <use xlink:href="#DejaVuSerif-32" transform="translate(0 0.78125)"/>
       <use xlink:href="#DejaVuSerif-30" transform="translate(63.623047 0.78125)"/>
      </g>
     </g>
    </g>
    <g id="text_14">
     <!-- East [m] -->
     <g transform="translate(14.798438 225.336406) rotate(-90) scale(0.1 -0.1)">
      <defs>
       <path id="DejaVuSerif-45" d="M 353 0 
L 353 331 
L 947 331 
L 947 4331 
L 353 4331 
L 353 4666 
L 4109 4666 
L 4109 3628 
L 3725 3628 
L 3725 4281 
L 1581 4281 
L 1581 2719 
L 3109 2719 
L 3109 3303 
L 3494 3303 
L 3494 1753 
L 3109 1753 
L 3109 2338 
L 1581 2338 
L 1581 384 
L 3775 384 
L 3775 1038 
L 4159 1038 
L 4159 0 
L 353 0 
z
" transform="scale(0.015625)"/>
       <path id="DejaVuSerif-61" d="M 2547 1044 
L 2547 1747 
L 1806 1747 
Q 1378 1747 1168 1562 
Q 959 1378 959 997 
Q 959 650 1171 447 
Q 1384 244 1747 244 
Q 2106 244 2326 466 
Q 2547 688 2547 1044 
z
M 3122 2075 
L 3122 331 
L 3634 331 
L 3634 0 
L 2547 0 
L 2547 359 
Q 2356 128 2106 18 
Q 1856 -91 1522 -91 
Q 969 -91 644 203 
Q 319 497 319 997 
Q 319 1513 691 1797 
Q 1063 2081 1741 2081 
L 2547 2081 
L 2547 2309 
Q 2547 2688 2317 2895 
Q 2088 3103 1672 3103 
Q 1328 3103 1125 2947 
Q 922 2791 872 2484 
L 575 2484 
L 575 3156 
Q 875 3284 1158 3348 
Q 1441 3413 1709 3413 
Q 2400 3413 2761 3070 
Q 3122 2728 3122 2075 
z
" transform="scale(0.015625)"/>
       <path id="DejaVuSerif-73" d="M 359 184 
L 359 959 
L 691 959 
Q 703 588 923 403 
Q 1144 219 1575 219 
Q 1963 219 2166 364 
Q 2369 509 2369 788 
Q 2369 1006 2220 1140 
Q 2072 1275 1594 1428 
L 1178 1569 
Q 750 1706 558 1912 
Q 366 2119 366 2438 
Q 366 2894 700 3153 
Q 1034 3413 1625 3413 
Q 1888 3413 2178 3344 
Q 2469 3275 2778 3144 
L 2778 2419 
L 2447 2419 
Q 2434 2741 2221 2922 
Q 2009 3103 1644 3103 
Q 1281 3103 1095 2975 
Q 909 2847 909 2591 
Q 909 2381 1050 2254 
Q 1191 2128 1613 1997 
L 2069 1856 
Q 2541 1709 2748 1489 
Q 2956 1269 2956 922 
Q 2956 450 2595 179 
Q 2234 -91 1600 -91 
Q 1278 -91 972 -22 
Q 666 47 359 184 
z
" transform="scale(0.015625)"/>
      </defs>
      <use xlink:href="#DejaVuSerif-45"/>
      <use xlink:href="#DejaVuSerif-61" transform="translate(72.998047 0)"/>
      <use xlink:href="#DejaVuSerif-73" transform="translate(132.617188 0)"/>
      <use xlink:href="#DejaVuSerif-74" transform="translate(183.935547 0)"/>
      <use xlink:href="#DejaVuSerif-20" transform="translate(224.121094 0)"/>
      <use xlink:href="#DejaVuSerif-5b" transform="translate(255.908203 0)"/>
      <use xlink:href="#DejaVuSerif-6d" transform="translate(294.921875 0)"/>
      <use xlink:href="#DejaVuSerif-5d" transform="translate(389.746094 0)"/>
     </g>
    </g>
   </g>
   <g id="line2d_25">
    <path d="M 286.81989 221.908865 
L 310.22389 190.887029 
L 322.639312 174.810104 
L 332.824848 161.974652 
L 341.755578 151.066961 
L 349.863928 141.505783 
L 357.365894 132.999333 
L 364.26969 125.500667 
L 370.785329 118.748932 
L 376.81947 112.808485 
L 382.576185 107.448684 
L 387.963185 102.729594 
L 393.082745 98.532756 
L 397.939525 94.831164 
L 402.629965 91.534393 
L 407.065573 88.686158 
L 411.252355 86.254588 
L 415.283535 84.164831 
L 419.161341 82.402456 
L 422.888208 80.952331 
L 426.466761 79.798761 
L 429.899789 78.925634 
L 433.190229 78.316536 
L 436.341148 77.954875 
L 439.43226 77.82351 
L 442.387331 77.917363 
L 445.283249 78.2302 
L 448.118913 78.761544 
L 450.893246 79.510588 
L 453.605191 80.476192 
L 456.253719 81.656888 
L 458.837821 83.050881 
L 461.420229 84.699963 
L 463.932799 86.56855 
L 466.434653 88.708527 
L 468.919255 91.132801 
L 471.379812 93.853716 
L 473.75506 96.811369 
L 476.096092 100.077158 
L 478.44557 103.743434 
L 480.74142 107.747556 
L 482.975579 112.097045 
L 485.139738 116.79799 
L 487.26579 121.95862 
L 489.299329 127.487954 
L 491.231124 133.386186 
L 493.084034 139.769616 
L 494.810367 146.524209 
L 496.400073 153.642 
L 497.86626 161.242792 
L 499.168945 169.18877 
L 500.297432 177.46152 
L 501.240932 186.039139 
L 501.988592 194.896114 
L 502.522769 203.860268 
L 502.846286 213.039841 
L 502.948611 222.255729 
L 502.829639 231.470197 
L 502.489492 240.645515 
L 501.928519 249.744115 
L 501.161189 258.589419 
L 500.198409 267.152411 
L 499.051045 275.407783 
L 497.7299 283.333841 
L 496.24568 290.912382 
L 494.608976 298.128555 
L 492.830238 304.970702 
L 490.955277 311.317253 
L 488.964215 317.285458 
L 486.866728 322.872868 
L 484.71575 327.981917 
L 482.482024 332.723094 
L 480.174325 337.100796 
L 477.851752 341.040124 
L 475.476438 344.640919 
L 473.056187 347.912236 
L 470.598552 350.864229 
L 468.110827 353.507998 
L 465.600049 355.85545 
L 463.072998 357.919163 
L 460.471878 359.754275 
L 457.863865 361.321372 
L 455.255173 362.634572 
L 452.582435 363.733757 
L 449.846669 364.617253 
L 447.048913 365.283716 
L 444.190232 365.732135 
L 441.271713 365.961826 
L 438.294465 365.97244 
L 435.259621 365.763961 
L 432.088339 365.32288 
L 428.777484 364.632672 
L 425.406972 363.70258 
L 421.893879 362.502706 
L 418.235443 361.017387 
L 414.429062 359.231337 
L 410.472304 357.129782 
L 406.272891 354.6426 
L 401.916062 351.799965 
L 397.307242 348.520821 
L 392.535129 344.850132 
L 387.503085 340.696883 
L 382.206446 336.034355 
L 376.641141 330.838273 
L 370.704198 324.986812 
L 364.389259 318.443919 
L 357.69117 311.179107 
L 350.502969 303.049959 
L 342.715 293.900225 
L 334.216047 283.565478 
L 324.682211 271.611274 
L 313.678345 257.442543 
L 299.9077 239.327254 
L 254.541794 179.354073 
L 243.79543 165.691065 
L 234.520737 154.249039 
L 226.176579 144.299325 
L 218.544312 135.536456 
L 211.410447 127.68161 
L 204.76868 120.697689 
L 198.6107 114.537962 
L 192.73201 108.969557 
L 187.225602 104.055762 
L 181.989034 99.677104 
L 177.017844 95.807267 
L 172.306999 92.417683 
L 167.850992 89.478109 
L 163.555142 86.906721 
L 159.417567 84.690201 
L 155.521956 82.851932 
L 151.777168 81.326719 
L 148.180623 80.099067 
L 144.729572 79.153042 
L 141.421116 78.472394 
L 138.173762 78.03283 
L 135.0658 77.83703 
L 132.093971 77.868037 
L 129.180974 78.118103 
L 126.327917 78.586847 
L 123.535885 79.273556 
L 120.805941 80.177186 
L 118.139121 81.296362 
L 115.536439 82.629383 
L 112.934686 84.216597 
L 110.402485 86.02409 
L 107.88022 88.10235 
L 105.433151 90.405506 
L 103.005443 92.99398 
L 100.603919 95.879602 
L 98.235654 99.073469 
L 95.90798 102.585811 
L 93.628479 106.425849 
L 91.358843 110.693196 
L 89.158054 115.313627 
L 87.034658 120.292041 
L 84.997432 125.631595 
L 83.01938 131.445626 
L 81.151202 137.630534 
L 79.372203 144.303784 
L 77.728455 151.34593 
L 76.230195 158.746746 
L 74.88781 166.492954 
L 73.693836 174.704183 
L 72.683441 183.229784 
L 71.878815 191.904019 
L 71.27278 200.836083 
L 70.876105 209.995343 
L 70.700538 219.203384 
L 70.746259 228.422503 
L 71.013219 237.614952 
L 71.501148 246.74309 
L 72.196782 255.629474 
L 73.105359 264.382066 
L 74.206539 272.831375 
L 75.489352 280.953598 
L 76.942911 288.728561 
L 78.527569 296.01606 
L 80.255571 302.935228 
L 82.116647 309.476833 
L 84.063256 315.525025 
L 86.117546 321.195931 
L 88.270056 326.488943 
L 90.466364 331.311924 
L 92.737813 335.773219 
L 95.075865 339.878511 
L 97.47223 343.63502 
L 99.864622 346.979855 
L 102.29537 350.005559 
L 104.757167 352.722971 
L 107.242964 355.143755 
L 109.745969 357.280266 
L 112.323387 359.189249 
L 114.908618 360.829332 
L 117.562611 362.247171 
L 120.215446 363.413419 
L 122.93163 364.364465 
L 125.710131 365.098863 
L 128.549892 365.615498 
L 131.449833 365.913582 
L 134.408852 365.992663 
L 137.425823 365.85262 
L 140.579151 365.481588 
L 143.790974 364.88087 
L 147.142453 364.027772 
L 150.636527 362.906202 
L 154.275996 361.500313 
L 158.06351 359.794615 
L 162.001545 357.774109 
L 166.092385 355.42442 
L 170.429142 352.671496 
L 174.925377 349.55057 
L 179.676421 345.976955 
L 184.687555 341.921479 
L 189.96357 337.356773 
L 195.508676 332.257847 
L 201.326401 326.602715 
L 207.520016 320.267818 
L 214.095039 313.220988 
L 221.158565 305.319217 
L 228.716465 296.528049 
L 236.982453 286.568002 
L 246.174952 275.135187 
L 256.620935 261.77914 
L 269.292669 245.20152 
L 289.157212 218.792618 
L 310.506342 190.517165 
L 322.812944 174.588292 
L 332.996876 161.761234 
L 341.925855 150.86262 
L 350.032329 141.31107 
L 357.532305 132.814705 
L 364.434049 125.326319 
L 370.947549 118.585165 
L 376.979527 112.655278 
L 382.734007 107.306234 
L 388.118759 102.597812 
L 393.236037 98.411653 
L 398.090512 94.720679 
L 402.778593 91.434611 
L 407.211844 88.596905 
L 411.396282 86.175635 
L 415.425091 84.096128 
L 419.300505 82.343922 
L 423.024966 80.903854 
L 426.601103 79.760204 
L 430.031711 78.896834 
L 433.319733 78.29731 
L 436.46824 77.945022 
L 439.556889 77.823045 
L 442.509511 77.926052 
L 445.402934 78.24803 
L 448.236058 78.788488 
L 451.007805 79.546605 
L 453.717121 80.521227 
L 456.362977 81.710872 
L 458.944366 83.113732 
L 461.523949 84.77181 
L 464.033653 86.649278 
L 466.532527 88.798223 
L 469.014034 91.231527 
L 471.471379 93.961508 
L 473.89751 96.999786 
L 476.285119 100.357158 
L 478.626644 104.043448 
L 480.914269 108.067362 
L 483.13993 112.436335 
L 485.295316 117.156364 
L 487.412137 122.335942 
L 489.436167 127.883585 
L 491.358175 133.799378 
L 493.200834 140.199804 
L 494.916639 146.970365 
L 496.495544 154.102971 
L 497.950469 161.717522 
L 499.241626 169.675797 
L 500.358326 177.959251 
L 501.289788 186.545853 
L 502.025167 195.409962 
L 502.547026 204.37921 
L 502.858007 213.56185 
L 502.947783 222.778668 
L 502.816263 231.991924 
L 502.463582 241.163894 
L 501.8901 250.257022 
L 501.110497 259.09489 
L 500.135686 267.648605 
L 498.976545 275.89299 
L 497.643883 283.806479 
L 496.148414 291.371001 
L 494.500734 298.571837 
L 492.711297 305.397459 
L 490.826105 311.72675 
L 488.825092 317.676804 
L 486.717938 323.245288 
L 484.557756 328.335139 
L 482.315106 333.056601 
L 479.998762 337.414174 
L 477.667997 341.333487 
L 475.284762 344.914064 
L 472.856861 348.165045 
L 470.391844 351.096657 
L 467.897001 353.720075 
L 465.379366 356.047269 
L 462.845715 358.09088 
L 460.302563 359.864088 
L 457.690021 361.416597 
L 455.076979 362.715428 
L 452.39996 363.80012 
L 449.65998 364.669022 
L 446.858083 365.320813 
L 443.995334 365.754503 
L 441.07282 365.969431 
L 438.091653 365.96527 
L 434.974306 365.733425 
L 431.797699 365.271492 
L 428.481507 364.559997 
L 425.105783 363.608739 
L 421.58748 362.387347 
L 417.923852 360.880208 
L 414.112306 359.072095 
L 410.150425 356.948293 
L 405.945835 354.43827 
L 401.583905 351.572774 
L 396.969975 348.270372 
L 392.192868 344.576606 
L 387.155869 340.40013 
L 381.854346 335.71438 
L 376.185878 330.400492 
L 370.242919 324.519641 
L 363.922111 317.947699 
L 357.218369 310.654569 
L 350.024737 302.497885 
L 342.231598 293.321653 
L 333.622332 282.831404 
L 324.083133 270.849161 
L 312.967352 256.516071 
L 298.868868 237.949184 
L 255.971188 181.1984 
L 245.000285 167.203162 
L 235.503843 155.444047 
L 227.045335 145.318209 
L 219.300488 136.388833 
L 212.157403 128.487593 
L 205.506106 121.456308 
L 199.239636 115.152254 
L 193.352265 109.541845 
L 187.837093 104.586235 
L 182.591598 100.165595 
L 177.611374 96.253902 
L 172.891443 92.822858 
L 168.335953 89.784908 
L 164.032313 87.179079 
L 159.886843 84.928228 
L 155.983431 83.056596 
L 152.230789 81.498359 
L 148.626356 80.238113 
L 145.167401 79.260003 
L 141.851044 78.547852 
L 138.595608 78.076657 
L 135.479591 77.849926 
L 132.499748 77.850757 
L 129.578583 78.070671 
L 126.717207 78.509336 
L 123.916708 79.166084 
L 121.178151 80.039917 
L 118.502578 81.129504 
L 115.891005 82.43319 
L 113.344425 83.948992 
L 110.801078 85.721586 
L 108.267223 87.764578 
L 105.808403 90.033034 
L 103.368492 92.586611 
L 100.954309 95.437251 
L 98.572923 98.596168 
L 96.231661 102.073722 
L 93.938102 105.879271 
L 91.700072 110.021024 
L 89.481549 114.601989 
L 87.339857 119.541895 
L 85.283773 124.844101 
L 83.285928 130.621492 
L 81.397389 136.771449 
L 79.627814 143.290314 
L 77.959237 150.296857 
L 76.435519 157.664943 
L 75.06706 165.381591 
L 73.864388 173.430615 
L 72.838141 181.792477 
L 71.999037 190.444158 
L 71.35785 199.35905 
L 70.925379 208.506867 
L 70.713966 217.70956 
L 70.723826 226.929448 
L 70.954949 236.128778 
L 71.407099 245.269884 
L 72.067609 254.174924 
L 72.94119 262.951944 
L 74.008087 271.430833 
L 75.257357 279.587413 
L 76.678132 287.401128 
L 78.259648 294.854922 
L 79.959931 301.815227 
L 81.794008 308.400791 
L 83.751793 314.604924 
L 85.783689 320.318432 
L 87.914457 325.655636 
L 90.134856 330.617859 
L 92.388662 335.119358 
L 94.709635 339.265556 
L 97.089481 343.063488 
L 99.520154 346.521565 
L 101.937873 349.582696 
L 104.387104 352.33552 
L 106.860793 354.791585 
L 109.413841 357.01328 
L 111.981572 358.952258 
L 114.557491 360.621988 
L 117.202313 362.069807 
L 119.846345 363.265558 
L 122.553866 364.246332 
L 125.323848 365.010638 
L 128.155237 365.557315 
L 131.046955 365.885529 
L 133.997905 365.994783 
L 137.006963 365.88491 
L 140.152341 365.54477 
L 143.356384 364.974844 
L 146.70007 364.15315 
L 150.186352 363.063532 
L 153.81805 361.690067 
L 157.597832 360.017184 
L 161.528193 358.029792 
L 165.611435 355.713417 
L 169.84965 353.054348 
L 174.336954 349.973825 
L 179.079078 346.441182 
L 183.986292 342.505912 
L 189.155773 338.074368 
L 194.591864 333.121168 
L 200.397306 327.525746 
L 206.578884 321.25013 
L 213.142259 314.261392 
L 220.091729 306.533134 
L 227.637814 297.802283 
L 235.78762 288.027907 
L 244.862767 276.787428 
L 255.08401 263.764707 
L 267.422391 247.667822 
L 285.334963 223.88872 
L 310.359114 190.709936 
L 322.666889 174.774869 
L 332.852171 161.940747 
L 341.782623 151.034496 
L 349.890676 141.474845 
L 357.392326 132.969996 
L 364.295796 125.47296 
L 370.811096 118.722905 
L 376.844894 112.784134 
L 382.601254 107.426041 
L 387.987897 102.708644 
L 393.107095 98.513501 
L 397.963509 94.813595 
L 402.653574 91.518523 
L 407.088809 88.67196 
L 411.275218 86.242025 
L 415.306022 84.153895 
L 419.183448 82.393135 
L 422.909934 80.944607 
L 426.488103 79.792613 
L 429.920747 78.921034 
L 433.210803 78.313457 
L 436.361339 77.953284 
L 439.452059 77.82341 
L 442.406742 77.918718 
L 445.302264 78.233006 
L 448.137525 78.765798 
L 450.911447 79.516283 
L 453.622975 80.483319 
L 456.271078 81.665437 
L 458.85475 83.060838 
L 461.436709 84.711349 
L 463.948824 86.581347 
L 466.450205 88.722748 
L 468.934316 91.148457 
L 471.394363 93.870813 
L 473.769093 96.829874 
L 476.10959 100.097069 
L 478.458501 103.764774 
L 480.753765 107.770309 
L 482.987318 112.121188 
L 485.150852 116.823496 
L 487.276246 121.985479 
L 489.309108 127.516121 
L 491.240205 133.415607 
L 493.092384 139.800252 
L 494.817967 146.555987 
L 496.406903 153.674837 
L 497.872287 161.276613 
L 499.174151 169.223471 
L 500.301797 177.496988 
L 501.244439 186.075251 
L 501.991223 194.932739 
L 502.524522 203.89726 
L 502.847145 213.077056 
L 502.948576 222.293014 
L 502.828709 231.5074 
L 502.487668 240.682484 
L 501.925803 249.780697 
L 501.157598 258.625475 
L 500.19396 267.187809 
L 499.045757 275.442401 
L 497.72379 283.367567 
L 496.238768 290.945112 
L 494.601281 298.160193 
L 492.82178 305.001166 
L 490.94609 311.346488 
L 488.954317 317.313402 
L 486.856141 322.899465 
L 484.704507 328.007148 
L 482.470144 332.746921 
L 480.161828 337.12319 
L 477.838672 341.061093 
L 475.462792 344.660447 
L 473.041996 347.930316 
L 470.583834 350.880857 
L 468.095601 353.523176 
L 465.584334 355.869185 
L 463.056812 357.931466 
L 460.455228 359.765125 
L 457.846769 361.330786 
L 455.237649 362.642573 
L 452.56449 363.740331 
L 449.828308 364.622391 
L 447.030144 365.287411 
L 444.171063 365.73438 
L 441.25215 365.962618 
L 438.274517 365.971779 
L 435.239294 365.761847 
L 432.067633 365.319278 
L 428.756396 364.627553 
L 427.365871 364.270309 
L 427.365871 364.270309 
" clip-path="url(#p254a513206)" style="fill: none; stroke: #1f77b4; stroke-width: 1.5; stroke-linecap: square"/>
   </g>
   <g id="line2d_26">
    <path d="M 322.841369 149.865906 
L 322.730509 144.972261 
L 322.398157 140.088656 
L 321.844994 135.225112 
L 321.072155 130.391607 
L 320.081226 125.598058 
L 318.874239 120.854301 
L 317.453673 116.170067 
L 315.822441 111.554969 
L 313.983889 107.018475 
L 311.941791 102.569892 
L 309.700336 98.218349 
L 307.264122 93.972773 
L 304.63815 89.841875 
L 301.827805 85.834131 
L 298.838855 81.957763 
L 295.677431 78.220725 
L 292.350021 74.630684 
L 288.863451 71.195006 
L 285.224875 67.920741 
L 281.441758 64.814605 
L 277.521863 61.882973 
L 273.473231 59.131858 
L 269.304169 56.566907 
L 265.023232 54.19338 
L 260.639203 52.016149 
L 256.161076 50.039679 
L 251.598039 48.268027 
L 246.959456 46.704828 
L 242.254842 45.353288 
L 237.493851 44.21618 
L 232.68625 43.295839 
L 227.841905 42.594151 
L 222.970753 42.112557 
L 218.08279 41.852044 
L 213.188044 41.813148 
L 208.296558 41.995948 
L 203.418368 42.400069 
L 198.563483 43.024682 
L 193.741863 43.868505 
L 188.963402 44.929808 
L 184.237904 46.206411 
L 179.575064 47.695697 
L 174.984449 49.39461 
L 170.475477 51.299663 
L 166.057401 53.406949 
L 161.739284 55.712143 
L 157.529987 58.210516 
L 153.438146 60.896942 
L 149.472156 63.76591 
L 145.640154 66.811532 
L 141.950003 70.027559 
L 138.409273 73.407395 
L 135.025231 76.944103 
L 131.804817 80.630428 
L 128.754641 84.458806 
L 125.880961 88.421382 
L 123.189671 92.510026 
L 120.686295 96.71635 
L 118.375968 101.031723 
L 116.263431 105.44729 
L 114.353018 109.953993 
L 112.648649 114.542585 
L 111.15382 119.203652 
L 109.871598 123.927629 
L 108.804615 128.704824 
L 107.95506 133.525437 
L 107.324675 138.379576 
L 106.914754 143.257282 
L 106.726139 148.148547 
L 106.759215 153.043336 
L 107.013915 157.931606 
L 107.489718 162.803326 
L 108.185645 167.648503 
L 109.10027 172.457194 
L 110.231716 177.219534 
L 111.577661 181.925752 
L 113.135344 186.566191 
L 114.90157 191.13133 
L 116.872713 195.611804 
L 119.044731 199.998419 
L 121.413166 204.282175 
L 123.973159 208.454283 
L 126.719458 212.506183 
L 129.646427 216.429562 
L 132.748062 220.216369 
L 136.017999 223.858836 
L 139.449529 227.349488 
L 143.035611 230.681164 
L 146.768888 233.847029 
L 150.641699 236.840586 
L 154.646099 239.655694 
L 158.773872 242.286576 
L 163.016548 244.727836 
L 167.365424 246.974463 
L 171.811575 249.021849 
L 176.34588 250.865793 
L 180.959035 252.502512 
L 185.641576 253.928647 
L 190.383896 255.141272 
L 191.997401 255.502149 
L 191.997401 255.502149 
" clip-path="url(#p254a513206)" style="fill: none; stroke: #ff7f0e; stroke-width: 1.5; stroke-linecap: square"/>
   </g>
   <g id="patch_3">
    <path d="M 49.078125 385.478125 
L 49.078125 22.318125 
" style="fill: none; stroke: #000000; stroke-width: 0.8; stroke-linejoin: miter; stroke-linecap: square"/>
   </g>
   <g id="patch_4">
    <path d="M 524.561655 385.478125 
L 524.561655 22.318125 
" style="fill: none; stroke: #000000; stroke-width: 0.8; stroke-linejoin: miter; stroke-linecap: square"/>
   </g>
   <g id="patch_5">
    <path d="M 49.078125 385.478125 
L 524.561655 385.478125 
" style="fill: none; stroke: #000000; stroke-width: 0.8; stroke-linejoin: miter; stroke-linecap: square"/>
   </g>
   <g id="patch_6">
    <path d="M 49.078125 22.318125 
L 524.561655 22.318125 
" style="fill: none; stroke: #000000; stroke-width: 0.8; stroke-linejoin: miter; stroke-linecap: square"/>
   </g>
   <g id="patch_7">
    <path d="M 286.81989 221.908865 
Q 286.873922 221.836822 285.921724 223.10642 
" style="fill: none; opacity: 0.7; stroke: #1f77b4; stroke-width: 1.5; stroke-linecap: round"/>
    <path d="M 281.921724 225.10642 
L 285.921724 223.10642 
L 285.121723 227.50642 
" style="fill: none; opacity: 0.7; stroke: #1f77b4; stroke-width: 1.5; stroke-linecap: round"/>
   </g>
   <g id="patch_8">
    <path d="M 317.426978 262.30703 
Q 317.373488 262.237867 318.345969 263.49531 
" style="fill: none; opacity: 0.7; stroke: #1f77b4; stroke-width: 1.5; stroke-linecap: round"/>
    <path d="M 319.210981 267.882992 
L 318.345969 263.49531 
L 322.375122 265.43591 
" style="fill: none; opacity: 0.7; stroke: #1f77b4; stroke-width: 1.5; stroke-linecap: round"/>
   </g>
   <g id="patch_9">
    <path d="M 226.326379 299.343015 
Q 226.378255 299.282241 225.341337 300.497016 
" style="fill: none; opacity: 0.7; stroke: #1f77b4; stroke-width: 1.5; stroke-linecap: round"/>
    <path d="M 221.223229 302.240915 
L 225.341337 300.497016 
L 224.265591 304.837842 
" style="fill: none; opacity: 0.7; stroke: #1f77b4; stroke-width: 1.5; stroke-linecap: round"/>
   </g>
   <g id="patch_10">
    <path d="M 375.989045 330.21064 
Q 375.93982 330.163096 377.096864 331.280634 
" style="fill: none; opacity: 0.7; stroke: #1f77b4; stroke-width: 1.5; stroke-linecap: round"/>
    <path d="M 378.584541 335.498076 
L 377.096864 331.280634 
L 381.363424 332.620958 
" style="fill: none; opacity: 0.7; stroke: #1f77b4; stroke-width: 1.5; stroke-linecap: round"/>
   </g>
   <g id="patch_11">
    <path d="M 170.759811 352.451008 
Q 170.805399 352.420481 169.457496 353.323059 
" style="fill: none; opacity: 0.7; stroke: #1f77b4; stroke-width: 1.5; stroke-linecap: round"/>
    <path d="M 165.021035 353.886806 
L 169.457496 353.323059 
L 167.246617 357.210476 
" style="fill: none; opacity: 0.7; stroke: #1f77b4; stroke-width: 1.5; stroke-linecap: round"/>
   </g>
   <g id="patch_12">
    <path d="M 427.447949 364.292463 
Q 427.40691 364.281386 428.984978 364.707336 
" style="fill: none; opacity: 0.7; stroke: #1f77b4; stroke-width: 1.5; stroke-linecap: round"/>
    <path d="M 432.325589 367.680603 
L 428.984978 364.707336 
L 433.367958 363.818808 
" style="fill: none; opacity: 0.7; stroke: #1f77b4; stroke-width: 1.5; stroke-linecap: round"/>
   </g>
   <g id="patch_13">
    <path d="M 322.841369 149.865906 
Q 322.841369 149.857801 322.841494 151.526747 
" style="fill: none; opacity: 0.7; stroke: #ff7f0e; stroke-width: 1.5; stroke-linecap: round"/>
    <path d="M 320.841794 155.526897 
L 322.841494 151.526747 
L 324.841794 155.526597 
" style="fill: none; opacity: 0.7; stroke: #ff7f0e; stroke-width: 1.5; stroke-linecap: round"/>
   </g>
   <g id="patch_14">
    <path d="M 281.96356 65.2262 
Q 281.957211 65.221161 283.264464 66.258693 
" style="fill: none; opacity: 0.7; stroke: #ff7f0e; stroke-width: 1.5; stroke-linecap: round"/>
    <path d="M 285.154248 70.311928 
L 283.264464 66.258693 
L 287.640923 67.178807 
" style="fill: none; opacity: 0.7; stroke: #ff7f0e; stroke-width: 1.5; stroke-linecap: round"/>
   </g>
   <g id="patch_15">
    <path d="M 190.24025 44.623926 
Q 190.232357 44.625767 191.857684 44.246701 
" style="fill: none; opacity: 0.7; stroke: #ff7f0e; stroke-width: 1.5; stroke-linecap: round"/>
    <path d="M 196.207401 45.285914 
L 191.857684 44.246701 
L 195.298885 41.390455 
" style="fill: none; opacity: 0.7; stroke: #ff7f0e; stroke-width: 1.5; stroke-linecap: round"/>
   </g>
   <g id="patch_16">
    <path d="M 117.085811 103.666685 
Q 117.082346 103.674012 117.795733 102.165217 
" style="fill: none; opacity: 0.7; stroke: #ff7f0e; stroke-width: 1.5; stroke-linecap: round"/>
    <path d="M 121.313604 99.403952 
L 117.795733 102.165217 
L 117.697444 97.694162 
" style="fill: none; opacity: 0.7; stroke: #ff7f0e; stroke-width: 1.5; stroke-linecap: round"/>
   </g>
   <g id="patch_17">
    <path d="M 117.862064 197.672092 
Q 117.86565 197.679361 117.127219 196.182664 
" style="fill: none; opacity: 0.7; stroke: #ff7f0e; stroke-width: 1.5; stroke-linecap: round"/>
    <path d="M 117.150989 191.710591 
L 117.127219 196.182664 
L 113.563823 193.480404 
" style="fill: none; opacity: 0.7; stroke: #ff7f0e; stroke-width: 1.5; stroke-linecap: round"/>
   </g>
   <g id="patch_18">
    <path d="M 191.981556 255.498731 
Q 191.989478 255.50044 190.35806 255.148511 
" style="fill: none; opacity: 0.7; stroke: #ff7f0e; stroke-width: 1.5; stroke-linecap: round"/>
    <path d="M 186.869741 252.350006 
L 190.35806 255.148511 
L 186.026264 256.260063 
" style="fill: none; opacity: 0.7; stroke: #ff7f0e; stroke-width: 1.5; stroke-linecap: round"/>
   </g>
   <g id="patch_19">
    <path d="M 338.594137 151.773104 
Q 331.414551 147.299686 325.373659 143.535758 
" style="fill: none; opacity: 0.6; stroke-dasharray: 4.44,1.92; stroke-dashoffset: 0; stroke: #000000; stroke-width: 1.2; stroke-linecap: round"/>
    <path d="M 327.710939 147.348515 
L 325.373659 143.535758 
L 329.826233 143.953588 
" style="fill: none; opacity: 0.6; stroke-dasharray: 4.44,1.92; stroke-dashoffset: 0; stroke: #000000; stroke-width: 1.2; stroke-linecap: round"/>
   </g>
   <g id="patch_20">
    <path d="M 388.635875 101.530187 
Q 356.033709 117.190395 324.640901 132.269696 
" style="fill: none; opacity: 0.6; stroke-dasharray: 4.44,1.92; stroke-dashoffset: 0; stroke: #000000; stroke-width: 1.2; stroke-linecap: round"/>
    <path d="M 329.112475 132.340573 
L 324.640901 132.269696 
L 327.380547 128.734963 
" style="fill: none; opacity: 0.6; stroke-dasharray: 4.44,1.92; stroke-dashoffset: 0; stroke: #000000; stroke-width: 1.2; stroke-linecap: round"/>
   </g>
   <g id="patch_21">
    <path d="M 500.632947 200.655138 
Q 407.245661 152.218716 315.049353 104.400008 
" style="fill: none; opacity: 0.6; stroke-dasharray: 4.44,1.92; stroke-dashoffset: 0; stroke: #000000; stroke-width: 1.2; stroke-linecap: round"/>
    <path d="M 317.679328 108.017083 
L 315.049353 104.400008 
L 319.520998 104.466273 
" style="fill: none; opacity: 0.6; stroke-dasharray: 4.44,1.92; stroke-dashoffset: 0; stroke: #000000; stroke-width: 1.2; stroke-linecap: round"/>
   </g>
   <g id="patch_22">
    <path d="M 316.966502 260.20026 
Q 299.635267 163.691502 282.541174 68.503261 
" style="fill: none; opacity: 0.6; stroke-dasharray: 4.44,1.92; stroke-dashoffset: 0; stroke: #000000; stroke-width: 1.2; stroke-linecap: round"/>
    <path d="M 281.279682 72.79379 
L 282.541174 68.503261 
L 285.216702 72.086772 
" style="fill: none; opacity: 0.6; stroke-dasharray: 4.44,1.92; stroke-dashoffset: 0; stroke: #000000; stroke-width: 1.2; stroke-linecap: round"/>
   </g>
   <g id="patch_23">
    <path d="M 226.148932 297.244106 
Q 208.327302 171.924568 190.694565 47.933306 
" style="fill: none; opacity: 0.6; stroke-dasharray: 4.44,1.92; stroke-dashoffset: 0; stroke: #000000; stroke-width: 1.2; stroke-linecap: round"/>
    <path d="M 189.277659 52.175048 
L 190.694565 47.933306 
L 193.237815 51.611876 
" style="fill: none; opacity: 0.6; stroke-dasharray: 4.44,1.92; stroke-dashoffset: 0; stroke: #000000; stroke-width: 1.2; stroke-linecap: round"/>
   </g>
   <g id="text_15">
    <!-- Ground-truth trajectories (top-down NE view) -->
    <g transform="translate(147.18114 16.318125) scale(0.12 -0.12)">
     <defs>
      <path id="DejaVuSerif-47" d="M 4097 3272 
Q 3988 3856 3641 4136 
Q 3294 4416 2675 4416 
Q 1869 4416 1472 3897 
Q 1075 3378 1075 2328 
Q 1075 1300 1484 772 
Q 1894 244 2688 244 
Q 3041 244 3362 331 
Q 3684 419 3975 594 
L 3975 1797 
L 3097 1797 
L 3097 2131 
L 4609 2131 
L 4609 391 
Q 4194 150 3714 29 
Q 3234 -91 2688 -91 
Q 1631 -91 995 570 
Q 359 1231 359 2328 
Q 359 3434 996 4092 
Q 1634 4750 2713 4750 
Q 3113 4750 3539 4658 
Q 3966 4566 4447 4378 
L 4447 3272 
L 4097 3272 
z
" transform="scale(0.015625)"/>
      <path id="DejaVuSerif-75" d="M 2266 3322 
L 3341 3322 
L 3341 331 
L 3884 331 
L 3884 0 
L 2766 0 
L 2766 588 
Q 2606 256 2353 82 
Q 2100 -91 1766 -91 
Q 1213 -91 952 223 
Q 691 538 691 1209 
L 691 2988 
L 172 2988 
L 172 3322 
L 1269 3322 
L 1269 1388 
Q 1269 781 1417 556 
Q 1566 331 1947 331 
Q 2347 331 2556 625 
Q 2766 919 2766 1478 
L 2766 2988 
L 2266 2988 
L 2266 3322 
z
" transform="scale(0.015625)"/>
      <path id="DejaVuSerif-6e" d="M 263 0 
L 263 331 
L 781 331 
L 781 2988 
L 231 2988 
L 231 3322 
L 1356 3322 
L 1356 2731 
Q 1516 3069 1770 3241 
Q 2025 3413 2363 3413 
Q 2913 3413 3172 3097 
Q 3431 2781 3431 2113 
L 3431 331 
L 3944 331 
L 3944 0 
L 2356 0 
L 2356 331 
L 2853 331 
L 2853 1931 
Q 2853 2541 2703 2767 
Q 2553 2994 2175 2994 
Q 1775 2994 1565 2701 
Q 1356 2409 1356 1850 
L 1356 331 
L 1856 331 
L 1856 0 
L 263 0 
z
" transform="scale(0.015625)"/>
      <path id="DejaVuSerif-64" d="M 3359 331 
L 3909 331 
L 3909 0 
L 2784 0 
L 2784 519 
Q 2616 206 2355 57 
Q 2094 -91 1709 -91 
Q 1097 -91 708 395 
Q 319 881 319 1663 
Q 319 2444 706 2928 
Q 1094 3413 1709 3413 
Q 2094 3413 2355 3264 
Q 2616 3116 2784 2803 
L 2784 4531 
L 2241 4531 
L 2241 4863 
L 3359 4863 
L 3359 331 
z
M 2784 1497 
L 2784 1825 
Q 2784 2422 2554 2737 
Q 2325 3053 1888 3053 
Q 1444 3053 1217 2703 
Q 991 2353 991 1663 
Q 991 975 1217 622 
Q 1444 269 1888 269 
Q 2325 269 2554 583 
Q 2784 897 2784 1497 
z
" transform="scale(0.015625)"/>
      <path id="DejaVuSerif-2d" d="M 281 1959 
L 1881 1959 
L 1881 1472 
L 281 1472 
L 281 1959 
z
" transform="scale(0.015625)"/>
      <path id="DejaVuSerif-6a" d="M 641 4353 
Q 641 4497 745 4603 
Q 850 4709 997 4709 
Q 1141 4709 1245 4603 
Q 1350 4497 1350 4353 
Q 1350 4206 1248 4103 
Q 1147 4000 997 4000 
Q 850 4000 745 4103 
Q 641 4206 641 4353 
z
M 781 2988 
L 238 2988 
L 238 3322 
L 1356 3322 
L 1356 -325 
Q 1356 -838 1051 -1130 
Q 747 -1422 213 -1422 
Q -13 -1422 -217 -1370 
Q -422 -1319 -616 -1216 
L -616 -531 
L -319 -531 
Q -297 -831 -164 -972 
Q -31 -1113 225 -1113 
Q 509 -1113 645 -920 
Q 781 -728 781 -325 
L 781 2988 
z
" transform="scale(0.015625)"/>
      <path id="DejaVuSerif-65" d="M 3469 1600 
L 991 1600 
L 991 1575 
Q 991 903 1244 561 
Q 1497 219 1991 219 
Q 2369 219 2611 417 
Q 2853 616 2950 1006 
L 3413 1006 
Q 3275 459 2904 184 
Q 2534 -91 1931 -91 
Q 1203 -91 761 389 
Q 319 869 319 1663 
Q 319 2450 753 2931 
Q 1188 3413 1894 3413 
Q 2647 3413 3050 2948 
Q 3453 2484 3469 1600 
z
M 2791 1931 
Q 2772 2513 2545 2808 
Q 2319 3103 1894 3103 
Q 1497 3103 1269 2806 
Q 1041 2509 991 1931 
L 2791 1931 
z
" transform="scale(0.015625)"/>
      <path id="DejaVuSerif-63" d="M 3291 997 
Q 3169 466 2822 187 
Q 2475 -91 1925 -91 
Q 1200 -91 759 389 
Q 319 869 319 1663 
Q 319 2459 759 2936 
Q 1200 3413 1925 3413 
Q 2241 3413 2553 3339 
Q 2866 3266 3181 3116 
L 3181 2266 
L 2847 2266 
Q 2781 2703 2561 2903 
Q 2341 3103 1931 3103 
Q 1466 3103 1228 2742 
Q 991 2381 991 1663 
Q 991 944 1227 581 
Q 1463 219 1931 219 
Q 2303 219 2525 412 
Q 2747 606 2828 997 
L 3291 997 
z
" transform="scale(0.015625)"/>
      <path id="DejaVuSerif-69" d="M 622 4353 
Q 622 4497 726 4603 
Q 831 4709 978 4709 
Q 1122 4709 1226 4603 
Q 1331 4497 1331 4353 
Q 1331 4206 1228 4103 
Q 1125 4000 978 4000 
Q 831 4000 726 4103 
Q 622 4206 622 4353 
z
M 1356 331 
L 1900 331 
L 1900 0 
L 231 0 
L 231 331 
L 781 331 
L 781 2988 
L 231 2988 
L 231 3322 
L 1356 3322 
L 1356 331 
z
" transform="scale(0.015625)"/>
      <path id="DejaVuSerif-28" d="M 2041 -997 
Q 1281 -656 893 83 
Q 506 822 506 1931 
Q 506 3044 893 3783 
Q 1281 4522 2041 4863 
L 2041 4556 
Q 1559 4225 1350 3623 
Q 1141 3022 1141 1931 
Q 1141 844 1350 242 
Q 1559 -359 2041 -691 
L 2041 -997 
z
" transform="scale(0.015625)"/>
      <path id="DejaVuSerif-70" d="M 1313 1825 
L 1313 1497 
Q 1313 897 1542 583 
Q 1772 269 2209 269 
Q 2650 269 2876 622 
Q 3103 975 3103 1663 
Q 3103 2353 2876 2703 
Q 2650 3053 2209 3053 
Q 1772 3053 1542 2737 
Q 1313 2422 1313 1825 
z
M 738 2988 
L 184 2988 
L 184 3322 
L 1313 3322 
L 1313 2803 
Q 1481 3116 1742 3264 
Q 2003 3413 2388 3413 
Q 3000 3413 3387 2928 
Q 3775 2444 3775 1663 
Q 3775 881 3387 395 
Q 3000 -91 2388 -91 
Q 2003 -91 1742 57 
Q 1481 206 1313 519 
L 1313 -997 
L 1856 -997 
L 1856 -1331 
L 184 -1331 
L 184 -997 
L 738 -997 
L 738 2988 
z
" transform="scale(0.015625)"/>
      <path id="DejaVuSerif-77" d="M 3072 3322 
L 3922 728 
L 4672 2988 
L 4191 2988 
L 4191 3322 
L 5394 3322 
L 5394 2988 
L 5025 2988 
L 4038 0 
L 3559 0 
L 2741 2484 
L 1919 0 
L 1459 0 
L 475 2988 
L 103 2988 
L 103 3322 
L 1606 3322 
L 1606 2988 
L 1069 2988 
L 1813 728 
L 2669 3322 
L 3072 3322 
z
" transform="scale(0.015625)"/>
      <path id="DejaVuSerif-76" d="M 1581 0 
L 359 2988 
L -19 2988 
L -19 3322 
L 1509 3322 
L 1509 2988 
L 978 2988 
L 1913 703 
L 2847 2988 
L 2350 2988 
L 2350 3322 
L 3597 3322 
L 3597 2988 
L 3225 2988 
L 2003 0 
L 1581 0 
z
" transform="scale(0.015625)"/>
      <path id="DejaVuSerif-29" d="M 453 -997 
L 453 -691 
Q 934 -359 1145 242 
Q 1356 844 1356 1931 
Q 1356 3022 1145 3623 
Q 934 4225 453 4556 
L 453 4863 
Q 1216 4522 1603 3783 
Q 1991 3044 1991 1931 
Q 1991 822 1603 83 
Q 1216 -656 453 -997 
z
" transform="scale(0.015625)"/>
     </defs>
     <use xlink:href="#DejaVuSerif-47"/>
     <use xlink:href="#DejaVuSerif-72" transform="translate(79.882812 0)"/>
     <use xlink:href="#DejaVuSerif-6f" transform="translate(127.685547 0)"/>
     <use xlink:href="#DejaVuSerif-75" transform="translate(187.890625 0)"/>
     <use xlink:href="#DejaVuSerif-6e" transform="translate(252.294922 0)"/>
     <use xlink:href="#DejaVuSerif-64" transform="translate(316.699219 0)"/>
     <use xlink:href="#DejaVuSerif-2d" transform="translate(380.712891 0)"/>
     <use xlink:href="#DejaVuSerif-74" transform="translate(414.501953 0)"/>
     <use xlink:href="#DejaVuSerif-72" transform="translate(454.6875 0)"/>
     <use xlink:href="#DejaVuSerif-75" transform="translate(502.490234 0)"/>
     <use xlink:href="#DejaVuSerif-74" transform="translate(566.894531 0)"/>
     <use xlink:href="#DejaVuSerif-68" transform="translate(607.080078 0)"/>
     <use xlink:href="#DejaVuSerif-20" transform="translate(671.484375 0)"/>
     <use xlink:href="#DejaVuSerif-74" transform="translate(703.271484 0)"/>
     <use xlink:href="#DejaVuSerif-72" transform="translate(743.457031 0)"/>
     <use xlink:href="#DejaVuSerif-61" transform="translate(791.259766 0)"/>
     <use xlink:href="#DejaVuSerif-6a" transform="translate(850.878906 0)"/>
     <use xlink:href="#DejaVuSerif-65" transform="translate(881.884766 0)"/>
     <use xlink:href="#DejaVuSerif-63" transform="translate(941.064453 0)"/>
     <use xlink:href="#DejaVuSerif-74" transform="translate(997.070312 0)"/>
     <use xlink:href="#DejaVuSerif-6f" transform="translate(1037.255859 0)"/>
     <use xlink:href="#DejaVuSerif-72" transform="translate(1097.460938 0)"/>
     <use xlink:href="#DejaVuSerif-69" transform="translate(1145.263672 0)"/>
     <use xlink:href="#DejaVuSerif-65" transform="translate(1177.246094 0)"/>
     <use xlink:href="#DejaVuSerif-73" transform="translate(1236.425781 0)"/>
     <use xlink:href="#DejaVuSerif-20" transform="translate(1287.744141 0)"/>
     <use xlink:href="#DejaVuSerif-28" transform="translate(1319.53125 0)"/>
     <use xlink:href="#DejaVuSerif-74" transform="translate(1358.544922 0)"/>
     <use xlink:href="#DejaVuSerif-6f" transform="translate(1398.730469 0)"/>
     <use xlink:href="#DejaVuSerif-70" transform="translate(1458.935547 0)"/>
     <use xlink:href="#DejaVuSerif-2d" transform="translate(1522.949219 0)"/>
     <use xlink:href="#DejaVuSerif-64" transform="translate(1556.738281 0)"/>
     <use xlink:href="#DejaVuSerif-6f" transform="translate(1620.751953 0)"/>
     <use xlink:href="#DejaVuSerif-77" transform="translate(1680.957031 0)"/>
     <use xlink:href="#DejaVuSerif-6e" transform="translate(1766.552734 0)"/>
     <use xlink:href="#DejaVuSerif-20" transform="translate(1830.957031 0)"/>
     <use xlink:href="#DejaVuSerif-4e" transform="translate(1862.744141 0)"/>
     <use xlink:href="#DejaVuSerif-45" transform="translate(1950.244141 0)"/>
     <use xlink:href="#DejaVuSerif-20" transform="translate(2023.242188 0)"/>
     <use xlink:href="#DejaVuSerif-76" transform="translate(2055.029297 0)"/>
     <use xlink:href="#DejaVuSerif-69" transform="translate(2111.523438 0)"/>
     <use xlink:href="#DejaVuSerif-65" transform="translate(2143.505859 0)"/>
     <use xlink:href="#DejaVuSerif-77" transform="translate(2202.685547 0)"/>
     <use xlink:href="#DejaVuSerif-29" transform="translate(2288.28125 0)"/>
    </g>
   </g>
   <g id="legend_1">
    <g id="patch_24">
     <path d="M 228.333528 381.313125 
L 345.306252 381.313125 
Q 346.972252 381.313125 346.972252 379.647125 
L 346.972252 331.45417 
Q 346.972252 329.78817 345.306252 329.78817 
L 228.333528 329.78817 
Q 226.667528 329.78817 226.667528 331.45417 
L 226.667528 379.647125 
Q 226.667528 381.313125 228.333528 381.313125 
z
" style="fill: #ffffff; opacity: 0.8; stroke: #cccccc; stroke-linejoin: miter"/>
    </g>
    <g id="line2d_27">
     <path d="M 229.999528 336.534169 
L 238.329528 336.534169 
L 246.659528 336.534169 
" style="fill: none; stroke: #1f77b4; stroke-width: 1.5; stroke-linecap: square"/>
    </g>
    <g id="text_16">
     <!-- USV (figure-8) -->
     <g transform="translate(253.323528 339.449669) scale(0.0833 -0.0833)">
      <defs>
       <path id="DejaVuSerif-55" d="M 897 4331 
L 300 4331 
L 300 4666 
L 2125 4666 
L 2125 4331 
L 1528 4331 
L 1528 1919 
Q 1528 1025 1820 672 
Q 2113 319 2828 319 
Q 3544 319 3836 672 
Q 4128 1025 4128 1919 
L 4128 4331 
L 3531 4331 
L 3531 4666 
L 5106 4666 
L 5106 4331 
L 4513 4331 
L 4513 1856 
Q 4513 791 4103 350 
Q 3694 -91 2713 -91 
Q 1731 -91 1314 353 
Q 897 797 897 1856 
L 897 4331 
z
" transform="scale(0.015625)"/>
       <path id="DejaVuSerif-53" d="M 594 225 
L 594 1288 
L 953 1284 
Q 969 753 1261 498 
Q 1553 244 2150 244 
Q 2706 244 2998 464 
Q 3291 684 3291 1106 
Q 3291 1444 3114 1625 
Q 2938 1806 2369 1978 
L 1753 2163 
Q 1084 2366 811 2669 
Q 538 2972 538 3500 
Q 538 4094 959 4422 
Q 1381 4750 2144 4750 
Q 2469 4750 2856 4679 
Q 3244 4609 3681 4475 
L 3681 3481 
L 3328 3481 
Q 3275 3975 2998 4195 
Q 2722 4416 2156 4416 
Q 1663 4416 1405 4214 
Q 1147 4013 1147 3628 
Q 1147 3294 1340 3103 
Q 1534 2913 2163 2725 
L 2741 2553 
Q 3375 2363 3645 2067 
Q 3916 1772 3916 1275 
Q 3916 597 3481 253 
Q 3047 -91 2188 -91 
Q 1803 -91 1404 -12 
Q 1006 66 594 225 
z
" transform="scale(0.015625)"/>
       <path id="DejaVuSerif-56" d="M 1119 4331 
L 2497 750 
L 3872 4331 
L 3347 4331 
L 3347 4666 
L 4716 4666 
L 4716 4331 
L 4263 4331 
L 2597 0 
L 2059 0 
L 403 4331 
L -63 4331 
L -63 4666 
L 1638 4666 
L 1638 4331 
L 1119 4331 
z
" transform="scale(0.015625)"/>
       <path id="DejaVuSerif-66" d="M 2753 4078 
L 2450 4078 
Q 2447 4313 2317 4434 
Q 2188 4556 1941 4556 
Q 1619 4556 1487 4379 
Q 1356 4203 1356 3750 
L 1356 3322 
L 2284 3322 
L 2284 2988 
L 1356 2988 
L 1356 331 
L 2094 331 
L 2094 0 
L 231 0 
L 231 331 
L 781 331 
L 781 2988 
L 231 2988 
L 231 3322 
L 781 3322 
L 781 3738 
Q 781 4294 1070 4578 
Q 1359 4863 1919 4863 
Q 2128 4863 2337 4825 
Q 2547 4788 2753 4709 
L 2753 4078 
z
" transform="scale(0.015625)"/>
       <path id="DejaVuSerif-67" d="M 3359 2988 
L 3359 72 
Q 3359 -644 2965 -1033 
Q 2572 -1422 1844 -1422 
Q 1516 -1422 1216 -1362 
Q 916 -1303 641 -1184 
L 641 -488 
L 941 -488 
Q 997 -813 1206 -963 
Q 1416 -1113 1806 -1113 
Q 2313 -1113 2548 -827 
Q 2784 -541 2784 72 
L 2784 519 
Q 2616 206 2355 57 
Q 2094 -91 1709 -91 
Q 1097 -91 708 395 
Q 319 881 319 1663 
Q 319 2444 706 2928 
Q 1094 3413 1709 3413 
Q 2094 3413 2355 3264 
Q 2616 3116 2784 2803 
L 2784 3322 
L 3909 3322 
L 3909 2988 
L 3359 2988 
z
M 2784 1825 
Q 2784 2422 2554 2737 
Q 2325 3053 1888 3053 
Q 1444 3053 1217 2703 
Q 991 2353 991 1663 
Q 991 975 1217 622 
Q 1444 269 1888 269 
Q 2325 269 2554 583 
Q 2784 897 2784 1497 
L 2784 1825 
z
" transform="scale(0.015625)"/>
       <path id="DejaVuSerif-38" d="M 2981 1275 
Q 2981 1775 2732 2051 
Q 2484 2328 2034 2328 
Q 1584 2328 1336 2051 
Q 1088 1775 1088 1275 
Q 1088 772 1336 495 
Q 1584 219 2034 219 
Q 2484 219 2732 495 
Q 2981 772 2981 1275 
z
M 2853 3541 
Q 2853 3966 2637 4203 
Q 2422 4441 2034 4441 
Q 1650 4441 1433 4203 
Q 1216 3966 1216 3541 
Q 1216 3113 1433 2875 
Q 1650 2638 2034 2638 
Q 2422 2638 2637 2875 
Q 2853 3113 2853 3541 
z
M 2516 2484 
Q 3047 2413 3344 2092 
Q 3641 1772 3641 1275 
Q 3641 619 3225 264 
Q 2809 -91 2034 -91 
Q 1263 -91 845 264 
Q 428 619 428 1275 
Q 428 1772 725 2092 
Q 1022 2413 1556 2484 
Q 1084 2569 832 2842 
Q 581 3116 581 3541 
Q 581 4103 968 4426 
Q 1356 4750 2034 4750 
Q 2713 4750 3100 4426 
Q 3488 4103 3488 3541 
Q 3488 3116 3236 2842 
Q 2984 2569 2516 2484 
z
" transform="scale(0.015625)"/>
      </defs>
      <use xlink:href="#DejaVuSerif-55"/>
      <use xlink:href="#DejaVuSerif-53" transform="translate(84.277344 0)"/>
      <use xlink:href="#DejaVuSerif-56" transform="translate(152.783203 0)"/>
      <use xlink:href="#DejaVuSerif-20" transform="translate(225 0)"/>
      <use xlink:href="#DejaVuSerif-28" transform="translate(256.787109 0)"/>
      <use xlink:href="#DejaVuSerif-66" transform="translate(295.800781 0)"/>
      <use xlink:href="#DejaVuSerif-69" transform="translate(332.8125 0)"/>
      <use xlink:href="#DejaVuSerif-67" transform="translate(364.794922 0)"/>
      <use xlink:href="#DejaVuSerif-75" transform="translate(428.808594 0)"/>
      <use xlink:href="#DejaVuSerif-72" transform="translate(493.212891 0)"/>
      <use xlink:href="#DejaVuSerif-65" transform="translate(541.015625 0)"/>
      <use xlink:href="#DejaVuSerif-2d" transform="translate(600.195312 0)"/>
      <use xlink:href="#DejaVuSerif-38" transform="translate(633.984375 0)"/>
      <use xlink:href="#DejaVuSerif-29" transform="translate(697.607422 0)"/>
     </g>
    </g>
    <g id="line2d_28">
     <path d="M 229.999528 348.879489 
L 238.329528 348.879489 
L 246.659528 348.879489 
" style="fill: none; stroke: #ff7f0e; stroke-width: 1.5; stroke-linecap: square"/>
    </g>
    <g id="text_17">
     <!-- ROV (circular sweep) -->
     <g transform="translate(253.323528 351.794989) scale(0.0833 -0.0833)">
      <defs>
       <path id="DejaVuSerif-52" d="M 3066 2316 
Q 3284 2256 3442 2114 
Q 3600 1972 3725 1716 
L 4403 331 
L 4972 331 
L 4972 0 
L 3872 0 
L 3144 1484 
Q 2934 1916 2759 2042 
Q 2584 2169 2278 2169 
L 1581 2169 
L 1581 331 
L 2241 331 
L 2241 0 
L 353 0 
L 353 331 
L 947 331 
L 947 4331 
L 353 4331 
L 353 4666 
L 2719 4666 
Q 3400 4666 3770 4341 
Q 4141 4016 4141 3419 
Q 4141 2938 3870 2661 
Q 3600 2384 3066 2316 
z
M 1581 2503 
L 2503 2503 
Q 2975 2503 3200 2726 
Q 3425 2950 3425 3419 
Q 3425 3888 3200 4109 
Q 2975 4331 2503 4331 
L 1581 4331 
L 1581 2503 
z
" transform="scale(0.015625)"/>
       <path id="DejaVuSerif-4f" d="M 2625 244 
Q 3391 244 3781 770 
Q 4172 1297 4172 2328 
Q 4172 3363 3781 3889 
Q 3391 4416 2625 4416 
Q 1856 4416 1465 3889 
Q 1075 3363 1075 2328 
Q 1075 1297 1465 770 
Q 1856 244 2625 244 
z
M 2625 -91 
Q 2150 -91 1751 65 
Q 1353 222 1050 525 
Q 700 875 529 1319 
Q 359 1763 359 2328 
Q 359 2894 529 3339 
Q 700 3784 1050 4134 
Q 1356 4441 1750 4595 
Q 2144 4750 2625 4750 
Q 3641 4750 4266 4084 
Q 4891 3419 4891 2328 
Q 4891 1769 4719 1320 
Q 4547 872 4197 525 
Q 3891 219 3497 64 
Q 3103 -91 2625 -91 
z
" transform="scale(0.015625)"/>
       <path id="DejaVuSerif-6c" d="M 1313 331 
L 1856 331 
L 1856 0 
L 184 0 
L 184 331 
L 738 331 
L 738 4531 
L 184 4531 
L 184 4863 
L 1313 4863 
L 1313 331 
z
" transform="scale(0.015625)"/>
      </defs>
      <use xlink:href="#DejaVuSerif-52"/>
      <use xlink:href="#DejaVuSerif-4f" transform="translate(75.292969 0)"/>
      <use xlink:href="#DejaVuSerif-56" transform="translate(155.525391 0)"/>
      <use xlink:href="#DejaVuSerif-20" transform="translate(227.742188 0)"/>
      <use xlink:href="#DejaVuSerif-28" transform="translate(259.529297 0)"/>
      <use xlink:href="#DejaVuSerif-63" transform="translate(298.542969 0)"/>
      <use xlink:href="#DejaVuSerif-69" transform="translate(354.548828 0)"/>
      <use xlink:href="#DejaVuSerif-72" transform="translate(386.53125 0)"/>
      <use xlink:href="#DejaVuSerif-63" transform="translate(434.333984 0)"/>
      <use xlink:href="#DejaVuSerif-75" transform="translate(490.339844 0)"/>
      <use xlink:href="#DejaVuSerif-6c" transform="translate(554.744141 0)"/>
      <use xlink:href="#DejaVuSerif-61" transform="translate(586.726562 0)"/>
      <use xlink:href="#DejaVuSerif-72" transform="translate(646.345703 0)"/>
      <use xlink:href="#DejaVuSerif-20" transform="translate(694.148438 0)"/>
      <use xlink:href="#DejaVuSerif-73" transform="translate(725.935547 0)"/>
      <use xlink:href="#DejaVuSerif-77" transform="translate(777.253906 0)"/>
      <use xlink:href="#DejaVuSerif-65" transform="translate(862.849609 0)"/>
      <use xlink:href="#DejaVuSerif-65" transform="translate(922.029297 0)"/>
      <use xlink:href="#DejaVuSerif-70" transform="translate(981.208984 0)"/>
      <use xlink:href="#DejaVuSerif-29" transform="translate(1045.222656 0)"/>
     </g>
    </g>
    <g id="PathCollection_3">
     <g>
      <use xlink:href="#meed5545ab2" x="238.329528" y="361.835242" style="fill: #1f77b4; stroke: #1f77b4"/>
     </g>
    </g>
    <g id="text_18">
     <!-- USV start -->
     <g transform="translate(253.323528 364.021867) scale(0.0833 -0.0833)">
      <use xlink:href="#DejaVuSerif-55"/>
      <use xlink:href="#DejaVuSerif-53" transform="translate(84.277344 0)"/>
      <use xlink:href="#DejaVuSerif-56" transform="translate(152.783203 0)"/>
      <use xlink:href="#DejaVuSerif-20" transform="translate(225 0)"/>
      <use xlink:href="#DejaVuSerif-73" transform="translate(256.787109 0)"/>
      <use xlink:href="#DejaVuSerif-74" transform="translate(308.105469 0)"/>
      <use xlink:href="#DejaVuSerif-61" transform="translate(348.291016 0)"/>
      <use xlink:href="#DejaVuSerif-72" transform="translate(407.910156 0)"/>
      <use xlink:href="#DejaVuSerif-74" transform="translate(455.712891 0)"/>
     </g>
    </g>
    <g id="PathCollection_4">
     <g>
      <use xlink:href="#mb96451f1a8" x="238.329528" y="374.06212" style="fill: #ff7f0e; stroke: #ff7f0e"/>
     </g>
    </g>
    <g id="text_19">
     <!-- ROV start -->
     <g transform="translate(253.323528 376.248745) scale(0.0833 -0.0833)">
      <use xlink:href="#DejaVuSerif-52"/>
      <use xlink:href="#DejaVuSerif-4f" transform="translate(75.292969 0)"/>
      <use xlink:href="#DejaVuSerif-56" transform="translate(155.525391 0)"/>
      <use xlink:href="#DejaVuSerif-20" transform="translate(227.742188 0)"/>
      <use xlink:href="#DejaVuSerif-73" transform="translate(259.529297 0)"/>
      <use xlink:href="#DejaVuSerif-74" transform="translate(310.847656 0)"/>
      <use xlink:href="#DejaVuSerif-61" transform="translate(351.033203 0)"/>
      <use xlink:href="#DejaVuSerif-72" transform="translate(410.652344 0)"/>
      <use xlink:href="#DejaVuSerif-74" transform="translate(458.455078 0)"/>
     </g>
    </g>
   </g>
  </g>
 </g>
 <defs>
  <clipPath id="p254a513206">
   <rect x="49.078125" y="22.318125" width="475.48353" height="363.16"/>
  </clipPath>
 </defs>
</svg>
