<?xml version="1.0" encoding="utf-8" standalone="no"?>
<!DOCTYPE svg PUBLIC "-//W3C//DTD SVG 1.1//EN"
  "http://www.w3.org/Graphics/SVG/1.1/DTD/svg11.dtd">
<svg xmlns:xlink="http://www.w3.org/1999/xlink" width="253.19952pt" height="281.99952pt" viewBox="0 0 253.19952 281.99952" xmlns="http://www.w3.org/2000/svg" version="1.1">
 <metadata>
  <rdf:RDF xmlns:dc="http://purl.org/dc/elements/1.1/" xmlns:cc="http://creativecommons.org/ns#" xmlns:rdf="http://www.w3.org/1999/02/22-rdf-syntax-ns#">
   <cc:Work>
    <dc:type rdf:resource="http://purl.org/dc/dcmitype/StillImage"/>
    <dc:date>2026-06-14T08:27:31.522233</dc:date>
    <dc:format>image/svg+xml</dc:format>
    <dc:creator>
     <cc:Agent>
      <dc:title>Matplotlib v3.5.1, https://matplotlib.org/</dc:title>
     </cc:Agent>
    </dc:creator>
   </cc:Work>
  </rdf:RDF>
 </metadata>
 <defs>
  <style type="text/css">*{stroke-linejoin: round; stroke-linecap: butt}</style>
 </defs>
 <g id="figure_1">
  <g id="patch_1">
   <path d="M 0 281.99952 
L 253.19952 281.99952 
L 253.19952 0 
L 0 0 
z
" style="fill: #ffffff"/>
  </g>
  <g id="axes_1">
   <g id="patch_2">
    <path d="M 40.196719 138.595089 
L 245.99952 138.595089 
L 245.99952 20.251562 
L 40.196719 20.251562 
z
" style="fill: #ffffff"/>
   </g>
   <g id="PathCollection_1">
    <defs>
     <path id="m21160a3522" d="M 0 3.872983 
C 1.027127 3.872983 2.012324 3.464901 2.738613 2.738613 
C 3.464901 2.012324 3.872983 1.027127 3.872983 0 
C 3.872983 -1.027127 3.464901 -2.012324 2.738613 -2.738613 
C 2.012324 -3.464901 1.027127 -3.872983 0 -3.872983 
C -1.027127 -3.872983 -2.012324 -3.464901 -2.738613 -2.738613 
C -3.464901 -2.012324 -3.872983 -1.027127 -3.872983 0 
C -3.872983 1.027127 -3.464901 2.012324 -2.738613 2.738613 
C -2.012324 3.464901 -1.027127 3.872983 0 3.872983 
z
" style="stroke: #1f77b4"/>
    </defs>
    <g clip-path="url(#p4e3d9476fc)">
     <use xlink:href="#m21160a3522" x="143.098119" y="85.400272" style="fill: #1f77b4; stroke: #1f77b4"/>
    </g>
   </g>
   <g id="PathCollection_2">
    <defs>
     <path id="md417b765d2" d="M 0 3.872983 
C 1.027127 3.872983 2.012324 3.464901 2.738613 2.738613 
C 3.464901 2.012324 3.872983 1.027127 3.872983 0 
C 3.872983 -1.027127 3.464901 -2.012324 2.738613 -2.738613 
C 2.012324 -3.464901 1.027127 -3.872983 0 -3.872983 
C -1.027127 -3.872983 -2.012324 -3.464901 -2.738613 -2.738613 
C -3.464901 -2.012324 -3.872983 -1.027127 -3.872983 0 
C -3.872983 1.027127 -3.464901 2.012324 -2.738613 2.738613 
C -2.012324 3.464901 -1.027127 3.872983 0 3.872983 
z
" style="stroke: #ff7f0e"/>
    </defs>
    <g clip-path="url(#p4e3d9476fc)">
     <use xlink:href="#md417b765d2" x="155.052011" y="61.492488" style="fill: #ff7f0e; stroke: #ff7f0e"/>
    </g>
   </g>
   <g id="matplotlib.axis_1">
    <g id="xtick_1">
     <g id="line2d_1">
      <path d="M 71.37477 138.595089 
L 71.37477 20.251562 
" clip-path="url(#p4e3d9476fc)" style="fill: none; stroke: #b0b0b0; stroke-opacity: 0.3; stroke-width: 0.8; stroke-linecap: square"/>
     </g>
     <g id="line2d_2">
      <defs>
       <path id="mcbc42f7814" d="M 0 0 
L 0 3.5 
" style="stroke: #000000; stroke-width: 0.8"/>
      </defs>
      <g>
       <use xlink:href="#mcbc42f7814" x="71.37477" y="138.595089" style="stroke: #000000; stroke-width: 0.8"/>
      </g>
     </g>
     <g id="text_1">
      <!-- 0 -->
      <g transform="translate(69.12477 151.840245)scale(0.09 -0.09)">
       <defs>
        <path id="Cmr10-30" d="M 1600 -141 
Q 816 -141 533 504 
Q 250 1150 250 2041 
Q 250 2597 351 3087 
Q 453 3578 754 3920 
Q 1056 4263 1600 4263 
Q 2022 4263 2290 4056 
Q 2559 3850 2700 3523 
Q 2841 3197 2892 2823 
Q 2944 2450 2944 2041 
Q 2944 1491 2842 1011 
Q 2741 531 2444 195 
Q 2147 -141 1600 -141 
z
M 1600 25 
Q 1956 25 2131 390 
Q 2306 756 2347 1200 
Q 2388 1644 2388 2144 
Q 2388 2625 2347 3031 
Q 2306 3438 2132 3767 
Q 1959 4097 1600 4097 
Q 1238 4097 1063 3765 
Q 888 3434 847 3029 
Q 806 2625 806 2144 
Q 806 1788 823 1472 
Q 841 1156 916 820 
Q 991 484 1158 254 
Q 1325 25 1600 25 
z
" transform="scale(0.015625)"/>
       </defs>
       <use xlink:href="#Cmr10-30"/>
      </g>
     </g>
    </g>
    <g id="xtick_2">
     <g id="line2d_3">
      <path d="M 119.190336 138.595089 
L 119.190336 20.251562 
" clip-path="url(#p4e3d9476fc)" style="fill: none; stroke: #b0b0b0; stroke-opacity: 0.3; stroke-width: 0.8; stroke-linecap: square"/>
     </g>
     <g id="line2d_4">
      <g>
       <use xlink:href="#mcbc42f7814" x="119.190336" y="138.595089" style="stroke: #000000; stroke-width: 0.8"/>
      </g>
     </g>
     <g id="text_2">
      <!-- 20 -->
      <g transform="translate(114.690336 151.840245)scale(0.09 -0.09)">
       <defs>
        <path id="Cmr10-32" d="M 319 0 
L 319 172 
Q 319 188 331 206 
L 1325 1306 
Q 1550 1550 1690 1715 
Q 1831 1881 1968 2097 
Q 2106 2313 2186 2536 
Q 2266 2759 2266 3009 
Q 2266 3272 2169 3511 
Q 2072 3750 1880 3894 
Q 1688 4038 1416 4038 
Q 1138 4038 916 3870 
Q 694 3703 603 3438 
Q 628 3444 672 3444 
Q 816 3444 917 3347 
Q 1019 3250 1019 3097 
Q 1019 2950 917 2848 
Q 816 2747 672 2747 
Q 522 2747 420 2851 
Q 319 2956 319 3097 
Q 319 3338 409 3548 
Q 500 3759 670 3923 
Q 841 4088 1055 4175 
Q 1269 4263 1509 4263 
Q 1875 4263 2190 4108 
Q 2506 3953 2690 3670 
Q 2875 3388 2875 3009 
Q 2875 2731 2753 2481 
Q 2631 2231 2440 2026 
Q 2250 1822 1953 1562 
Q 1656 1303 1563 1216 
L 838 519 
L 1453 519 
Q 1906 519 2211 526 
Q 2516 534 2534 550 
Q 2609 631 2688 1141 
L 2875 1141 
L 2694 0 
L 319 0 
z
" transform="scale(0.015625)"/>
       </defs>
       <use xlink:href="#Cmr10-32"/>
       <use xlink:href="#Cmr10-30" x="50"/>
      </g>
     </g>
    </g>
    <g id="xtick_3">
     <g id="line2d_5">
      <path d="M 167.005902 138.595089 
L 167.005902 20.251562 
" clip-path="url(#p4e3d9476fc)" style="fill: none; stroke: #b0b0b0; stroke-opacity: 0.3; stroke-width: 0.8; stroke-linecap: square"/>
     </g>
     <g id="line2d_6">
      <g>
       <use xlink:href="#mcbc42f7814" x="167.005902" y="138.595089" style="stroke: #000000; stroke-width: 0.8"/>
      </g>
     </g>
     <g id="text_3">
      <!-- 40 -->
      <g transform="translate(162.505902 151.840245)scale(0.09 -0.09)">
       <defs>
        <path id="Cmr10-34" d="M 178 1056 
L 178 1281 
L 2156 4231 
Q 2178 4263 2222 4263 
L 2316 4263 
Q 2388 4263 2388 4191 
L 2388 1281 
L 3016 1281 
L 3016 1056 
L 2388 1056 
L 2388 428 
Q 2388 297 2575 261 
Q 2763 225 3009 225 
L 3009 0 
L 1247 0 
L 1247 225 
Q 1494 225 1681 261 
Q 1869 297 1869 428 
L 1869 1056 
L 178 1056 
z
M 391 1281 
L 1906 1281 
L 1906 3547 
L 391 1281 
z
" transform="scale(0.015625)"/>
       </defs>
       <use xlink:href="#Cmr10-34"/>
       <use xlink:href="#Cmr10-30" x="50"/>
      </g>
     </g>
    </g>
    <g id="xtick_4">
     <g id="line2d_7">
      <path d="M 214.821469 138.595089 
L 214.821469 20.251562 
" clip-path="url(#p4e3d9476fc)" style="fill: none; stroke: #b0b0b0; stroke-opacity: 0.3; stroke-width: 0.8; stroke-linecap: square"/>
     </g>
     <g id="line2d_8">
      <g>
       <use xlink:href="#mcbc42f7814" x="214.821469" y="138.595089" style="stroke: #000000; stroke-width: 0.8"/>
      </g>
     </g>
     <g id="text_4">
      <!-- 60 -->
      <g transform="translate(210.321469 151.840245)scale(0.09 -0.09)">
       <defs>
        <path id="Cmr10-36" d="M 1600 -141 
Q 1203 -141 937 70 
Q 672 281 526 617 
Q 381 953 325 1322 
Q 269 1691 269 2069 
Q 269 2575 466 3084 
Q 663 3594 1045 3928 
Q 1428 4263 1953 4263 
Q 2172 4263 2361 4180 
Q 2550 4097 2658 3936 
Q 2766 3775 2766 3547 
Q 2766 3416 2677 3327 
Q 2588 3238 2456 3238 
Q 2331 3238 2240 3328 
Q 2150 3419 2150 3547 
Q 2150 3672 2240 3762 
Q 2331 3853 2456 3853 
L 2491 3853 
Q 2409 3969 2261 4023 
Q 2113 4078 1953 4078 
Q 1759 4078 1595 3993 
Q 1431 3909 1300 3765 
Q 1169 3622 1081 3448 
Q 994 3275 945 3053 
Q 897 2831 884 2637 
Q 872 2444 872 2150 
Q 984 2413 1190 2580 
Q 1397 2747 1656 2747 
Q 1941 2747 2175 2631 
Q 2409 2516 2578 2311 
Q 2747 2106 2836 1843 
Q 2925 1581 2925 1313 
Q 2925 938 2758 598 
Q 2591 259 2287 59 
Q 1984 -141 1600 -141 
z
M 1600 63 
Q 1847 63 1997 175 
Q 2147 288 2217 473 
Q 2288 659 2305 848 
Q 2322 1038 2322 1313 
Q 2322 1675 2287 1931 
Q 2253 2188 2100 2383 
Q 1947 2578 1631 2578 
Q 1372 2578 1205 2403 
Q 1038 2228 961 1961 
Q 884 1694 884 1447 
Q 884 1363 891 1319 
Q 891 1309 889 1303 
Q 888 1297 884 1288 
Q 884 1013 940 731 
Q 997 450 1156 256 
Q 1316 63 1600 63 
z
" transform="scale(0.015625)"/>
       </defs>
       <use xlink:href="#Cmr10-36"/>
       <use xlink:href="#Cmr10-30" x="50"/>
      </g>
     </g>
    </g>
    <g id="text_5">
     <!-- North [m] -->
     <g transform="translate(121.577807 165.085402)scale(0.1 -0.1)">
      <defs>
       <path id="Cmr10-4e" d="M 197 0 
L 197 225 
Q 856 225 856 603 
L 856 4109 
Q 647 4147 197 4147 
L 197 4372 
L 1422 4372 
Q 1453 4372 1466 4347 
L 3731 1013 
L 3731 3769 
Q 3731 4147 3072 4147 
L 3072 4372 
L 4594 4372 
L 4594 4147 
Q 3938 4147 3938 3769 
L 3938 56 
Q 3938 38 3913 19 
Q 3888 0 3872 0 
L 3794 0 
Q 3763 0 3750 25 
L 1063 3981 
L 1063 603 
Q 1063 225 1722 225 
L 1722 0 
L 197 0 
z
" transform="scale(0.015625)"/>
       <path id="Cmr10-6f" d="M 1600 -72 
Q 1216 -72 887 123 
Q 559 319 368 647 
Q 178 975 178 1363 
Q 178 1656 283 1928 
Q 388 2200 583 2414 
Q 778 2628 1037 2748 
Q 1297 2869 1600 2869 
Q 1994 2869 2317 2661 
Q 2641 2453 2828 2104 
Q 3016 1756 3016 1363 
Q 3016 978 2825 648 
Q 2634 319 2307 123 
Q 1981 -72 1600 -72 
z
M 1600 116 
Q 2113 116 2284 487 
Q 2456 859 2456 1434 
Q 2456 1756 2422 1967 
Q 2388 2178 2272 2350 
Q 2200 2456 2089 2536 
Q 1978 2616 1854 2658 
Q 1731 2700 1600 2700 
Q 1400 2700 1220 2609 
Q 1041 2519 922 2350 
Q 803 2169 770 1951 
Q 738 1734 738 1434 
Q 738 1075 800 789 
Q 863 503 1052 309 
Q 1241 116 1600 116 
z
" transform="scale(0.015625)"/>
       <path id="Cmr10-72" d="M 166 0 
L 166 225 
Q 384 225 525 259 
Q 666 294 666 428 
L 666 2175 
Q 666 2347 614 2423 
Q 563 2500 466 2517 
Q 369 2534 166 2534 
L 166 2759 
L 1081 2828 
L 1081 2203 
Q 1184 2481 1375 2654 
Q 1566 2828 1838 2828 
Q 2028 2828 2178 2715 
Q 2328 2603 2328 2419 
Q 2328 2303 2245 2217 
Q 2163 2131 2041 2131 
Q 1922 2131 1837 2215 
Q 1753 2300 1753 2419 
Q 1753 2591 1875 2663 
L 1838 2663 
Q 1578 2663 1414 2475 
Q 1250 2288 1181 2009 
Q 1113 1731 1113 1478 
L 1113 428 
Q 1113 225 1734 225 
L 1734 0 
L 166 0 
z
" transform="scale(0.015625)"/>
       <path id="Cmr10-74" d="M 653 769 
L 653 2534 
L 122 2534 
L 122 2700 
Q 541 2700 737 3090 
Q 934 3481 934 3938 
L 1119 3938 
L 1119 2759 
L 2022 2759 
L 2022 2534 
L 1119 2534 
L 1119 781 
Q 1119 516 1208 316 
Q 1297 116 1528 116 
Q 1747 116 1844 327 
Q 1941 538 1941 781 
L 1941 1159 
L 2125 1159 
L 2125 769 
Q 2125 569 2051 373 
Q 1978 178 1834 53 
Q 1691 -72 1484 -72 
Q 1100 -72 876 158 
Q 653 388 653 769 
z
" transform="scale(0.015625)"/>
       <path id="Cmr10-68" d="M 191 0 
L 191 225 
Q 409 225 550 259 
Q 691 294 691 428 
L 691 3788 
Q 691 3959 639 4036 
Q 588 4113 491 4130 
Q 394 4147 191 4147 
L 191 4372 
L 1141 4441 
L 1141 2241 
Q 1275 2506 1515 2667 
Q 1756 2828 2047 2828 
Q 2491 2828 2714 2615 
Q 2938 2403 2938 1966 
L 2938 428 
Q 2938 294 3078 259 
Q 3219 225 3438 225 
L 3438 0 
L 1972 0 
L 1972 225 
Q 2191 225 2331 259 
Q 2472 294 2472 428 
L 2472 1947 
Q 2472 2259 2381 2461 
Q 2291 2663 2009 2663 
Q 1638 2663 1398 2366 
Q 1159 2069 1159 1691 
L 1159 428 
Q 1159 294 1300 259 
Q 1441 225 1656 225 
L 1656 0 
L 191 0 
z
" transform="scale(0.015625)"/>
       <path id="Cmr10-20" transform="scale(0.015625)"/>
       <path id="Cmr10-5b" d="M 756 -1600 
L 756 4800 
L 1631 4800 
L 1631 4544 
L 1013 4544 
L 1013 -1344 
L 1631 -1344 
L 1631 -1600 
L 756 -1600 
z
" transform="scale(0.015625)"/>
       <path id="Cmr10-6d" d="M 191 0 
L 191 225 
Q 409 225 550 259 
Q 691 294 691 428 
L 691 2175 
Q 691 2347 639 2423 
Q 588 2500 491 2517 
Q 394 2534 191 2534 
L 191 2759 
L 1119 2828 
L 1119 2203 
Q 1247 2478 1498 2653 
Q 1750 2828 2047 2828 
Q 2784 2828 2913 2228 
Q 3041 2497 3287 2662 
Q 3534 2828 3828 2828 
Q 4119 2828 4317 2734 
Q 4516 2641 4616 2448 
Q 4716 2256 4716 1966 
L 4716 428 
Q 4716 294 4858 259 
Q 5000 225 5216 225 
L 5216 0 
L 3750 0 
L 3750 225 
Q 3969 225 4109 259 
Q 4250 294 4250 428 
L 4250 1947 
Q 4250 2269 4159 2466 
Q 4069 2663 3788 2663 
Q 3419 2663 3178 2366 
Q 2938 2069 2938 1691 
L 2938 428 
Q 2938 294 3078 259 
Q 3219 225 3438 225 
L 3438 0 
L 1972 0 
L 1972 225 
Q 2191 225 2331 259 
Q 2472 294 2472 428 
L 2472 1947 
Q 2472 2259 2381 2461 
Q 2291 2663 2009 2663 
Q 1638 2663 1398 2366 
Q 1159 2069 1159 1691 
L 1159 428 
Q 1159 294 1300 259 
Q 1441 225 1656 225 
L 1656 0 
L 191 0 
z
" transform="scale(0.015625)"/>
       <path id="Cmr10-5d" d="M 141 -1600 
L 141 -1344 
L 763 -1344 
L 763 4544 
L 141 4544 
L 141 4800 
L 1019 4800 
L 1019 -1600 
L 141 -1600 
z
" transform="scale(0.015625)"/>
      </defs>
      <use xlink:href="#Cmr10-4e"/>
      <use xlink:href="#Cmr10-6f" x="75"/>
      <use xlink:href="#Cmr10-72" x="125"/>
      <use xlink:href="#Cmr10-74" x="164.111328"/>
      <use xlink:href="#Cmr10-68" x="202.929688"/>
      <use xlink:href="#Cmr10-20" x="258.447266"/>
      <use xlink:href="#Cmr10-5b" x="291.748047"/>
      <use xlink:href="#Cmr10-6d" x="319.433594"/>
      <use xlink:href="#Cmr10-5d" x="402.734375"/>
     </g>
    </g>
   </g>
   <g id="matplotlib.axis_2">
    <g id="ytick_1">
     <g id="line2d_9">
      <path d="M 40.196719 133.215838 
L 245.99952 133.215838 
" clip-path="url(#p4e3d9476fc)" style="fill: none; stroke: #b0b0b0; stroke-opacity: 0.3; stroke-width: 0.8; stroke-linecap: square"/>
     </g>
     <g id="line2d_10">
      <defs>
       <path id="m895da6cf04" d="M 0 0 
L -3.5 0 
" style="stroke: #000000; stroke-width: 0.8"/>
      </defs>
      <g>
       <use xlink:href="#m895da6cf04" x="40.196719" y="133.215838" style="stroke: #000000; stroke-width: 0.8"/>
      </g>
     </g>
     <g id="text_6">
      <!-- -20 -->
      <g transform="translate(21.2 136.338416)scale(0.09 -0.09)">
       <defs>
        <path id="Cmr10-2d" d="M 72 1184 
L 72 1581 
L 1766 1581 
L 1766 1184 
L 72 1184 
z
" transform="scale(0.015625)"/>
       </defs>
       <use xlink:href="#Cmr10-2d"/>
       <use xlink:href="#Cmr10-32" x="33.300781"/>
       <use xlink:href="#Cmr10-30" x="83.300781"/>
      </g>
     </g>
    </g>
    <g id="ytick_2">
     <g id="line2d_11">
      <path d="M 40.196719 109.308055 
L 245.99952 109.308055 
" clip-path="url(#p4e3d9476fc)" style="fill: none; stroke: #b0b0b0; stroke-opacity: 0.3; stroke-width: 0.8; stroke-linecap: square"/>
     </g>
     <g id="line2d_12">
      <g>
       <use xlink:href="#m895da6cf04" x="40.196719" y="109.308055" style="stroke: #000000; stroke-width: 0.8"/>
      </g>
     </g>
     <g id="text_7">
      <!-- -10 -->
      <g transform="translate(21.2 112.430633)scale(0.09 -0.09)">
       <defs>
        <path id="Cmr10-31" d="M 594 0 
L 594 225 
Q 1394 225 1394 428 
L 1394 3788 
Q 1063 3628 556 3628 
L 556 3853 
Q 1341 3853 1741 4263 
L 1831 4263 
Q 1853 4263 1873 4245 
Q 1894 4228 1894 4206 
L 1894 428 
Q 1894 225 2694 225 
L 2694 0 
L 594 0 
z
" transform="scale(0.015625)"/>
       </defs>
       <use xlink:href="#Cmr10-2d"/>
       <use xlink:href="#Cmr10-31" x="33.300781"/>
       <use xlink:href="#Cmr10-30" x="83.300781"/>
      </g>
     </g>
    </g>
    <g id="ytick_3">
     <g id="line2d_13">
      <path d="M 40.196719 85.400272 
L 245.99952 85.400272 
" clip-path="url(#p4e3d9476fc)" style="fill: none; stroke: #b0b0b0; stroke-opacity: 0.3; stroke-width: 0.8; stroke-linecap: square"/>
     </g>
     <g id="line2d_14">
      <g>
       <use xlink:href="#m895da6cf04" x="40.196719" y="85.400272" style="stroke: #000000; stroke-width: 0.8"/>
      </g>
     </g>
     <g id="text_8">
      <!-- 0 -->
      <g transform="translate(28.696719 88.52285)scale(0.09 -0.09)">
       <use xlink:href="#Cmr10-30"/>
      </g>
     </g>
    </g>
    <g id="ytick_4">
     <g id="line2d_15">
      <path d="M 40.196719 61.492488 
L 245.99952 61.492488 
" clip-path="url(#p4e3d9476fc)" style="fill: none; stroke: #b0b0b0; stroke-opacity: 0.3; stroke-width: 0.8; stroke-linecap: square"/>
     </g>
     <g id="line2d_16">
      <g>
       <use xlink:href="#m895da6cf04" x="40.196719" y="61.492488" style="stroke: #000000; stroke-width: 0.8"/>
      </g>
     </g>
     <g id="text_9">
      <!-- 10 -->
      <g transform="translate(24.196719 64.615067)scale(0.09 -0.09)">
       <use xlink:href="#Cmr10-31"/>
       <use xlink:href="#Cmr10-30" x="50"/>
      </g>
     </g>
    </g>
    <g id="ytick_5">
     <g id="line2d_17">
      <path d="M 40.196719 37.584705 
L 245.99952 37.584705 
" clip-path="url(#p4e3d9476fc)" style="fill: none; stroke: #b0b0b0; stroke-opacity: 0.3; stroke-width: 0.8; stroke-linecap: square"/>
     </g>
     <g id="line2d_18">
      <g>
       <use xlink:href="#m895da6cf04" x="40.196719" y="37.584705" style="stroke: #000000; stroke-width: 0.8"/>
      </g>
     </g>
     <g id="text_10">
      <!-- 20 -->
      <g transform="translate(24.196719 40.707283)scale(0.09 -0.09)">
       <use xlink:href="#Cmr10-32"/>
       <use xlink:href="#Cmr10-30" x="50"/>
      </g>
     </g>
    </g>
    <g id="text_11">
     <!-- East [m] -->
     <g transform="translate(14.7 97.833482)rotate(-90)scale(0.1 -0.1)">
      <defs>
       <path id="Cmr10-45" d="M 197 0 
L 197 225 
Q 856 225 856 428 
L 856 3944 
Q 856 4147 197 4147 
L 197 4372 
L 3816 4372 
L 3994 2906 
L 3809 2906 
Q 3741 3459 3617 3709 
Q 3494 3959 3222 4053 
Q 2950 4147 2406 4147 
L 1778 4147 
Q 1663 4147 1598 4137 
Q 1534 4128 1493 4083 
Q 1453 4038 1453 3944 
L 1453 2381 
L 1925 2381 
Q 2250 2381 2411 2436 
Q 2572 2491 2633 2645 
Q 2694 2800 2694 3128 
L 2881 3128 
L 2881 1409 
L 2694 1409 
Q 2694 1734 2633 1890 
Q 2572 2047 2411 2101 
Q 2250 2156 1925 2156 
L 1453 2156 
L 1453 428 
Q 1453 291 1531 258 
Q 1609 225 1778 225 
L 2456 225 
Q 2900 225 3173 295 
Q 3447 366 3598 530 
Q 3750 694 3833 955 
Q 3916 1216 3988 1678 
L 4172 1678 
L 3903 0 
L 197 0 
z
" transform="scale(0.015625)"/>
       <path id="Cmr10-61" d="M 256 628 
Q 256 1009 556 1248 
Q 856 1488 1276 1586 
Q 1697 1684 2075 1684 
L 2075 1947 
Q 2075 2131 1994 2304 
Q 1913 2478 1759 2589 
Q 1606 2700 1422 2700 
Q 997 2700 775 2509 
Q 897 2509 976 2417 
Q 1056 2325 1056 2203 
Q 1056 2075 965 1984 
Q 875 1894 750 1894 
Q 622 1894 531 1984 
Q 441 2075 441 2203 
Q 441 2541 747 2705 
Q 1053 2869 1422 2869 
Q 1681 2869 1943 2758 
Q 2206 2647 2373 2440 
Q 2541 2234 2541 1959 
L 2541 519 
Q 2541 394 2594 289 
Q 2647 184 2759 184 
Q 2866 184 2917 290 
Q 2969 397 2969 519 
L 2969 928 
L 3156 928 
L 3156 519 
Q 3156 375 3081 245 
Q 3006 116 2879 39 
Q 2753 -38 2606 -38 
Q 2419 -38 2283 107 
Q 2147 253 2131 453 
Q 2013 213 1781 70 
Q 1550 -72 1288 -72 
Q 1044 -72 808 0 
Q 572 72 414 226 
Q 256 381 256 628 
z
M 775 628 
Q 775 403 940 250 
Q 1106 97 1331 97 
Q 1538 97 1706 200 
Q 1875 303 1975 481 
Q 2075 659 2075 856 
L 2075 1522 
Q 1784 1522 1479 1426 
Q 1175 1331 975 1128 
Q 775 925 775 628 
z
" transform="scale(0.015625)"/>
       <path id="Cmr10-73" d="M 213 -19 
L 213 1025 
Q 213 1075 269 1075 
L 347 1075 
Q 384 1075 397 1025 
Q 575 97 1259 97 
Q 1563 97 1767 234 
Q 1972 372 1972 659 
Q 1972 866 1812 1011 
Q 1653 1156 1434 1209 
L 1006 1294 
Q 791 1341 614 1437 
Q 438 1534 325 1695 
Q 213 1856 213 2069 
Q 213 2350 361 2529 
Q 509 2709 746 2789 
Q 984 2869 1259 2869 
Q 1588 2869 1831 2694 
L 2016 2853 
Q 2016 2869 2047 2869 
L 2094 2869 
Q 2113 2869 2128 2851 
Q 2144 2834 2144 2816 
L 2144 1978 
Q 2144 1919 2094 1919 
L 2016 1919 
Q 1959 1919 1959 1978 
Q 1959 2313 1773 2516 
Q 1588 2719 1253 2719 
Q 966 2719 755 2612 
Q 544 2506 544 2247 
Q 544 2069 695 1955 
Q 847 1841 1050 1791 
L 1484 1709 
Q 1703 1659 1892 1540 
Q 2081 1422 2192 1240 
Q 2303 1059 2303 831 
Q 2303 600 2223 429 
Q 2144 259 2001 146 
Q 1859 34 1665 -19 
Q 1472 -72 1259 -72 
Q 859 -72 575 197 
L 341 -56 
Q 341 -72 306 -72 
L 269 -72 
Q 213 -72 213 -19 
z
" transform="scale(0.015625)"/>
      </defs>
      <use xlink:href="#Cmr10-45"/>
      <use xlink:href="#Cmr10-61" x="68.017578"/>
      <use xlink:href="#Cmr10-73" x="118.017578"/>
      <use xlink:href="#Cmr10-74" x="157.421875"/>
      <use xlink:href="#Cmr10-20" x="196.240234"/>
      <use xlink:href="#Cmr10-5b" x="229.541016"/>
      <use xlink:href="#Cmr10-6d" x="257.226562"/>
      <use xlink:href="#Cmr10-5d" x="340.527344"/>
     </g>
    </g>
   </g>
   <g id="line2d_19">
    <path d="M 143.098119 85.400272 
L 154.312482 70.631692 
L 160.18178 63.277638 
L 164.943791 57.656676 
L 169.067821 53.123519 
L 172.736475 49.414331 
L 176.027465 46.395406 
L 179.015758 43.947751 
L 181.741934 41.993468 
L 184.24486 40.463931 
L 186.561191 39.301702 
L 188.725034 38.46148 
L 190.714076 37.921709 
L 192.587799 37.639312 
L 194.349009 37.595454 
L 196.025029 37.77482 
L 197.616576 38.16686 
L 199.146945 38.770851 
L 200.635836 39.597789 
L 202.078634 40.653267 
L 203.489959 41.961584 
L 204.8799 43.558021 
L 206.236382 45.462179 
L 207.546573 47.691041 
L 208.811272 50.290673 
L 210.011849 53.279315 
L 211.128474 56.669195 
L 212.140166 60.46508 
L 213.024861 64.662763 
L 213.753352 69.202541 
L 214.311704 74.099762 
L 214.670954 79.221055 
L 214.81837 84.511305 
L 214.744926 89.812496 
L 214.450848 95.059379 
L 213.948236 100.096403 
L 213.2502 104.87169 
L 212.388601 109.258701 
L 211.376287 113.276401 
L 210.243873 116.871831 
L 209.013465 120.0459 
L 207.721589 122.778305 
L 206.375111 125.12182 
L 204.974146 127.121962 
L 203.551505 128.77508 
L 202.10281 130.127269 
L 200.618389 131.213923 
L 199.106316 132.048822 
L 197.550933 132.654433 
L 195.956855 133.037524 
L 194.303462 133.206851 
L 192.566648 133.159354 
L 190.745855 132.885518 
L 188.813112 132.367858 
L 186.737433 131.576502 
L 184.514228 130.484819 
L 182.139437 129.067717 
L 179.547874 127.25623 
L 176.732219 125.009083 
L 173.653937 122.259233 
L 170.273119 118.932163 
L 166.515413 114.912276 
L 162.304509 110.07354 
L 157.424147 104.116729 
L 151.405982 96.40286 
L 141.849669 83.735924 
L 131.748658 70.458316 
L 125.916442 63.158411 
L 121.156325 57.547171 
L 117.034353 53.02435 
L 113.400514 49.357253 
L 110.110973 46.34528 
L 107.124165 43.90457 
L 104.399496 41.957147 
L 101.898092 40.434349 
L 99.583297 39.278734 
L 97.448666 38.45407 
L 95.460318 37.917108 
L 93.587297 37.637467 
L 91.826795 37.596296 
L 90.151497 37.778307 
L 88.560683 38.172936 
L 87.031069 38.77949 
L 85.542964 39.608988 
L 84.100985 40.667012 
L 82.690524 41.97788 
L 81.301504 43.576889 
L 79.946001 45.483612 
L 78.63685 47.715006 
L 77.373264 50.317129 
L 76.173876 53.308182 
L 75.058516 56.700343 
L 74.048165 60.498326 
L 73.164885 64.69787 
L 72.431726 69.284207 
L 71.876818 74.184093 
L 71.5211 79.307108 
L 71.377293 84.598062 
L 71.454348 89.898889 
L 71.752027 95.144345 
L 72.258155 100.178949 
L 72.959615 104.950908 
L 73.824472 109.333859 
L 74.839907 113.346854 
L 75.97527 116.937104 
L 77.194297 120.072736 
L 78.487329 122.802587 
L 79.834888 125.143492 
L 81.236872 127.140978 
L 82.66046 128.79146 
L 84.110043 130.141028 
L 85.595307 131.225062 
L 87.108178 132.057361 
L 88.664326 132.66037 
L 90.259136 133.040869 
L 91.913239 133.20759 
L 93.65075 133.157446 
L 95.472224 132.880931 
L 97.405642 132.360539 
L 99.481995 131.566374 
L 101.705867 130.471827 
L 104.081314 129.051832 
L 106.67353 127.237383 
L 109.489827 124.987248 
L 112.568737 122.234406 
L 115.95016 118.904381 
L 119.708443 114.881616 
L 123.954438 109.999173 
L 128.871011 103.992808 
L 134.926152 96.225273 
L 144.698471 83.267001 
L 154.511833 70.375916 
L 160.308161 63.123934 
L 165.067727 57.515517 
L 169.189102 52.995694 
L 172.822316 49.331667 
L 176.111205 46.322818 
L 179.097346 43.885228 
L 181.821338 41.940888 
L 184.322058 40.421117 
L 186.636163 39.268473 
L 188.770103 38.446691 
L 190.757758 37.912538 
L 192.630076 37.635653 
L 194.38987 37.597169 
L 196.064446 37.781824 
L 197.654526 38.179043 
L 199.183385 38.788159 
L 200.670703 39.620218 
L 202.111863 40.680787 
L 203.521461 41.994205 
L 204.90956 43.595784 
L 206.264082 45.505072 
L 207.572193 47.738995 
L 208.834665 50.343609 
L 210.032864 53.33707 
L 211.14696 56.73151 
L 212.155971 60.53159 
L 213.037834 64.732992 
L 213.769504 69.320888 
L 214.322865 74.221964 
L 214.676998 79.345748 
L 214.819184 84.637011 
L 214.740509 89.937669 
L 214.441213 95.182479 
L 213.933506 100.215992 
L 213.23051 104.986452 
L 212.36419 109.367575 
L 211.347355 113.378453 
L 210.210668 116.966375 
L 208.990408 120.09955 
L 207.69622 122.826843 
L 206.34758 125.165138 
L 204.944576 127.159967 
L 203.520041 128.807812 
L 202.069571 130.154756 
L 200.583464 131.23617 
L 199.069796 132.065868 
L 197.512884 132.666274 
L 195.917342 133.044183 
L 194.262529 133.208298 
L 192.524322 133.155505 
L 190.702165 132.876313 
L 188.768072 132.353188 
L 186.691046 131.556216 
L 184.466509 130.458806 
L 182.060303 129.016345 
L 179.466633 127.195301 
L 176.648906 124.938517 
L 173.568601 122.179017 
L 170.185832 118.842419 
L 166.426266 114.813253 
L 162.179075 109.924725 
L 157.261437 103.912835 
L 151.205429 96.140738 
L 141.325152 83.037038 
L 131.620161 70.293565 
L 125.824908 63.047192 
L 121.100701 57.483881 
L 117.013326 53.00221 
L 113.379971 49.337485 
L 110.090933 46.327925 
L 107.104641 43.889625 
L 104.380495 41.944584 
L 101.879619 40.424124 
L 99.565357 39.270804 
L 97.431259 38.448367 
L 95.443447 37.913575 
L 93.570969 37.636063 
L 91.811014 37.596968 
L 90.136274 37.781021 
L 88.546027 38.177651 
L 87.016996 38.786184 
L 85.529499 39.617661 
L 84.088153 40.677651 
L 82.678358 41.990489 
L 81.29005 43.591484 
L 79.935305 45.500188 
L 78.626957 47.733536 
L 77.364232 50.337584 
L 76.165762 53.330497 
L 75.051379 56.724419 
L 74.042063 60.524023 
L 73.159878 64.725002 
L 72.427869 69.312544 
L 71.874156 74.21335 
L 71.519663 79.336959 
L 71.377108 84.628152 
L 71.455415 89.928849 
L 71.754342 95.173806 
L 72.26169 100.207567 
L 72.964337 104.978368 
L 73.830324 109.359908 
L 74.846841 113.371268 
L 75.983227 116.959719 
L 77.203206 120.093453 
L 78.497132 122.821328 
L 79.845526 125.160217 
L 81.248298 127.15565 
L 82.672617 128.804095 
L 84.122885 130.151636 
L 85.6088 131.233646 
L 87.122287 132.063936 
L 88.679025 132.664934 
L 90.274401 133.043432 
L 91.929053 133.208139 
L 93.667102 133.155949 
L 95.489103 132.877366 
L 97.423043 132.354863 
L 99.499915 131.558529 
L 101.724301 130.46177 
L 104.130357 129.019975 
L 106.723878 127.199605 
L 109.541459 124.943499 
L 112.621622 122.184679 
L 116.004254 118.848751 
L 119.763689 114.820238 
L 124.010757 109.932331 
L 128.928287 103.921004 
L 134.984206 96.149372 
L 144.828592 83.093647 
L 154.569518 70.301972 
L 160.364881 63.055025 
L 165.089212 57.491076 
L 169.176722 53.008728 
L 172.81022 49.343304 
L 176.099405 46.333033 
L 179.08585 43.894023 
L 181.81015 41.948281 
L 184.311181 40.427133 
L 186.6256 39.273137 
L 188.759855 38.450044 
L 190.747825 37.914613 
L 192.620463 37.636474 
L 194.380579 37.596768 
L 196.055483 37.78022 
L 197.645897 38.176261 
L 199.1751 38.784211 
L 200.662776 39.615106 
L 202.104308 40.674517 
L 203.514299 41.986775 
L 204.902817 43.587185 
L 206.257785 45.495306 
L 207.566369 47.728079 
L 208.829348 50.33156 
L 210.028088 53.323926 
L 211.142759 56.717329 
L 212.15238 60.516456 
L 213.034887 64.717013 
L 213.767235 69.3042 
L 214.321299 74.204735 
L 214.676153 79.32817 
L 214.819077 84.619293 
L 214.741139 89.920028 
L 214.442579 95.165132 
L 213.93559 100.199142 
L 213.233293 104.970284 
L 212.367638 109.352239 
L 211.35144 113.364081 
L 210.215355 116.953062 
L 208.995656 120.087355 
L 207.701994 122.815812 
L 206.353846 125.155295 
L 204.951305 127.151332 
L 203.527202 128.800377 
L 202.077135 130.148515 
L 200.591411 131.231121 
L 199.078106 132.062002 
L 197.521542 132.663592 
L 195.926333 133.042679 
L 194.271842 133.20798 
L 192.533952 133.156392 
L 190.712105 132.878418 
L 189.738941 132.643563 
L 189.738941 132.643563 
" clip-path="url(#p4e3d9476fc)" style="fill: none; stroke: #1f77b4; stroke-width: 1.5; stroke-linecap: square"/>
   </g>
   <g id="line2d_20">
    <path d="M 155.052011 61.492488 
L 154.940869 58.6713 
L 154.608133 55.867598 
L 154.055864 53.098761 
L 153.287487 50.381951 
L 152.307763 47.734008 
L 151.122765 45.171346 
L 149.739839 42.709848 
L 148.167556 40.364771 
L 146.415662 38.150651 
L 144.495015 36.081213 
L 142.417521 34.169282 
L 140.196057 32.426711 
L 137.844391 30.8643 
L 135.377101 29.491733 
L 132.80948 28.317519 
L 130.157443 27.348934 
L 127.437427 26.591984 
L 124.666293 26.05136 
L 121.861217 25.730412 
L 119.039586 25.631131 
L 116.218889 25.754131 
L 113.416611 26.09865 
L 110.65012 26.662553 
L 107.936564 27.442344 
L 105.292763 28.43319 
L 102.735105 29.62895 
L 100.279441 31.022212 
L 97.940995 32.604339 
L 95.734259 34.365525 
L 93.672913 36.294853 
L 91.769732 38.380366 
L 90.036515 40.609136 
L 88.484003 42.967349 
L 87.12182 45.440386 
L 85.958409 48.012921 
L 85.000982 50.669007 
L 84.255472 53.39218 
L 83.726501 56.165563 
L 83.417348 58.971963 
L 83.329929 61.793986 
L 83.464785 64.614141 
L 83.821081 67.414947 
L 84.396608 70.179043 
L 85.1878 72.889297 
L 86.189751 75.528909 
L 87.396252 78.081518 
L 88.799823 80.531303 
L 90.391766 82.863078 
L 92.162213 85.062391 
L 94.10019 87.115609 
L 96.193685 89.010006 
L 98.429721 90.733839 
L 100.794439 92.276424 
L 103.273181 93.628199 
L 105.850583 94.780785 
L 108.51067 95.727039 
L 111.236954 96.461095 
L 111.630846 96.548356 
L 111.630846 96.548356 
" clip-path="url(#p4e3d9476fc)" style="fill: none; stroke: #ff7f0e; stroke-width: 1.5; stroke-linecap: square"/>
   </g>
   <g id="patch_3">
    <path d="M 40.196719 138.595089 
L 40.196719 20.251562 
" style="fill: none; stroke: #000000; stroke-width: 0.8; stroke-linejoin: miter; stroke-linecap: square"/>
   </g>
   <g id="patch_4">
    <path d="M 245.99952 138.595089 
L 245.99952 20.251562 
" style="fill: none; stroke: #000000; stroke-width: 0.8; stroke-linejoin: miter; stroke-linecap: square"/>
   </g>
   <g id="patch_5">
    <path d="M 40.196719 138.595089 
L 245.99952 138.595089 
" style="fill: none; stroke: #000000; stroke-width: 0.8; stroke-linejoin: miter; stroke-linecap: square"/>
   </g>
   <g id="patch_6">
    <path d="M 40.196719 20.251562 
L 245.99952 20.251562 
" style="fill: none; stroke: #000000; stroke-width: 0.8; stroke-linejoin: miter; stroke-linecap: square"/>
   </g>
   <g id="patch_7">
    <path d="M 143.098119 85.400272 
Q 143.11605 85.376364 142.12775 86.694097 
" style="fill: none; opacity: 0.7; stroke: #1f77b4; stroke-width: 1.5; stroke-linecap: round"/>
    <path d="M 138.12775 88.694097 
L 142.12775 86.694097 
L 141.32775 91.094097 
" style="fill: none; opacity: 0.7; stroke: #1f77b4; stroke-width: 1.5; stroke-linecap: round"/>
   </g>
   <g id="patch_8">
    <path d="M 153.25522 98.806586 
Q 153.23747 98.783634 154.245689 100.087288 
" style="fill: none; opacity: 0.7; stroke: #1f77b4; stroke-width: 1.5; stroke-linecap: round"/>
    <path d="M 155.110701 104.474971 
L 154.245689 100.087288 
L 158.274842 102.027889 
" style="fill: none; opacity: 0.7; stroke: #1f77b4; stroke-width: 1.5; stroke-linecap: round"/>
   </g>
   <g id="patch_9">
    <path d="M 123.023073 111.097146 
Q 123.040288 111.076978 121.968709 112.332359 
" style="fill: none; opacity: 0.7; stroke: #1f77b4; stroke-width: 1.5; stroke-linecap: round"/>
    <path d="M 117.850601 114.076258 
L 121.968709 112.332359 
L 120.892963 116.673185 
" style="fill: none; opacity: 0.7; stroke: #1f77b4; stroke-width: 1.5; stroke-linecap: round"/>
   </g>
   <g id="patch_10">
    <path d="M 172.689308 121.340708 
Q 172.672973 121.32493 173.862906 122.474234 
" style="fill: none; opacity: 0.7; stroke: #1f77b4; stroke-width: 1.5; stroke-linecap: round"/>
    <path d="M 175.350583 126.691676 
L 173.862906 122.474234 
L 178.129466 123.814558 
" style="fill: none; opacity: 0.7; stroke: #1f77b4; stroke-width: 1.5; stroke-linecap: round"/>
   </g>
   <g id="patch_11">
    <path d="M 104.583055 128.721275 
Q 104.598184 128.711144 103.219821 129.634118 
" style="fill: none; opacity: 0.7; stroke: #1f77b4; stroke-width: 1.5; stroke-linecap: round"/>
    <path d="M 98.78336 130.197865 
L 103.219821 129.634118 
L 101.008942 133.521535 
" style="fill: none; opacity: 0.7; stroke: #1f77b4; stroke-width: 1.5; stroke-linecap: round"/>
   </g>
   <g id="patch_12">
    <path d="M 189.766179 132.650915 
Q 189.75256 132.647239 191.358048 133.08059 
" style="fill: none; opacity: 0.7; stroke: #1f77b4; stroke-width: 1.5; stroke-linecap: round"/>
    <path d="M 194.698659 136.053858 
L 191.358048 133.08059 
L 195.741029 132.192062 
" style="fill: none; opacity: 0.7; stroke: #1f77b4; stroke-width: 1.5; stroke-linecap: round"/>
   </g>
   <g id="patch_13">
    <path d="M 155.052011 61.492488 
Q 155.052011 61.489799 155.052136 63.16416 
" style="fill: none; opacity: 0.7; stroke: #ff7f0e; stroke-width: 1.5; stroke-linecap: round"/>
    <path d="M 153.052436 67.16431 
L 155.052136 63.16416 
L 157.052436 67.16401 
" style="fill: none; opacity: 0.7; stroke: #ff7f0e; stroke-width: 1.5; stroke-linecap: round"/>
   </g>
   <g id="patch_14">
    <path d="M 141.486524 33.404418 
Q 141.484417 33.402746 142.795912 34.443644 
" style="fill: none; opacity: 0.7; stroke: #ff7f0e; stroke-width: 1.5; stroke-linecap: round"/>
    <path d="M 144.685695 38.496879 
L 142.795912 34.443644 
L 147.17237 35.363758 
" style="fill: none; opacity: 0.7; stroke: #ff7f0e; stroke-width: 1.5; stroke-linecap: round"/>
   </g>
   <g id="patch_15">
    <path d="M 111.047727 26.56746 
Q 111.045108 26.568071 112.675709 26.187774 
" style="fill: none; opacity: 0.7; stroke: #ff7f0e; stroke-width: 1.5; stroke-linecap: round"/>
    <path d="M 117.025426 27.226988 
L 112.675709 26.187774 
L 116.11691 23.331529 
" style="fill: none; opacity: 0.7; stroke: #ff7f0e; stroke-width: 1.5; stroke-linecap: round"/>
   </g>
   <g id="patch_16">
    <path d="M 86.771094 46.161067 
Q 86.769945 46.163499 87.485647 44.649809 
" style="fill: none; opacity: 0.7; stroke: #ff7f0e; stroke-width: 1.5; stroke-linecap: round"/>
    <path d="M 91.003517 41.888544 
L 87.485647 44.649809 
L 87.387357 40.178753 
" style="fill: none; opacity: 0.7; stroke: #ff7f0e; stroke-width: 1.5; stroke-linecap: round"/>
   </g>
   <g id="patch_17">
    <path d="M 87.028697 77.357189 
Q 87.029887 77.359601 86.289061 75.858047 
" style="fill: none; opacity: 0.7; stroke: #ff7f0e; stroke-width: 1.5; stroke-linecap: round"/>
    <path d="M 86.312831 71.385975 
L 86.289061 75.858047 
L 82.725665 73.155787 
" style="fill: none; opacity: 0.7; stroke: #ff7f0e; stroke-width: 1.5; stroke-linecap: round"/>
   </g>
   <g id="patch_18">
    <path d="M 111.625587 96.547221 
Q 111.628217 96.547788 109.991504 96.194717 
" style="fill: none; opacity: 0.7; stroke: #ff7f0e; stroke-width: 1.5; stroke-linecap: round"/>
    <path d="M 106.503185 93.396212 
L 109.991504 96.194717 
L 105.659709 97.30627 
" style="fill: none; opacity: 0.7; stroke: #ff7f0e; stroke-width: 1.5; stroke-linecap: round"/>
   </g>
   <g id="patch_19">
    <path d="M 159.142607 61.416945 
Q 157.896235 60.640363 157.788557 60.573271 
" style="fill: none; opacity: 0.6; stroke-dasharray: 4.44,1.92; stroke-dashoffset: 0; stroke: #000000; stroke-width: 1.2; stroke-linecap: round"/>
    <path d="M 160.125838 64.386029 
L 157.788557 60.573271 
L 162.241132 60.991101 
" style="fill: none; opacity: 0.6; stroke-dasharray: 4.44,1.92; stroke-dashoffset: 0; stroke: #000000; stroke-width: 1.2; stroke-linecap: round"/>
   </g>
   <g id="patch_20">
    <path d="M 175.680644 46.031149 
Q 166.067389 50.648804 157.663493 54.685553 
" style="fill: none; opacity: 0.6; stroke-dasharray: 4.44,1.92; stroke-dashoffset: 0; stroke: #000000; stroke-width: 1.2; stroke-linecap: round"/>
    <path d="M 162.135067 54.75643 
L 157.663493 54.685553 
L 160.403139 51.150819 
" style="fill: none; opacity: 0.6; stroke-dasharray: 4.44,1.92; stroke-dashoffset: 0; stroke: #000000; stroke-width: 1.2; stroke-linecap: round"/>
   </g>
   <g id="patch_21">
    <path d="M 212.864657 77.730802 
Q 183.059316 62.271909 154.444953 47.43073 
" style="fill: none; opacity: 0.6; stroke-dasharray: 4.44,1.92; stroke-dashoffset: 0; stroke: #000000; stroke-width: 1.2; stroke-linecap: round"/>
    <path d="M 157.074928 51.047805 
L 154.444953 47.43073 
L 158.916598 47.496995 
" style="fill: none; opacity: 0.6; stroke-dasharray: 4.44,1.92; stroke-dashoffset: 0; stroke: #000000; stroke-width: 1.2; stroke-linecap: round"/>
   </g>
   <g id="patch_22">
    <path d="M 152.866536 96.79399 
Q 147.35126 66.082242 142.073124 36.691011 
" style="fill: none; opacity: 0.6; stroke-dasharray: 4.44,1.92; stroke-dashoffset: 0; stroke: #000000; stroke-width: 1.2; stroke-linecap: round"/>
    <path d="M 140.811632 40.98154 
L 142.073124 36.691011 
L 144.748652 40.274522 
" style="fill: none; opacity: 0.6; stroke-dasharray: 4.44,1.92; stroke-dashoffset: 0; stroke: #000000; stroke-width: 1.2; stroke-linecap: round"/>
   </g>
   <g id="patch_23">
    <path d="M 122.776269 109.079198 
Q 117.050286 68.814781 111.513196 29.878641 
" style="fill: none; opacity: 0.6; stroke-dasharray: 4.44,1.92; stroke-dashoffset: 0; stroke: #000000; stroke-width: 1.2; stroke-linecap: round"/>
    <path d="M 110.09629 34.120383 
L 111.513196 29.878641 
L 114.056446 33.557211 
" style="fill: none; opacity: 0.6; stroke-dasharray: 4.44,1.92; stroke-dashoffset: 0; stroke: #000000; stroke-width: 1.2; stroke-linecap: round"/>
   </g>
   <g id="text_12">
    <!-- Ground-truth top-down view -->
    <g transform="translate(79.618432 14.251562)scale(0.1 -0.1)">
     <defs>
      <path id="Cmr10-47" d="M 1472 684 
Q 1703 403 2036 243 
Q 2369 84 2731 84 
Q 3088 84 3378 265 
Q 3669 447 3669 781 
L 3669 1319 
Q 3669 1522 2869 1522 
L 2869 1747 
L 4703 1747 
L 4703 1522 
Q 4500 1522 4381 1487 
Q 4263 1453 4263 1319 
L 4263 56 
Q 4263 34 4245 17 
Q 4228 0 4206 0 
Q 4147 0 4008 140 
Q 3869 281 3788 391 
Q 3631 122 3297 -9 
Q 2963 -141 2597 -141 
Q 1975 -141 1464 179 
Q 953 500 656 1036 
Q 359 1572 359 2188 
Q 359 2641 531 3069 
Q 703 3497 1011 3822 
Q 1319 4147 1728 4330 
Q 2138 4513 2597 4513 
Q 2928 4513 3223 4370 
Q 3519 4228 3750 3969 
L 4122 4494 
Q 4159 4513 4166 4513 
L 4213 4513 
Q 4231 4513 4247 4497 
Q 4263 4481 4263 4459 
L 4263 2731 
Q 4263 2675 4213 2675 
L 4097 2675 
Q 4038 2675 4038 2731 
Q 4038 2916 3964 3144 
Q 3891 3372 3777 3576 
Q 3663 3781 3513 3938 
Q 3153 4288 2688 4288 
Q 2331 4288 2006 4128 
Q 1681 3969 1459 3688 
Q 1225 3388 1134 3005 
Q 1044 2622 1044 2188 
Q 1044 1206 1472 684 
z
" transform="scale(0.015625)"/>
      <path id="Cmr10-75" d="M 691 763 
L 691 2175 
Q 691 2347 639 2423 
Q 588 2500 491 2517 
Q 394 2534 191 2534 
L 191 2759 
L 1159 2828 
L 1159 763 
Q 1159 513 1195 373 
Q 1231 234 1348 165 
Q 1466 97 1722 97 
Q 2066 97 2269 384 
Q 2472 672 2472 1038 
L 2472 2175 
Q 2472 2347 2419 2423 
Q 2366 2500 2270 2517 
Q 2175 2534 1972 2534 
L 1972 2759 
L 2938 2828 
L 2938 581 
Q 2938 413 2989 336 
Q 3041 259 3137 242 
Q 3234 225 3438 225 
L 3438 0 
L 2491 -72 
L 2491 469 
Q 2372 228 2159 78 
Q 1947 -72 1691 -72 
Q 1231 -72 961 123 
Q 691 319 691 763 
z
" transform="scale(0.015625)"/>
      <path id="Cmr10-6e" d="M 191 0 
L 191 225 
Q 409 225 550 259 
Q 691 294 691 428 
L 691 2175 
Q 691 2347 639 2423 
Q 588 2500 491 2517 
Q 394 2534 191 2534 
L 191 2759 
L 1119 2828 
L 1119 2203 
Q 1247 2478 1498 2653 
Q 1750 2828 2047 2828 
Q 2491 2828 2714 2615 
Q 2938 2403 2938 1966 
L 2938 428 
Q 2938 294 3078 259 
Q 3219 225 3438 225 
L 3438 0 
L 1972 0 
L 1972 225 
Q 2191 225 2331 259 
Q 2472 294 2472 428 
L 2472 1947 
Q 2472 2259 2381 2461 
Q 2291 2663 2009 2663 
Q 1638 2663 1398 2366 
Q 1159 2069 1159 1691 
L 1159 428 
Q 1159 294 1300 259 
Q 1441 225 1656 225 
L 1656 0 
L 191 0 
z
" transform="scale(0.015625)"/>
      <path id="Cmr10-64" d="M 1563 -72 
Q 1184 -72 871 133 
Q 559 338 386 672 
Q 213 1006 213 1381 
Q 213 1769 402 2101 
Q 591 2434 916 2631 
Q 1241 2828 1631 2828 
Q 1866 2828 2075 2729 
Q 2284 2631 2438 2456 
L 2438 3788 
Q 2438 3959 2386 4036 
Q 2334 4113 2239 4130 
Q 2144 4147 1941 4147 
L 1941 4372 
L 2888 4441 
L 2888 581 
Q 2888 413 2939 336 
Q 2991 259 3086 242 
Q 3181 225 3384 225 
L 3384 0 
L 2419 -72 
L 2419 331 
Q 2253 141 2025 34 
Q 1797 -72 1563 -72 
z
M 909 556 
Q 1019 347 1201 222 
Q 1384 97 1600 97 
Q 1866 97 2087 250 
Q 2309 403 2419 647 
L 2419 2181 
Q 2344 2322 2230 2433 
Q 2116 2544 1973 2603 
Q 1831 2663 1672 2663 
Q 1338 2663 1134 2473 
Q 931 2284 850 1990 
Q 769 1697 769 1375 
Q 769 1119 795 928 
Q 822 738 909 556 
z
" transform="scale(0.015625)"/>
      <path id="Cmr10-70" d="M 166 -1241 
L 166 -1019 
Q 384 -1019 525 -981 
Q 666 -944 666 -813 
L 666 2272 
Q 666 2447 541 2490 
Q 416 2534 166 2534 
L 166 2759 
L 1113 2828 
L 1113 2431 
Q 1288 2625 1520 2726 
Q 1753 2828 2016 2828 
Q 2394 2828 2697 2623 
Q 3000 2419 3170 2086 
Q 3341 1753 3341 1381 
Q 3341 994 3152 659 
Q 2963 325 2636 126 
Q 2309 -72 1919 -72 
Q 1453 -72 1131 306 
L 1131 -813 
Q 1131 -944 1273 -981 
Q 1416 -1019 1631 -1019 
L 1631 -1241 
L 166 -1241 
z
M 1131 622 
Q 1244 394 1444 245 
Q 1644 97 1881 97 
Q 2103 97 2273 215 
Q 2444 334 2559 534 
Q 2675 734 2729 954 
Q 2784 1175 2784 1381 
Q 2784 1638 2692 1936 
Q 2600 2234 2411 2439 
Q 2222 2644 1953 2644 
Q 1694 2644 1476 2511 
Q 1259 2378 1131 2150 
L 1131 622 
z
" transform="scale(0.015625)"/>
      <path id="Cmr10-77" d="M 1416 0 
L 588 2328 
Q 531 2469 425 2501 
Q 319 2534 116 2534 
L 116 2759 
L 1434 2759 
L 1434 2534 
Q 1056 2534 1056 2375 
Q 1059 2366 1061 2356 
Q 1063 2347 1063 2328 
L 1678 603 
L 2209 2106 
L 2125 2328 
Q 2075 2469 1965 2501 
Q 1856 2534 1656 2534 
L 1656 2759 
L 2919 2759 
L 2919 2534 
Q 2541 2534 2541 2375 
Q 2541 2350 2547 2328 
L 3188 525 
L 3769 2156 
Q 3781 2206 3781 2247 
Q 3781 2381 3667 2457 
Q 3553 2534 3413 2534 
L 3413 2759 
L 4500 2759 
L 4500 2534 
Q 4306 2534 4167 2432 
Q 4028 2331 3963 2156 
L 3200 0 
Q 3178 -72 3103 -72 
L 3053 -72 
Q 2978 -72 2956 0 
L 2309 1825 
L 1663 0 
Q 1631 -72 1563 -72 
L 1516 -72 
Q 1438 -72 1416 0 
z
" transform="scale(0.015625)"/>
      <path id="Cmr10-76" d="M 1563 0 
L 628 2350 
Q 569 2469 445 2501 
Q 322 2534 122 2534 
L 122 2759 
L 1466 2759 
L 1466 2534 
Q 1106 2534 1106 2381 
Q 1106 2356 1113 2344 
L 1831 538 
L 2478 2169 
Q 2497 2219 2497 2272 
Q 2497 2394 2405 2464 
Q 2313 2534 2188 2534 
L 2188 2759 
L 3250 2759 
L 3250 2534 
Q 3053 2534 2904 2443 
Q 2756 2353 2675 2175 
L 1813 0 
Q 1788 -72 1709 -72 
L 1663 -72 
Q 1584 -72 1563 0 
z
" transform="scale(0.015625)"/>
      <path id="Cmr10-69" d="M 197 0 
L 197 225 
Q 416 225 556 259 
Q 697 294 697 428 
L 697 2175 
Q 697 2422 601 2478 
Q 506 2534 225 2534 
L 225 2759 
L 1147 2828 
L 1147 428 
Q 1147 294 1269 259 
Q 1391 225 1594 225 
L 1594 0 
L 197 0 
z
M 469 3928 
Q 469 4069 575 4175 
Q 681 4281 819 4281 
Q 909 4281 993 4234 
Q 1078 4188 1125 4103 
Q 1172 4019 1172 3928 
Q 1172 3791 1065 3684 
Q 959 3578 819 3578 
Q 681 3578 575 3684 
Q 469 3791 469 3928 
z
" transform="scale(0.015625)"/>
      <path id="Cmr10-65" d="M 1594 -72 
Q 1203 -72 876 133 
Q 550 338 364 680 
Q 178 1022 178 1403 
Q 178 1778 348 2115 
Q 519 2453 823 2661 
Q 1128 2869 1503 2869 
Q 1797 2869 2014 2770 
Q 2231 2672 2372 2497 
Q 2513 2322 2584 2084 
Q 2656 1847 2656 1563 
Q 2656 1478 2591 1478 
L 738 1478 
L 738 1409 
Q 738 878 952 497 
Q 1166 116 1650 116 
Q 1847 116 2014 203 
Q 2181 291 2304 447 
Q 2428 603 2472 781 
Q 2478 803 2495 820 
Q 2513 838 2534 838 
L 2591 838 
Q 2656 838 2656 756 
Q 2566 394 2266 161 
Q 1966 -72 1594 -72 
z
M 744 1638 
L 2203 1638 
Q 2203 1878 2136 2125 
Q 2069 2372 1912 2536 
Q 1756 2700 1503 2700 
Q 1141 2700 942 2361 
Q 744 2022 744 1638 
z
" transform="scale(0.015625)"/>
     </defs>
     <use xlink:href="#Cmr10-47"/>
     <use xlink:href="#Cmr10-72" x="78.417969"/>
     <use xlink:href="#Cmr10-6f" x="117.529297"/>
     <use xlink:href="#Cmr10-75" x="167.529297"/>
     <use xlink:href="#Cmr10-6e" x="223.046875"/>
     <use xlink:href="#Cmr10-64" x="278.564453"/>
     <use xlink:href="#Cmr10-2d" x="334.082031"/>
     <use xlink:href="#Cmr10-74" x="367.382812"/>
     <use xlink:href="#Cmr10-72" x="406.201172"/>
     <use xlink:href="#Cmr10-75" x="445.3125"/>
     <use xlink:href="#Cmr10-74" x="500.830078"/>
     <use xlink:href="#Cmr10-68" x="539.648438"/>
     <use xlink:href="#Cmr10-20" x="595.166016"/>
     <use xlink:href="#Cmr10-74" x="628.466797"/>
     <use xlink:href="#Cmr10-6f" x="667.285156"/>
     <use xlink:href="#Cmr10-70" x="717.285156"/>
     <use xlink:href="#Cmr10-2d" x="772.802734"/>
     <use xlink:href="#Cmr10-64" x="806.103516"/>
     <use xlink:href="#Cmr10-6f" x="861.621094"/>
     <use xlink:href="#Cmr10-77" x="911.621094"/>
     <use xlink:href="#Cmr10-6e" x="983.837891"/>
     <use xlink:href="#Cmr10-20" x="1039.355469"/>
     <use xlink:href="#Cmr10-76" x="1072.65625"/>
     <use xlink:href="#Cmr10-69" x="1125.341797"/>
     <use xlink:href="#Cmr10-65" x="1153.027344"/>
     <use xlink:href="#Cmr10-77" x="1197.412109"/>
    </g>
   </g>
   <g id="legend_1">
    <g id="patch_24">
     <path d="M 46.027719 73.360519 
L 111.371363 73.360519 
Q 113.037363 73.360519 113.037363 71.694519 
L 113.037363 26.082562 
Q 113.037363 24.416562 111.371363 24.416562 
L 46.027719 24.416562 
Q 44.361719 24.416562 44.361719 26.082562 
L 44.361719 71.694519 
Q 44.361719 73.360519 46.027719 73.360519 
z
" style="fill: #ffffff; opacity: 0.4; stroke: #cccccc; stroke-linejoin: miter"/>
    </g>
    <g id="line2d_21">
     <path d="M 47.693719 30.664062 
L 56.023719 30.664062 
L 64.353719 30.664062 
" style="fill: none; stroke: #1f77b4; stroke-width: 1.5; stroke-linecap: square"/>
    </g>
    <g id="text_13">
     <!-- USV -->
     <g transform="translate(71.017719 33.579562)scale(0.0833 -0.0833)">
      <defs>
       <path id="Cmr10-55" d="M 856 1447 
L 856 3944 
Q 856 4147 197 4147 
L 197 4372 
L 2113 4372 
L 2113 4147 
Q 1453 4147 1453 3944 
L 1453 1472 
Q 1453 1116 1551 798 
Q 1650 481 1883 282 
Q 2116 84 2491 84 
Q 2856 84 3134 276 
Q 3413 469 3563 787 
Q 3713 1106 3713 1472 
L 3713 3769 
Q 3713 4147 3053 4147 
L 3053 4372 
L 4594 4372 
L 4594 4147 
Q 3938 4147 3938 3769 
L 3938 1447 
Q 3938 1150 3833 865 
Q 3728 581 3529 351 
Q 3331 122 3062 -9 
Q 2794 -141 2491 -141 
Q 2066 -141 1686 71 
Q 1306 284 1081 650 
Q 856 1016 856 1447 
z
" transform="scale(0.015625)"/>
       <path id="Cmr10-53" d="M 359 -91 
L 359 1403 
Q 359 1453 416 1453 
L 494 1453 
Q 513 1453 528 1437 
Q 544 1422 544 1403 
Q 544 775 933 429 
Q 1322 84 1953 84 
Q 2175 84 2362 212 
Q 2550 341 2654 548 
Q 2759 756 2759 978 
Q 2759 1172 2681 1355 
Q 2603 1538 2456 1672 
Q 2309 1806 2125 1850 
L 1294 2053 
Q 881 2163 620 2502 
Q 359 2841 359 3263 
Q 359 3594 528 3884 
Q 697 4175 983 4344 
Q 1269 4513 1600 4513 
Q 2241 4513 2619 4078 
L 2881 4494 
Q 2900 4513 2925 4513 
L 2969 4513 
Q 2988 4513 3005 4498 
Q 3022 4484 3022 4459 
L 3022 2975 
Q 3022 2919 2969 2919 
L 2894 2919 
Q 2834 2919 2834 2975 
Q 2834 3138 2779 3331 
Q 2725 3525 2628 3703 
Q 2531 3881 2419 3994 
Q 2109 4306 1600 4306 
Q 1381 4306 1197 4195 
Q 1013 4084 903 3893 
Q 794 3703 794 3494 
Q 794 3219 964 2995 
Q 1134 2772 1409 2700 
L 2241 2497 
Q 2447 2447 2630 2317 
Q 2813 2188 2934 2016 
Q 3056 1844 3125 1633 
Q 3194 1422 3194 1197 
Q 3194 850 3034 542 
Q 2875 234 2586 46 
Q 2297 -141 1953 -141 
Q 1741 -141 1519 -94 
Q 1297 -47 1109 50 
Q 922 147 769 300 
L 500 -122 
Q 481 -141 453 -141 
L 416 -141 
Q 359 -141 359 -91 
z
" transform="scale(0.015625)"/>
       <path id="Cmr10-56" d="M 2253 -72 
L 744 3944 
Q 688 4078 528 4112 
Q 369 4147 122 4147 
L 122 4372 
L 1881 4372 
L 1881 4147 
Q 1350 4147 1350 3981 
Q 1353 3972 1354 3964 
Q 1356 3956 1356 3944 
L 2584 678 
L 3744 3769 
Q 3756 3794 3756 3847 
Q 3756 4003 3612 4075 
Q 3469 4147 3291 4147 
L 3291 4372 
L 4672 4372 
L 4672 4147 
Q 4431 4147 4248 4058 
Q 4066 3969 3988 3769 
L 2541 -72 
Q 2522 -141 2438 -141 
L 2356 -141 
Q 2272 -141 2253 -72 
z
" transform="scale(0.015625)"/>
      </defs>
      <use xlink:href="#Cmr10-55"/>
      <use xlink:href="#Cmr10-53" x="75"/>
      <use xlink:href="#Cmr10-56" x="130.517578"/>
     </g>
    </g>
    <g id="line2d_22">
     <path d="M 47.693719 42.275302 
L 56.023719 42.275302 
L 64.353719 42.275302 
" style="fill: none; stroke: #ff7f0e; stroke-width: 1.5; stroke-linecap: square"/>
    </g>
    <g id="text_14">
     <!-- UUV -->
     <g transform="translate(71.017719 45.190802)scale(0.0833 -0.0833)">
      <use xlink:href="#Cmr10-55"/>
      <use xlink:href="#Cmr10-55" x="75"/>
      <use xlink:href="#Cmr10-56" x="150"/>
     </g>
    </g>
    <g id="PathCollection_3">
     <g>
      <use xlink:href="#m21160a3522" x="56.023719" y="54.615416" style="fill: #1f77b4; stroke: #1f77b4"/>
     </g>
    </g>
    <g id="text_15">
     <!-- USV start -->
     <g transform="translate(71.017719 56.802041)scale(0.0833 -0.0833)">
      <use xlink:href="#Cmr10-55"/>
      <use xlink:href="#Cmr10-53" x="75"/>
      <use xlink:href="#Cmr10-56" x="130.517578"/>
      <use xlink:href="#Cmr10-20" x="205.517578"/>
      <use xlink:href="#Cmr10-73" x="238.818359"/>
      <use xlink:href="#Cmr10-74" x="278.222656"/>
      <use xlink:href="#Cmr10-61" x="317.041016"/>
      <use xlink:href="#Cmr10-72" x="367.041016"/>
      <use xlink:href="#Cmr10-74" x="406.152344"/>
     </g>
    </g>
    <g id="PathCollection_4">
     <g>
      <use xlink:href="#md417b765d2" x="56.023719" y="66.226655" style="fill: #ff7f0e; stroke: #ff7f0e"/>
     </g>
    </g>
    <g id="text_16">
     <!-- UUV start -->
     <g transform="translate(71.017719 68.41328)scale(0.0833 -0.0833)">
      <use xlink:href="#Cmr10-55"/>
      <use xlink:href="#Cmr10-55" x="75"/>
      <use xlink:href="#Cmr10-56" x="150"/>
      <use xlink:href="#Cmr10-20" x="225"/>
      <use xlink:href="#Cmr10-73" x="258.300781"/>
      <use xlink:href="#Cmr10-74" x="297.705078"/>
      <use xlink:href="#Cmr10-61" x="336.523438"/>
      <use xlink:href="#Cmr10-72" x="386.523438"/>
      <use xlink:href="#Cmr10-74" x="425.634766"/>
     </g>
    </g>
   </g>
  </g>
  <g id="axes_2">
   <g id="patch_25">
    <path d="M 40.196719 245.809207 
L 245.99952 245.809207 
L 245.99952 186.637444 
L 40.196719 186.637444 
z
" style="fill: #ffffff"/>
   </g>
   <g id="matplotlib.axis_3">
    <g id="xtick_5">
     <g id="line2d_23">
      <path d="M 49.551392 245.809207 
L 49.551392 186.637444 
" clip-path="url(#p8338c719f0)" style="fill: none; stroke: #b0b0b0; stroke-opacity: 0.3; stroke-width: 0.8; stroke-linecap: square"/>
     </g>
     <g id="line2d_24">
      <g>
       <use xlink:href="#mcbc42f7814" x="49.551392" y="245.809207" style="stroke: #000000; stroke-width: 0.8"/>
      </g>
     </g>
     <g id="text_17">
      <!-- 0 -->
      <g transform="translate(47.301392 259.054364)scale(0.09 -0.09)">
       <use xlink:href="#Cmr10-30"/>
      </g>
     </g>
    </g>
    <g id="xtick_6">
     <g id="line2d_25">
      <path d="M 80.733634 245.809207 
L 80.733634 186.637444 
" clip-path="url(#p8338c719f0)" style="fill: none; stroke: #b0b0b0; stroke-opacity: 0.3; stroke-width: 0.8; stroke-linecap: square"/>
     </g>
     <g id="line2d_26">
      <g>
       <use xlink:href="#mcbc42f7814" x="80.733634" y="245.809207" style="stroke: #000000; stroke-width: 0.8"/>
      </g>
     </g>
     <g id="text_18">
      <!-- 50 -->
      <g transform="translate(76.233634 259.054364)scale(0.09 -0.09)">
       <defs>
        <path id="Cmr10-35" d="M 556 728 
Q 622 541 758 387 
Q 894 234 1080 148 
Q 1266 63 1466 63 
Q 1928 63 2103 422 
Q 2278 781 2278 1294 
Q 2278 1516 2270 1667 
Q 2263 1819 2228 1959 
Q 2169 2184 2020 2353 
Q 1872 2522 1656 2522 
Q 1441 2522 1286 2456 
Q 1131 2391 1034 2303 
Q 938 2216 863 2119 
Q 788 2022 769 2016 
L 697 2016 
Q 681 2016 657 2036 
Q 634 2056 634 2075 
L 634 4213 
Q 634 4228 654 4245 
Q 675 4263 697 4263 
L 716 4263 
Q 1147 4056 1631 4056 
Q 2106 4056 2547 4263 
L 2566 4263 
Q 2588 4263 2606 4247 
Q 2625 4231 2625 4213 
L 2625 4153 
Q 2625 4122 2613 4122 
Q 2394 3831 2064 3668 
Q 1734 3506 1381 3506 
Q 1125 3506 856 3578 
L 856 2369 
Q 1069 2541 1236 2614 
Q 1403 2688 1663 2688 
Q 2016 2688 2295 2484 
Q 2575 2281 2725 1954 
Q 2875 1628 2875 1288 
Q 2875 903 2686 575 
Q 2497 247 2172 53 
Q 1847 -141 1466 -141 
Q 1150 -141 886 21 
Q 622 184 470 459 
Q 319 734 319 1044 
Q 319 1188 412 1278 
Q 506 1369 647 1369 
Q 788 1369 883 1276 
Q 978 1184 978 1044 
Q 978 906 883 811 
Q 788 716 647 716 
Q 625 716 597 720 
Q 569 725 556 728 
z
" transform="scale(0.015625)"/>
       </defs>
       <use xlink:href="#Cmr10-35"/>
       <use xlink:href="#Cmr10-30" x="50"/>
      </g>
     </g>
    </g>
    <g id="xtick_7">
     <g id="line2d_27">
      <path d="M 111.915877 245.809207 
L 111.915877 186.637444 
" clip-path="url(#p8338c719f0)" style="fill: none; stroke: #b0b0b0; stroke-opacity: 0.3; stroke-width: 0.8; stroke-linecap: square"/>
     </g>
     <g id="line2d_28">
      <g>
       <use xlink:href="#mcbc42f7814" x="111.915877" y="245.809207" style="stroke: #000000; stroke-width: 0.8"/>
      </g>
     </g>
     <g id="text_19">
      <!-- 100 -->
      <g transform="translate(105.165877 259.054364)scale(0.09 -0.09)">
       <use xlink:href="#Cmr10-31"/>
       <use xlink:href="#Cmr10-30" x="50"/>
       <use xlink:href="#Cmr10-30" x="100"/>
      </g>
     </g>
    </g>
    <g id="xtick_8">
     <g id="line2d_29">
      <path d="M 143.098119 245.809207 
L 143.098119 186.637444 
" clip-path="url(#p8338c719f0)" style="fill: none; stroke: #b0b0b0; stroke-opacity: 0.3; stroke-width: 0.8; stroke-linecap: square"/>
     </g>
     <g id="line2d_30">
      <g>
       <use xlink:href="#mcbc42f7814" x="143.098119" y="245.809207" style="stroke: #000000; stroke-width: 0.8"/>
      </g>
     </g>
     <g id="text_20">
      <!-- 150 -->
      <g transform="translate(136.348119 259.054364)scale(0.09 -0.09)">
       <use xlink:href="#Cmr10-31"/>
       <use xlink:href="#Cmr10-35" x="50"/>
       <use xlink:href="#Cmr10-30" x="100"/>
      </g>
     </g>
    </g>
    <g id="xtick_9">
     <g id="line2d_31">
      <path d="M 174.280362 245.809207 
L 174.280362 186.637444 
" clip-path="url(#p8338c719f0)" style="fill: none; stroke: #b0b0b0; stroke-opacity: 0.3; stroke-width: 0.8; stroke-linecap: square"/>
     </g>
     <g id="line2d_32">
      <g>
       <use xlink:href="#mcbc42f7814" x="174.280362" y="245.809207" style="stroke: #000000; stroke-width: 0.8"/>
      </g>
     </g>
     <g id="text_21">
      <!-- 200 -->
      <g transform="translate(167.530362 259.054364)scale(0.09 -0.09)">
       <use xlink:href="#Cmr10-32"/>
       <use xlink:href="#Cmr10-30" x="50"/>
       <use xlink:href="#Cmr10-30" x="100"/>
      </g>
     </g>
    </g>
    <g id="xtick_10">
     <g id="line2d_33">
      <path d="M 205.462605 245.809207 
L 205.462605 186.637444 
" clip-path="url(#p8338c719f0)" style="fill: none; stroke: #b0b0b0; stroke-opacity: 0.3; stroke-width: 0.8; stroke-linecap: square"/>
     </g>
     <g id="line2d_34">
      <g>
       <use xlink:href="#mcbc42f7814" x="205.462605" y="245.809207" style="stroke: #000000; stroke-width: 0.8"/>
      </g>
     </g>
     <g id="text_22">
      <!-- 250 -->
      <g transform="translate(198.712605 259.054364)scale(0.09 -0.09)">
       <use xlink:href="#Cmr10-32"/>
       <use xlink:href="#Cmr10-35" x="50"/>
       <use xlink:href="#Cmr10-30" x="100"/>
      </g>
     </g>
    </g>
    <g id="xtick_11">
     <g id="line2d_35">
      <path d="M 236.644847 245.809207 
L 236.644847 186.637444 
" clip-path="url(#p8338c719f0)" style="fill: none; stroke: #b0b0b0; stroke-opacity: 0.3; stroke-width: 0.8; stroke-linecap: square"/>
     </g>
     <g id="line2d_36">
      <g>
       <use xlink:href="#mcbc42f7814" x="236.644847" y="245.809207" style="stroke: #000000; stroke-width: 0.8"/>
      </g>
     </g>
     <g id="text_23">
      <!-- 300 -->
      <g transform="translate(229.894847 259.054364)scale(0.09 -0.09)">
       <defs>
        <path id="Cmr10-33" d="M 609 494 
Q 759 275 1012 169 
Q 1266 63 1556 63 
Q 1928 63 2084 380 
Q 2241 697 2241 1100 
Q 2241 1281 2208 1462 
Q 2175 1644 2097 1800 
Q 2019 1956 1883 2050 
Q 1747 2144 1550 2144 
L 1125 2144 
Q 1069 2144 1069 2203 
L 1069 2259 
Q 1069 2309 1125 2309 
L 1478 2338 
Q 1703 2338 1851 2506 
Q 2000 2675 2069 2917 
Q 2138 3159 2138 3378 
Q 2138 3684 1994 3881 
Q 1850 4078 1556 4078 
Q 1313 4078 1091 3986 
Q 869 3894 738 3706 
Q 750 3709 759 3711 
Q 769 3713 781 3713 
Q 925 3713 1022 3613 
Q 1119 3513 1119 3372 
Q 1119 3234 1022 3134 
Q 925 3034 781 3034 
Q 641 3034 541 3134 
Q 441 3234 441 3372 
Q 441 3647 606 3850 
Q 772 4053 1033 4158 
Q 1294 4263 1556 4263 
Q 1750 4263 1965 4205 
Q 2181 4147 2356 4039 
Q 2531 3931 2642 3762 
Q 2753 3594 2753 3378 
Q 2753 3109 2633 2881 
Q 2513 2653 2303 2487 
Q 2094 2322 1844 2241 
Q 2122 2188 2372 2031 
Q 2622 1875 2773 1631 
Q 2925 1388 2925 1106 
Q 2925 753 2731 467 
Q 2538 181 2222 20 
Q 1906 -141 1556 -141 
Q 1256 -141 954 -26 
Q 653 88 461 316 
Q 269 544 269 863 
Q 269 1022 375 1128 
Q 481 1234 641 1234 
Q 744 1234 830 1186 
Q 916 1138 964 1050 
Q 1013 963 1013 863 
Q 1013 706 903 600 
Q 794 494 641 494 
L 609 494 
z
" transform="scale(0.015625)"/>
       </defs>
       <use xlink:href="#Cmr10-33"/>
       <use xlink:href="#Cmr10-30" x="50"/>
       <use xlink:href="#Cmr10-30" x="100"/>
      </g>
     </g>
    </g>
    <g id="text_24">
     <!-- Time [s] -->
     <g transform="translate(125.314526 272.29952)scale(0.1 -0.1)">
      <defs>
       <path id="Cmr10-54" d="M 1081 0 
L 1081 225 
Q 1403 225 1706 261 
Q 2009 297 2009 428 
L 2009 3944 
Q 2009 4081 1932 4114 
Q 1856 4147 1684 4147 
L 1416 4147 
Q 888 4147 666 3916 
Q 550 3800 500 3545 
Q 450 3291 416 2906 
L 231 2906 
L 353 4372 
L 4263 4372 
L 4384 2906 
L 4197 2906 
Q 4159 3319 4114 3561 
Q 4069 3803 3950 3916 
Q 3725 4147 3200 4147 
L 2931 4147 
Q 2816 4147 2752 4137 
Q 2688 4128 2647 4083 
Q 2606 4038 2606 3944 
L 2606 428 
Q 2606 297 2909 261 
Q 3213 225 3531 225 
L 3531 0 
L 1081 0 
z
" transform="scale(0.015625)"/>
      </defs>
      <use xlink:href="#Cmr10-54"/>
      <use xlink:href="#Cmr10-69" x="72.216797"/>
      <use xlink:href="#Cmr10-6d" x="99.902344"/>
      <use xlink:href="#Cmr10-65" x="183.203125"/>
      <use xlink:href="#Cmr10-20" x="227.587891"/>
      <use xlink:href="#Cmr10-5b" x="260.888672"/>
      <use xlink:href="#Cmr10-73" x="288.574219"/>
      <use xlink:href="#Cmr10-5d" x="327.978516"/>
     </g>
    </g>
   </g>
   <g id="matplotlib.axis_4">
    <g id="ytick_6">
     <g id="line2d_37">
      <path d="M 40.196719 189.32707 
L 245.99952 189.32707 
" clip-path="url(#p8338c719f0)" style="fill: none; stroke: #b0b0b0; stroke-opacity: 0.3; stroke-width: 0.8; stroke-linecap: square"/>
     </g>
     <g id="line2d_38">
      <g>
       <use xlink:href="#m895da6cf04" x="40.196719" y="189.32707" style="stroke: #000000; stroke-width: 0.8"/>
      </g>
     </g>
     <g id="text_25">
      <!-- 0 -->
      <g transform="translate(28.696719 192.449648)scale(0.09 -0.09)">
       <use xlink:href="#Cmr10-30"/>
      </g>
     </g>
    </g>
    <g id="ytick_7">
     <g id="line2d_39">
      <path d="M 40.196719 219.211799 
L 245.99952 219.211799 
" clip-path="url(#p8338c719f0)" style="fill: none; stroke: #b0b0b0; stroke-opacity: 0.3; stroke-width: 0.8; stroke-linecap: square"/>
     </g>
     <g id="line2d_40">
      <g>
       <use xlink:href="#m895da6cf04" x="40.196719" y="219.211799" style="stroke: #000000; stroke-width: 0.8"/>
      </g>
     </g>
     <g id="text_26">
      <!-- 10 -->
      <g transform="translate(24.196719 222.334377)scale(0.09 -0.09)">
       <use xlink:href="#Cmr10-31"/>
       <use xlink:href="#Cmr10-30" x="50"/>
      </g>
     </g>
    </g>
    <g id="text_27">
     <!-- Depth [m] -->
     <g transform="translate(17.696719 238.349107)rotate(-90)scale(0.1 -0.1)">
      <defs>
       <path id="Cmr10-44" d="M 213 0 
L 213 225 
Q 872 225 872 428 
L 872 3944 
Q 872 4147 213 4147 
L 213 4372 
L 2572 4372 
Q 3009 4372 3371 4183 
Q 3734 3994 3990 3678 
Q 4247 3363 4386 2963 
Q 4525 2563 4525 2144 
Q 4525 1738 4384 1355 
Q 4244 972 3980 664 
Q 3716 356 3355 178 
Q 2994 0 2572 0 
L 213 0 
z
M 1447 428 
Q 1447 291 1525 258 
Q 1603 225 1772 225 
L 2406 225 
Q 2734 225 3029 367 
Q 3325 509 3519 763 
Q 3722 1031 3790 1364 
Q 3859 1697 3859 2144 
Q 3859 2609 3790 2959 
Q 3722 3309 3519 3584 
Q 3328 3856 3034 4001 
Q 2741 4147 2406 4147 
L 1772 4147 
Q 1656 4147 1592 4137 
Q 1528 4128 1487 4083 
Q 1447 4038 1447 3944 
L 1447 428 
z
" transform="scale(0.015625)"/>
      </defs>
      <use xlink:href="#Cmr10-44"/>
      <use xlink:href="#Cmr10-65" x="76.318359"/>
      <use xlink:href="#Cmr10-70" x="120.703125"/>
      <use xlink:href="#Cmr10-74" x="176.220703"/>
      <use xlink:href="#Cmr10-68" x="215.039062"/>
      <use xlink:href="#Cmr10-20" x="270.556641"/>
      <use xlink:href="#Cmr10-5b" x="303.857422"/>
      <use xlink:href="#Cmr10-6d" x="331.542969"/>
      <use xlink:href="#Cmr10-5d" x="414.84375"/>
     </g>
    </g>
   </g>
   <g id="line2d_41">
    <path d="M 49.551392 189.32707 
L 236.644847 189.32707 
L 236.644847 189.32707 
" clip-path="url(#p8338c719f0)" style="fill: none; stroke: #1f77b4; stroke-width: 1.5; stroke-linecap: square"/>
   </g>
   <g id="line2d_42">
    <path d="M 49.551392 225.188745 
L 67.256669 231.179941 
L 76.748544 234.149834 
L 84.768616 236.430594 
L 92.002897 238.26008 
L 98.738261 239.736742 
L 105.136857 240.913895 
L 111.292232 241.821816 
L 117.279222 242.48141 
L 123.153957 242.905845 
L 128.966327 243.103225 
L 134.753751 243.077354 
L 140.559885 242.828717 
L 146.422146 242.354552 
L 152.390428 241.647725 
L 158.51462 240.69714 
L 164.863325 239.484828 
L 171.523852 237.984303 
L 178.63964 236.150014 
L 186.4352 233.906354 
L 195.403213 231.086436 
L 207.115263 227.153466 
L 232.722121 218.489113 
L 236.644847 217.253982 
L 236.644847 217.253982 
" clip-path="url(#p8338c719f0)" style="fill: none; stroke: #ff7f0e; stroke-width: 1.5; stroke-linecap: square"/>
   </g>
   <g id="patch_26">
    <path d="M 40.196719 245.809207 
L 40.196719 186.637444 
" style="fill: none; stroke: #000000; stroke-width: 0.8; stroke-linejoin: miter; stroke-linecap: square"/>
   </g>
   <g id="patch_27">
    <path d="M 245.99952 245.809207 
L 245.99952 186.637444 
" style="fill: none; stroke: #000000; stroke-width: 0.8; stroke-linejoin: miter; stroke-linecap: square"/>
   </g>
   <g id="patch_28">
    <path d="M 40.196719 245.809207 
L 245.99952 245.809207 
" style="fill: none; stroke: #000000; stroke-width: 0.8; stroke-linejoin: miter; stroke-linecap: square"/>
   </g>
   <g id="patch_29">
    <path d="M 40.196719 186.637444 
L 245.99952 186.637444 
" style="fill: none; stroke: #000000; stroke-width: 0.8; stroke-linejoin: miter; stroke-linecap: square"/>
   </g>
   <g id="text_28">
    <!-- Ground-truth depth profiles -->
    <g transform="translate(81.808276 180.637444)scale(0.1 -0.1)">
     <defs>
      <path id="Cmr10-66" d="M 206 0 
L 206 225 
Q 422 225 562 259 
Q 703 294 703 428 
L 703 2534 
L 213 2534 
L 213 2759 
L 703 2759 
L 703 3525 
Q 703 3731 789 3911 
Q 875 4091 1020 4225 
Q 1166 4359 1355 4436 
Q 1544 4513 1747 4513 
Q 1963 4513 2136 4384 
Q 2309 4256 2309 4044 
Q 2309 3922 2226 3839 
Q 2144 3756 2022 3756 
Q 1900 3756 1814 3839 
Q 1728 3922 1728 4044 
Q 1728 4244 1900 4313 
Q 1797 4347 1716 4347 
Q 1528 4347 1395 4214 
Q 1263 4081 1197 3890 
Q 1131 3700 1131 3513 
L 1131 2759 
L 1869 2759 
L 1869 2534 
L 1153 2534 
L 1153 428 
Q 1153 297 1340 261 
Q 1528 225 1772 225 
L 1772 0 
L 206 0 
z
" transform="scale(0.015625)"/>
      <path id="Cmr10-6c" d="M 197 0 
L 197 225 
Q 416 225 556 259 
Q 697 294 697 428 
L 697 3788 
Q 697 3959 645 4036 
Q 594 4113 497 4130 
Q 400 4147 197 4147 
L 197 4372 
L 1147 4441 
L 1147 428 
Q 1147 294 1287 259 
Q 1428 225 1644 225 
L 1644 0 
L 197 0 
z
" transform="scale(0.015625)"/>
     </defs>
     <use xlink:href="#Cmr10-47"/>
     <use xlink:href="#Cmr10-72" x="78.417969"/>
     <use xlink:href="#Cmr10-6f" x="117.529297"/>
     <use xlink:href="#Cmr10-75" x="167.529297"/>
     <use xlink:href="#Cmr10-6e" x="223.046875"/>
     <use xlink:href="#Cmr10-64" x="278.564453"/>
     <use xlink:href="#Cmr10-2d" x="334.082031"/>
     <use xlink:href="#Cmr10-74" x="367.382812"/>
     <use xlink:href="#Cmr10-72" x="406.201172"/>
     <use xlink:href="#Cmr10-75" x="445.3125"/>
     <use xlink:href="#Cmr10-74" x="500.830078"/>
     <use xlink:href="#Cmr10-68" x="539.648438"/>
     <use xlink:href="#Cmr10-20" x="595.166016"/>
     <use xlink:href="#Cmr10-64" x="628.466797"/>
     <use xlink:href="#Cmr10-65" x="683.984375"/>
     <use xlink:href="#Cmr10-70" x="728.369141"/>
     <use xlink:href="#Cmr10-74" x="783.886719"/>
     <use xlink:href="#Cmr10-68" x="822.705078"/>
     <use xlink:href="#Cmr10-20" x="878.222656"/>
     <use xlink:href="#Cmr10-70" x="911.523438"/>
     <use xlink:href="#Cmr10-72" x="967.041016"/>
     <use xlink:href="#Cmr10-6f" x="1006.152344"/>
     <use xlink:href="#Cmr10-66" x="1056.152344"/>
     <use xlink:href="#Cmr10-69" x="1086.669922"/>
     <use xlink:href="#Cmr10-6c" x="1114.355469"/>
     <use xlink:href="#Cmr10-65" x="1142.041016"/>
     <use xlink:href="#Cmr10-73" x="1186.425781"/>
    </g>
   </g>
   <g id="legend_2">
    <g id="patch_30">
     <path d="M 194.77002 216.523922 
L 240.16852 216.523922 
Q 241.83452 216.523922 241.83452 214.857922 
L 241.83452 192.468444 
Q 241.83452 190.802444 240.16852 190.802444 
L 194.77002 190.802444 
Q 193.10402 190.802444 193.10402 192.468444 
L 193.10402 214.857922 
Q 193.10402 216.523922 194.77002 216.523922 
z
" style="fill: #ffffff; opacity: 0.4; stroke: #cccccc; stroke-linejoin: miter"/>
    </g>
    <g id="line2d_43">
     <path d="M 196.43602 197.049944 
L 204.76602 197.049944 
L 213.09602 197.049944 
" style="fill: none; stroke: #1f77b4; stroke-width: 1.5; stroke-linecap: square"/>
    </g>
    <g id="text_29">
     <!-- USV -->
     <g transform="translate(219.76002 199.965444)scale(0.0833 -0.0833)">
      <use xlink:href="#Cmr10-55"/>
      <use xlink:href="#Cmr10-53" x="75"/>
      <use xlink:href="#Cmr10-56" x="130.517578"/>
     </g>
    </g>
    <g id="line2d_44">
     <path d="M 196.43602 208.661183 
L 204.76602 208.661183 
L 213.09602 208.661183 
" style="fill: none; stroke: #ff7f0e; stroke-width: 1.5; stroke-linecap: square"/>
    </g>
    <g id="text_30">
     <!-- UUV -->
     <g transform="translate(219.76002 211.576683)scale(0.0833 -0.0833)">
      <use xlink:href="#Cmr10-55"/>
      <use xlink:href="#Cmr10-55" x="75"/>
      <use xlink:href="#Cmr10-56" x="150"/>
     </g>
    </g>
   </g>
  </g>
 </g>
 <defs>
  <clipPath id="p4e3d9476fc">
   <rect x="40.196719" y="20.251562" width="205.802801" height="118.343527"/>
  </clipPath>
  <clipPath id="p8338c719f0">
   <rect x="40.196719" y="186.637444" width="205.802801" height="59.171763"/>
  </clipPath>
 </defs>
</svg>
