<?xml version="1.0" encoding="utf-8" standalone="no"?>
<!DOCTYPE svg PUBLIC "-//W3C//DTD SVG 1.1//EN"
  "http://www.w3.org/Graphics/SVG/1.1/DTD/svg11.dtd">
<svg xmlns:xlink="http://www.w3.org/1999/xlink" width="253.19952pt" height="281.99952pt" viewBox="0 0 253.19952 281.99952" xmlns="http://www.w3.org/2000/svg" version="1.1">
 <metadata>
  <rdf:RDF xmlns:dc="http://purl.org/dc/elements/1.1/" xmlns:cc="http://creativecommons.org/ns#" xmlns:rdf="http://www.w3.org/1999/02/22-rdf-syntax-ns#">
   <cc:Work>
    <dc:type rdf:resource="http://purl.org/dc/dcmitype/StillImage"/>
    <dc:date>2026-06-14T08:27:31.622884</dc:date>
    <dc:format>image/svg+xml</dc:format>
    <dc:creator>
     <cc:Agent>
      <dc:title>Matplotlib v3.5.1, https://matplotlib.org/</dc:title>
     </cc:Agent>
    </dc:creator>
   </cc:Work>
  </rdf:RDF>
 </metadata>
 <defs>
  <style type="text/css">*{stroke-linejoin: round; stroke-linecap: butt}</style>
 </defs>
 <g id="figure_1">
  <g id="patch_1">
   <path d="M 0 281.99952 
L 253.19952 281.99952 
L 253.19952 0 
L 0 0 
z
" style="fill: #ffffff"/>
  </g>
  <g id="axes_1">
   <g id="patch_2">
    <path d="M 41.7 79.789885 
L 245.99952 79.789885 
L 245.99952 20.7 
L 41.7 20.7 
z
" style="fill: #ffffff"/>
   </g>
   <g id="matplotlib.axis_1">
    <g id="xtick_1">
     <g id="line2d_1">
      <path d="M 50.986342 79.789885 
L 50.986342 20.7 
" clip-path="url(#p209c95a8b8)" style="fill: none; stroke: #b0b0b0; stroke-opacity: 0.3; stroke-width: 0.8; stroke-linecap: square"/>
     </g>
     <g id="line2d_2">
      <defs>
       <path id="mddbde00433" d="M 0 0 
L 0 3.5 
" style="stroke: #000000; stroke-width: 0.8"/>
      </defs>
      <g>
       <use xlink:href="#mddbde00433" x="50.986342" y="79.789885" style="stroke: #000000; stroke-width: 0.8"/>
      </g>
     </g>
    </g>
    <g id="xtick_2">
     <g id="line2d_3">
      <path d="M 81.940815 79.789885 
L 81.940815 20.7 
" clip-path="url(#p209c95a8b8)" style="fill: none; stroke: #b0b0b0; stroke-opacity: 0.3; stroke-width: 0.8; stroke-linecap: square"/>
     </g>
     <g id="line2d_4">
      <g>
       <use xlink:href="#mddbde00433" x="81.940815" y="79.789885" style="stroke: #000000; stroke-width: 0.8"/>
      </g>
     </g>
    </g>
    <g id="xtick_3">
     <g id="line2d_5">
      <path d="M 112.895287 79.789885 
L 112.895287 20.7 
" clip-path="url(#p209c95a8b8)" style="fill: none; stroke: #b0b0b0; stroke-opacity: 0.3; stroke-width: 0.8; stroke-linecap: square"/>
     </g>
     <g id="line2d_6">
      <g>
       <use xlink:href="#mddbde00433" x="112.895287" y="79.789885" style="stroke: #000000; stroke-width: 0.8"/>
      </g>
     </g>
    </g>
    <g id="xtick_4">
     <g id="line2d_7">
      <path d="M 143.84976 79.789885 
L 143.84976 20.7 
" clip-path="url(#p209c95a8b8)" style="fill: none; stroke: #b0b0b0; stroke-opacity: 0.3; stroke-width: 0.8; stroke-linecap: square"/>
     </g>
     <g id="line2d_8">
      <g>
       <use xlink:href="#mddbde00433" x="143.84976" y="79.789885" style="stroke: #000000; stroke-width: 0.8"/>
      </g>
     </g>
    </g>
    <g id="xtick_5">
     <g id="line2d_9">
      <path d="M 174.804233 79.789885 
L 174.804233 20.7 
" clip-path="url(#p209c95a8b8)" style="fill: none; stroke: #b0b0b0; stroke-opacity: 0.3; stroke-width: 0.8; stroke-linecap: square"/>
     </g>
     <g id="line2d_10">
      <g>
       <use xlink:href="#mddbde00433" x="174.804233" y="79.789885" style="stroke: #000000; stroke-width: 0.8"/>
      </g>
     </g>
    </g>
    <g id="xtick_6">
     <g id="line2d_11">
      <path d="M 205.758705 79.789885 
L 205.758705 20.7 
" clip-path="url(#p209c95a8b8)" style="fill: none; stroke: #b0b0b0; stroke-opacity: 0.3; stroke-width: 0.8; stroke-linecap: square"/>
     </g>
     <g id="line2d_12">
      <g>
       <use xlink:href="#mddbde00433" x="205.758705" y="79.789885" style="stroke: #000000; stroke-width: 0.8"/>
      </g>
     </g>
    </g>
    <g id="xtick_7">
     <g id="line2d_13">
      <path d="M 236.713178 79.789885 
L 236.713178 20.7 
" clip-path="url(#p209c95a8b8)" style="fill: none; stroke: #b0b0b0; stroke-opacity: 0.3; stroke-width: 0.8; stroke-linecap: square"/>
     </g>
     <g id="line2d_14">
      <g>
       <use xlink:href="#mddbde00433" x="236.713178" y="79.789885" style="stroke: #000000; stroke-width: 0.8"/>
      </g>
     </g>
    </g>
   </g>
   <g id="matplotlib.axis_2">
    <g id="ytick_1">
     <g id="line2d_15">
      <path d="M 41.7 79.789885 
L 245.99952 79.789885 
" clip-path="url(#p209c95a8b8)" style="fill: none; stroke: #b0b0b0; stroke-opacity: 0.3; stroke-width: 0.8; stroke-linecap: square"/>
     </g>
     <g id="line2d_16">
      <defs>
       <path id="m43119dcc82" d="M 0 0 
L -3.5 0 
" style="stroke: #000000; stroke-width: 0.8"/>
      </defs>
      <g>
       <use xlink:href="#m43119dcc82" x="41.7" y="79.789885" style="stroke: #000000; stroke-width: 0.8"/>
      </g>
     </g>
     <g id="text_1">
      <!-- 0 -->
      <g transform="translate(30.2 82.912463)scale(0.09 -0.09)">
       <defs>
        <path id="Cmr10-30" d="M 1600 -141 
Q 816 -141 533 504 
Q 250 1150 250 2041 
Q 250 2597 351 3087 
Q 453 3578 754 3920 
Q 1056 4263 1600 4263 
Q 2022 4263 2290 4056 
Q 2559 3850 2700 3523 
Q 2841 3197 2892 2823 
Q 2944 2450 2944 2041 
Q 2944 1491 2842 1011 
Q 2741 531 2444 195 
Q 2147 -141 1600 -141 
z
M 1600 25 
Q 1956 25 2131 390 
Q 2306 756 2347 1200 
Q 2388 1644 2388 2144 
Q 2388 2625 2347 3031 
Q 2306 3438 2132 3767 
Q 1959 4097 1600 4097 
Q 1238 4097 1063 3765 
Q 888 3434 847 3029 
Q 806 2625 806 2144 
Q 806 1788 823 1472 
Q 841 1156 916 820 
Q 991 484 1158 254 
Q 1325 25 1600 25 
z
" transform="scale(0.015625)"/>
       </defs>
       <use xlink:href="#Cmr10-30"/>
      </g>
     </g>
    </g>
    <g id="ytick_2">
     <g id="line2d_17">
      <path d="M 41.7 65.017413 
L 245.99952 65.017413 
" clip-path="url(#p209c95a8b8)" style="fill: none; stroke: #b0b0b0; stroke-opacity: 0.3; stroke-width: 0.8; stroke-linecap: square"/>
     </g>
     <g id="line2d_18">
      <g>
       <use xlink:href="#m43119dcc82" x="41.7" y="65.017413" style="stroke: #000000; stroke-width: 0.8"/>
      </g>
     </g>
     <g id="text_2">
      <!-- 90 -->
      <g transform="translate(25.7 68.139992)scale(0.09 -0.09)">
       <defs>
        <path id="Cmr10-39" d="M 722 269 
Q 897 63 1331 63 
Q 1575 63 1786 228 
Q 1997 394 2113 634 
Q 2247 906 2284 1214 
Q 2322 1522 2322 1978 
Q 2213 1719 2008 1553 
Q 1803 1388 1538 1388 
Q 1166 1388 873 1589 
Q 581 1791 425 2120 
Q 269 2450 269 2822 
Q 269 3206 444 3539 
Q 619 3872 928 4067 
Q 1238 4263 1631 4263 
Q 2019 4263 2280 4052 
Q 2541 3841 2678 3508 
Q 2816 3175 2870 2803 
Q 2925 2431 2925 2069 
Q 2925 1575 2744 1061 
Q 2563 547 2202 203 
Q 1841 -141 1331 -141 
Q 953 -141 690 37 
Q 428 216 428 575 
Q 428 706 517 795 
Q 606 884 738 884 
Q 866 884 955 795 
Q 1044 706 1044 575 
Q 1044 450 953 359 
Q 863 269 738 269 
L 722 269 
z
M 1563 1556 
Q 1825 1556 1992 1732 
Q 2159 1909 2234 2171 
Q 2309 2434 2309 2694 
L 2309 2816 
L 2309 2841 
Q 2309 3322 2168 3700 
Q 2028 4078 1631 4078 
Q 1378 4078 1220 3967 
Q 1063 3856 988 3672 
Q 913 3488 892 3278 
Q 872 3069 872 2822 
Q 872 2459 906 2203 
Q 941 1947 1094 1751 
Q 1247 1556 1563 1556 
z
" transform="scale(0.015625)"/>
       </defs>
       <use xlink:href="#Cmr10-39"/>
       <use xlink:href="#Cmr10-30" x="50"/>
      </g>
     </g>
    </g>
    <g id="ytick_3">
     <g id="line2d_19">
      <path d="M 41.7 50.244942 
L 245.99952 50.244942 
" clip-path="url(#p209c95a8b8)" style="fill: none; stroke: #b0b0b0; stroke-opacity: 0.3; stroke-width: 0.8; stroke-linecap: square"/>
     </g>
     <g id="line2d_20">
      <g>
       <use xlink:href="#m43119dcc82" x="41.7" y="50.244942" style="stroke: #000000; stroke-width: 0.8"/>
      </g>
     </g>
     <g id="text_3">
      <!-- 180 -->
      <g transform="translate(21.2 53.36752)scale(0.09 -0.09)">
       <defs>
        <path id="Cmr10-31" d="M 594 0 
L 594 225 
Q 1394 225 1394 428 
L 1394 3788 
Q 1063 3628 556 3628 
L 556 3853 
Q 1341 3853 1741 4263 
L 1831 4263 
Q 1853 4263 1873 4245 
Q 1894 4228 1894 4206 
L 1894 428 
Q 1894 225 2694 225 
L 2694 0 
L 594 0 
z
" transform="scale(0.015625)"/>
        <path id="Cmr10-38" d="M 269 972 
Q 269 1356 522 1651 
Q 775 1947 1172 2144 
L 934 2297 
Q 716 2441 578 2680 
Q 441 2919 441 3181 
Q 441 3488 602 3734 
Q 763 3981 1030 4122 
Q 1297 4263 1600 4263 
Q 1884 4263 2148 4147 
Q 2413 4031 2583 3815 
Q 2753 3600 2753 3303 
Q 2753 3088 2651 2903 
Q 2550 2719 2373 2572 
Q 2197 2425 1997 2322 
L 2363 2088 
Q 2616 1922 2770 1653 
Q 2925 1384 2925 1088 
Q 2925 741 2739 456 
Q 2553 172 2247 15 
Q 1941 -141 1600 -141 
Q 1269 -141 961 -6 
Q 653 128 461 383 
Q 269 638 269 972 
z
M 616 972 
Q 616 719 755 509 
Q 894 300 1122 181 
Q 1350 63 1600 63 
Q 1972 63 2275 280 
Q 2578 497 2578 856 
Q 2578 978 2529 1098 
Q 2481 1219 2395 1317 
Q 2309 1416 2203 1478 
L 1344 2034 
Q 1144 1928 976 1765 
Q 809 1603 712 1400 
Q 616 1197 616 972 
z
M 1056 2925 
L 1831 2425 
Q 2100 2581 2272 2803 
Q 2444 3025 2444 3303 
Q 2444 3519 2323 3698 
Q 2203 3878 2009 3978 
Q 1816 4078 1594 4078 
Q 1400 4078 1203 4003 
Q 1006 3928 878 3779 
Q 750 3631 750 3431 
Q 750 3131 1056 2925 
z
" transform="scale(0.015625)"/>
       </defs>
       <use xlink:href="#Cmr10-31"/>
       <use xlink:href="#Cmr10-38" x="50"/>
       <use xlink:href="#Cmr10-30" x="100"/>
      </g>
     </g>
    </g>
    <g id="ytick_4">
     <g id="line2d_21">
      <path d="M 41.7 35.472471 
L 245.99952 35.472471 
" clip-path="url(#p209c95a8b8)" style="fill: none; stroke: #b0b0b0; stroke-opacity: 0.3; stroke-width: 0.8; stroke-linecap: square"/>
     </g>
     <g id="line2d_22">
      <g>
       <use xlink:href="#m43119dcc82" x="41.7" y="35.472471" style="stroke: #000000; stroke-width: 0.8"/>
      </g>
     </g>
     <g id="text_4">
      <!-- 270 -->
      <g transform="translate(21.2 38.595049)scale(0.09 -0.09)">
       <defs>
        <path id="Cmr10-32" d="M 319 0 
L 319 172 
Q 319 188 331 206 
L 1325 1306 
Q 1550 1550 1690 1715 
Q 1831 1881 1968 2097 
Q 2106 2313 2186 2536 
Q 2266 2759 2266 3009 
Q 2266 3272 2169 3511 
Q 2072 3750 1880 3894 
Q 1688 4038 1416 4038 
Q 1138 4038 916 3870 
Q 694 3703 603 3438 
Q 628 3444 672 3444 
Q 816 3444 917 3347 
Q 1019 3250 1019 3097 
Q 1019 2950 917 2848 
Q 816 2747 672 2747 
Q 522 2747 420 2851 
Q 319 2956 319 3097 
Q 319 3338 409 3548 
Q 500 3759 670 3923 
Q 841 4088 1055 4175 
Q 1269 4263 1509 4263 
Q 1875 4263 2190 4108 
Q 2506 3953 2690 3670 
Q 2875 3388 2875 3009 
Q 2875 2731 2753 2481 
Q 2631 2231 2440 2026 
Q 2250 1822 1953 1562 
Q 1656 1303 1563 1216 
L 838 519 
L 1453 519 
Q 1906 519 2211 526 
Q 2516 534 2534 550 
Q 2609 631 2688 1141 
L 2875 1141 
L 2694 0 
L 319 0 
z
" transform="scale(0.015625)"/>
        <path id="Cmr10-37" d="M 1113 166 
Q 1113 522 1175 862 
Q 1238 1203 1358 1536 
Q 1478 1869 1648 2189 
Q 1819 2509 2022 2791 
L 2606 3603 
L 1875 3603 
Q 738 3603 703 3572 
Q 619 3469 544 2981 
L 359 2981 
L 569 4325 
L 756 4325 
L 756 4306 
Q 756 4191 1147 4156 
Q 1538 4122 1913 4122 
L 3103 4122 
L 3103 3956 
Q 3103 3950 3101 3947 
Q 3100 3944 3097 3938 
L 2216 2700 
Q 1891 2219 1809 1631 
Q 1728 1044 1728 166 
Q 1728 41 1637 -50 
Q 1547 -141 1422 -141 
Q 1294 -141 1203 -50 
Q 1113 41 1113 166 
z
" transform="scale(0.015625)"/>
       </defs>
       <use xlink:href="#Cmr10-32"/>
       <use xlink:href="#Cmr10-37" x="50"/>
       <use xlink:href="#Cmr10-30" x="100"/>
      </g>
     </g>
    </g>
    <g id="ytick_5">
     <g id="line2d_23">
      <path d="M 41.7 20.7 
L 245.99952 20.7 
" clip-path="url(#p209c95a8b8)" style="fill: none; stroke: #b0b0b0; stroke-opacity: 0.3; stroke-width: 0.8; stroke-linecap: square"/>
     </g>
     <g id="line2d_24">
      <g>
       <use xlink:href="#m43119dcc82" x="41.7" y="20.7" style="stroke: #000000; stroke-width: 0.8"/>
      </g>
     </g>
     <g id="text_5">
      <!-- 360 -->
      <g transform="translate(21.2 23.822578)scale(0.09 -0.09)">
       <defs>
        <path id="Cmr10-33" d="M 609 494 
Q 759 275 1012 169 
Q 1266 63 1556 63 
Q 1928 63 2084 380 
Q 2241 697 2241 1100 
Q 2241 1281 2208 1462 
Q 2175 1644 2097 1800 
Q 2019 1956 1883 2050 
Q 1747 2144 1550 2144 
L 1125 2144 
Q 1069 2144 1069 2203 
L 1069 2259 
Q 1069 2309 1125 2309 
L 1478 2338 
Q 1703 2338 1851 2506 
Q 2000 2675 2069 2917 
Q 2138 3159 2138 3378 
Q 2138 3684 1994 3881 
Q 1850 4078 1556 4078 
Q 1313 4078 1091 3986 
Q 869 3894 738 3706 
Q 750 3709 759 3711 
Q 769 3713 781 3713 
Q 925 3713 1022 3613 
Q 1119 3513 1119 3372 
Q 1119 3234 1022 3134 
Q 925 3034 781 3034 
Q 641 3034 541 3134 
Q 441 3234 441 3372 
Q 441 3647 606 3850 
Q 772 4053 1033 4158 
Q 1294 4263 1556 4263 
Q 1750 4263 1965 4205 
Q 2181 4147 2356 4039 
Q 2531 3931 2642 3762 
Q 2753 3594 2753 3378 
Q 2753 3109 2633 2881 
Q 2513 2653 2303 2487 
Q 2094 2322 1844 2241 
Q 2122 2188 2372 2031 
Q 2622 1875 2773 1631 
Q 2925 1388 2925 1106 
Q 2925 753 2731 467 
Q 2538 181 2222 20 
Q 1906 -141 1556 -141 
Q 1256 -141 954 -26 
Q 653 88 461 316 
Q 269 544 269 863 
Q 269 1022 375 1128 
Q 481 1234 641 1234 
Q 744 1234 830 1186 
Q 916 1138 964 1050 
Q 1013 963 1013 863 
Q 1013 706 903 600 
Q 794 494 641 494 
L 609 494 
z
" transform="scale(0.015625)"/>
        <path id="Cmr10-36" d="M 1600 -141 
Q 1203 -141 937 70 
Q 672 281 526 617 
Q 381 953 325 1322 
Q 269 1691 269 2069 
Q 269 2575 466 3084 
Q 663 3594 1045 3928 
Q 1428 4263 1953 4263 
Q 2172 4263 2361 4180 
Q 2550 4097 2658 3936 
Q 2766 3775 2766 3547 
Q 2766 3416 2677 3327 
Q 2588 3238 2456 3238 
Q 2331 3238 2240 3328 
Q 2150 3419 2150 3547 
Q 2150 3672 2240 3762 
Q 2331 3853 2456 3853 
L 2491 3853 
Q 2409 3969 2261 4023 
Q 2113 4078 1953 4078 
Q 1759 4078 1595 3993 
Q 1431 3909 1300 3765 
Q 1169 3622 1081 3448 
Q 994 3275 945 3053 
Q 897 2831 884 2637 
Q 872 2444 872 2150 
Q 984 2413 1190 2580 
Q 1397 2747 1656 2747 
Q 1941 2747 2175 2631 
Q 2409 2516 2578 2311 
Q 2747 2106 2836 1843 
Q 2925 1581 2925 1313 
Q 2925 938 2758 598 
Q 2591 259 2287 59 
Q 1984 -141 1600 -141 
z
M 1600 63 
Q 1847 63 1997 175 
Q 2147 288 2217 473 
Q 2288 659 2305 848 
Q 2322 1038 2322 1313 
Q 2322 1675 2287 1931 
Q 2253 2188 2100 2383 
Q 1947 2578 1631 2578 
Q 1372 2578 1205 2403 
Q 1038 2228 961 1961 
Q 884 1694 884 1447 
Q 884 1363 891 1319 
Q 891 1309 889 1303 
Q 888 1297 884 1288 
Q 884 1013 940 731 
Q 997 450 1156 256 
Q 1316 63 1600 63 
z
" transform="scale(0.015625)"/>
       </defs>
       <use xlink:href="#Cmr10-33"/>
       <use xlink:href="#Cmr10-36" x="50"/>
       <use xlink:href="#Cmr10-30" x="100"/>
      </g>
     </g>
    </g>
    <g id="text_6">
     <!-- Azimuth [deg] -->
     <g transform="translate(14.7 81.184786)rotate(-90)scale(0.1 -0.1)">
      <defs>
       <path id="Cmr10-41" d="M 206 0 
L 206 225 
Q 778 225 909 603 
L 2253 4513 
Q 2272 4581 2356 4581 
L 2438 4581 
Q 2522 4581 2541 4513 
L 3944 428 
Q 4003 294 4170 259 
Q 4338 225 4588 225 
L 4588 0 
L 2803 0 
L 2803 225 
Q 3334 225 3334 397 
L 3334 428 
L 2988 1428 
L 1434 1428 
L 1147 603 
Q 1141 581 1141 538 
Q 1141 378 1292 301 
Q 1444 225 1619 225 
L 1619 0 
L 206 0 
z
M 1509 1650 
L 2913 1650 
L 2209 3694 
L 1509 1650 
z
" transform="scale(0.015625)"/>
       <path id="Cmr10-7a" d="M 250 0 
Q 178 0 178 72 
L 178 122 
Q 178 147 197 166 
L 1984 2591 
L 1409 2591 
Q 1138 2591 961 2556 
Q 784 2522 670 2426 
Q 556 2331 504 2164 
Q 453 1997 453 1703 
L 269 1703 
L 341 2759 
L 2484 2759 
Q 2513 2759 2533 2739 
Q 2553 2719 2553 2688 
L 2553 2650 
Q 2553 2631 2541 2606 
L 750 184 
L 1363 184 
Q 1641 184 1827 218 
Q 2013 253 2144 384 
Q 2266 506 2311 712 
Q 2356 919 2381 1222 
L 2566 1222 
L 2456 0 
L 250 0 
z
" transform="scale(0.015625)"/>
       <path id="Cmr10-69" d="M 197 0 
L 197 225 
Q 416 225 556 259 
Q 697 294 697 428 
L 697 2175 
Q 697 2422 601 2478 
Q 506 2534 225 2534 
L 225 2759 
L 1147 2828 
L 1147 428 
Q 1147 294 1269 259 
Q 1391 225 1594 225 
L 1594 0 
L 197 0 
z
M 469 3928 
Q 469 4069 575 4175 
Q 681 4281 819 4281 
Q 909 4281 993 4234 
Q 1078 4188 1125 4103 
Q 1172 4019 1172 3928 
Q 1172 3791 1065 3684 
Q 959 3578 819 3578 
Q 681 3578 575 3684 
Q 469 3791 469 3928 
z
" transform="scale(0.015625)"/>
       <path id="Cmr10-6d" d="M 191 0 
L 191 225 
Q 409 225 550 259 
Q 691 294 691 428 
L 691 2175 
Q 691 2347 639 2423 
Q 588 2500 491 2517 
Q 394 2534 191 2534 
L 191 2759 
L 1119 2828 
L 1119 2203 
Q 1247 2478 1498 2653 
Q 1750 2828 2047 2828 
Q 2784 2828 2913 2228 
Q 3041 2497 3287 2662 
Q 3534 2828 3828 2828 
Q 4119 2828 4317 2734 
Q 4516 2641 4616 2448 
Q 4716 2256 4716 1966 
L 4716 428 
Q 4716 294 4858 259 
Q 5000 225 5216 225 
L 5216 0 
L 3750 0 
L 3750 225 
Q 3969 225 4109 259 
Q 4250 294 4250 428 
L 4250 1947 
Q 4250 2269 4159 2466 
Q 4069 2663 3788 2663 
Q 3419 2663 3178 2366 
Q 2938 2069 2938 1691 
L 2938 428 
Q 2938 294 3078 259 
Q 3219 225 3438 225 
L 3438 0 
L 1972 0 
L 1972 225 
Q 2191 225 2331 259 
Q 2472 294 2472 428 
L 2472 1947 
Q 2472 2259 2381 2461 
Q 2291 2663 2009 2663 
Q 1638 2663 1398 2366 
Q 1159 2069 1159 1691 
L 1159 428 
Q 1159 294 1300 259 
Q 1441 225 1656 225 
L 1656 0 
L 191 0 
z
" transform="scale(0.015625)"/>
       <path id="Cmr10-75" d="M 691 763 
L 691 2175 
Q 691 2347 639 2423 
Q 588 2500 491 2517 
Q 394 2534 191 2534 
L 191 2759 
L 1159 2828 
L 1159 763 
Q 1159 513 1195 373 
Q 1231 234 1348 165 
Q 1466 97 1722 97 
Q 2066 97 2269 384 
Q 2472 672 2472 1038 
L 2472 2175 
Q 2472 2347 2419 2423 
Q 2366 2500 2270 2517 
Q 2175 2534 1972 2534 
L 1972 2759 
L 2938 2828 
L 2938 581 
Q 2938 413 2989 336 
Q 3041 259 3137 242 
Q 3234 225 3438 225 
L 3438 0 
L 2491 -72 
L 2491 469 
Q 2372 228 2159 78 
Q 1947 -72 1691 -72 
Q 1231 -72 961 123 
Q 691 319 691 763 
z
" transform="scale(0.015625)"/>
       <path id="Cmr10-74" d="M 653 769 
L 653 2534 
L 122 2534 
L 122 2700 
Q 541 2700 737 3090 
Q 934 3481 934 3938 
L 1119 3938 
L 1119 2759 
L 2022 2759 
L 2022 2534 
L 1119 2534 
L 1119 781 
Q 1119 516 1208 316 
Q 1297 116 1528 116 
Q 1747 116 1844 327 
Q 1941 538 1941 781 
L 1941 1159 
L 2125 1159 
L 2125 769 
Q 2125 569 2051 373 
Q 1978 178 1834 53 
Q 1691 -72 1484 -72 
Q 1100 -72 876 158 
Q 653 388 653 769 
z
" transform="scale(0.015625)"/>
       <path id="Cmr10-68" d="M 191 0 
L 191 225 
Q 409 225 550 259 
Q 691 294 691 428 
L 691 3788 
Q 691 3959 639 4036 
Q 588 4113 491 4130 
Q 394 4147 191 4147 
L 191 4372 
L 1141 4441 
L 1141 2241 
Q 1275 2506 1515 2667 
Q 1756 2828 2047 2828 
Q 2491 2828 2714 2615 
Q 2938 2403 2938 1966 
L 2938 428 
Q 2938 294 3078 259 
Q 3219 225 3438 225 
L 3438 0 
L 1972 0 
L 1972 225 
Q 2191 225 2331 259 
Q 2472 294 2472 428 
L 2472 1947 
Q 2472 2259 2381 2461 
Q 2291 2663 2009 2663 
Q 1638 2663 1398 2366 
Q 1159 2069 1159 1691 
L 1159 428 
Q 1159 294 1300 259 
Q 1441 225 1656 225 
L 1656 0 
L 191 0 
z
" transform="scale(0.015625)"/>
       <path id="Cmr10-20" transform="scale(0.015625)"/>
       <path id="Cmr10-5b" d="M 756 -1600 
L 756 4800 
L 1631 4800 
L 1631 4544 
L 1013 4544 
L 1013 -1344 
L 1631 -1344 
L 1631 -1600 
L 756 -1600 
z
" transform="scale(0.015625)"/>
       <path id="Cmr10-64" d="M 1563 -72 
Q 1184 -72 871 133 
Q 559 338 386 672 
Q 213 1006 213 1381 
Q 213 1769 402 2101 
Q 591 2434 916 2631 
Q 1241 2828 1631 2828 
Q 1866 2828 2075 2729 
Q 2284 2631 2438 2456 
L 2438 3788 
Q 2438 3959 2386 4036 
Q 2334 4113 2239 4130 
Q 2144 4147 1941 4147 
L 1941 4372 
L 2888 4441 
L 2888 581 
Q 2888 413 2939 336 
Q 2991 259 3086 242 
Q 3181 225 3384 225 
L 3384 0 
L 2419 -72 
L 2419 331 
Q 2253 141 2025 34 
Q 1797 -72 1563 -72 
z
M 909 556 
Q 1019 347 1201 222 
Q 1384 97 1600 97 
Q 1866 97 2087 250 
Q 2309 403 2419 647 
L 2419 2181 
Q 2344 2322 2230 2433 
Q 2116 2544 1973 2603 
Q 1831 2663 1672 2663 
Q 1338 2663 1134 2473 
Q 931 2284 850 1990 
Q 769 1697 769 1375 
Q 769 1119 795 928 
Q 822 738 909 556 
z
" transform="scale(0.015625)"/>
       <path id="Cmr10-65" d="M 1594 -72 
Q 1203 -72 876 133 
Q 550 338 364 680 
Q 178 1022 178 1403 
Q 178 1778 348 2115 
Q 519 2453 823 2661 
Q 1128 2869 1503 2869 
Q 1797 2869 2014 2770 
Q 2231 2672 2372 2497 
Q 2513 2322 2584 2084 
Q 2656 1847 2656 1563 
Q 2656 1478 2591 1478 
L 738 1478 
L 738 1409 
Q 738 878 952 497 
Q 1166 116 1650 116 
Q 1847 116 2014 203 
Q 2181 291 2304 447 
Q 2428 603 2472 781 
Q 2478 803 2495 820 
Q 2513 838 2534 838 
L 2591 838 
Q 2656 838 2656 756 
Q 2566 394 2266 161 
Q 1966 -72 1594 -72 
z
M 744 1638 
L 2203 1638 
Q 2203 1878 2136 2125 
Q 2069 2372 1912 2536 
Q 1756 2700 1503 2700 
Q 1141 2700 942 2361 
Q 744 2022 744 1638 
z
" transform="scale(0.015625)"/>
       <path id="Cmr10-67" d="M 178 -500 
Q 178 -272 343 -101 
Q 509 69 738 141 
Q 609 238 542 384 
Q 475 531 475 697 
Q 475 997 666 1228 
Q 372 1516 372 1888 
Q 372 2088 458 2263 
Q 544 2438 697 2566 
Q 850 2694 1037 2761 
Q 1225 2828 1422 2828 
Q 1803 2828 2106 2606 
Q 2238 2747 2417 2823 
Q 2597 2900 2791 2900 
Q 2928 2900 3015 2801 
Q 3103 2703 3103 2566 
Q 3103 2488 3043 2428 
Q 2984 2369 2906 2369 
Q 2825 2369 2765 2428 
Q 2706 2488 2706 2566 
Q 2706 2684 2784 2731 
Q 2453 2731 2216 2503 
Q 2331 2388 2401 2220 
Q 2472 2053 2472 1888 
Q 2472 1616 2322 1398 
Q 2172 1181 1926 1061 
Q 1681 941 1422 941 
Q 1072 941 781 1131 
Q 691 1006 691 850 
Q 691 681 802 554 
Q 913 428 1081 428 
L 1606 428 
Q 1988 428 2294 359 
Q 2600 291 2808 84 
Q 3016 -122 3016 -500 
Q 3016 -781 2778 -967 
Q 2541 -1153 2211 -1236 
Q 1881 -1319 1600 -1319 
Q 1316 -1319 984 -1236 
Q 653 -1153 415 -967 
Q 178 -781 178 -500 
z
M 538 -500 
Q 538 -716 713 -861 
Q 888 -1006 1134 -1076 
Q 1381 -1147 1600 -1147 
Q 1816 -1147 2062 -1076 
Q 2309 -1006 2482 -861 
Q 2656 -716 2656 -500 
Q 2656 -166 2350 -67 
Q 2044 31 1606 31 
L 1081 31 
Q 934 31 811 -39 
Q 688 -109 613 -236 
Q 538 -363 538 -500 
z
M 1422 1113 
Q 1966 1113 1966 1888 
Q 1966 2222 1850 2439 
Q 1734 2656 1422 2656 
Q 1109 2656 993 2439 
Q 878 2222 878 1888 
Q 878 1675 922 1503 
Q 966 1331 1084 1222 
Q 1203 1113 1422 1113 
z
" transform="scale(0.015625)"/>
       <path id="Cmr10-5d" d="M 141 -1600 
L 141 -1344 
L 763 -1344 
L 763 4544 
L 141 4544 
L 141 4800 
L 1019 4800 
L 1019 -1600 
L 141 -1600 
z
" transform="scale(0.015625)"/>
      </defs>
      <use xlink:href="#Cmr10-41"/>
      <use xlink:href="#Cmr10-7a" x="75"/>
      <use xlink:href="#Cmr10-69" x="119.384766"/>
      <use xlink:href="#Cmr10-6d" x="147.070312"/>
      <use xlink:href="#Cmr10-75" x="230.371094"/>
      <use xlink:href="#Cmr10-74" x="285.888672"/>
      <use xlink:href="#Cmr10-68" x="324.707031"/>
      <use xlink:href="#Cmr10-20" x="380.224609"/>
      <use xlink:href="#Cmr10-5b" x="413.525391"/>
      <use xlink:href="#Cmr10-64" x="441.210938"/>
      <use xlink:href="#Cmr10-65" x="496.728516"/>
      <use xlink:href="#Cmr10-67" x="541.113281"/>
      <use xlink:href="#Cmr10-5d" x="591.113281"/>
     </g>
    </g>
   </g>
   <g id="line2d_25">
    <path d="M 50.986342 69.377763 
L 51.648768 68.746828 
L 52.174994 67.931603 
L 52.620738 66.81441 
L 53.023146 65.169008 
L 53.413172 62.555352 
L 53.902253 57.504922 
L 54.558488 51.252811 
L 55.016614 48.928658 
L 55.487122 47.604026 
L 55.994776 46.796917 
L 56.558147 46.302464 
L 57.208191 46.025473 
L 57.994434 45.938839 
L 58.954023 46.06598 
L 60.093148 46.448485 
L 61.393236 47.126683 
L 62.829523 48.134287 
L 64.47011 49.569028 
L 66.779314 51.92058 
L 69.980006 55.134043 
L 71.868229 56.699865 
L 73.700734 57.932371 
L 75.650866 58.973953 
L 77.879588 59.905834 
L 80.715017 60.836232 
L 87.035921 62.826282 
L 88.608408 63.614783 
L 89.840396 64.478333 
L 90.892848 65.488267 
L 91.864819 66.734482 
L 92.855362 68.382354 
L 94.105922 70.943776 
L 95.932236 74.643975 
L 96.86087 76.011169 
L 97.696641 76.864396 
L 98.507648 77.38369 
L 99.324846 77.646786 
L 100.191572 77.69005 
L 101.144969 77.509276 
L 102.240758 77.066813 
L 103.577991 76.274411 
L 105.490977 74.854331 
L 109.843176 71.565031 
L 112.090471 70.198287 
L 114.554447 68.967419 
L 118.10802 67.471139 
L 121.890657 65.818247 
L 123.840789 64.719378 
L 125.407085 63.583348 
L 126.800036 62.296497 
L 128.168224 60.722063 
L 129.777857 58.503665 
L 132.823777 54.242429 
L 134.068147 52.935677 
L 135.219653 52.041133 
L 136.358778 51.43447 
L 137.528857 51.061661 
L 138.779417 50.89873 
L 140.141414 50.948916 
L 141.676756 51.233311 
L 143.496879 51.806205 
L 145.948473 52.831038 
L 152.108413 55.494701 
L 154.615726 56.276909 
L 156.980647 56.783465 
L 159.258897 57.046533 
L 161.413328 57.074799 
L 163.369651 56.882826 
L 165.090719 56.495968 
L 166.588916 55.935509 
L 167.901385 55.208649 
L 169.071464 54.305542 
L 170.14868 53.189429 
L 171.182559 51.79125 
L 172.247393 49.963209 
L 173.522718 47.29513 
L 176.636738 40.588635 
L 178.079216 38.167614 
L 181.298481 32.988528 
L 182.078534 31.111231 
L 182.759532 28.868073 
L 183.446722 25.781183 
L 184.356783 20.726182 
M 184.369165 79.747226 
L 185.254463 75.45468 
L 185.960225 73.085472 
L 186.684559 71.401408 
L 187.483185 70.095702 
L 188.405628 69.01286 
L 189.52618 68.046255 
L 190.987231 67.092112 
L 193.284053 65.889774 
L 196.79429 64.033944 
L 198.441068 62.895979 
L 199.790683 61.694368 
L 201.004098 60.312729 
L 202.19275 58.612478 
L 203.548556 56.256956 
L 206.82973 50.371433 
L 207.993618 48.857016 
L 209.11417 47.754425 
L 210.265677 46.928193 
L 211.491474 46.320827 
L 212.828707 45.908329 
L 214.289758 45.692345 
L 215.887009 45.683446 
L 217.601887 45.898216 
L 219.42201 46.35257 
L 221.353569 47.067261 
L 223.489427 48.1015 
L 226.27533 49.719705 
L 230.918501 52.426127 
L 233.048169 53.385731 
L 234.911628 53.987401 
L 236.595551 54.303082 
L 236.713178 54.315996 
L 236.713178 54.315996 
" clip-path="url(#p209c95a8b8)" style="fill: none; stroke: #2ca02c; stroke-width: 1.5; stroke-linecap: square"/>
   </g>
   <g id="patch_3">
    <path d="M 41.7 79.789885 
L 41.7 20.7 
" style="fill: none; stroke: #000000; stroke-width: 0.8; stroke-linejoin: miter; stroke-linecap: square"/>
   </g>
   <g id="patch_4">
    <path d="M 245.99952 79.789885 
L 245.99952 20.7 
" style="fill: none; stroke: #000000; stroke-width: 0.8; stroke-linejoin: miter; stroke-linecap: square"/>
   </g>
   <g id="patch_5">
    <path d="M 41.7 79.789885 
L 245.99952 79.789885 
" style="fill: none; stroke: #000000; stroke-width: 0.8; stroke-linejoin: miter; stroke-linecap: square"/>
   </g>
   <g id="patch_6">
    <path d="M 41.7 20.7 
L 245.99952 20.7 
" style="fill: none; stroke: #000000; stroke-width: 0.8; stroke-linejoin: miter; stroke-linecap: square"/>
   </g>
   <g id="text_7">
    <!-- Azimuth angle (USV to UUV) -->
    <g transform="translate(76.952104 14.7)scale(0.1 -0.1)">
     <defs>
      <path id="Cmr10-61" d="M 256 628 
Q 256 1009 556 1248 
Q 856 1488 1276 1586 
Q 1697 1684 2075 1684 
L 2075 1947 
Q 2075 2131 1994 2304 
Q 1913 2478 1759 2589 
Q 1606 2700 1422 2700 
Q 997 2700 775 2509 
Q 897 2509 976 2417 
Q 1056 2325 1056 2203 
Q 1056 2075 965 1984 
Q 875 1894 750 1894 
Q 622 1894 531 1984 
Q 441 2075 441 2203 
Q 441 2541 747 2705 
Q 1053 2869 1422 2869 
Q 1681 2869 1943 2758 
Q 2206 2647 2373 2440 
Q 2541 2234 2541 1959 
L 2541 519 
Q 2541 394 2594 289 
Q 2647 184 2759 184 
Q 2866 184 2917 290 
Q 2969 397 2969 519 
L 2969 928 
L 3156 928 
L 3156 519 
Q 3156 375 3081 245 
Q 3006 116 2879 39 
Q 2753 -38 2606 -38 
Q 2419 -38 2283 107 
Q 2147 253 2131 453 
Q 2013 213 1781 70 
Q 1550 -72 1288 -72 
Q 1044 -72 808 0 
Q 572 72 414 226 
Q 256 381 256 628 
z
M 775 628 
Q 775 403 940 250 
Q 1106 97 1331 97 
Q 1538 97 1706 200 
Q 1875 303 1975 481 
Q 2075 659 2075 856 
L 2075 1522 
Q 1784 1522 1479 1426 
Q 1175 1331 975 1128 
Q 775 925 775 628 
z
" transform="scale(0.015625)"/>
      <path id="Cmr10-6e" d="M 191 0 
L 191 225 
Q 409 225 550 259 
Q 691 294 691 428 
L 691 2175 
Q 691 2347 639 2423 
Q 588 2500 491 2517 
Q 394 2534 191 2534 
L 191 2759 
L 1119 2828 
L 1119 2203 
Q 1247 2478 1498 2653 
Q 1750 2828 2047 2828 
Q 2491 2828 2714 2615 
Q 2938 2403 2938 1966 
L 2938 428 
Q 2938 294 3078 259 
Q 3219 225 3438 225 
L 3438 0 
L 1972 0 
L 1972 225 
Q 2191 225 2331 259 
Q 2472 294 2472 428 
L 2472 1947 
Q 2472 2259 2381 2461 
Q 2291 2663 2009 2663 
Q 1638 2663 1398 2366 
Q 1159 2069 1159 1691 
L 1159 428 
Q 1159 294 1300 259 
Q 1441 225 1656 225 
L 1656 0 
L 191 0 
z
" transform="scale(0.015625)"/>
      <path id="Cmr10-6c" d="M 197 0 
L 197 225 
Q 416 225 556 259 
Q 697 294 697 428 
L 697 3788 
Q 697 3959 645 4036 
Q 594 4113 497 4130 
Q 400 4147 197 4147 
L 197 4372 
L 1147 4441 
L 1147 428 
Q 1147 294 1287 259 
Q 1428 225 1644 225 
L 1644 0 
L 197 0 
z
" transform="scale(0.015625)"/>
      <path id="Cmr10-28" d="M 1984 -1588 
Q 1628 -1306 1370 -942 
Q 1113 -578 948 -165 
Q 784 247 703 697 
Q 622 1147 622 1600 
Q 622 2059 703 2509 
Q 784 2959 951 3375 
Q 1119 3791 1378 4153 
Q 1638 4516 1984 4788 
Q 1984 4800 2016 4800 
L 2075 4800 
Q 2094 4800 2109 4783 
Q 2125 4766 2125 4744 
Q 2125 4716 2113 4703 
Q 1800 4397 1592 4047 
Q 1384 3697 1257 3301 
Q 1131 2906 1075 2482 
Q 1019 2059 1019 1600 
Q 1019 -434 2106 -1491 
Q 2125 -1509 2125 -1544 
Q 2125 -1559 2108 -1579 
Q 2091 -1600 2075 -1600 
L 2016 -1600 
Q 1984 -1600 1984 -1588 
z
" transform="scale(0.015625)"/>
      <path id="Cmr10-55" d="M 856 1447 
L 856 3944 
Q 856 4147 197 4147 
L 197 4372 
L 2113 4372 
L 2113 4147 
Q 1453 4147 1453 3944 
L 1453 1472 
Q 1453 1116 1551 798 
Q 1650 481 1883 282 
Q 2116 84 2491 84 
Q 2856 84 3134 276 
Q 3413 469 3563 787 
Q 3713 1106 3713 1472 
L 3713 3769 
Q 3713 4147 3053 4147 
L 3053 4372 
L 4594 4372 
L 4594 4147 
Q 3938 4147 3938 3769 
L 3938 1447 
Q 3938 1150 3833 865 
Q 3728 581 3529 351 
Q 3331 122 3062 -9 
Q 2794 -141 2491 -141 
Q 2066 -141 1686 71 
Q 1306 284 1081 650 
Q 856 1016 856 1447 
z
" transform="scale(0.015625)"/>
      <path id="Cmr10-53" d="M 359 -91 
L 359 1403 
Q 359 1453 416 1453 
L 494 1453 
Q 513 1453 528 1437 
Q 544 1422 544 1403 
Q 544 775 933 429 
Q 1322 84 1953 84 
Q 2175 84 2362 212 
Q 2550 341 2654 548 
Q 2759 756 2759 978 
Q 2759 1172 2681 1355 
Q 2603 1538 2456 1672 
Q 2309 1806 2125 1850 
L 1294 2053 
Q 881 2163 620 2502 
Q 359 2841 359 3263 
Q 359 3594 528 3884 
Q 697 4175 983 4344 
Q 1269 4513 1600 4513 
Q 2241 4513 2619 4078 
L 2881 4494 
Q 2900 4513 2925 4513 
L 2969 4513 
Q 2988 4513 3005 4498 
Q 3022 4484 3022 4459 
L 3022 2975 
Q 3022 2919 2969 2919 
L 2894 2919 
Q 2834 2919 2834 2975 
Q 2834 3138 2779 3331 
Q 2725 3525 2628 3703 
Q 2531 3881 2419 3994 
Q 2109 4306 1600 4306 
Q 1381 4306 1197 4195 
Q 1013 4084 903 3893 
Q 794 3703 794 3494 
Q 794 3219 964 2995 
Q 1134 2772 1409 2700 
L 2241 2497 
Q 2447 2447 2630 2317 
Q 2813 2188 2934 2016 
Q 3056 1844 3125 1633 
Q 3194 1422 3194 1197 
Q 3194 850 3034 542 
Q 2875 234 2586 46 
Q 2297 -141 1953 -141 
Q 1741 -141 1519 -94 
Q 1297 -47 1109 50 
Q 922 147 769 300 
L 500 -122 
Q 481 -141 453 -141 
L 416 -141 
Q 359 -141 359 -91 
z
" transform="scale(0.015625)"/>
      <path id="Cmr10-56" d="M 2253 -72 
L 744 3944 
Q 688 4078 528 4112 
Q 369 4147 122 4147 
L 122 4372 
L 1881 4372 
L 1881 4147 
Q 1350 4147 1350 3981 
Q 1353 3972 1354 3964 
Q 1356 3956 1356 3944 
L 2584 678 
L 3744 3769 
Q 3756 3794 3756 3847 
Q 3756 4003 3612 4075 
Q 3469 4147 3291 4147 
L 3291 4372 
L 4672 4372 
L 4672 4147 
Q 4431 4147 4248 4058 
Q 4066 3969 3988 3769 
L 2541 -72 
Q 2522 -141 2438 -141 
L 2356 -141 
Q 2272 -141 2253 -72 
z
" transform="scale(0.015625)"/>
      <path id="Cmr10-6f" d="M 1600 -72 
Q 1216 -72 887 123 
Q 559 319 368 647 
Q 178 975 178 1363 
Q 178 1656 283 1928 
Q 388 2200 583 2414 
Q 778 2628 1037 2748 
Q 1297 2869 1600 2869 
Q 1994 2869 2317 2661 
Q 2641 2453 2828 2104 
Q 3016 1756 3016 1363 
Q 3016 978 2825 648 
Q 2634 319 2307 123 
Q 1981 -72 1600 -72 
z
M 1600 116 
Q 2113 116 2284 487 
Q 2456 859 2456 1434 
Q 2456 1756 2422 1967 
Q 2388 2178 2272 2350 
Q 2200 2456 2089 2536 
Q 1978 2616 1854 2658 
Q 1731 2700 1600 2700 
Q 1400 2700 1220 2609 
Q 1041 2519 922 2350 
Q 803 2169 770 1951 
Q 738 1734 738 1434 
Q 738 1075 800 789 
Q 863 503 1052 309 
Q 1241 116 1600 116 
z
" transform="scale(0.015625)"/>
      <path id="Cmr10-29" d="M 416 -1600 
Q 359 -1600 359 -1544 
Q 359 -1516 372 -1503 
Q 1466 -434 1466 1600 
Q 1466 3634 384 4691 
Q 359 4706 359 4744 
Q 359 4766 376 4783 
Q 394 4800 416 4800 
L 475 4800 
Q 494 4800 506 4788 
Q 966 4425 1272 3906 
Q 1578 3388 1720 2800 
Q 1863 2213 1863 1600 
Q 1863 1147 1786 708 
Q 1709 269 1542 -157 
Q 1375 -584 1119 -945 
Q 863 -1306 506 -1588 
Q 494 -1600 475 -1600 
L 416 -1600 
z
" transform="scale(0.015625)"/>
     </defs>
     <use xlink:href="#Cmr10-41"/>
     <use xlink:href="#Cmr10-7a" x="75"/>
     <use xlink:href="#Cmr10-69" x="119.384766"/>
     <use xlink:href="#Cmr10-6d" x="147.070312"/>
     <use xlink:href="#Cmr10-75" x="230.371094"/>
     <use xlink:href="#Cmr10-74" x="285.888672"/>
     <use xlink:href="#Cmr10-68" x="324.707031"/>
     <use xlink:href="#Cmr10-20" x="380.224609"/>
     <use xlink:href="#Cmr10-61" x="413.525391"/>
     <use xlink:href="#Cmr10-6e" x="463.525391"/>
     <use xlink:href="#Cmr10-67" x="519.042969"/>
     <use xlink:href="#Cmr10-6c" x="569.042969"/>
     <use xlink:href="#Cmr10-65" x="596.728516"/>
     <use xlink:href="#Cmr10-20" x="641.113281"/>
     <use xlink:href="#Cmr10-28" x="674.414062"/>
     <use xlink:href="#Cmr10-55" x="713.232422"/>
     <use xlink:href="#Cmr10-53" x="788.232422"/>
     <use xlink:href="#Cmr10-56" x="843.75"/>
     <use xlink:href="#Cmr10-20" x="918.75"/>
     <use xlink:href="#Cmr10-74" x="952.050781"/>
     <use xlink:href="#Cmr10-6f" x="990.869141"/>
     <use xlink:href="#Cmr10-20" x="1040.869141"/>
     <use xlink:href="#Cmr10-55" x="1074.169922"/>
     <use xlink:href="#Cmr10-55" x="1149.169922"/>
     <use xlink:href="#Cmr10-56" x="1224.169922"/>
     <use xlink:href="#Cmr10-29" x="1299.169922"/>
    </g>
   </g>
  </g>
  <g id="axes_2">
   <g id="patch_7">
    <path d="M 41.7 162.799546 
L 245.99952 162.799546 
L 245.99952 103.709661 
L 41.7 103.709661 
z
" style="fill: #ffffff"/>
   </g>
   <g id="matplotlib.axis_3">
    <g id="xtick_8">
     <g id="line2d_26">
      <path d="M 50.986342 162.799546 
L 50.986342 103.709661 
" clip-path="url(#pc34155234a)" style="fill: none; stroke: #b0b0b0; stroke-opacity: 0.3; stroke-width: 0.8; stroke-linecap: square"/>
     </g>
     <g id="line2d_27">
      <g>
       <use xlink:href="#mddbde00433" x="50.986342" y="162.799546" style="stroke: #000000; stroke-width: 0.8"/>
      </g>
     </g>
    </g>
    <g id="xtick_9">
     <g id="line2d_28">
      <path d="M 81.940815 162.799546 
L 81.940815 103.709661 
" clip-path="url(#pc34155234a)" style="fill: none; stroke: #b0b0b0; stroke-opacity: 0.3; stroke-width: 0.8; stroke-linecap: square"/>
     </g>
     <g id="line2d_29">
      <g>
       <use xlink:href="#mddbde00433" x="81.940815" y="162.799546" style="stroke: #000000; stroke-width: 0.8"/>
      </g>
     </g>
    </g>
    <g id="xtick_10">
     <g id="line2d_30">
      <path d="M 112.895287 162.799546 
L 112.895287 103.709661 
" clip-path="url(#pc34155234a)" style="fill: none; stroke: #b0b0b0; stroke-opacity: 0.3; stroke-width: 0.8; stroke-linecap: square"/>
     </g>
     <g id="line2d_31">
      <g>
       <use xlink:href="#mddbde00433" x="112.895287" y="162.799546" style="stroke: #000000; stroke-width: 0.8"/>
      </g>
     </g>
    </g>
    <g id="xtick_11">
     <g id="line2d_32">
      <path d="M 143.84976 162.799546 
L 143.84976 103.709661 
" clip-path="url(#pc34155234a)" style="fill: none; stroke: #b0b0b0; stroke-opacity: 0.3; stroke-width: 0.8; stroke-linecap: square"/>
     </g>
     <g id="line2d_33">
      <g>
       <use xlink:href="#mddbde00433" x="143.84976" y="162.799546" style="stroke: #000000; stroke-width: 0.8"/>
      </g>
     </g>
    </g>
    <g id="xtick_12">
     <g id="line2d_34">
      <path d="M 174.804233 162.799546 
L 174.804233 103.709661 
" clip-path="url(#pc34155234a)" style="fill: none; stroke: #b0b0b0; stroke-opacity: 0.3; stroke-width: 0.8; stroke-linecap: square"/>
     </g>
     <g id="line2d_35">
      <g>
       <use xlink:href="#mddbde00433" x="174.804233" y="162.799546" style="stroke: #000000; stroke-width: 0.8"/>
      </g>
     </g>
    </g>
    <g id="xtick_13">
     <g id="line2d_36">
      <path d="M 205.758705 162.799546 
L 205.758705 103.709661 
" clip-path="url(#pc34155234a)" style="fill: none; stroke: #b0b0b0; stroke-opacity: 0.3; stroke-width: 0.8; stroke-linecap: square"/>
     </g>
     <g id="line2d_37">
      <g>
       <use xlink:href="#mddbde00433" x="205.758705" y="162.799546" style="stroke: #000000; stroke-width: 0.8"/>
      </g>
     </g>
    </g>
    <g id="xtick_14">
     <g id="line2d_38">
      <path d="M 236.713178 162.799546 
L 236.713178 103.709661 
" clip-path="url(#pc34155234a)" style="fill: none; stroke: #b0b0b0; stroke-opacity: 0.3; stroke-width: 0.8; stroke-linecap: square"/>
     </g>
     <g id="line2d_39">
      <g>
       <use xlink:href="#mddbde00433" x="236.713178" y="162.799546" style="stroke: #000000; stroke-width: 0.8"/>
      </g>
     </g>
    </g>
   </g>
   <g id="matplotlib.axis_4">
    <g id="ytick_6">
     <g id="line2d_40">
      <path d="M 41.7 162.799546 
L 245.99952 162.799546 
" clip-path="url(#pc34155234a)" style="fill: none; stroke: #b0b0b0; stroke-opacity: 0.3; stroke-width: 0.8; stroke-linecap: square"/>
     </g>
     <g id="line2d_41">
      <g>
       <use xlink:href="#m43119dcc82" x="41.7" y="162.799546" style="stroke: #000000; stroke-width: 0.8"/>
      </g>
     </g>
     <g id="text_8">
      <!-- 0 -->
      <g transform="translate(30.2 165.922124)scale(0.09 -0.09)">
       <use xlink:href="#Cmr10-30"/>
      </g>
     </g>
    </g>
    <g id="ytick_7">
     <g id="line2d_42">
      <path d="M 41.7 148.027075 
L 245.99952 148.027075 
" clip-path="url(#pc34155234a)" style="fill: none; stroke: #b0b0b0; stroke-opacity: 0.3; stroke-width: 0.8; stroke-linecap: square"/>
     </g>
     <g id="line2d_43">
      <g>
       <use xlink:href="#m43119dcc82" x="41.7" y="148.027075" style="stroke: #000000; stroke-width: 0.8"/>
      </g>
     </g>
     <g id="text_9">
      <!-- 90 -->
      <g transform="translate(25.7 151.149653)scale(0.09 -0.09)">
       <use xlink:href="#Cmr10-39"/>
       <use xlink:href="#Cmr10-30" x="50"/>
      </g>
     </g>
    </g>
    <g id="ytick_8">
     <g id="line2d_44">
      <path d="M 41.7 133.254604 
L 245.99952 133.254604 
" clip-path="url(#pc34155234a)" style="fill: none; stroke: #b0b0b0; stroke-opacity: 0.3; stroke-width: 0.8; stroke-linecap: square"/>
     </g>
     <g id="line2d_45">
      <g>
       <use xlink:href="#m43119dcc82" x="41.7" y="133.254604" style="stroke: #000000; stroke-width: 0.8"/>
      </g>
     </g>
     <g id="text_10">
      <!-- 180 -->
      <g transform="translate(21.2 136.377182)scale(0.09 -0.09)">
       <use xlink:href="#Cmr10-31"/>
       <use xlink:href="#Cmr10-38" x="50"/>
       <use xlink:href="#Cmr10-30" x="100"/>
      </g>
     </g>
    </g>
    <g id="ytick_9">
     <g id="line2d_46">
      <path d="M 41.7 118.482133 
L 245.99952 118.482133 
" clip-path="url(#pc34155234a)" style="fill: none; stroke: #b0b0b0; stroke-opacity: 0.3; stroke-width: 0.8; stroke-linecap: square"/>
     </g>
     <g id="line2d_47">
      <g>
       <use xlink:href="#m43119dcc82" x="41.7" y="118.482133" style="stroke: #000000; stroke-width: 0.8"/>
      </g>
     </g>
     <g id="text_11">
      <!-- 270 -->
      <g transform="translate(21.2 121.604711)scale(0.09 -0.09)">
       <use xlink:href="#Cmr10-32"/>
       <use xlink:href="#Cmr10-37" x="50"/>
       <use xlink:href="#Cmr10-30" x="100"/>
      </g>
     </g>
    </g>
    <g id="ytick_10">
     <g id="line2d_48">
      <path d="M 41.7 103.709661 
L 245.99952 103.709661 
" clip-path="url(#pc34155234a)" style="fill: none; stroke: #b0b0b0; stroke-opacity: 0.3; stroke-width: 0.8; stroke-linecap: square"/>
     </g>
     <g id="line2d_49">
      <g>
       <use xlink:href="#m43119dcc82" x="41.7" y="103.709661" style="stroke: #000000; stroke-width: 0.8"/>
      </g>
     </g>
     <g id="text_12">
      <!-- 360 -->
      <g transform="translate(21.2 106.83224)scale(0.09 -0.09)">
       <use xlink:href="#Cmr10-33"/>
       <use xlink:href="#Cmr10-36" x="50"/>
       <use xlink:href="#Cmr10-30" x="100"/>
      </g>
     </g>
    </g>
    <g id="text_13">
     <!-- Heading [deg] -->
     <g transform="translate(14.7 163.088979)rotate(-90)scale(0.1 -0.1)">
      <defs>
       <path id="Cmr10-48" d="M 197 0 
L 197 225 
Q 856 225 856 428 
L 856 3944 
Q 856 4147 197 4147 
L 197 4372 
L 2113 4372 
L 2113 4147 
Q 1453 4147 1453 3944 
L 1453 2388 
L 3341 2388 
L 3341 3944 
Q 3341 4147 2681 4147 
L 2681 4372 
L 4594 4372 
L 4594 4147 
Q 3938 4147 3938 3944 
L 3938 428 
Q 3938 225 4594 225 
L 4594 0 
L 2681 0 
L 2681 225 
Q 3341 225 3341 428 
L 3341 2163 
L 1453 2163 
L 1453 428 
Q 1453 225 2113 225 
L 2113 0 
L 197 0 
z
" transform="scale(0.015625)"/>
      </defs>
      <use xlink:href="#Cmr10-48"/>
      <use xlink:href="#Cmr10-65" x="75"/>
      <use xlink:href="#Cmr10-61" x="119.384766"/>
      <use xlink:href="#Cmr10-64" x="169.384766"/>
      <use xlink:href="#Cmr10-69" x="224.902344"/>
      <use xlink:href="#Cmr10-6e" x="252.587891"/>
      <use xlink:href="#Cmr10-67" x="308.105469"/>
      <use xlink:href="#Cmr10-20" x="358.105469"/>
      <use xlink:href="#Cmr10-5b" x="391.40625"/>
      <use xlink:href="#Cmr10-64" x="419.091797"/>
      <use xlink:href="#Cmr10-65" x="474.609375"/>
      <use xlink:href="#Cmr10-67" x="518.994141"/>
      <use xlink:href="#Cmr10-5d" x="568.994141"/>
     </g>
    </g>
   </g>
   <g id="line2d_50">
    <path d="M 50.986342 154.078847 
L 52.558829 154.189925 
L 54.01988 154.512223 
L 55.301395 155.018262 
L 56.415756 155.695549 
L 57.393918 156.550746 
L 58.285406 157.631149 
L 59.127368 159.010543 
L 59.981712 160.856237 
L 60.706046 162.78543 
M 60.718428 103.731019 
L 63.677676 111.887482 
L 64.624883 113.581596 
L 65.615426 114.90491 
L 66.729787 116.022442 
L 68.091783 117.064607 
L 70.085251 118.282286 
L 73.180699 120.180442 
L 74.511741 121.27949 
L 75.576575 122.446932 
L 76.5114 123.808417 
L 77.390507 125.493994 
L 78.31295 127.770091 
L 79.718283 131.950471 
L 80.993608 135.448566 
L 81.928433 137.380798 
L 82.832303 138.756289 
L 83.773319 139.793635 
L 84.801008 140.597499 
L 85.946323 141.210535 
L 87.252602 141.654218 
L 88.719844 141.914796 
L 90.292331 141.967962 
L 91.846246 141.80084 
L 93.263961 141.428948 
L 94.50214 140.877584 
L 95.573164 140.159832 
L 96.526562 139.251579 
L 97.399478 138.107055 
L 98.24144 136.622973 
L 99.114356 134.60857 
L 100.228717 131.412224 
L 101.993122 126.382588 
L 102.958902 124.332926 
L 103.912299 122.816856 
L 104.946179 121.588179 
L 106.141021 120.517636 
L 107.670172 119.45884 
L 113.173878 115.903672 
L 114.275857 114.762178 
L 115.229255 113.44979 
L 116.114552 111.841095 
L 117.018423 109.713341 
L 118.194693 106.300978 
L 119.055227 103.719848 
M 119.067609 162.774282 
L 120.151016 160.013379 
L 121.067268 158.264741 
L 121.97733 156.992207 
L 122.936918 156.024916 
L 123.98937 155.277328 
L 125.178022 154.708008 
L 126.527637 154.311622 
L 128.032024 154.10388 
L 129.610703 154.109217 
L 131.139853 154.333685 
L 132.508041 154.754605 
L 133.696693 155.348904 
L 134.736763 156.117275 
L 135.665397 157.083511 
L 136.525932 158.307952 
L 137.367893 159.908628 
L 138.271764 162.136541 
L 138.507018 162.796586 
M 138.5194 103.742197 
L 141.472456 111.882759 
L 142.419663 113.578056 
L 143.410206 114.902259 
L 144.524568 116.020437 
L 145.886564 117.063051 
L 147.880032 118.280974 
L 150.97548 120.178784 
L 152.306522 121.277306 
L 153.371356 122.444032 
L 154.306181 123.804582 
L 155.185288 125.488995 
L 156.107731 127.763799 
L 157.506873 131.924839 
L 158.788389 135.443118 
L 159.723214 137.376733 
L 160.627084 138.753317 
L 161.5681 139.791499 
L 162.595789 140.596005 
L 163.741104 141.209542 
L 165.041192 141.652043 
L 166.508434 141.913903 
L 168.080921 141.968265 
L 169.634836 141.802386 
L 171.052551 141.431913 
L 172.29073 140.882264 
L 173.367945 140.161674 
L 174.321343 139.254148 
L 175.194259 138.110545 
L 176.036221 136.627607 
L 176.909137 134.614514 
L 178.023498 131.419223 
L 179.794094 126.37315 
L 180.759873 124.325788 
L 181.713271 122.811513 
L 182.74715 121.58417 
L 183.941993 120.51458 
L 185.477335 119.452565 
L 190.956277 115.916867 
L 192.064447 114.772301 
L 193.017844 113.463199 
L 193.903142 111.858649 
L 194.807013 109.735668 
L 195.977092 106.345877 
L 196.850008 103.726425 
M 196.86239 162.780846 
L 197.945797 160.018432 
L 198.862049 158.268486 
L 199.77211 156.994931 
L 200.731699 156.026864 
L 201.784151 155.278677 
L 202.972803 154.708885 
L 204.322418 154.312112 
L 205.826805 154.104033 
L 207.405483 154.109048 
L 208.934634 154.33317 
L 210.302822 154.753688 
L 211.491474 155.347498 
L 212.531544 156.115255 
L 213.460178 157.080715 
L 214.320713 158.304176 
L 215.162674 159.903651 
L 216.066545 162.130247 
L 216.301799 162.790016 
M 216.314181 103.735614 
L 219.267237 111.878033 
L 220.214444 113.574514 
L 221.204987 114.899607 
L 222.319348 116.018431 
L 223.681345 117.061494 
L 225.674813 118.279661 
L 228.77026 120.177127 
L 230.101303 121.275123 
L 231.166137 122.441135 
L 232.100962 123.800749 
L 232.980069 125.483999 
L 233.902512 127.757509 
L 235.301654 131.917905 
L 236.583169 135.437667 
L 236.713178 135.741046 
L 236.713178 135.741046 
" clip-path="url(#pc34155234a)" style="fill: none; stroke: #1f77b4; stroke-width: 1.5; stroke-linecap: square"/>
   </g>
   <g id="patch_8">
    <path d="M 41.7 162.799546 
L 41.7 103.709661 
" style="fill: none; stroke: #000000; stroke-width: 0.8; stroke-linejoin: miter; stroke-linecap: square"/>
   </g>
   <g id="patch_9">
    <path d="M 245.99952 162.799546 
L 245.99952 103.709661 
" style="fill: none; stroke: #000000; stroke-width: 0.8; stroke-linejoin: miter; stroke-linecap: square"/>
   </g>
   <g id="patch_10">
    <path d="M 41.7 162.799546 
L 245.99952 162.799546 
" style="fill: none; stroke: #000000; stroke-width: 0.8; stroke-linejoin: miter; stroke-linecap: square"/>
   </g>
   <g id="patch_11">
    <path d="M 41.7 103.709661 
L 245.99952 103.709661 
" style="fill: none; stroke: #000000; stroke-width: 0.8; stroke-linejoin: miter; stroke-linecap: square"/>
   </g>
   <g id="text_14">
    <!-- USV heading -->
    <g transform="translate(114.977885 97.709661)scale(0.1 -0.1)">
     <use xlink:href="#Cmr10-55"/>
     <use xlink:href="#Cmr10-53" x="75"/>
     <use xlink:href="#Cmr10-56" x="130.517578"/>
     <use xlink:href="#Cmr10-20" x="205.517578"/>
     <use xlink:href="#Cmr10-68" x="238.818359"/>
     <use xlink:href="#Cmr10-65" x="294.335938"/>
     <use xlink:href="#Cmr10-61" x="338.720703"/>
     <use xlink:href="#Cmr10-64" x="388.720703"/>
     <use xlink:href="#Cmr10-69" x="444.238281"/>
     <use xlink:href="#Cmr10-6e" x="471.923828"/>
     <use xlink:href="#Cmr10-67" x="527.441406"/>
    </g>
   </g>
  </g>
  <g id="axes_3">
   <g id="patch_12">
    <path d="M 41.7 245.809207 
L 245.99952 245.809207 
L 245.99952 186.719323 
L 41.7 186.719323 
z
" style="fill: #ffffff"/>
   </g>
   <g id="matplotlib.axis_5">
    <g id="xtick_15">
     <g id="line2d_51">
      <path d="M 50.986342 245.809207 
L 50.986342 186.719323 
" clip-path="url(#p93c10ee105)" style="fill: none; stroke: #b0b0b0; stroke-opacity: 0.3; stroke-width: 0.8; stroke-linecap: square"/>
     </g>
     <g id="line2d_52">
      <g>
       <use xlink:href="#mddbde00433" x="50.986342" y="245.809207" style="stroke: #000000; stroke-width: 0.8"/>
      </g>
     </g>
     <g id="text_15">
      <!-- 0 -->
      <g transform="translate(48.736342 259.054364)scale(0.09 -0.09)">
       <use xlink:href="#Cmr10-30"/>
      </g>
     </g>
    </g>
    <g id="xtick_16">
     <g id="line2d_53">
      <path d="M 81.940815 245.809207 
L 81.940815 186.719323 
" clip-path="url(#p93c10ee105)" style="fill: none; stroke: #b0b0b0; stroke-opacity: 0.3; stroke-width: 0.8; stroke-linecap: square"/>
     </g>
     <g id="line2d_54">
      <g>
       <use xlink:href="#mddbde00433" x="81.940815" y="245.809207" style="stroke: #000000; stroke-width: 0.8"/>
      </g>
     </g>
     <g id="text_16">
      <!-- 50 -->
      <g transform="translate(77.440815 259.054364)scale(0.09 -0.09)">
       <defs>
        <path id="Cmr10-35" d="M 556 728 
Q 622 541 758 387 
Q 894 234 1080 148 
Q 1266 63 1466 63 
Q 1928 63 2103 422 
Q 2278 781 2278 1294 
Q 2278 1516 2270 1667 
Q 2263 1819 2228 1959 
Q 2169 2184 2020 2353 
Q 1872 2522 1656 2522 
Q 1441 2522 1286 2456 
Q 1131 2391 1034 2303 
Q 938 2216 863 2119 
Q 788 2022 769 2016 
L 697 2016 
Q 681 2016 657 2036 
Q 634 2056 634 2075 
L 634 4213 
Q 634 4228 654 4245 
Q 675 4263 697 4263 
L 716 4263 
Q 1147 4056 1631 4056 
Q 2106 4056 2547 4263 
L 2566 4263 
Q 2588 4263 2606 4247 
Q 2625 4231 2625 4213 
L 2625 4153 
Q 2625 4122 2613 4122 
Q 2394 3831 2064 3668 
Q 1734 3506 1381 3506 
Q 1125 3506 856 3578 
L 856 2369 
Q 1069 2541 1236 2614 
Q 1403 2688 1663 2688 
Q 2016 2688 2295 2484 
Q 2575 2281 2725 1954 
Q 2875 1628 2875 1288 
Q 2875 903 2686 575 
Q 2497 247 2172 53 
Q 1847 -141 1466 -141 
Q 1150 -141 886 21 
Q 622 184 470 459 
Q 319 734 319 1044 
Q 319 1188 412 1278 
Q 506 1369 647 1369 
Q 788 1369 883 1276 
Q 978 1184 978 1044 
Q 978 906 883 811 
Q 788 716 647 716 
Q 625 716 597 720 
Q 569 725 556 728 
z
" transform="scale(0.015625)"/>
       </defs>
       <use xlink:href="#Cmr10-35"/>
       <use xlink:href="#Cmr10-30" x="50"/>
      </g>
     </g>
    </g>
    <g id="xtick_17">
     <g id="line2d_55">
      <path d="M 112.895287 245.809207 
L 112.895287 186.719323 
" clip-path="url(#p93c10ee105)" style="fill: none; stroke: #b0b0b0; stroke-opacity: 0.3; stroke-width: 0.8; stroke-linecap: square"/>
     </g>
     <g id="line2d_56">
      <g>
       <use xlink:href="#mddbde00433" x="112.895287" y="245.809207" style="stroke: #000000; stroke-width: 0.8"/>
      </g>
     </g>
     <g id="text_17">
      <!-- 100 -->
      <g transform="translate(106.145287 259.054364)scale(0.09 -0.09)">
       <use xlink:href="#Cmr10-31"/>
       <use xlink:href="#Cmr10-30" x="50"/>
       <use xlink:href="#Cmr10-30" x="100"/>
      </g>
     </g>
    </g>
    <g id="xtick_18">
     <g id="line2d_57">
      <path d="M 143.84976 245.809207 
L 143.84976 186.719323 
" clip-path="url(#p93c10ee105)" style="fill: none; stroke: #b0b0b0; stroke-opacity: 0.3; stroke-width: 0.8; stroke-linecap: square"/>
     </g>
     <g id="line2d_58">
      <g>
       <use xlink:href="#mddbde00433" x="143.84976" y="245.809207" style="stroke: #000000; stroke-width: 0.8"/>
      </g>
     </g>
     <g id="text_18">
      <!-- 150 -->
      <g transform="translate(137.09976 259.054364)scale(0.09 -0.09)">
       <use xlink:href="#Cmr10-31"/>
       <use xlink:href="#Cmr10-35" x="50"/>
       <use xlink:href="#Cmr10-30" x="100"/>
      </g>
     </g>
    </g>
    <g id="xtick_19">
     <g id="line2d_59">
      <path d="M 174.804233 245.809207 
L 174.804233 186.719323 
" clip-path="url(#p93c10ee105)" style="fill: none; stroke: #b0b0b0; stroke-opacity: 0.3; stroke-width: 0.8; stroke-linecap: square"/>
     </g>
     <g id="line2d_60">
      <g>
       <use xlink:href="#mddbde00433" x="174.804233" y="245.809207" style="stroke: #000000; stroke-width: 0.8"/>
      </g>
     </g>
     <g id="text_19">
      <!-- 200 -->
      <g transform="translate(168.054233 259.054364)scale(0.09 -0.09)">
       <use xlink:href="#Cmr10-32"/>
       <use xlink:href="#Cmr10-30" x="50"/>
       <use xlink:href="#Cmr10-30" x="100"/>
      </g>
     </g>
    </g>
    <g id="xtick_20">
     <g id="line2d_61">
      <path d="M 205.758705 245.809207 
L 205.758705 186.719323 
" clip-path="url(#p93c10ee105)" style="fill: none; stroke: #b0b0b0; stroke-opacity: 0.3; stroke-width: 0.8; stroke-linecap: square"/>
     </g>
     <g id="line2d_62">
      <g>
       <use xlink:href="#mddbde00433" x="205.758705" y="245.809207" style="stroke: #000000; stroke-width: 0.8"/>
      </g>
     </g>
     <g id="text_20">
      <!-- 250 -->
      <g transform="translate(199.008705 259.054364)scale(0.09 -0.09)">
       <use xlink:href="#Cmr10-32"/>
       <use xlink:href="#Cmr10-35" x="50"/>
       <use xlink:href="#Cmr10-30" x="100"/>
      </g>
     </g>
    </g>
    <g id="xtick_21">
     <g id="line2d_63">
      <path d="M 236.713178 245.809207 
L 236.713178 186.719323 
" clip-path="url(#p93c10ee105)" style="fill: none; stroke: #b0b0b0; stroke-opacity: 0.3; stroke-width: 0.8; stroke-linecap: square"/>
     </g>
     <g id="line2d_64">
      <g>
       <use xlink:href="#mddbde00433" x="236.713178" y="245.809207" style="stroke: #000000; stroke-width: 0.8"/>
      </g>
     </g>
     <g id="text_21">
      <!-- 300 -->
      <g transform="translate(229.963178 259.054364)scale(0.09 -0.09)">
       <use xlink:href="#Cmr10-33"/>
       <use xlink:href="#Cmr10-30" x="50"/>
       <use xlink:href="#Cmr10-30" x="100"/>
      </g>
     </g>
    </g>
    <g id="text_22">
     <!-- Time [s] -->
     <g transform="translate(126.066166 272.29952)scale(0.1 -0.1)">
      <defs>
       <path id="Cmr10-54" d="M 1081 0 
L 1081 225 
Q 1403 225 1706 261 
Q 2009 297 2009 428 
L 2009 3944 
Q 2009 4081 1932 4114 
Q 1856 4147 1684 4147 
L 1416 4147 
Q 888 4147 666 3916 
Q 550 3800 500 3545 
Q 450 3291 416 2906 
L 231 2906 
L 353 4372 
L 4263 4372 
L 4384 2906 
L 4197 2906 
Q 4159 3319 4114 3561 
Q 4069 3803 3950 3916 
Q 3725 4147 3200 4147 
L 2931 4147 
Q 2816 4147 2752 4137 
Q 2688 4128 2647 4083 
Q 2606 4038 2606 3944 
L 2606 428 
Q 2606 297 2909 261 
Q 3213 225 3531 225 
L 3531 0 
L 1081 0 
z
" transform="scale(0.015625)"/>
       <path id="Cmr10-73" d="M 213 -19 
L 213 1025 
Q 213 1075 269 1075 
L 347 1075 
Q 384 1075 397 1025 
Q 575 97 1259 97 
Q 1563 97 1767 234 
Q 1972 372 1972 659 
Q 1972 866 1812 1011 
Q 1653 1156 1434 1209 
L 1006 1294 
Q 791 1341 614 1437 
Q 438 1534 325 1695 
Q 213 1856 213 2069 
Q 213 2350 361 2529 
Q 509 2709 746 2789 
Q 984 2869 1259 2869 
Q 1588 2869 1831 2694 
L 2016 2853 
Q 2016 2869 2047 2869 
L 2094 2869 
Q 2113 2869 2128 2851 
Q 2144 2834 2144 2816 
L 2144 1978 
Q 2144 1919 2094 1919 
L 2016 1919 
Q 1959 1919 1959 1978 
Q 1959 2313 1773 2516 
Q 1588 2719 1253 2719 
Q 966 2719 755 2612 
Q 544 2506 544 2247 
Q 544 2069 695 1955 
Q 847 1841 1050 1791 
L 1484 1709 
Q 1703 1659 1892 1540 
Q 2081 1422 2192 1240 
Q 2303 1059 2303 831 
Q 2303 600 2223 429 
Q 2144 259 2001 146 
Q 1859 34 1665 -19 
Q 1472 -72 1259 -72 
Q 859 -72 575 197 
L 341 -56 
Q 341 -72 306 -72 
L 269 -72 
Q 213 -72 213 -19 
z
" transform="scale(0.015625)"/>
      </defs>
      <use xlink:href="#Cmr10-54"/>
      <use xlink:href="#Cmr10-69" x="72.216797"/>
      <use xlink:href="#Cmr10-6d" x="99.902344"/>
      <use xlink:href="#Cmr10-65" x="183.203125"/>
      <use xlink:href="#Cmr10-20" x="227.587891"/>
      <use xlink:href="#Cmr10-5b" x="260.888672"/>
      <use xlink:href="#Cmr10-73" x="288.574219"/>
      <use xlink:href="#Cmr10-5d" x="327.978516"/>
     </g>
    </g>
   </g>
   <g id="matplotlib.axis_6">
    <g id="ytick_11">
     <g id="line2d_65">
      <path d="M 41.7 235.23297 
L 245.99952 235.23297 
" clip-path="url(#p93c10ee105)" style="fill: none; stroke: #b0b0b0; stroke-opacity: 0.3; stroke-width: 0.8; stroke-linecap: square"/>
     </g>
     <g id="line2d_66">
      <g>
       <use xlink:href="#m43119dcc82" x="41.7" y="235.23297" style="stroke: #000000; stroke-width: 0.8"/>
      </g>
     </g>
     <g id="text_23">
      <!-- 20 -->
      <g transform="translate(25.7 238.355548)scale(0.09 -0.09)">
       <use xlink:href="#Cmr10-32"/>
       <use xlink:href="#Cmr10-30" x="50"/>
      </g>
     </g>
    </g>
    <g id="ytick_12">
     <g id="line2d_67">
      <path d="M 41.7 213.74225 
L 245.99952 213.74225 
" clip-path="url(#p93c10ee105)" style="fill: none; stroke: #b0b0b0; stroke-opacity: 0.3; stroke-width: 0.8; stroke-linecap: square"/>
     </g>
     <g id="line2d_68">
      <g>
       <use xlink:href="#m43119dcc82" x="41.7" y="213.74225" style="stroke: #000000; stroke-width: 0.8"/>
      </g>
     </g>
     <g id="text_24">
      <!-- 40 -->
      <g transform="translate(25.7 216.864828)scale(0.09 -0.09)">
       <defs>
        <path id="Cmr10-34" d="M 178 1056 
L 178 1281 
L 2156 4231 
Q 2178 4263 2222 4263 
L 2316 4263 
Q 2388 4263 2388 4191 
L 2388 1281 
L 3016 1281 
L 3016 1056 
L 2388 1056 
L 2388 428 
Q 2388 297 2575 261 
Q 2763 225 3009 225 
L 3009 0 
L 1247 0 
L 1247 225 
Q 1494 225 1681 261 
Q 1869 297 1869 428 
L 1869 1056 
L 178 1056 
z
M 391 1281 
L 1906 1281 
L 1906 3547 
L 391 1281 
z
" transform="scale(0.015625)"/>
       </defs>
       <use xlink:href="#Cmr10-34"/>
       <use xlink:href="#Cmr10-30" x="50"/>
      </g>
     </g>
    </g>
    <g id="ytick_13">
     <g id="line2d_69">
      <path d="M 41.7 192.25153 
L 245.99952 192.25153 
" clip-path="url(#p93c10ee105)" style="fill: none; stroke: #b0b0b0; stroke-opacity: 0.3; stroke-width: 0.8; stroke-linecap: square"/>
     </g>
     <g id="line2d_70">
      <g>
       <use xlink:href="#m43119dcc82" x="41.7" y="192.25153" style="stroke: #000000; stroke-width: 0.8"/>
      </g>
     </g>
     <g id="text_25">
      <!-- 60 -->
      <g transform="translate(25.7 195.374108)scale(0.09 -0.09)">
       <use xlink:href="#Cmr10-36"/>
       <use xlink:href="#Cmr10-30" x="50"/>
      </g>
     </g>
    </g>
    <g id="text_26">
     <!-- Slant range [m] -->
     <g transform="translate(19.2 249.85489)rotate(-90)scale(0.1 -0.1)">
      <defs>
       <path id="Cmr10-72" d="M 166 0 
L 166 225 
Q 384 225 525 259 
Q 666 294 666 428 
L 666 2175 
Q 666 2347 614 2423 
Q 563 2500 466 2517 
Q 369 2534 166 2534 
L 166 2759 
L 1081 2828 
L 1081 2203 
Q 1184 2481 1375 2654 
Q 1566 2828 1838 2828 
Q 2028 2828 2178 2715 
Q 2328 2603 2328 2419 
Q 2328 2303 2245 2217 
Q 2163 2131 2041 2131 
Q 1922 2131 1837 2215 
Q 1753 2300 1753 2419 
Q 1753 2591 1875 2663 
L 1838 2663 
Q 1578 2663 1414 2475 
Q 1250 2288 1181 2009 
Q 1113 1731 1113 1478 
L 1113 428 
Q 1113 225 1734 225 
L 1734 0 
L 166 0 
z
" transform="scale(0.015625)"/>
      </defs>
      <use xlink:href="#Cmr10-53"/>
      <use xlink:href="#Cmr10-6c" x="55.517578"/>
      <use xlink:href="#Cmr10-61" x="83.203125"/>
      <use xlink:href="#Cmr10-6e" x="133.203125"/>
      <use xlink:href="#Cmr10-74" x="188.720703"/>
      <use xlink:href="#Cmr10-20" x="227.539062"/>
      <use xlink:href="#Cmr10-72" x="260.839844"/>
      <use xlink:href="#Cmr10-61" x="299.951172"/>
      <use xlink:href="#Cmr10-6e" x="349.951172"/>
      <use xlink:href="#Cmr10-67" x="405.46875"/>
      <use xlink:href="#Cmr10-65" x="455.46875"/>
      <use xlink:href="#Cmr10-20" x="499.853516"/>
      <use xlink:href="#Cmr10-5b" x="533.154297"/>
      <use xlink:href="#Cmr10-6d" x="560.839844"/>
      <use xlink:href="#Cmr10-5d" x="644.140625"/>
     </g>
    </g>
   </g>
   <g id="line2d_71">
    <path d="M 50.986342 239.099989 
L 51.964503 241.31563 
L 52.682647 242.44192 
L 53.252209 242.96042 
L 53.735099 243.12113 
L 54.193225 243.041967 
L 54.700879 242.714924 
L 55.326159 242.025875 
L 56.192884 240.704776 
L 57.870617 237.642623 
L 59.845512 234.207864 
L 61.318945 232.090747 
L 62.891432 230.22783 
L 66.934086 225.650998 
L 68.283701 223.610623 
L 69.738561 220.985763 
L 71.713457 216.910533 
L 74.604605 210.989019 
L 75.923265 208.803508 
L 76.975717 207.464497 
L 77.867206 206.671008 
L 78.641068 206.26406 
L 79.34683 206.135966 
L 80.021637 206.238064 
L 80.708827 206.571273 
L 81.445543 207.185146 
L 82.262741 208.170426 
L 83.185184 209.649274 
L 84.256209 211.811783 
L 85.543915 214.945846 
L 87.30832 219.885003 
L 90.478058 228.80479 
L 91.641946 231.382078 
L 92.558199 232.911025 
L 93.332061 233.799623 
L 94.013059 234.263754 
L 94.650721 234.438308 
L 95.294574 234.383377 
L 96.012718 234.089904 
L 96.891825 233.474738 
L 98.117622 232.31865 
L 100.618743 229.576336 
L 103.738954 225.910751 
L 105.354778 223.649084 
L 106.865356 221.140229 
L 108.549279 217.887382 
L 114.152039 206.649112 
L 115.272591 205.109399 
L 116.213607 204.171174 
L 117.030805 203.652295 
L 117.767521 203.436652 
L 118.467092 203.461148 
L 119.166663 203.711762 
L 119.909571 204.223353 
L 120.726769 205.068505 
L 121.661594 206.373352 
L 122.769764 208.327517 
L 124.212243 211.36349 
L 127.840107 219.209532 
L 128.824459 220.709809 
L 129.610703 221.531328 
L 130.279319 221.928095 
L 130.879836 222.035635 
L 131.467971 221.913386 
L 132.093251 221.547736 
L 132.811395 220.855839 
L 133.684311 219.685097 
L 134.829627 217.744873 
L 136.699277 214.069619 
L 139.924733 207.773153 
L 142.072973 204.106876 
L 144.759821 199.993347 
L 148.740567 194.312578 
L 150.63498 191.95369 
L 151.953641 190.644858 
L 153.012284 189.890272 
L 153.909964 189.51052 
L 154.708589 189.405588 
L 155.463878 189.530055 
L 156.206786 189.880882 
L 156.980647 190.500278 
L 157.810227 191.462202 
L 158.714098 192.866535 
L 159.717023 194.855384 
L 160.849956 197.622829 
L 162.156235 201.432875 
L 163.759677 206.841814 
L 166.378425 216.605133 
L 168.724774 225.018224 
L 170.105344 229.179746 
L 171.213514 231.857414 
L 172.173103 233.627778 
L 173.05221 234.804397 
L 173.900362 235.581092 
L 174.798042 236.103117 
L 175.918594 236.48332 
L 179.088332 237.426815 
L 180.59891 238.219244 
L 183.143368 239.5859 
L 184.022475 239.777658 
L 184.765382 239.71755 
L 185.477335 239.433106 
L 186.220242 238.887265 
L 187.062204 237.977607 
L 188.108465 236.493985 
L 189.718098 233.767392 
L 192.070638 229.843981 
L 193.277862 228.263013 
L 194.268405 227.31211 
L 195.13513 226.774586 
L 195.927565 226.537621 
L 196.689045 226.540179 
L 197.469098 226.767876 
L 198.329632 227.259178 
L 199.369702 228.126534 
L 201.208398 230.020797 
L 202.47134 231.155484 
L 203.269966 231.593672 
L 203.913819 231.707433 
L 204.495763 231.588341 
L 205.083898 231.232742 
L 205.72156 230.571586 
L 206.452086 229.472897 
L 207.331193 227.720709 
L 208.464126 224.925802 
L 210.284249 219.74911 
L 212.946334 212.286369 
L 214.388812 208.907564 
L 215.596037 206.616059 
L 216.667062 205.035167 
L 217.645223 203.969019 
L 218.561475 203.286708 
L 219.446773 202.897901 
L 220.338262 202.746969 
L 221.29166 202.813795 
L 222.387448 203.121726 
L 223.792781 203.764279 
L 226.27533 205.192764 
L 230.342748 207.746955 
L 231.779035 208.941529 
L 232.992451 210.242249 
L 234.143957 211.810735 
L 235.295463 213.768084 
L 236.496497 216.266516 
L 236.713178 216.768387 
L 236.713178 216.768387 
" clip-path="url(#p93c10ee105)" style="fill: none; stroke: #ff7f0e; stroke-width: 1.5; stroke-linecap: square"/>
   </g>
   <g id="patch_13">
    <path d="M 41.7 245.809207 
L 41.7 186.719323 
" style="fill: none; stroke: #000000; stroke-width: 0.8; stroke-linejoin: miter; stroke-linecap: square"/>
   </g>
   <g id="patch_14">
    <path d="M 245.99952 245.809207 
L 245.99952 186.719323 
" style="fill: none; stroke: #000000; stroke-width: 0.8; stroke-linejoin: miter; stroke-linecap: square"/>
   </g>
   <g id="patch_15">
    <path d="M 41.7 245.809207 
L 245.99952 245.809207 
" style="fill: none; stroke: #000000; stroke-width: 0.8; stroke-linejoin: miter; stroke-linecap: square"/>
   </g>
   <g id="patch_16">
    <path d="M 41.7 186.719323 
L 245.99952 186.719323 
" style="fill: none; stroke: #000000; stroke-width: 0.8; stroke-linejoin: miter; stroke-linecap: square"/>
   </g>
   <g id="text_27">
    <!-- USV-UUV slant range -->
    <g transform="translate(94.807572 180.719323)scale(0.1 -0.1)">
     <defs>
      <path id="Cmr10-2d" d="M 72 1184 
L 72 1581 
L 1766 1581 
L 1766 1184 
L 72 1184 
z
" transform="scale(0.015625)"/>
     </defs>
     <use xlink:href="#Cmr10-55"/>
     <use xlink:href="#Cmr10-53" x="75"/>
     <use xlink:href="#Cmr10-56" x="130.517578"/>
     <use xlink:href="#Cmr10-2d" x="205.517578"/>
     <use xlink:href="#Cmr10-55" x="238.818359"/>
     <use xlink:href="#Cmr10-55" x="313.818359"/>
     <use xlink:href="#Cmr10-56" x="388.818359"/>
     <use xlink:href="#Cmr10-20" x="463.818359"/>
     <use xlink:href="#Cmr10-73" x="497.119141"/>
     <use xlink:href="#Cmr10-6c" x="536.523438"/>
     <use xlink:href="#Cmr10-61" x="564.208984"/>
     <use xlink:href="#Cmr10-6e" x="614.208984"/>
     <use xlink:href="#Cmr10-74" x="669.726562"/>
     <use xlink:href="#Cmr10-20" x="708.544922"/>
     <use xlink:href="#Cmr10-72" x="741.845703"/>
     <use xlink:href="#Cmr10-61" x="780.957031"/>
     <use xlink:href="#Cmr10-6e" x="830.957031"/>
     <use xlink:href="#Cmr10-67" x="886.474609"/>
     <use xlink:href="#Cmr10-65" x="936.474609"/>
    </g>
   </g>
  </g>
 </g>
 <defs>
  <clipPath id="p209c95a8b8">
   <rect x="41.7" y="20.7" width="204.29952" height="59.089885"/>
  </clipPath>
  <clipPath id="pc34155234a">
   <rect x="41.7" y="103.709661" width="204.29952" height="59.089885"/>
  </clipPath>
  <clipPath id="p93c10ee105">
   <rect x="41.7" y="186.719323" width="204.29952" height="59.089885"/>
  </clipPath>
 </defs>
</svg>
