<?xml version="1.0" encoding="utf-8" standalone="no"?>
<!DOCTYPE svg PUBLIC "-//W3C//DTD SVG 1.1//EN"
  "http://www.w3.org/Graphics/SVG/1.1/DTD/svg11.dtd">
<svg xmlns:xlink="http://www.w3.org/1999/xlink" width="532.597812pt" height="531.27625pt" viewBox="0 0 532.597812 531.27625" xmlns="http://www.w3.org/2000/svg" version="1.1">
 <metadata>
  <rdf:RDF xmlns:dc="http://purl.org/dc/elements/1.1/" xmlns:cc="http://creativecommons.org/ns#" xmlns:rdf="http://www.w3.org/1999/02/22-rdf-syntax-ns#">
   <cc:Work>
    <dc:type rdf:resource="http://purl.org/dc/dcmitype/StillImage"/>
    <dc:date>2026-06-04T15:19:12.826873</dc:date>
    <dc:format>image/svg+xml</dc:format>
    <dc:creator>
     <cc:Agent>
      <dc:title>Matplotlib v3.10.9, https://matplotlib.org/</dc:title>
     </cc:Agent>
    </dc:creator>
   </cc:Work>
  </rdf:RDF>
 </metadata>
 <defs>
  <style type="text/css">*{stroke-linejoin: round; stroke-linecap: butt}</style>
 </defs>
 <g id="figure_1">
  <g id="patch_1">
   <path d="M 0 531.27625 
L 532.597812 531.27625 
L 532.597812 0 
L 0 0 
z
" style="fill: #ffffff"/>
  </g>
  <g id="axes_1">
   <g id="patch_2">
    <path d="M 52.107813 173.933333 
L 525.397812 173.933333 
L 525.397812 46.32 
L 52.107813 46.32 
z
" style="fill: #ffffff"/>
   </g>
   <g id="matplotlib.axis_1">
    <g id="xtick_1">
     <g id="line2d_1">
      <path d="M 73.620994 173.933333 
L 73.620994 46.32 
" clip-path="url(#p783237c7f1)" style="fill: none; stroke: #b0b0b0; stroke-opacity: 0.3; stroke-width: 0.8; stroke-linecap: square"/>
     </g>
     <g id="line2d_2">
      <defs>
       <path id="m5e1e44c8f8" d="M 0 0 
L 0 3.5 
" style="stroke: #000000; stroke-width: 0.8"/>
      </defs>
      <g>
       <use xlink:href="#m5e1e44c8f8" x="73.620994" y="173.933333" style="stroke: #000000; stroke-width: 0.8"/>
      </g>
     </g>
    </g>
    <g id="xtick_2">
     <g id="line2d_3">
      <path d="M 145.3316 173.933333 
L 145.3316 46.32 
" clip-path="url(#p783237c7f1)" style="fill: none; stroke: #b0b0b0; stroke-opacity: 0.3; stroke-width: 0.8; stroke-linecap: square"/>
     </g>
     <g id="line2d_4">
      <g>
       <use xlink:href="#m5e1e44c8f8" x="145.3316" y="173.933333" style="stroke: #000000; stroke-width: 0.8"/>
      </g>
     </g>
    </g>
    <g id="xtick_3">
     <g id="line2d_5">
      <path d="M 217.042206 173.933333 
L 217.042206 46.32 
" clip-path="url(#p783237c7f1)" style="fill: none; stroke: #b0b0b0; stroke-opacity: 0.3; stroke-width: 0.8; stroke-linecap: square"/>
     </g>
     <g id="line2d_6">
      <g>
       <use xlink:href="#m5e1e44c8f8" x="217.042206" y="173.933333" style="stroke: #000000; stroke-width: 0.8"/>
      </g>
     </g>
    </g>
    <g id="xtick_4">
     <g id="line2d_7">
      <path d="M 288.752813 173.933333 
L 288.752813 46.32 
" clip-path="url(#p783237c7f1)" style="fill: none; stroke: #b0b0b0; stroke-opacity: 0.3; stroke-width: 0.8; stroke-linecap: square"/>
     </g>
     <g id="line2d_8">
      <g>
       <use xlink:href="#m5e1e44c8f8" x="288.752813" y="173.933333" style="stroke: #000000; stroke-width: 0.8"/>
      </g>
     </g>
    </g>
    <g id="xtick_5">
     <g id="line2d_9">
      <path d="M 360.463419 173.933333 
L 360.463419 46.32 
" clip-path="url(#p783237c7f1)" style="fill: none; stroke: #b0b0b0; stroke-opacity: 0.3; stroke-width: 0.8; stroke-linecap: square"/>
     </g>
     <g id="line2d_10">
      <g>
       <use xlink:href="#m5e1e44c8f8" x="360.463419" y="173.933333" style="stroke: #000000; stroke-width: 0.8"/>
      </g>
     </g>
    </g>
    <g id="xtick_6">
     <g id="line2d_11">
      <path d="M 432.174025 173.933333 
L 432.174025 46.32 
" clip-path="url(#p783237c7f1)" style="fill: none; stroke: #b0b0b0; stroke-opacity: 0.3; stroke-width: 0.8; stroke-linecap: square"/>
     </g>
     <g id="line2d_12">
      <g>
       <use xlink:href="#m5e1e44c8f8" x="432.174025" y="173.933333" style="stroke: #000000; stroke-width: 0.8"/>
      </g>
     </g>
    </g>
    <g id="xtick_7">
     <g id="line2d_13">
      <path d="M 503.884631 173.933333 
L 503.884631 46.32 
" clip-path="url(#p783237c7f1)" style="fill: none; stroke: #b0b0b0; stroke-opacity: 0.3; stroke-width: 0.8; stroke-linecap: square"/>
     </g>
     <g id="line2d_14">
      <g>
       <use xlink:href="#m5e1e44c8f8" x="503.884631" y="173.933333" style="stroke: #000000; stroke-width: 0.8"/>
      </g>
     </g>
    </g>
   </g>
   <g id="matplotlib.axis_2">
    <g id="ytick_1">
     <g id="line2d_15">
      <path d="M 52.107813 173.933333 
L 525.397812 173.933333 
" clip-path="url(#p783237c7f1)" style="fill: none; stroke: #b0b0b0; stroke-opacity: 0.3; stroke-width: 0.8; stroke-linecap: square"/>
     </g>
     <g id="line2d_16">
      <defs>
       <path id="me76f2197cc" d="M 0 0 
L -3.5 0 
" style="stroke: #000000; stroke-width: 0.8"/>
      </defs>
      <g>
       <use xlink:href="#me76f2197cc" x="52.107813" y="173.933333" style="stroke: #000000; stroke-width: 0.8"/>
      </g>
     </g>
     <g id="text_1">
      <!-- 0° -->
      <g transform="translate(33.745313 177.732552) scale(0.1 -0.1)">
       <defs>
        <path id="DejaVuSerif-30" d="M 2034 219 
Q 2513 219 2750 744 
Q 2988 1269 2988 2328 
Q 2988 3391 2750 3916 
Q 2513 4441 2034 4441 
Q 1556 4441 1318 3916 
Q 1081 3391 1081 2328 
Q 1081 1269 1318 744 
Q 1556 219 2034 219 
z
M 2034 -91 
Q 1275 -91 848 546 
Q 422 1184 422 2328 
Q 422 3475 848 4112 
Q 1275 4750 2034 4750 
Q 2797 4750 3222 4112 
Q 3647 3475 3647 2328 
Q 3647 1184 3222 546 
Q 2797 -91 2034 -91 
z
" transform="scale(0.015625)"/>
        <path id="DejaVuSerif-b0" d="M 1600 4319 
Q 1363 4319 1200 4155 
Q 1038 3991 1038 3750 
Q 1038 3513 1198 3353 
Q 1359 3194 1600 3194 
Q 1838 3194 2000 3355 
Q 2163 3516 2163 3750 
Q 2163 3984 1997 4151 
Q 1831 4319 1600 4319 
z
M 1600 4750 
Q 1800 4750 1984 4673 
Q 2169 4597 2303 4453 
Q 2447 4313 2519 4134 
Q 2591 3956 2591 3750 
Q 2591 3338 2302 3052 
Q 2013 2766 1594 2766 
Q 1172 2766 890 3047 
Q 609 3328 609 3750 
Q 609 4169 896 4459 
Q 1184 4750 1600 4750 
z
" transform="scale(0.015625)"/>
       </defs>
       <use xlink:href="#DejaVuSerif-30"/>
       <use xlink:href="#DejaVuSerif-b0" transform="translate(63.623047 0)"/>
      </g>
     </g>
    </g>
    <g id="ytick_2">
     <g id="line2d_17">
      <path d="M 52.107813 142.03 
L 525.397812 142.03 
" clip-path="url(#p783237c7f1)" style="fill: none; stroke: #b0b0b0; stroke-opacity: 0.3; stroke-width: 0.8; stroke-linecap: square"/>
     </g>
     <g id="line2d_18">
      <g>
       <use xlink:href="#me76f2197cc" x="52.107813" y="142.03" style="stroke: #000000; stroke-width: 0.8"/>
      </g>
     </g>
     <g id="text_2">
      <!-- 90° -->
      <g transform="translate(27.382813 145.829219) scale(0.1 -0.1)">
       <defs>
        <path id="DejaVuSerif-39" d="M 2994 2091 
Q 2784 1856 2512 1740 
Q 2241 1625 1900 1625 
Q 1206 1625 804 2044 
Q 403 2463 403 3188 
Q 403 3897 839 4323 
Q 1275 4750 2003 4750 
Q 2794 4750 3217 4161 
Q 3641 3572 3641 2478 
Q 3641 1253 3137 581 
Q 2634 -91 1722 -91 
Q 1475 -91 1203 -44 
Q 931 3 647 97 
L 647 872 
L 997 872 
Q 1038 556 1241 387 
Q 1444 219 1784 219 
Q 2391 219 2687 676 
Q 2984 1134 2994 2091 
z
M 1978 4441 
Q 1534 4441 1298 4117 
Q 1063 3794 1063 3188 
Q 1063 2581 1298 2256 
Q 1534 1931 1978 1931 
Q 2422 1931 2658 2245 
Q 2894 2559 2894 3150 
Q 2894 3772 2656 4106 
Q 2419 4441 1978 4441 
z
" transform="scale(0.015625)"/>
       </defs>
       <use xlink:href="#DejaVuSerif-39"/>
       <use xlink:href="#DejaVuSerif-30" transform="translate(63.623047 0)"/>
       <use xlink:href="#DejaVuSerif-b0" transform="translate(127.246094 0)"/>
      </g>
     </g>
    </g>
    <g id="ytick_3">
     <g id="line2d_19">
      <path d="M 52.107813 110.126667 
L 525.397812 110.126667 
" clip-path="url(#p783237c7f1)" style="fill: none; stroke: #b0b0b0; stroke-opacity: 0.3; stroke-width: 0.8; stroke-linecap: square"/>
     </g>
     <g id="line2d_20">
      <g>
       <use xlink:href="#me76f2197cc" x="52.107813" y="110.126667" style="stroke: #000000; stroke-width: 0.8"/>
      </g>
     </g>
     <g id="text_3">
      <!-- 180° -->
      <g transform="translate(21.020313 113.925885) scale(0.1 -0.1)">
       <defs>
        <path id="DejaVuSerif-31" d="M 909 0 
L 909 331 
L 1722 331 
L 1722 4213 
L 781 3603 
L 781 4013 
L 1919 4750 
L 2350 4750 
L 2350 331 
L 3163 331 
L 3163 0 
L 909 0 
z
" transform="scale(0.015625)"/>
        <path id="DejaVuSerif-38" d="M 2981 1275 
Q 2981 1775 2732 2051 
Q 2484 2328 2034 2328 
Q 1584 2328 1336 2051 
Q 1088 1775 1088 1275 
Q 1088 772 1336 495 
Q 1584 219 2034 219 
Q 2484 219 2732 495 
Q 2981 772 2981 1275 
z
M 2853 3541 
Q 2853 3966 2637 4203 
Q 2422 4441 2034 4441 
Q 1650 4441 1433 4203 
Q 1216 3966 1216 3541 
Q 1216 3113 1433 2875 
Q 1650 2638 2034 2638 
Q 2422 2638 2637 2875 
Q 2853 3113 2853 3541 
z
M 2516 2484 
Q 3047 2413 3344 2092 
Q 3641 1772 3641 1275 
Q 3641 619 3225 264 
Q 2809 -91 2034 -91 
Q 1263 -91 845 264 
Q 428 619 428 1275 
Q 428 1772 725 2092 
Q 1022 2413 1556 2484 
Q 1084 2569 832 2842 
Q 581 3116 581 3541 
Q 581 4103 968 4426 
Q 1356 4750 2034 4750 
Q 2713 4750 3100 4426 
Q 3488 4103 3488 3541 
Q 3488 3116 3236 2842 
Q 2984 2569 2516 2484 
z
" transform="scale(0.015625)"/>
       </defs>
       <use xlink:href="#DejaVuSerif-31"/>
       <use xlink:href="#DejaVuSerif-38" transform="translate(63.623047 0)"/>
       <use xlink:href="#DejaVuSerif-30" transform="translate(127.246094 0)"/>
       <use xlink:href="#DejaVuSerif-b0" transform="translate(190.869141 0)"/>
      </g>
     </g>
    </g>
    <g id="ytick_4">
     <g id="line2d_21">
      <path d="M 52.107813 78.223333 
L 525.397812 78.223333 
" clip-path="url(#p783237c7f1)" style="fill: none; stroke: #b0b0b0; stroke-opacity: 0.3; stroke-width: 0.8; stroke-linecap: square"/>
     </g>
     <g id="line2d_22">
      <g>
       <use xlink:href="#me76f2197cc" x="52.107813" y="78.223333" style="stroke: #000000; stroke-width: 0.8"/>
      </g>
     </g>
     <g id="text_4">
      <!-- 270° -->
      <g transform="translate(21.020313 82.022552) scale(0.1 -0.1)">
       <defs>
        <path id="DejaVuSerif-32" d="M 819 3553 
L 469 3553 
L 469 4384 
Q 803 4563 1142 4656 
Q 1481 4750 1806 4750 
Q 2534 4750 2956 4397 
Q 3378 4044 3378 3438 
Q 3378 2753 2422 1800 
Q 2347 1728 2309 1691 
L 1131 513 
L 3078 513 
L 3078 1088 
L 3444 1088 
L 3444 0 
L 434 0 
L 434 341 
L 1850 1753 
Q 2319 2222 2519 2614 
Q 2719 3006 2719 3438 
Q 2719 3909 2473 4175 
Q 2228 4441 1797 4441 
Q 1350 4441 1106 4219 
Q 863 3997 819 3553 
z
" transform="scale(0.015625)"/>
        <path id="DejaVuSerif-37" d="M 3609 4347 
L 1784 0 
L 1319 0 
L 3059 4153 
L 903 4153 
L 903 3578 
L 538 3578 
L 538 4666 
L 3609 4666 
L 3609 4347 
z
" transform="scale(0.015625)"/>
       </defs>
       <use xlink:href="#DejaVuSerif-32"/>
       <use xlink:href="#DejaVuSerif-37" transform="translate(63.623047 0)"/>
       <use xlink:href="#DejaVuSerif-30" transform="translate(127.246094 0)"/>
       <use xlink:href="#DejaVuSerif-b0" transform="translate(190.869141 0)"/>
      </g>
     </g>
    </g>
    <g id="ytick_5">
     <g id="line2d_23">
      <path d="M 52.107813 46.32 
L 525.397812 46.32 
" clip-path="url(#p783237c7f1)" style="fill: none; stroke: #b0b0b0; stroke-opacity: 0.3; stroke-width: 0.8; stroke-linecap: square"/>
     </g>
     <g id="line2d_24">
      <g>
       <use xlink:href="#me76f2197cc" x="52.107813" y="46.32" style="stroke: #000000; stroke-width: 0.8"/>
      </g>
     </g>
     <g id="text_5">
      <!-- 360° -->
      <g transform="translate(21.020313 50.119219) scale(0.1 -0.1)">
       <defs>
        <path id="DejaVuSerif-33" d="M 622 4469 
Q 988 4606 1323 4678 
Q 1659 4750 1953 4750 
Q 2638 4750 3022 4454 
Q 3406 4159 3406 3634 
Q 3406 3213 3140 2930 
Q 2875 2647 2388 2547 
Q 2963 2466 3280 2130 
Q 3597 1794 3597 1259 
Q 3597 606 3158 257 
Q 2719 -91 1894 -91 
Q 1528 -91 1179 -12 
Q 831 66 488 225 
L 488 1131 
L 838 1131 
Q 869 681 1141 450 
Q 1413 219 1906 219 
Q 2384 219 2661 495 
Q 2938 772 2938 1253 
Q 2938 1803 2653 2086 
Q 2369 2369 1819 2369 
L 1522 2369 
L 1522 2688 
L 1678 2688 
Q 2225 2688 2498 2914 
Q 2772 3141 2772 3597 
Q 2772 4006 2547 4223 
Q 2322 4441 1900 4441 
Q 1478 4441 1245 4241 
Q 1013 4041 972 3647 
L 622 3647 
L 622 4469 
z
" transform="scale(0.015625)"/>
        <path id="DejaVuSerif-36" d="M 2094 219 
Q 2534 219 2771 542 
Q 3009 866 3009 1472 
Q 3009 2078 2771 2401 
Q 2534 2725 2094 2725 
Q 1647 2725 1412 2412 
Q 1178 2100 1178 1509 
Q 1178 888 1415 553 
Q 1653 219 2094 219 
z
M 1075 2569 
Q 1288 2803 1556 2918 
Q 1825 3034 2163 3034 
Q 2859 3034 3264 2615 
Q 3669 2197 3669 1472 
Q 3669 763 3233 336 
Q 2797 -91 2069 -91 
Q 1278 -91 853 498 
Q 428 1088 428 2181 
Q 428 3406 931 4078 
Q 1434 4750 2350 4750 
Q 2597 4750 2869 4703 
Q 3141 4656 3425 4563 
L 3425 3794 
L 3072 3794 
Q 3034 4109 2831 4275 
Q 2628 4441 2284 4441 
Q 1678 4441 1381 3981 
Q 1084 3522 1075 2569 
z
" transform="scale(0.015625)"/>
       </defs>
       <use xlink:href="#DejaVuSerif-33"/>
       <use xlink:href="#DejaVuSerif-36" transform="translate(63.623047 0)"/>
       <use xlink:href="#DejaVuSerif-30" transform="translate(127.246094 0)"/>
       <use xlink:href="#DejaVuSerif-b0" transform="translate(190.869141 0)"/>
      </g>
     </g>
    </g>
    <g id="text_6">
     <!-- Azimuth [deg] -->
     <g transform="translate(14.798438 146.014167) rotate(-90) scale(0.1 -0.1)">
      <defs>
       <path id="DejaVuSerif-41" d="M 1281 1691 
L 2994 1691 
L 2138 3909 
L 1281 1691 
z
M -38 0 
L -38 331 
L 372 331 
L 2034 4666 
L 2559 4666 
L 4225 331 
L 4684 331 
L 4684 0 
L 2988 0 
L 2988 331 
L 3506 331 
L 3116 1356 
L 1153 1356 
L 763 331 
L 1275 331 
L 1275 0 
L -38 0 
z
" transform="scale(0.015625)"/>
       <path id="DejaVuSerif-7a" d="M 256 0 
L 256 269 
L 2338 2988 
L 691 2988 
L 691 2413 
L 359 2413 
L 359 3322 
L 3078 3322 
L 3078 3053 
L 997 331 
L 2803 331 
L 2803 934 
L 3138 934 
L 3138 0 
L 256 0 
z
" transform="scale(0.015625)"/>
       <path id="DejaVuSerif-69" d="M 622 4353 
Q 622 4497 726 4603 
Q 831 4709 978 4709 
Q 1122 4709 1226 4603 
Q 1331 4497 1331 4353 
Q 1331 4206 1228 4103 
Q 1125 4000 978 4000 
Q 831 4000 726 4103 
Q 622 4206 622 4353 
z
M 1356 331 
L 1900 331 
L 1900 0 
L 231 0 
L 231 331 
L 781 331 
L 781 2988 
L 231 2988 
L 231 3322 
L 1356 3322 
L 1356 331 
z
" transform="scale(0.015625)"/>
       <path id="DejaVuSerif-6d" d="M 3316 2675 
Q 3481 3041 3739 3227 
Q 3997 3413 4341 3413 
Q 4863 3413 5119 3089 
Q 5375 2766 5375 2113 
L 5375 331 
L 5894 331 
L 5894 0 
L 4300 0 
L 4300 331 
L 4800 331 
L 4800 2047 
Q 4800 2556 4650 2772 
Q 4500 2988 4153 2988 
Q 3769 2988 3567 2697 
Q 3366 2406 3366 1850 
L 3366 331 
L 3866 331 
L 3866 0 
L 2291 0 
L 2291 331 
L 2791 331 
L 2791 2069 
Q 2791 2566 2641 2777 
Q 2491 2988 2144 2988 
Q 1759 2988 1557 2697 
Q 1356 2406 1356 1850 
L 1356 331 
L 1856 331 
L 1856 0 
L 263 0 
L 263 331 
L 781 331 
L 781 2994 
L 231 2994 
L 231 3322 
L 1356 3322 
L 1356 2731 
Q 1516 3063 1762 3238 
Q 2009 3413 2322 3413 
Q 2709 3413 2968 3220 
Q 3228 3028 3316 2675 
z
" transform="scale(0.015625)"/>
       <path id="DejaVuSerif-75" d="M 2266 3322 
L 3341 3322 
L 3341 331 
L 3884 331 
L 3884 0 
L 2766 0 
L 2766 588 
Q 2606 256 2353 82 
Q 2100 -91 1766 -91 
Q 1213 -91 952 223 
Q 691 538 691 1209 
L 691 2988 
L 172 2988 
L 172 3322 
L 1269 3322 
L 1269 1388 
Q 1269 781 1417 556 
Q 1566 331 1947 331 
Q 2347 331 2556 625 
Q 2766 919 2766 1478 
L 2766 2988 
L 2266 2988 
L 2266 3322 
z
" transform="scale(0.015625)"/>
       <path id="DejaVuSerif-74" d="M 691 2988 
L 184 2988 
L 184 3322 
L 691 3322 
L 691 4353 
L 1269 4353 
L 1269 3322 
L 2350 3322 
L 2350 2988 
L 1269 2988 
L 1269 878 
Q 1269 456 1350 337 
Q 1431 219 1650 219 
Q 1875 219 1978 351 
Q 2081 484 2088 781 
L 2522 781 
Q 2497 328 2275 118 
Q 2053 -91 1600 -91 
Q 1103 -91 897 129 
Q 691 350 691 878 
L 691 2988 
z
" transform="scale(0.015625)"/>
       <path id="DejaVuSerif-68" d="M 263 0 
L 263 331 
L 781 331 
L 781 4531 
L 231 4531 
L 231 4863 
L 1356 4863 
L 1356 2731 
Q 1516 3069 1770 3241 
Q 2025 3413 2363 3413 
Q 2913 3413 3172 3097 
Q 3431 2781 3431 2113 
L 3431 331 
L 3944 331 
L 3944 0 
L 2356 0 
L 2356 331 
L 2853 331 
L 2853 1931 
Q 2853 2541 2704 2764 
Q 2556 2988 2175 2988 
Q 1775 2988 1565 2697 
Q 1356 2406 1356 1850 
L 1356 331 
L 1856 331 
L 1856 0 
L 263 0 
z
" transform="scale(0.015625)"/>
       <path id="DejaVuSerif-20" transform="scale(0.015625)"/>
       <path id="DejaVuSerif-5b" d="M 550 4863 
L 2003 4863 
L 2003 4531 
L 1147 4531 
L 1147 -513 
L 2003 -513 
L 2003 -844 
L 550 -844 
L 550 4863 
z
" transform="scale(0.015625)"/>
       <path id="DejaVuSerif-64" d="M 3359 331 
L 3909 331 
L 3909 0 
L 2784 0 
L 2784 519 
Q 2616 206 2355 57 
Q 2094 -91 1709 -91 
Q 1097 -91 708 395 
Q 319 881 319 1663 
Q 319 2444 706 2928 
Q 1094 3413 1709 3413 
Q 2094 3413 2355 3264 
Q 2616 3116 2784 2803 
L 2784 4531 
L 2241 4531 
L 2241 4863 
L 3359 4863 
L 3359 331 
z
M 2784 1497 
L 2784 1825 
Q 2784 2422 2554 2737 
Q 2325 3053 1888 3053 
Q 1444 3053 1217 2703 
Q 991 2353 991 1663 
Q 991 975 1217 622 
Q 1444 269 1888 269 
Q 2325 269 2554 583 
Q 2784 897 2784 1497 
z
" transform="scale(0.015625)"/>
       <path id="DejaVuSerif-65" d="M 3469 1600 
L 991 1600 
L 991 1575 
Q 991 903 1244 561 
Q 1497 219 1991 219 
Q 2369 219 2611 417 
Q 2853 616 2950 1006 
L 3413 1006 
Q 3275 459 2904 184 
Q 2534 -91 1931 -91 
Q 1203 -91 761 389 
Q 319 869 319 1663 
Q 319 2450 753 2931 
Q 1188 3413 1894 3413 
Q 2647 3413 3050 2948 
Q 3453 2484 3469 1600 
z
M 2791 1931 
Q 2772 2513 2545 2808 
Q 2319 3103 1894 3103 
Q 1497 3103 1269 2806 
Q 1041 2509 991 1931 
L 2791 1931 
z
" transform="scale(0.015625)"/>
       <path id="DejaVuSerif-67" d="M 3359 2988 
L 3359 72 
Q 3359 -644 2965 -1033 
Q 2572 -1422 1844 -1422 
Q 1516 -1422 1216 -1362 
Q 916 -1303 641 -1184 
L 641 -488 
L 941 -488 
Q 997 -813 1206 -963 
Q 1416 -1113 1806 -1113 
Q 2313 -1113 2548 -827 
Q 2784 -541 2784 72 
L 2784 519 
Q 2616 206 2355 57 
Q 2094 -91 1709 -91 
Q 1097 -91 708 395 
Q 319 881 319 1663 
Q 319 2444 706 2928 
Q 1094 3413 1709 3413 
Q 2094 3413 2355 3264 
Q 2616 3116 2784 2803 
L 2784 3322 
L 3909 3322 
L 3909 2988 
L 3359 2988 
z
M 2784 1825 
Q 2784 2422 2554 2737 
Q 2325 3053 1888 3053 
Q 1444 3053 1217 2703 
Q 991 2353 991 1663 
Q 991 975 1217 622 
Q 1444 269 1888 269 
Q 2325 269 2554 583 
Q 2784 897 2784 1497 
L 2784 1825 
z
" transform="scale(0.015625)"/>
       <path id="DejaVuSerif-5d" d="M 1947 4863 
L 1947 -844 
L 494 -844 
L 494 -513 
L 1350 -513 
L 1350 4531 
L 494 4531 
L 494 4863 
L 1947 4863 
z
" transform="scale(0.015625)"/>
      </defs>
      <use xlink:href="#DejaVuSerif-41"/>
      <use xlink:href="#DejaVuSerif-7a" transform="translate(72.216797 0)"/>
      <use xlink:href="#DejaVuSerif-69" transform="translate(124.902344 0)"/>
      <use xlink:href="#DejaVuSerif-6d" transform="translate(156.884766 0)"/>
      <use xlink:href="#DejaVuSerif-75" transform="translate(251.708984 0)"/>
      <use xlink:href="#DejaVuSerif-74" transform="translate(316.113281 0)"/>
      <use xlink:href="#DejaVuSerif-68" transform="translate(356.298828 0)"/>
      <use xlink:href="#DejaVuSerif-20" transform="translate(420.703125 0)"/>
      <use xlink:href="#DejaVuSerif-5b" transform="translate(452.490234 0)"/>
      <use xlink:href="#DejaVuSerif-64" transform="translate(491.503906 0)"/>
      <use xlink:href="#DejaVuSerif-65" transform="translate(555.517578 0)"/>
      <use xlink:href="#DejaVuSerif-67" transform="translate(614.697266 0)"/>
      <use xlink:href="#DejaVuSerif-5d" transform="translate(678.710938 0)"/>
     </g>
    </g>
   </g>
   <g id="line2d_25">
    <path d="M 73.620994 151.446819 
L 74.696653 150.565132 
L 75.600207 149.53659 
L 76.389024 148.297284 
L 77.10613 146.739447 
L 77.765867 144.746166 
L 78.382579 142.146459 
L 78.984948 138.609158 
L 79.630343 133.403163 
L 80.634292 123.068996 
L 81.537845 114.781646 
L 82.226267 110.412856 
L 82.900347 107.485849 
L 83.588769 105.432318 
L 84.320217 103.926006 
L 85.094691 102.82674 
L 85.926534 102.022747 
L 86.84443 101.44209 
L 87.877063 101.054162 
L 89.053117 100.853286 
L 90.415618 100.852142 
L 91.978909 101.079916 
L 93.74299 101.567988 
L 95.679177 102.338891 
L 97.773126 103.416875 
L 100.010497 104.824825 
L 102.419974 106.611209 
L 105.116293 108.897083 
L 108.544059 112.116937 
L 116.704726 119.894716 
L 119.730914 122.397344 
L 122.570654 124.461532 
L 125.410394 126.252653 
L 128.364871 127.852579 
L 131.53448 129.3134 
L 135.048299 130.683187 
L 139.121462 132.025384 
L 144.471073 133.537518 
L 154.2524 136.267731 
L 157.450693 137.424429 
L 159.946222 138.558183 
L 162.025829 139.742625 
L 163.847279 141.033051 
L 165.496623 142.472867 
L 167.045572 144.122059 
L 168.551495 146.05573 
L 170.086102 148.398692 
L 171.778472 151.407556 
L 174.274001 156.369355 
L 176.798214 161.228398 
L 178.361506 163.764368 
L 179.738349 165.588964 
L 181.02914 166.941245 
L 182.276905 167.936307 
L 183.524669 168.652 
L 184.786776 169.122343 
L 186.091909 169.372066 
L 187.468752 169.407043 
L 188.945991 169.217724 
L 190.552309 168.782602 
L 192.345074 168.059135 
L 194.395997 166.9821 
L 196.877184 165.414451 
L 200.405346 162.893769 
L 207.73417 157.616193 
L 211.305358 155.359573 
L 214.804836 153.411772 
L 218.533787 151.594987 
L 222.850766 149.747441 
L 229.333404 147.247852 
L 235.887754 144.650359 
L 239.473284 142.988811 
L 242.35605 141.412013 
L 244.851579 139.796213 
L 247.117635 138.065329 
L 249.268953 136.139944 
L 251.391587 133.937016 
L 253.628958 131.285439 
L 256.368303 127.668588 
L 261.904362 120.275189 
L 263.998311 117.912789 
L 265.877129 116.121899 
L 267.655552 114.72766 
L 269.405291 113.632902 
L 271.169372 112.787721 
L 272.990821 112.162002 
L 274.883981 111.748874 
L 276.877536 111.544411 
L 279.00017 111.553901 
L 281.280567 111.789655 
L 283.776096 112.274705 
L 286.587152 113.053698 
L 289.900182 114.212177 
L 294.34624 116.021647 
L 305.074146 120.469001 
L 309.29073 121.920498 
L 313.177445 123.02493 
L 316.920739 123.858621 
L 320.577979 124.446583 
L 324.149168 124.796667 
L 327.591277 124.912032 
L 330.846938 124.800644 
L 333.873126 124.476963 
L 336.641155 123.960357 
L 339.165369 123.265308 
L 341.445766 122.410127 
L 343.525373 121.396355 
L 345.447218 120.213455 
L 347.239983 118.847979 
L 348.932353 117.277684 
L 350.567355 115.452973 
L 352.173672 113.322512 
L 353.823016 110.755578 
L 355.601439 107.55992 
L 357.795784 103.124412 
L 363.288816 91.813244 
L 365.41145 88.09176 
L 367.634479 84.648205 
L 370.789746 80.222177 
L 373.615144 76.134652 
L 375.192777 73.457146 
L 376.469226 70.855995 
L 377.602253 68.033024 
L 378.649228 64.81333 
L 379.681861 60.89771 
L 380.814889 55.682843 
L 382.593312 46.376545 
M 382.621996 173.841205 
L 384.027524 167.147373 
L 385.131867 162.940779 
L 386.178842 159.793147 
L 387.254501 157.243698 
L 388.387529 155.119422 
L 389.606609 153.298196 
L 390.954768 151.680715 
L 392.475033 150.204221 
L 394.239114 148.804988 
L 396.347406 147.423443 
L 399.01504 145.952947 
L 402.959124 144.059297 
L 409.843342 140.763145 
L 412.812161 139.070402 
L 415.250322 137.427418 
L 417.387298 135.721699 
L 419.352168 133.868299 
L 421.216644 131.800972 
L 423.066778 129.409679 
L 424.988622 126.552355 
L 427.254677 122.760379 
L 433.4935 112.071126 
L 435.372318 109.446393 
L 437.122056 107.374614 
L 438.843111 105.675602 
L 440.578508 104.270432 
L 442.371273 103.102513 
L 444.250091 102.143417 
L 446.243646 101.376916 
L 448.366279 100.801122 
L 450.632335 100.41895 
L 453.041811 100.23939 
L 455.594709 100.273044 
L 458.276685 100.531461 
L 461.073399 101.024991 
L 463.984849 101.766417 
L 467.011037 102.768694 
L 470.20933 104.065324 
L 473.72315 105.735743 
L 477.997102 108.028011 
L 489.987115 114.610523 
L 493.443566 116.158314 
L 496.541465 117.305879 
L 499.424231 118.139485 
L 502.12055 118.690686 
L 503.884631 118.918708 
L 503.884631 118.918708 
" clip-path="url(#p783237c7f1)" style="fill: none; stroke: #2ca02c; stroke-width: 1.5; stroke-linecap: square"/>
   </g>
   <g id="patch_3">
    <path d="M 52.107813 173.933333 
L 52.107813 46.32 
" style="fill: none; stroke: #000000; stroke-width: 0.8; stroke-linejoin: miter; stroke-linecap: square"/>
   </g>
   <g id="patch_4">
    <path d="M 525.397812 173.933333 
L 525.397812 46.32 
" style="fill: none; stroke: #000000; stroke-width: 0.8; stroke-linejoin: miter; stroke-linecap: square"/>
   </g>
   <g id="patch_5">
    <path d="M 52.107813 173.933333 
L 525.397812 173.933333 
" style="fill: none; stroke: #000000; stroke-width: 0.8; stroke-linejoin: miter; stroke-linecap: square"/>
   </g>
   <g id="patch_6">
    <path d="M 52.107813 46.32 
L 525.397812 46.32 
" style="fill: none; stroke: #000000; stroke-width: 0.8; stroke-linejoin: miter; stroke-linecap: square"/>
   </g>
   <g id="text_7">
    <!-- Azimuth angle (USV to UUV) -->
    <g transform="translate(200.476875 40.32) scale(0.12 -0.12)">
     <defs>
      <path id="DejaVuSerif-61" d="M 2547 1044 
L 2547 1747 
L 1806 1747 
Q 1378 1747 1168 1562 
Q 959 1378 959 997 
Q 959 650 1171 447 
Q 1384 244 1747 244 
Q 2106 244 2326 466 
Q 2547 688 2547 1044 
z
M 3122 2075 
L 3122 331 
L 3634 331 
L 3634 0 
L 2547 0 
L 2547 359 
Q 2356 128 2106 18 
Q 1856 -91 1522 -91 
Q 969 -91 644 203 
Q 319 497 319 997 
Q 319 1513 691 1797 
Q 1063 2081 1741 2081 
L 2547 2081 
L 2547 2309 
Q 2547 2688 2317 2895 
Q 2088 3103 1672 3103 
Q 1328 3103 1125 2947 
Q 922 2791 872 2484 
L 575 2484 
L 575 3156 
Q 875 3284 1158 3348 
Q 1441 3413 1709 3413 
Q 2400 3413 2761 3070 
Q 3122 2728 3122 2075 
z
" transform="scale(0.015625)"/>
      <path id="DejaVuSerif-6e" d="M 263 0 
L 263 331 
L 781 331 
L 781 2988 
L 231 2988 
L 231 3322 
L 1356 3322 
L 1356 2731 
Q 1516 3069 1770 3241 
Q 2025 3413 2363 3413 
Q 2913 3413 3172 3097 
Q 3431 2781 3431 2113 
L 3431 331 
L 3944 331 
L 3944 0 
L 2356 0 
L 2356 331 
L 2853 331 
L 2853 1931 
Q 2853 2541 2703 2767 
Q 2553 2994 2175 2994 
Q 1775 2994 1565 2701 
Q 1356 2409 1356 1850 
L 1356 331 
L 1856 331 
L 1856 0 
L 263 0 
z
" transform="scale(0.015625)"/>
      <path id="DejaVuSerif-6c" d="M 1313 331 
L 1856 331 
L 1856 0 
L 184 0 
L 184 331 
L 738 331 
L 738 4531 
L 184 4531 
L 184 4863 
L 1313 4863 
L 1313 331 
z
" transform="scale(0.015625)"/>
      <path id="DejaVuSerif-28" d="M 2041 -997 
Q 1281 -656 893 83 
Q 506 822 506 1931 
Q 506 3044 893 3783 
Q 1281 4522 2041 4863 
L 2041 4556 
Q 1559 4225 1350 3623 
Q 1141 3022 1141 1931 
Q 1141 844 1350 242 
Q 1559 -359 2041 -691 
L 2041 -997 
z
" transform="scale(0.015625)"/>
      <path id="DejaVuSerif-55" d="M 897 4331 
L 300 4331 
L 300 4666 
L 2125 4666 
L 2125 4331 
L 1528 4331 
L 1528 1919 
Q 1528 1025 1820 672 
Q 2113 319 2828 319 
Q 3544 319 3836 672 
Q 4128 1025 4128 1919 
L 4128 4331 
L 3531 4331 
L 3531 4666 
L 5106 4666 
L 5106 4331 
L 4513 4331 
L 4513 1856 
Q 4513 791 4103 350 
Q 3694 -91 2713 -91 
Q 1731 -91 1314 353 
Q 897 797 897 1856 
L 897 4331 
z
" transform="scale(0.015625)"/>
      <path id="DejaVuSerif-53" d="M 594 225 
L 594 1288 
L 953 1284 
Q 969 753 1261 498 
Q 1553 244 2150 244 
Q 2706 244 2998 464 
Q 3291 684 3291 1106 
Q 3291 1444 3114 1625 
Q 2938 1806 2369 1978 
L 1753 2163 
Q 1084 2366 811 2669 
Q 538 2972 538 3500 
Q 538 4094 959 4422 
Q 1381 4750 2144 4750 
Q 2469 4750 2856 4679 
Q 3244 4609 3681 4475 
L 3681 3481 
L 3328 3481 
Q 3275 3975 2998 4195 
Q 2722 4416 2156 4416 
Q 1663 4416 1405 4214 
Q 1147 4013 1147 3628 
Q 1147 3294 1340 3103 
Q 1534 2913 2163 2725 
L 2741 2553 
Q 3375 2363 3645 2067 
Q 3916 1772 3916 1275 
Q 3916 597 3481 253 
Q 3047 -91 2188 -91 
Q 1803 -91 1404 -12 
Q 1006 66 594 225 
z
" transform="scale(0.015625)"/>
      <path id="DejaVuSerif-56" d="M 1119 4331 
L 2497 750 
L 3872 4331 
L 3347 4331 
L 3347 4666 
L 4716 4666 
L 4716 4331 
L 4263 4331 
L 2597 0 
L 2059 0 
L 403 4331 
L -63 4331 
L -63 4666 
L 1638 4666 
L 1638 4331 
L 1119 4331 
z
" transform="scale(0.015625)"/>
      <path id="DejaVuSerif-6f" d="M 1925 219 
Q 2388 219 2623 584 
Q 2859 950 2859 1663 
Q 2859 2375 2623 2739 
Q 2388 3103 1925 3103 
Q 1463 3103 1227 2739 
Q 991 2375 991 1663 
Q 991 950 1228 584 
Q 1466 219 1925 219 
z
M 1925 -91 
Q 1200 -91 759 389 
Q 319 869 319 1663 
Q 319 2456 758 2934 
Q 1197 3413 1925 3413 
Q 2653 3413 3092 2934 
Q 3531 2456 3531 1663 
Q 3531 869 3092 389 
Q 2653 -91 1925 -91 
z
" transform="scale(0.015625)"/>
      <path id="DejaVuSerif-29" d="M 453 -997 
L 453 -691 
Q 934 -359 1145 242 
Q 1356 844 1356 1931 
Q 1356 3022 1145 3623 
Q 934 4225 453 4556 
L 453 4863 
Q 1216 4522 1603 3783 
Q 1991 3044 1991 1931 
Q 1991 822 1603 83 
Q 1216 -656 453 -997 
z
" transform="scale(0.015625)"/>
     </defs>
     <use xlink:href="#DejaVuSerif-41"/>
     <use xlink:href="#DejaVuSerif-7a" transform="translate(72.216797 0)"/>
     <use xlink:href="#DejaVuSerif-69" transform="translate(124.902344 0)"/>
     <use xlink:href="#DejaVuSerif-6d" transform="translate(156.884766 0)"/>
     <use xlink:href="#DejaVuSerif-75" transform="translate(251.708984 0)"/>
     <use xlink:href="#DejaVuSerif-74" transform="translate(316.113281 0)"/>
     <use xlink:href="#DejaVuSerif-68" transform="translate(356.298828 0)"/>
     <use xlink:href="#DejaVuSerif-20" transform="translate(420.703125 0)"/>
     <use xlink:href="#DejaVuSerif-61" transform="translate(452.490234 0)"/>
     <use xlink:href="#DejaVuSerif-6e" transform="translate(512.109375 0)"/>
     <use xlink:href="#DejaVuSerif-67" transform="translate(576.513672 0)"/>
     <use xlink:href="#DejaVuSerif-6c" transform="translate(640.527344 0)"/>
     <use xlink:href="#DejaVuSerif-65" transform="translate(672.509766 0)"/>
     <use xlink:href="#DejaVuSerif-20" transform="translate(731.689453 0)"/>
     <use xlink:href="#DejaVuSerif-28" transform="translate(763.476562 0)"/>
     <use xlink:href="#DejaVuSerif-55" transform="translate(802.490234 0)"/>
     <use xlink:href="#DejaVuSerif-53" transform="translate(886.767578 0)"/>
     <use xlink:href="#DejaVuSerif-56" transform="translate(955.273438 0)"/>
     <use xlink:href="#DejaVuSerif-20" transform="translate(1027.490234 0)"/>
     <use xlink:href="#DejaVuSerif-74" transform="translate(1059.277344 0)"/>
     <use xlink:href="#DejaVuSerif-6f" transform="translate(1099.462891 0)"/>
     <use xlink:href="#DejaVuSerif-20" transform="translate(1159.667969 0)"/>
     <use xlink:href="#DejaVuSerif-55" transform="translate(1191.455078 0)"/>
     <use xlink:href="#DejaVuSerif-55" transform="translate(1275.732422 0)"/>
     <use xlink:href="#DejaVuSerif-56" transform="translate(1360.009766 0)"/>
     <use xlink:href="#DejaVuSerif-29" transform="translate(1432.226562 0)"/>
    </g>
   </g>
  </g>
  <g id="axes_2">
   <g id="patch_7">
    <path d="M 52.107813 333.826667 
L 525.397812 333.826667 
L 525.397812 206.213333 
L 52.107813 206.213333 
z
" style="fill: #ffffff"/>
   </g>
   <g id="matplotlib.axis_3">
    <g id="xtick_8">
     <g id="line2d_26">
      <path d="M 73.620994 333.826667 
L 73.620994 206.213333 
" clip-path="url(#p4047fbe155)" style="fill: none; stroke: #b0b0b0; stroke-opacity: 0.3; stroke-width: 0.8; stroke-linecap: square"/>
     </g>
     <g id="line2d_27">
      <g>
       <use xlink:href="#m5e1e44c8f8" x="73.620994" y="333.826667" style="stroke: #000000; stroke-width: 0.8"/>
      </g>
     </g>
    </g>
    <g id="xtick_9">
     <g id="line2d_28">
      <path d="M 145.3316 333.826667 
L 145.3316 206.213333 
" clip-path="url(#p4047fbe155)" style="fill: none; stroke: #b0b0b0; stroke-opacity: 0.3; stroke-width: 0.8; stroke-linecap: square"/>
     </g>
     <g id="line2d_29">
      <g>
       <use xlink:href="#m5e1e44c8f8" x="145.3316" y="333.826667" style="stroke: #000000; stroke-width: 0.8"/>
      </g>
     </g>
    </g>
    <g id="xtick_10">
     <g id="line2d_30">
      <path d="M 217.042206 333.826667 
L 217.042206 206.213333 
" clip-path="url(#p4047fbe155)" style="fill: none; stroke: #b0b0b0; stroke-opacity: 0.3; stroke-width: 0.8; stroke-linecap: square"/>
     </g>
     <g id="line2d_31">
      <g>
       <use xlink:href="#m5e1e44c8f8" x="217.042206" y="333.826667" style="stroke: #000000; stroke-width: 0.8"/>
      </g>
     </g>
    </g>
    <g id="xtick_11">
     <g id="line2d_32">
      <path d="M 288.752813 333.826667 
L 288.752813 206.213333 
" clip-path="url(#p4047fbe155)" style="fill: none; stroke: #b0b0b0; stroke-opacity: 0.3; stroke-width: 0.8; stroke-linecap: square"/>
     </g>
     <g id="line2d_33">
      <g>
       <use xlink:href="#m5e1e44c8f8" x="288.752813" y="333.826667" style="stroke: #000000; stroke-width: 0.8"/>
      </g>
     </g>
    </g>
    <g id="xtick_12">
     <g id="line2d_34">
      <path d="M 360.463419 333.826667 
L 360.463419 206.213333 
" clip-path="url(#p4047fbe155)" style="fill: none; stroke: #b0b0b0; stroke-opacity: 0.3; stroke-width: 0.8; stroke-linecap: square"/>
     </g>
     <g id="line2d_35">
      <g>
       <use xlink:href="#m5e1e44c8f8" x="360.463419" y="333.826667" style="stroke: #000000; stroke-width: 0.8"/>
      </g>
     </g>
    </g>
    <g id="xtick_13">
     <g id="line2d_36">
      <path d="M 432.174025 333.826667 
L 432.174025 206.213333 
" clip-path="url(#p4047fbe155)" style="fill: none; stroke: #b0b0b0; stroke-opacity: 0.3; stroke-width: 0.8; stroke-linecap: square"/>
     </g>
     <g id="line2d_37">
      <g>
       <use xlink:href="#m5e1e44c8f8" x="432.174025" y="333.826667" style="stroke: #000000; stroke-width: 0.8"/>
      </g>
     </g>
    </g>
    <g id="xtick_14">
     <g id="line2d_38">
      <path d="M 503.884631 333.826667 
L 503.884631 206.213333 
" clip-path="url(#p4047fbe155)" style="fill: none; stroke: #b0b0b0; stroke-opacity: 0.3; stroke-width: 0.8; stroke-linecap: square"/>
     </g>
     <g id="line2d_39">
      <g>
       <use xlink:href="#m5e1e44c8f8" x="503.884631" y="333.826667" style="stroke: #000000; stroke-width: 0.8"/>
      </g>
     </g>
    </g>
   </g>
   <g id="matplotlib.axis_4">
    <g id="ytick_6">
     <g id="line2d_40">
      <path d="M 52.107813 333.826667 
L 525.397812 333.826667 
" clip-path="url(#p4047fbe155)" style="fill: none; stroke: #b0b0b0; stroke-opacity: 0.3; stroke-width: 0.8; stroke-linecap: square"/>
     </g>
     <g id="line2d_41">
      <g>
       <use xlink:href="#me76f2197cc" x="52.107813" y="333.826667" style="stroke: #000000; stroke-width: 0.8"/>
      </g>
     </g>
     <g id="text_8">
      <!-- 0° -->
      <g transform="translate(33.745313 337.625885) scale(0.1 -0.1)">
       <use xlink:href="#DejaVuSerif-30"/>
       <use xlink:href="#DejaVuSerif-b0" transform="translate(63.623047 0)"/>
      </g>
     </g>
    </g>
    <g id="ytick_7">
     <g id="line2d_42">
      <path d="M 52.107813 301.923333 
L 525.397812 301.923333 
" clip-path="url(#p4047fbe155)" style="fill: none; stroke: #b0b0b0; stroke-opacity: 0.3; stroke-width: 0.8; stroke-linecap: square"/>
     </g>
     <g id="line2d_43">
      <g>
       <use xlink:href="#me76f2197cc" x="52.107813" y="301.923333" style="stroke: #000000; stroke-width: 0.8"/>
      </g>
     </g>
     <g id="text_9">
      <!-- 90° -->
      <g transform="translate(27.382813 305.722552) scale(0.1 -0.1)">
       <use xlink:href="#DejaVuSerif-39"/>
       <use xlink:href="#DejaVuSerif-30" transform="translate(63.623047 0)"/>
       <use xlink:href="#DejaVuSerif-b0" transform="translate(127.246094 0)"/>
      </g>
     </g>
    </g>
    <g id="ytick_8">
     <g id="line2d_44">
      <path d="M 52.107813 270.02 
L 525.397812 270.02 
" clip-path="url(#p4047fbe155)" style="fill: none; stroke: #b0b0b0; stroke-opacity: 0.3; stroke-width: 0.8; stroke-linecap: square"/>
     </g>
     <g id="line2d_45">
      <g>
       <use xlink:href="#me76f2197cc" x="52.107813" y="270.02" style="stroke: #000000; stroke-width: 0.8"/>
      </g>
     </g>
     <g id="text_10">
      <!-- 180° -->
      <g transform="translate(21.020313 273.819219) scale(0.1 -0.1)">
       <use xlink:href="#DejaVuSerif-31"/>
       <use xlink:href="#DejaVuSerif-38" transform="translate(63.623047 0)"/>
       <use xlink:href="#DejaVuSerif-30" transform="translate(127.246094 0)"/>
       <use xlink:href="#DejaVuSerif-b0" transform="translate(190.869141 0)"/>
      </g>
     </g>
    </g>
    <g id="ytick_9">
     <g id="line2d_46">
      <path d="M 52.107813 238.116667 
L 525.397812 238.116667 
" clip-path="url(#p4047fbe155)" style="fill: none; stroke: #b0b0b0; stroke-opacity: 0.3; stroke-width: 0.8; stroke-linecap: square"/>
     </g>
     <g id="line2d_47">
      <g>
       <use xlink:href="#me76f2197cc" x="52.107813" y="238.116667" style="stroke: #000000; stroke-width: 0.8"/>
      </g>
     </g>
     <g id="text_11">
      <!-- 270° -->
      <g transform="translate(21.020313 241.915885) scale(0.1 -0.1)">
       <use xlink:href="#DejaVuSerif-32"/>
       <use xlink:href="#DejaVuSerif-37" transform="translate(63.623047 0)"/>
       <use xlink:href="#DejaVuSerif-30" transform="translate(127.246094 0)"/>
       <use xlink:href="#DejaVuSerif-b0" transform="translate(190.869141 0)"/>
      </g>
     </g>
    </g>
    <g id="ytick_10">
     <g id="line2d_48">
      <path d="M 52.107813 206.213333 
L 525.397812 206.213333 
" clip-path="url(#p4047fbe155)" style="fill: none; stroke: #b0b0b0; stroke-opacity: 0.3; stroke-width: 0.8; stroke-linecap: square"/>
     </g>
     <g id="line2d_49">
      <g>
       <use xlink:href="#me76f2197cc" x="52.107813" y="206.213333" style="stroke: #000000; stroke-width: 0.8"/>
      </g>
     </g>
     <g id="text_12">
      <!-- 360° -->
      <g transform="translate(21.020313 210.012552) scale(0.1 -0.1)">
       <use xlink:href="#DejaVuSerif-33"/>
       <use xlink:href="#DejaVuSerif-36" transform="translate(63.623047 0)"/>
       <use xlink:href="#DejaVuSerif-30" transform="translate(127.246094 0)"/>
       <use xlink:href="#DejaVuSerif-b0" transform="translate(190.869141 0)"/>
      </g>
     </g>
    </g>
    <g id="text_13">
     <!-- Heading [deg] -->
     <g transform="translate(14.798438 306.393438) rotate(-90) scale(0.1 -0.1)">
      <defs>
       <path id="DejaVuSerif-48" d="M 353 0 
L 353 331 
L 947 331 
L 947 4331 
L 353 4331 
L 353 4666 
L 2175 4666 
L 2175 4331 
L 1581 4331 
L 1581 2719 
L 4000 2719 
L 4000 4331 
L 3406 4331 
L 3406 4666 
L 5228 4666 
L 5228 4331 
L 4634 4331 
L 4634 331 
L 5228 331 
L 5228 0 
L 3406 0 
L 3406 331 
L 4000 331 
L 4000 2338 
L 1581 2338 
L 1581 331 
L 2175 331 
L 2175 0 
L 353 0 
z
" transform="scale(0.015625)"/>
      </defs>
      <use xlink:href="#DejaVuSerif-48"/>
      <use xlink:href="#DejaVuSerif-65" transform="translate(87.207031 0)"/>
      <use xlink:href="#DejaVuSerif-61" transform="translate(146.386719 0)"/>
      <use xlink:href="#DejaVuSerif-64" transform="translate(206.005859 0)"/>
      <use xlink:href="#DejaVuSerif-69" transform="translate(270.019531 0)"/>
      <use xlink:href="#DejaVuSerif-6e" transform="translate(302.001953 0)"/>
      <use xlink:href="#DejaVuSerif-67" transform="translate(366.40625 0)"/>
      <use xlink:href="#DejaVuSerif-20" transform="translate(430.419922 0)"/>
      <use xlink:href="#DejaVuSerif-5b" transform="translate(462.207031 0)"/>
      <use xlink:href="#DejaVuSerif-64" transform="translate(501.220703 0)"/>
      <use xlink:href="#DejaVuSerif-65" transform="translate(565.234375 0)"/>
      <use xlink:href="#DejaVuSerif-67" transform="translate(624.414062 0)"/>
      <use xlink:href="#DejaVuSerif-5d" transform="translate(688.427734 0)"/>
     </g>
    </g>
   </g>
   <g id="line2d_50">
    <path d="M 73.620994 314.993029 
L 76.116523 315.104594 
L 78.511658 315.431384 
L 80.749029 315.957724 
L 82.799952 316.666826 
L 84.650086 317.539359 
L 86.328114 318.573693 
L 87.877063 319.79008 
L 89.311275 321.200115 
L 90.673776 322.855513 
L 91.993252 324.816881 
L 93.298385 327.164741 
L 94.660886 330.092182 
L 96.138125 333.796182 
M 96.166809 206.259459 
L 98.590627 213.059399 
L 100.813656 219.024799 
L 102.362605 222.554936 
L 103.796817 225.28806 
L 105.231029 227.553832 
L 106.72261 229.500113 
L 108.328928 231.23053 
L 110.107351 232.816274 
L 112.158274 234.340171 
L 114.668145 235.917006 
L 118.397097 237.967418 
L 123.545918 240.828734 
L 126.012763 242.466908 
L 127.991976 244.044153 
L 129.698688 245.686294 
L 131.233295 247.471345 
L 132.667507 249.486173 
L 134.044351 251.813695 
L 135.421195 254.592461 
L 136.884091 258.065567 
L 138.734225 263.085145 
L 142.205018 272.582026 
L 143.710941 275.983632 
L 145.102126 278.594773 
L 146.464628 280.69347 
L 147.855814 282.436714 
L 149.304368 283.900677 
L 150.838975 285.139194 
L 152.502661 286.195391 
L 154.309768 287.077554 
L 156.288981 287.794355 
L 158.454641 288.339961 
L 160.792407 288.698015 
L 163.259252 288.84961 
L 165.754781 288.78077 
L 168.178599 288.493746 
L 170.458997 288.001621 
L 172.538604 287.328194 
L 174.431764 286.482952 
L 176.138477 285.480123 
L 177.701768 284.305981 
L 179.150322 282.941326 
L 180.527166 281.335016 
L 181.846641 279.448538 
L 183.151774 277.186007 
L 184.499933 274.385436 
L 185.977172 270.777312 
L 188.013753 265.142078 
L 190.796125 257.535941 
L 192.359416 253.924705 
L 193.80797 251.125217 
L 195.242182 248.828375 
L 196.733763 246.85613 
L 198.325738 245.118547 
L 200.089819 243.524887 
L 202.112058 242.003227 
L 204.578903 240.435809 
L 208.135749 238.465629 
L 213.729176 235.362309 
L 216.181679 233.726526 
L 218.14655 232.153748 
L 219.853262 230.504222 
L 221.387869 228.710258 
L 222.807739 226.706976 
L 224.184583 224.371462 
L 225.561426 221.583733 
L 227.038665 218.064745 
L 228.903141 212.993155 
L 231.312617 206.235333 
M 231.341301 333.772105 
L 233.033672 329.576676 
L 234.467884 326.594272 
L 235.844727 324.231298 
L 237.221571 322.302105 
L 238.641441 320.691388 
L 240.133022 319.33375 
L 241.724997 318.184564 
L 243.446052 317.216052 
L 245.324869 316.413965 
L 247.390135 315.775705 
L 249.641848 315.314882 
L 252.051324 315.050728 
L 254.546853 315.00168 
L 257.02804 315.17493 
L 259.39449 315.561581 
L 261.574493 316.139627 
L 263.568048 316.89607 
L 265.375155 317.818751 
L 267.010157 318.901098 
L 268.516079 320.163018 
L 269.921607 321.630198 
L 271.269767 323.363671 
L 272.5749 325.410027 
L 273.894375 327.905744 
L 275.285561 331.035122 
L 276.375562 333.820274 
M 276.404246 206.283599 
L 278.842407 213.125608 
L 281.051093 219.047086 
L 282.600042 222.573731 
L 284.034255 225.303706 
L 285.468467 227.566776 
L 286.960047 229.510804 
L 288.566365 231.239367 
L 290.344788 232.823612 
L 292.395711 234.346325 
L 294.905582 235.92228 
L 298.648876 237.979834 
L 303.769013 240.825485 
L 306.235858 242.463041 
L 308.215071 244.039498 
L 309.921783 245.680671 
L 311.45639 247.464554 
L 312.890602 249.477984 
L 314.267446 251.803877 
L 315.64429 254.580812 
L 317.107186 258.052028 
L 318.95732 263.070094 
L 322.428113 272.568986 
L 323.934036 275.972682 
L 325.325222 278.585736 
L 326.687723 280.686082 
L 328.078909 282.430729 
L 329.527463 283.895871 
L 331.06207 285.135379 
L 332.725756 286.192421 
L 334.532863 287.075304 
L 336.512076 287.79273 
L 338.677736 288.338888 
L 341.015502 288.697447 
L 343.482347 288.84952 
L 345.977876 288.781155 
L 348.401695 288.494628 
L 350.682092 288.003048 
L 352.761699 287.33023 
L 354.654859 286.485688 
L 356.361572 285.483663 
L 357.924863 284.310459 
L 359.387759 282.931849 
L 360.764603 281.32334 
L 362.084078 279.434311 
L 363.389211 277.168859 
L 364.737371 274.365052 
L 366.214609 270.753708 
L 368.265532 265.075404 
L 371.033562 257.513379 
L 372.596853 253.905642 
L 374.045407 251.109358 
L 375.479619 248.815254 
L 376.9712 246.845301 
L 378.563176 245.109593 
L 380.327256 243.517455 
L 382.349496 241.996998 
L 384.81634 240.430483 
L 388.387529 238.453188 
L 393.952272 235.365571 
L 396.404774 233.730411 
L 398.369645 232.158422 
L 400.076357 230.509872 
L 401.610964 228.717085 
L 403.030834 226.715194 
L 404.407678 224.381314 
L 405.784522 221.595416 
L 407.26176 218.07833 
L 409.126236 213.008226 
L 411.535712 206.249538 
M 411.564396 333.78628 
L 413.256767 329.588748 
L 414.690979 326.604318 
L 416.067822 324.239542 
L 417.444666 322.30881 
L 418.864536 320.696794 
L 420.356117 319.338066 
L 421.948092 318.187961 
L 423.669147 317.21867 
L 425.547965 316.415913 
L 427.61323 315.777065 
L 429.864943 315.315714 
L 432.274419 315.051071 
L 434.769949 315.001549 
L 437.251136 315.174315 
L 439.617586 315.560448 
L 441.797588 316.137924 
L 443.791143 316.893717 
L 445.59825 317.815649 
L 447.233252 318.897131 
L 448.739175 320.158041 
L 450.159045 321.640667 
L 451.507204 323.376506 
L 452.812337 325.425585 
L 454.131812 327.924394 
L 455.522998 331.057062 
L 456.598657 333.806085 
M 456.627341 206.269382 
L 459.05116 213.069917 
L 461.259846 218.998528 
L 462.808796 222.532776 
L 464.243008 225.26961 
L 465.67722 227.538567 
L 467.1688 229.487506 
L 468.775118 231.220112 
L 470.553541 232.807623 
L 472.590122 234.323125 
L 475.085651 235.894008 
L 478.785919 237.931286 
L 484.006451 240.831002 
L 486.473296 242.469608 
L 488.452508 244.047404 
L 490.159221 245.690222 
L 491.693828 247.47609 
L 493.12804 249.491895 
L 494.504883 251.820555 
L 495.881727 254.600598 
L 497.344623 258.075023 
L 499.194757 263.095655 
L 502.651208 272.555939 
L 503.884631 275.389839 
L 503.884631 275.389839 
" clip-path="url(#p4047fbe155)" style="fill: none; stroke: #1f77b4; stroke-width: 1.5; stroke-linecap: square"/>
   </g>
   <g id="patch_8">
    <path d="M 52.107813 333.826667 
L 52.107813 206.213333 
" style="fill: none; stroke: #000000; stroke-width: 0.8; stroke-linejoin: miter; stroke-linecap: square"/>
   </g>
   <g id="patch_9">
    <path d="M 525.397812 333.826667 
L 525.397812 206.213333 
" style="fill: none; stroke: #000000; stroke-width: 0.8; stroke-linejoin: miter; stroke-linecap: square"/>
   </g>
   <g id="patch_10">
    <path d="M 52.107813 333.826667 
L 525.397812 333.826667 
" style="fill: none; stroke: #000000; stroke-width: 0.8; stroke-linejoin: miter; stroke-linecap: square"/>
   </g>
   <g id="patch_11">
    <path d="M 52.107813 206.213333 
L 525.397812 206.213333 
" style="fill: none; stroke: #000000; stroke-width: 0.8; stroke-linejoin: miter; stroke-linecap: square"/>
   </g>
   <g id="text_14">
    <!-- USV heading -->
    <g transform="translate(248.8875 200.213333) scale(0.12 -0.12)">
     <use xlink:href="#DejaVuSerif-55"/>
     <use xlink:href="#DejaVuSerif-53" transform="translate(84.277344 0)"/>
     <use xlink:href="#DejaVuSerif-56" transform="translate(152.783203 0)"/>
     <use xlink:href="#DejaVuSerif-20" transform="translate(225 0)"/>
     <use xlink:href="#DejaVuSerif-68" transform="translate(256.787109 0)"/>
     <use xlink:href="#DejaVuSerif-65" transform="translate(321.191406 0)"/>
     <use xlink:href="#DejaVuSerif-61" transform="translate(380.371094 0)"/>
     <use xlink:href="#DejaVuSerif-64" transform="translate(439.990234 0)"/>
     <use xlink:href="#DejaVuSerif-69" transform="translate(504.003906 0)"/>
     <use xlink:href="#DejaVuSerif-6e" transform="translate(535.986328 0)"/>
     <use xlink:href="#DejaVuSerif-67" transform="translate(600.390625 0)"/>
    </g>
   </g>
  </g>
  <g id="axes_3">
   <g id="patch_12">
    <path d="M 52.107813 493.72 
L 525.397812 493.72 
L 525.397812 366.106667 
L 52.107813 366.106667 
z
" style="fill: #ffffff"/>
   </g>
   <g id="matplotlib.axis_5">
    <g id="xtick_15">
     <g id="line2d_51">
      <path d="M 73.620994 493.72 
L 73.620994 366.106667 
" clip-path="url(#pa065d434b3)" style="fill: none; stroke: #b0b0b0; stroke-opacity: 0.3; stroke-width: 0.8; stroke-linecap: square"/>
     </g>
     <g id="line2d_52">
      <g>
       <use xlink:href="#m5e1e44c8f8" x="73.620994" y="493.72" style="stroke: #000000; stroke-width: 0.8"/>
      </g>
     </g>
     <g id="text_15">
      <!-- $\mathdefault{0}$ -->
      <g transform="translate(70.420994 508.318438) scale(0.1 -0.1)">
       <use xlink:href="#DejaVuSerif-30" transform="translate(0 0.78125)"/>
      </g>
     </g>
    </g>
    <g id="xtick_16">
     <g id="line2d_53">
      <path d="M 145.3316 493.72 
L 145.3316 366.106667 
" clip-path="url(#pa065d434b3)" style="fill: none; stroke: #b0b0b0; stroke-opacity: 0.3; stroke-width: 0.8; stroke-linecap: square"/>
     </g>
     <g id="line2d_54">
      <g>
       <use xlink:href="#m5e1e44c8f8" x="145.3316" y="493.72" style="stroke: #000000; stroke-width: 0.8"/>
      </g>
     </g>
     <g id="text_16">
      <!-- $\mathdefault{50}$ -->
      <g transform="translate(138.9316 508.318438) scale(0.1 -0.1)">
       <defs>
        <path id="DejaVuSerif-35" d="M 3219 4666 
L 3219 4153 
L 1081 4153 
L 1081 2816 
Q 1244 2928 1461 2984 
Q 1678 3041 1947 3041 
Q 2703 3041 3140 2622 
Q 3578 2203 3578 1478 
Q 3578 738 3136 323 
Q 2694 -91 1894 -91 
Q 1572 -91 1234 -12 
Q 897 66 544 225 
L 544 1131 
L 897 1131 
Q 925 688 1179 453 
Q 1434 219 1894 219 
Q 2388 219 2653 544 
Q 2919 869 2919 1478 
Q 2919 2084 2655 2407 
Q 2391 2731 1894 2731 
Q 1613 2731 1398 2631 
Q 1184 2531 1019 2322 
L 750 2322 
L 750 4666 
L 3219 4666 
z
" transform="scale(0.015625)"/>
       </defs>
       <use xlink:href="#DejaVuSerif-35" transform="translate(0 0.78125)"/>
       <use xlink:href="#DejaVuSerif-30" transform="translate(63.623047 0.78125)"/>
      </g>
     </g>
    </g>
    <g id="xtick_17">
     <g id="line2d_55">
      <path d="M 217.042206 493.72 
L 217.042206 366.106667 
" clip-path="url(#pa065d434b3)" style="fill: none; stroke: #b0b0b0; stroke-opacity: 0.3; stroke-width: 0.8; stroke-linecap: square"/>
     </g>
     <g id="line2d_56">
      <g>
       <use xlink:href="#m5e1e44c8f8" x="217.042206" y="493.72" style="stroke: #000000; stroke-width: 0.8"/>
      </g>
     </g>
     <g id="text_17">
      <!-- $\mathdefault{100}$ -->
      <g transform="translate(207.492206 508.318438) scale(0.1 -0.1)">
       <use xlink:href="#DejaVuSerif-31" transform="translate(0 0.78125)"/>
       <use xlink:href="#DejaVuSerif-30" transform="translate(63.623047 0.78125)"/>
       <use xlink:href="#DejaVuSerif-30" transform="translate(127.246094 0.78125)"/>
      </g>
     </g>
    </g>
    <g id="xtick_18">
     <g id="line2d_57">
      <path d="M 288.752813 493.72 
L 288.752813 366.106667 
" clip-path="url(#pa065d434b3)" style="fill: none; stroke: #b0b0b0; stroke-opacity: 0.3; stroke-width: 0.8; stroke-linecap: square"/>
     </g>
     <g id="line2d_58">
      <g>
       <use xlink:href="#m5e1e44c8f8" x="288.752813" y="493.72" style="stroke: #000000; stroke-width: 0.8"/>
      </g>
     </g>
     <g id="text_18">
      <!-- $\mathdefault{150}$ -->
      <g transform="translate(279.202812 508.318438) scale(0.1 -0.1)">
       <use xlink:href="#DejaVuSerif-31" transform="translate(0 0.78125)"/>
       <use xlink:href="#DejaVuSerif-35" transform="translate(63.623047 0.78125)"/>
       <use xlink:href="#DejaVuSerif-30" transform="translate(127.246094 0.78125)"/>
      </g>
     </g>
    </g>
    <g id="xtick_19">
     <g id="line2d_59">
      <path d="M 360.463419 493.72 
L 360.463419 366.106667 
" clip-path="url(#pa065d434b3)" style="fill: none; stroke: #b0b0b0; stroke-opacity: 0.3; stroke-width: 0.8; stroke-linecap: square"/>
     </g>
     <g id="line2d_60">
      <g>
       <use xlink:href="#m5e1e44c8f8" x="360.463419" y="493.72" style="stroke: #000000; stroke-width: 0.8"/>
      </g>
     </g>
     <g id="text_19">
      <!-- $\mathdefault{200}$ -->
      <g transform="translate(350.913419 508.318438) scale(0.1 -0.1)">
       <use xlink:href="#DejaVuSerif-32" transform="translate(0 0.78125)"/>
       <use xlink:href="#DejaVuSerif-30" transform="translate(63.623047 0.78125)"/>
       <use xlink:href="#DejaVuSerif-30" transform="translate(127.246094 0.78125)"/>
      </g>
     </g>
    </g>
    <g id="xtick_20">
     <g id="line2d_61">
      <path d="M 432.174025 493.72 
L 432.174025 366.106667 
" clip-path="url(#pa065d434b3)" style="fill: none; stroke: #b0b0b0; stroke-opacity: 0.3; stroke-width: 0.8; stroke-linecap: square"/>
     </g>
     <g id="line2d_62">
      <g>
       <use xlink:href="#m5e1e44c8f8" x="432.174025" y="493.72" style="stroke: #000000; stroke-width: 0.8"/>
      </g>
     </g>
     <g id="text_20">
      <!-- $\mathdefault{250}$ -->
      <g transform="translate(422.624025 508.318438) scale(0.1 -0.1)">
       <use xlink:href="#DejaVuSerif-32" transform="translate(0 0.78125)"/>
       <use xlink:href="#DejaVuSerif-35" transform="translate(63.623047 0.78125)"/>
       <use xlink:href="#DejaVuSerif-30" transform="translate(127.246094 0.78125)"/>
      </g>
     </g>
    </g>
    <g id="xtick_21">
     <g id="line2d_63">
      <path d="M 503.884631 493.72 
L 503.884631 366.106667 
" clip-path="url(#pa065d434b3)" style="fill: none; stroke: #b0b0b0; stroke-opacity: 0.3; stroke-width: 0.8; stroke-linecap: square"/>
     </g>
     <g id="line2d_64">
      <g>
       <use xlink:href="#m5e1e44c8f8" x="503.884631" y="493.72" style="stroke: #000000; stroke-width: 0.8"/>
      </g>
     </g>
     <g id="text_21">
      <!-- $\mathdefault{300}$ -->
      <g transform="translate(494.334631 508.318438) scale(0.1 -0.1)">
       <use xlink:href="#DejaVuSerif-33" transform="translate(0 0.78125)"/>
       <use xlink:href="#DejaVuSerif-30" transform="translate(63.623047 0.78125)"/>
       <use xlink:href="#DejaVuSerif-30" transform="translate(127.246094 0.78125)"/>
      </g>
     </g>
    </g>
    <g id="text_22">
     <!-- Time [s] -->
     <g transform="translate(268.061406 521.996562) scale(0.1 -0.1)">
      <defs>
       <path id="DejaVuSerif-54" d="M 1222 0 
L 1222 331 
L 1819 331 
L 1819 4294 
L 447 4294 
L 447 3566 
L 63 3566 
L 63 4666 
L 4206 4666 
L 4206 3566 
L 3822 3566 
L 3822 4294 
L 2450 4294 
L 2450 331 
L 3047 331 
L 3047 0 
L 1222 0 
z
" transform="scale(0.015625)"/>
       <path id="DejaVuSerif-73" d="M 359 184 
L 359 959 
L 691 959 
Q 703 588 923 403 
Q 1144 219 1575 219 
Q 1963 219 2166 364 
Q 2369 509 2369 788 
Q 2369 1006 2220 1140 
Q 2072 1275 1594 1428 
L 1178 1569 
Q 750 1706 558 1912 
Q 366 2119 366 2438 
Q 366 2894 700 3153 
Q 1034 3413 1625 3413 
Q 1888 3413 2178 3344 
Q 2469 3275 2778 3144 
L 2778 2419 
L 2447 2419 
Q 2434 2741 2221 2922 
Q 2009 3103 1644 3103 
Q 1281 3103 1095 2975 
Q 909 2847 909 2591 
Q 909 2381 1050 2254 
Q 1191 2128 1613 1997 
L 2069 1856 
Q 2541 1709 2748 1489 
Q 2956 1269 2956 922 
Q 2956 450 2595 179 
Q 2234 -91 1600 -91 
Q 1278 -91 972 -22 
Q 666 47 359 184 
z
" transform="scale(0.015625)"/>
      </defs>
      <use xlink:href="#DejaVuSerif-54"/>
      <use xlink:href="#DejaVuSerif-69" transform="translate(66.699219 0)"/>
      <use xlink:href="#DejaVuSerif-6d" transform="translate(98.681641 0)"/>
      <use xlink:href="#DejaVuSerif-65" transform="translate(193.505859 0)"/>
      <use xlink:href="#DejaVuSerif-20" transform="translate(252.685547 0)"/>
      <use xlink:href="#DejaVuSerif-5b" transform="translate(284.472656 0)"/>
      <use xlink:href="#DejaVuSerif-73" transform="translate(323.486328 0)"/>
      <use xlink:href="#DejaVuSerif-5d" transform="translate(374.804688 0)"/>
     </g>
    </g>
   </g>
   <g id="matplotlib.axis_6">
    <g id="ytick_11">
     <g id="line2d_65">
      <path d="M 52.107813 470.879053 
L 525.397812 470.879053 
" clip-path="url(#pa065d434b3)" style="fill: none; stroke: #b0b0b0; stroke-opacity: 0.3; stroke-width: 0.8; stroke-linecap: square"/>
     </g>
     <g id="line2d_66">
      <g>
       <use xlink:href="#me76f2197cc" x="52.107813" y="470.879053" style="stroke: #000000; stroke-width: 0.8"/>
      </g>
     </g>
     <g id="text_23">
      <!-- $\mathdefault{20}$ -->
      <g transform="translate(32.307813 474.678272) scale(0.1 -0.1)">
       <use xlink:href="#DejaVuSerif-32" transform="translate(0 0.78125)"/>
       <use xlink:href="#DejaVuSerif-30" transform="translate(63.623047 0.78125)"/>
      </g>
     </g>
    </g>
    <g id="ytick_12">
     <g id="line2d_67">
      <path d="M 52.107813 447.672861 
L 525.397812 447.672861 
" clip-path="url(#pa065d434b3)" style="fill: none; stroke: #b0b0b0; stroke-opacity: 0.3; stroke-width: 0.8; stroke-linecap: square"/>
     </g>
     <g id="line2d_68">
      <g>
       <use xlink:href="#me76f2197cc" x="52.107813" y="447.672861" style="stroke: #000000; stroke-width: 0.8"/>
      </g>
     </g>
     <g id="text_24">
      <!-- $\mathdefault{30}$ -->
      <g transform="translate(32.307813 451.47208) scale(0.1 -0.1)">
       <use xlink:href="#DejaVuSerif-33" transform="translate(0 0.78125)"/>
       <use xlink:href="#DejaVuSerif-30" transform="translate(63.623047 0.78125)"/>
      </g>
     </g>
    </g>
    <g id="ytick_13">
     <g id="line2d_69">
      <path d="M 52.107813 424.466669 
L 525.397812 424.466669 
" clip-path="url(#pa065d434b3)" style="fill: none; stroke: #b0b0b0; stroke-opacity: 0.3; stroke-width: 0.8; stroke-linecap: square"/>
     </g>
     <g id="line2d_70">
      <g>
       <use xlink:href="#me76f2197cc" x="52.107813" y="424.466669" style="stroke: #000000; stroke-width: 0.8"/>
      </g>
     </g>
     <g id="text_25">
      <!-- $\mathdefault{40}$ -->
      <g transform="translate(32.307813 428.265887) scale(0.1 -0.1)">
       <defs>
        <path id="DejaVuSerif-34" d="M 2234 1581 
L 2234 4063 
L 641 1581 
L 2234 1581 
z
M 3609 0 
L 1484 0 
L 1484 331 
L 2234 331 
L 2234 1247 
L 197 1247 
L 197 1588 
L 2241 4750 
L 2859 4750 
L 2859 1581 
L 3750 1581 
L 3750 1247 
L 2859 1247 
L 2859 331 
L 3609 331 
L 3609 0 
z
" transform="scale(0.015625)"/>
       </defs>
       <use xlink:href="#DejaVuSerif-34" transform="translate(0 0.78125)"/>
       <use xlink:href="#DejaVuSerif-30" transform="translate(63.623047 0.78125)"/>
      </g>
     </g>
    </g>
    <g id="ytick_14">
     <g id="line2d_71">
      <path d="M 52.107813 401.260476 
L 525.397812 401.260476 
" clip-path="url(#pa065d434b3)" style="fill: none; stroke: #b0b0b0; stroke-opacity: 0.3; stroke-width: 0.8; stroke-linecap: square"/>
     </g>
     <g id="line2d_72">
      <g>
       <use xlink:href="#me76f2197cc" x="52.107813" y="401.260476" style="stroke: #000000; stroke-width: 0.8"/>
      </g>
     </g>
     <g id="text_26">
      <!-- $\mathdefault{50}$ -->
      <g transform="translate(32.307813 405.059695) scale(0.1 -0.1)">
       <use xlink:href="#DejaVuSerif-35" transform="translate(0 0.78125)"/>
       <use xlink:href="#DejaVuSerif-30" transform="translate(63.623047 0.78125)"/>
      </g>
     </g>
    </g>
    <g id="ytick_15">
     <g id="line2d_73">
      <path d="M 52.107813 378.054284 
L 525.397812 378.054284 
" clip-path="url(#pa065d434b3)" style="fill: none; stroke: #b0b0b0; stroke-opacity: 0.3; stroke-width: 0.8; stroke-linecap: square"/>
     </g>
     <g id="line2d_74">
      <g>
       <use xlink:href="#me76f2197cc" x="52.107813" y="378.054284" style="stroke: #000000; stroke-width: 0.8"/>
      </g>
     </g>
     <g id="text_27">
      <!-- $\mathdefault{60}$ -->
      <g transform="translate(32.307813 381.853503) scale(0.1 -0.1)">
       <use xlink:href="#DejaVuSerif-36" transform="translate(0 0.78125)"/>
       <use xlink:href="#DejaVuSerif-30" transform="translate(63.623047 0.78125)"/>
      </g>
     </g>
    </g>
    <g id="text_28">
     <!-- Slant range [m] -->
     <g transform="translate(26.085938 469.721146) rotate(-90) scale(0.1 -0.1)">
      <defs>
       <path id="DejaVuSerif-72" d="M 3059 3328 
L 3059 2497 
L 2728 2497 
Q 2713 2744 2591 2866 
Q 2469 2988 2234 2988 
Q 1809 2988 1582 2694 
Q 1356 2400 1356 1850 
L 1356 331 
L 2022 331 
L 2022 0 
L 263 0 
L 263 331 
L 781 331 
L 781 2994 
L 231 2994 
L 231 3322 
L 1356 3322 
L 1356 2731 
Q 1525 3078 1790 3245 
Q 2056 3413 2438 3413 
Q 2578 3413 2733 3391 
Q 2888 3369 3059 3328 
z
" transform="scale(0.015625)"/>
      </defs>
      <use xlink:href="#DejaVuSerif-53"/>
      <use xlink:href="#DejaVuSerif-6c" transform="translate(68.505859 0)"/>
      <use xlink:href="#DejaVuSerif-61" transform="translate(100.488281 0)"/>
      <use xlink:href="#DejaVuSerif-6e" transform="translate(160.107422 0)"/>
      <use xlink:href="#DejaVuSerif-74" transform="translate(224.511719 0)"/>
      <use xlink:href="#DejaVuSerif-20" transform="translate(264.697266 0)"/>
      <use xlink:href="#DejaVuSerif-72" transform="translate(296.484375 0)"/>
      <use xlink:href="#DejaVuSerif-61" transform="translate(344.287109 0)"/>
      <use xlink:href="#DejaVuSerif-6e" transform="translate(403.90625 0)"/>
      <use xlink:href="#DejaVuSerif-67" transform="translate(468.310547 0)"/>
      <use xlink:href="#DejaVuSerif-65" transform="translate(532.324219 0)"/>
      <use xlink:href="#DejaVuSerif-20" transform="translate(591.503906 0)"/>
      <use xlink:href="#DejaVuSerif-5b" transform="translate(623.291016 0)"/>
      <use xlink:href="#DejaVuSerif-6d" transform="translate(662.304688 0)"/>
      <use xlink:href="#DejaVuSerif-5d" transform="translate(757.128906 0)"/>
     </g>
    </g>
   </g>
   <g id="line2d_75">
    <path d="M 73.620994 479.230453 
L 75.155601 482.632458 
L 76.389024 484.859794 
L 77.435999 486.31514 
L 78.339552 487.208668 
L 79.142711 487.703335 
L 79.888501 487.906102 
L 80.605607 487.872511 
L 81.351398 487.61175 
L 82.168899 487.08331 
L 83.115479 486.194119 
L 84.262848 484.791094 
L 85.740087 482.605439 
L 88.006142 478.801746 
L 92.767726 470.760559 
L 95.134176 467.247801 
L 97.371547 464.320275 
L 99.694971 461.647703 
L 102.549053 458.723233 
L 108.156822 453.052694 
L 110.394193 450.404239 
L 112.488143 447.575869 
L 114.610777 444.325822 
L 116.919858 440.368893 
L 119.716572 435.106235 
L 128.436582 418.349535 
L 130.487505 415.082962 
L 132.237244 412.698703 
L 133.771851 410.966633 
L 135.163036 409.71938 
L 136.439485 408.866176 
L 137.615539 408.340185 
L 138.734225 408.080241 
L 139.809884 408.057155 
L 140.871201 408.256064 
L 141.94686 408.68436 
L 143.065545 409.372214 
L 144.255941 410.373771 
L 145.518048 411.734301 
L 146.880549 413.538292 
L 148.37213 415.894683 
L 150.021474 418.933875 
L 151.857266 422.799397 
L 153.994242 427.842555 
L 156.661876 434.747515 
L 164.922938 456.565055 
L 166.773072 460.592601 
L 168.336363 463.486416 
L 169.698864 465.559682 
L 170.917945 467.026174 
L 172.03663 468.035242 
L 173.083605 468.686585 
L 174.087553 469.052093 
L 175.07716 469.177227 
L 176.09545 469.081318 
L 177.199794 468.747323 
L 178.433216 468.132217 
L 179.88177 467.147728 
L 181.674536 465.644735 
L 184.198749 463.212463 
L 189.620071 457.595982 
L 194.424681 452.39058 
L 197.207053 449.045573 
L 199.616529 445.800645 
L 201.954295 442.272042 
L 204.378113 438.199409 
L 207.131801 433.116584 
L 211.090226 425.281318 
L 215.737073 416.192858 
L 218.189576 411.886254 
L 220.183131 408.818193 
L 221.904186 406.562503 
L 223.438793 404.905658 
L 224.829978 403.721696 
L 226.106427 402.919825 
L 227.296823 402.428944 
L 228.429851 402.199358 
L 229.534194 402.203018 
L 230.624195 402.428911 
L 231.742881 402.890437 
L 232.904593 403.613672 
L 234.152357 404.661584 
L 235.486174 406.081316 
L 236.949071 407.974705 
L 238.56973 410.448453 
L 240.434206 413.719267 
L 242.700261 418.171724 
L 246.472239 426.170572 
L 249.613164 432.608257 
L 251.535008 436.061732 
L 253.083957 438.41292 
L 254.417774 440.050537 
L 255.593828 441.155124 
L 256.655145 441.856427 
L 257.630409 442.242791 
L 258.562647 442.377163 
L 259.480543 442.286079 
L 260.427123 441.965421 
L 261.431072 441.384604 
L 262.535415 440.478535 
L 263.768837 439.16759 
L 265.188707 437.321395 
L 266.89542 434.718535 
L 269.089764 430.93775 
L 272.718321 424.169235 
L 277.766748 414.850255 
L 281.079778 409.217231 
L 284.392808 404.024434 
L 288.222154 398.449837 
L 293.758213 390.82199 
L 299.509403 383.228843 
L 302.736381 379.312916 
L 305.145857 376.724033 
L 307.12507 374.910543 
L 308.831782 373.635607 
L 310.352047 372.766998 
L 311.743233 372.222308 
L 313.034024 371.952551 
L 314.253104 371.922545 
L 315.4435 372.11718 
L 316.619554 372.537691 
L 317.80995 373.20364 
L 319.02903 374.144069 
L 320.305479 375.415433 
L 321.653639 377.081135 
L 323.087851 379.218776 
L 324.622458 381.920084 
L 326.271802 385.28949 
L 328.064567 389.476053 
L 330.029437 394.647655 
L 332.238124 401.108465 
L 334.834048 409.421026 
L 338.304841 421.346653 
L 344.973928 444.379711 
L 347.412088 451.907721 
L 349.405643 457.369327 
L 351.126698 461.465247 
L 352.675647 464.603685 
L 354.109859 467.025852 
L 355.458018 468.88214 
L 356.763151 470.312214 
L 358.068284 471.417189 
L 359.416444 472.268143 
L 360.893682 472.934349 
L 362.700789 473.493191 
L 370.158692 475.523318 
L 372.424748 476.555876 
L 375.594356 478.279627 
L 378.534491 479.796803 
L 380.183835 480.402566 
L 381.531995 480.669574 
L 382.736733 480.686152 
L 383.86976 480.481176 
L 384.988446 480.051582 
L 386.135816 479.369021 
L 387.354896 478.379299 
L 388.703055 476.988086 
L 390.252004 475.054537 
L 392.145164 472.314262 
L 394.984904 467.761053 
L 399.201488 461.046144 
L 401.324122 458.096195 
L 403.088203 456.009466 
L 404.651494 454.492701 
L 406.071364 453.415528 
L 407.390839 452.687057 
L 408.638604 452.247671 
L 409.843342 452.055988 
L 411.04808 452.09076 
L 412.26716 452.349912 
L 413.557951 452.857092 
L 414.949137 453.649087 
L 416.52677 454.812598 
L 418.477299 456.544795 
L 424.228489 461.844227 
L 425.562307 462.664253 
L 426.680992 463.102423 
L 427.684941 463.262427 
L 428.617179 463.188549 
L 429.535074 462.88968 
L 430.467312 462.345581 
L 431.442576 461.51185 
L 432.503893 460.299847 
L 433.679947 458.600873 
L 434.999422 456.28477 
L 436.534029 453.117498 
L 438.398505 448.726166 
L 440.908376 442.195852 
L 448.43799 422.252238 
L 450.732729 416.98714 
L 452.740626 412.918682 
L 454.562076 409.716793 
L 456.240104 407.203238 
L 457.817737 405.230324 
L 459.309318 403.711956 
L 460.74353 402.56294 
L 462.134716 401.728386 
L 463.511559 401.159172 
L 464.902745 400.82514 
L 466.336957 400.711838 
L 467.857222 400.818912 
L 469.520908 401.165038 
L 471.414068 401.793626 
L 473.72315 402.806314 
L 477.007496 404.513342 
L 485.913953 409.495454 
L 489.054877 411.469892 
L 491.363959 413.179427 
L 493.371856 414.941338 
L 495.236332 416.875586 
L 497.029097 419.059737 
L 498.80752 421.583751 
L 500.600285 424.522462 
L 502.436076 427.966338 
L 503.884631 431.002059 
L 503.884631 431.002059 
" clip-path="url(#pa065d434b3)" style="fill: none; stroke: #ff7f0e; stroke-width: 1.5; stroke-linecap: square"/>
   </g>
   <g id="patch_13">
    <path d="M 52.107813 493.72 
L 52.107813 366.106667 
" style="fill: none; stroke: #000000; stroke-width: 0.8; stroke-linejoin: miter; stroke-linecap: square"/>
   </g>
   <g id="patch_14">
    <path d="M 525.397812 493.72 
L 525.397812 366.106667 
" style="fill: none; stroke: #000000; stroke-width: 0.8; stroke-linejoin: miter; stroke-linecap: square"/>
   </g>
   <g id="patch_15">
    <path d="M 52.107813 493.72 
L 525.397812 493.72 
" style="fill: none; stroke: #000000; stroke-width: 0.8; stroke-linejoin: miter; stroke-linecap: square"/>
   </g>
   <g id="patch_16">
    <path d="M 52.107813 366.106667 
L 525.397812 366.106667 
" style="fill: none; stroke: #000000; stroke-width: 0.8; stroke-linejoin: miter; stroke-linecap: square"/>
   </g>
   <g id="text_29">
    <!-- USV-UUV slant range -->
    <g transform="translate(222.959063 360.106667) scale(0.12 -0.12)">
     <defs>
      <path id="DejaVuSerif-2d" d="M 281 1959 
L 1881 1959 
L 1881 1472 
L 281 1472 
L 281 1959 
z
" transform="scale(0.015625)"/>
     </defs>
     <use xlink:href="#DejaVuSerif-55"/>
     <use xlink:href="#DejaVuSerif-53" transform="translate(84.277344 0)"/>
     <use xlink:href="#DejaVuSerif-56" transform="translate(152.783203 0)"/>
     <use xlink:href="#DejaVuSerif-2d" transform="translate(215.875 0)"/>
     <use xlink:href="#DejaVuSerif-55" transform="translate(249.664062 0)"/>
     <use xlink:href="#DejaVuSerif-55" transform="translate(333.941406 0)"/>
     <use xlink:href="#DejaVuSerif-56" transform="translate(418.21875 0)"/>
     <use xlink:href="#DejaVuSerif-20" transform="translate(490.435547 0)"/>
     <use xlink:href="#DejaVuSerif-73" transform="translate(522.222656 0)"/>
     <use xlink:href="#DejaVuSerif-6c" transform="translate(573.541016 0)"/>
     <use xlink:href="#DejaVuSerif-61" transform="translate(605.523438 0)"/>
     <use xlink:href="#DejaVuSerif-6e" transform="translate(665.142578 0)"/>
     <use xlink:href="#DejaVuSerif-74" transform="translate(729.546875 0)"/>
     <use xlink:href="#DejaVuSerif-20" transform="translate(769.732422 0)"/>
     <use xlink:href="#DejaVuSerif-72" transform="translate(801.519531 0)"/>
     <use xlink:href="#DejaVuSerif-61" transform="translate(849.322266 0)"/>
     <use xlink:href="#DejaVuSerif-6e" transform="translate(908.941406 0)"/>
     <use xlink:href="#DejaVuSerif-67" transform="translate(973.345703 0)"/>
     <use xlink:href="#DejaVuSerif-65" transform="translate(1037.359375 0)"/>
    </g>
   </g>
  </g>
  <g id="text_30">
   <!-- Measurement geometry of Circular/Figure-8 -->
   <g transform="translate(107.928906 17.837812) scale(0.14 -0.14)">
    <defs>
     <path id="DejaVuSerif-4d" d="M 353 0 
L 353 331 
L 947 331 
L 947 4331 
L 319 4331 
L 319 4666 
L 1678 4666 
L 3316 1344 
L 4953 4666 
L 6228 4666 
L 6228 4331 
L 5606 4331 
L 5606 331 
L 6203 331 
L 6203 0 
L 4378 0 
L 4378 331 
L 4972 331 
L 4972 3938 
L 3372 684 
L 2931 684 
L 1331 3938 
L 1331 331 
L 1925 331 
L 1925 0 
L 353 0 
z
" transform="scale(0.015625)"/>
     <path id="DejaVuSerif-79" d="M 1381 -609 
L 1600 -56 
L 359 2988 
L -19 2988 
L -19 3322 
L 1509 3322 
L 1509 2988 
L 978 2988 
L 1913 703 
L 2847 2988 
L 2350 2988 
L 2350 3322 
L 3597 3322 
L 3597 2988 
L 3225 2988 
L 1703 -750 
Q 1547 -1138 1356 -1280 
Q 1166 -1422 819 -1422 
Q 672 -1422 517 -1397 
Q 363 -1372 206 -1325 
L 206 -691 
L 500 -691 
Q 519 -903 608 -995 
Q 697 -1088 884 -1088 
Q 1056 -1088 1161 -992 
Q 1266 -897 1381 -609 
z
" transform="scale(0.015625)"/>
     <path id="DejaVuSerif-66" d="M 2753 4078 
L 2450 4078 
Q 2447 4313 2317 4434 
Q 2188 4556 1941 4556 
Q 1619 4556 1487 4379 
Q 1356 4203 1356 3750 
L 1356 3322 
L 2284 3322 
L 2284 2988 
L 1356 2988 
L 1356 331 
L 2094 331 
L 2094 0 
L 231 0 
L 231 331 
L 781 331 
L 781 2988 
L 231 2988 
L 231 3322 
L 781 3322 
L 781 3738 
Q 781 4294 1070 4578 
Q 1359 4863 1919 4863 
Q 2128 4863 2337 4825 
Q 2547 4788 2753 4709 
L 2753 4078 
z
" transform="scale(0.015625)"/>
     <path id="DejaVuSerif-43" d="M 4513 1234 
Q 4306 581 3820 245 
Q 3334 -91 2591 -91 
Q 2134 -91 1743 65 
Q 1353 222 1050 525 
Q 700 875 529 1320 
Q 359 1766 359 2328 
Q 359 3416 987 4083 
Q 1616 4750 2644 4750 
Q 3025 4750 3456 4650 
Q 3888 4550 4384 4347 
L 4384 3272 
L 4031 3272 
Q 3916 3859 3567 4137 
Q 3219 4416 2591 4416 
Q 1844 4416 1459 3886 
Q 1075 3356 1075 2328 
Q 1075 1303 1459 773 
Q 1844 244 2591 244 
Q 3113 244 3450 492 
Q 3788 741 3938 1234 
L 4513 1234 
z
" transform="scale(0.015625)"/>
     <path id="DejaVuSerif-63" d="M 3291 997 
Q 3169 466 2822 187 
Q 2475 -91 1925 -91 
Q 1200 -91 759 389 
Q 319 869 319 1663 
Q 319 2459 759 2936 
Q 1200 3413 1925 3413 
Q 2241 3413 2553 3339 
Q 2866 3266 3181 3116 
L 3181 2266 
L 2847 2266 
Q 2781 2703 2561 2903 
Q 2341 3103 1931 3103 
Q 1466 3103 1228 2742 
Q 991 2381 991 1663 
Q 991 944 1227 581 
Q 1463 219 1931 219 
Q 2303 219 2525 412 
Q 2747 606 2828 997 
L 3291 997 
z
" transform="scale(0.015625)"/>
     <path id="DejaVuSerif-2f" d="M 1656 4666 
L 2156 4666 
L 500 -594 
L 0 -594 
L 1656 4666 
z
" transform="scale(0.015625)"/>
     <path id="DejaVuSerif-46" d="M 353 0 
L 353 331 
L 947 331 
L 947 4331 
L 353 4331 
L 353 4666 
L 4172 4666 
L 4172 3628 
L 3788 3628 
L 3788 4281 
L 1581 4281 
L 1581 2719 
L 3175 2719 
L 3175 3303 
L 3559 3303 
L 3559 1753 
L 3175 1753 
L 3175 2338 
L 1581 2338 
L 1581 331 
L 2328 331 
L 2328 0 
L 353 0 
z
" transform="scale(0.015625)"/>
    </defs>
    <use xlink:href="#DejaVuSerif-4d"/>
    <use xlink:href="#DejaVuSerif-65" transform="translate(102.392578 0)"/>
    <use xlink:href="#DejaVuSerif-61" transform="translate(161.572266 0)"/>
    <use xlink:href="#DejaVuSerif-73" transform="translate(221.191406 0)"/>
    <use xlink:href="#DejaVuSerif-75" transform="translate(272.509766 0)"/>
    <use xlink:href="#DejaVuSerif-72" transform="translate(336.914062 0)"/>
    <use xlink:href="#DejaVuSerif-65" transform="translate(384.716797 0)"/>
    <use xlink:href="#DejaVuSerif-6d" transform="translate(443.896484 0)"/>
    <use xlink:href="#DejaVuSerif-65" transform="translate(538.720703 0)"/>
    <use xlink:href="#DejaVuSerif-6e" transform="translate(597.900391 0)"/>
    <use xlink:href="#DejaVuSerif-74" transform="translate(662.304688 0)"/>
    <use xlink:href="#DejaVuSerif-20" transform="translate(702.490234 0)"/>
    <use xlink:href="#DejaVuSerif-67" transform="translate(734.277344 0)"/>
    <use xlink:href="#DejaVuSerif-65" transform="translate(798.291016 0)"/>
    <use xlink:href="#DejaVuSerif-6f" transform="translate(857.470703 0)"/>
    <use xlink:href="#DejaVuSerif-6d" transform="translate(917.675781 0)"/>
    <use xlink:href="#DejaVuSerif-65" transform="translate(1012.5 0)"/>
    <use xlink:href="#DejaVuSerif-74" transform="translate(1071.679688 0)"/>
    <use xlink:href="#DejaVuSerif-72" transform="translate(1111.865234 0)"/>
    <use xlink:href="#DejaVuSerif-79" transform="translate(1159.667969 0)"/>
    <use xlink:href="#DejaVuSerif-20" transform="translate(1216.162109 0)"/>
    <use xlink:href="#DejaVuSerif-6f" transform="translate(1247.949219 0)"/>
    <use xlink:href="#DejaVuSerif-66" transform="translate(1308.154297 0)"/>
    <use xlink:href="#DejaVuSerif-20" transform="translate(1345.166016 0)"/>
    <use xlink:href="#DejaVuSerif-43" transform="translate(1376.953125 0)"/>
    <use xlink:href="#DejaVuSerif-69" transform="translate(1453.466797 0)"/>
    <use xlink:href="#DejaVuSerif-72" transform="translate(1485.449219 0)"/>
    <use xlink:href="#DejaVuSerif-63" transform="translate(1533.251953 0)"/>
    <use xlink:href="#DejaVuSerif-75" transform="translate(1589.257812 0)"/>
    <use xlink:href="#DejaVuSerif-6c" transform="translate(1653.662109 0)"/>
    <use xlink:href="#DejaVuSerif-61" transform="translate(1685.644531 0)"/>
    <use xlink:href="#DejaVuSerif-72" transform="translate(1745.263672 0)"/>
    <use xlink:href="#DejaVuSerif-2f" transform="translate(1793.066406 0)"/>
    <use xlink:href="#DejaVuSerif-46" transform="translate(1826.757812 0)"/>
    <use xlink:href="#DejaVuSerif-69" transform="translate(1896.142578 0)"/>
    <use xlink:href="#DejaVuSerif-67" transform="translate(1928.125 0)"/>
    <use xlink:href="#DejaVuSerif-75" transform="translate(1992.138672 0)"/>
    <use xlink:href="#DejaVuSerif-72" transform="translate(2056.542969 0)"/>
    <use xlink:href="#DejaVuSerif-65" transform="translate(2104.345703 0)"/>
    <use xlink:href="#DejaVuSerif-2d" transform="translate(2163.525391 0)"/>
    <use xlink:href="#DejaVuSerif-38" transform="translate(2197.314453 0)"/>
   </g>
  </g>
 </g>
 <defs>
  <clipPath id="p783237c7f1">
   <rect x="52.107813" y="46.32" width="473.29" height="127.613333"/>
  </clipPath>
  <clipPath id="p4047fbe155">
   <rect x="52.107813" y="206.213333" width="473.29" height="127.613333"/>
  </clipPath>
  <clipPath id="pa065d434b3">
   <rect x="52.107813" y="366.106667" width="473.29" height="127.613333"/>
  </clipPath>
 </defs>
</svg>
